<?xml version="1.0" encoding="utf-8"?>
<!-- Generator: Adobe Illustrator 23.0.5, SVG Export Plug-In . SVG Version: 6.00 Build 0)  -->
<svg version="1.1" id="Capa_1" xmlns:v="https://vecta.io/nano"
	 xmlns="http://www.w3.org/2000/svg" xmlns:xlink="http://www.w3.org/1999/xlink" x="0px" y="0px" viewBox="0 0 355.7 140.5"
	 style="enable-background:new 0 0 355.7 140.5;" xml:space="preserve">
<style type="text/css">
	.st0{fill:#047B8B;}
	.st1{fill:#010001;}
	.st2{fill:#FFFFFF;}
	.st3{fill:#8F908F;}
	.st4{fill:#FDFEFD;}
	.st5{fill:#3F7C8C;}
	.st6{fill:#A95053;}
	.st7{fill:#3F7C8B;}
	.st8{fill:#6D3832;}
	.st9{fill:#D9D6CF;}
	.st10{fill:#909190;}
	.st11{fill:#90908F;}
	.st12{fill:#40413F;}
	.st13{fill:#629751;}
	.st14{fill:#90918F;}
	.st15{fill:#D1902C;}
	.st16{fill:#2B525C;}
	.st17{fill:#696868;}
	.st18{fill:#CBD1CF;}
	.st19{fill:#AFA99A;}
	.st20{fill:#8F9190;}
	.st21{fill:#C56222;}
	.st22{fill:#F2A12F;}
</style>
<path class="st0" d="M126.1,37.7L65.9,2.2c-1.5-0.9-3.3-0.9-4.7,0L0.9,37.7l5.7,7.5l10.2-6v75.2c0,2.5,2,4.5,4.5,4.5c0,0,0,0,0,0
	H105c2.5,0,4.5-2,4.5-4.5c0,0,0,0,0,0V38.8l9.7,5.7c0.6,0.4,1.4,0.2,1.9-0.4C121.1,44.1,126.1,37.7,126.1,37.7z"/>
<path class="st1" d="M85.4,139.3h-1.1c-1.2,0-2.5-0.1-3.7-0.5c-1.2-0.3-2.1-1-2.9-2.1c-0.5-0.8-0.8-1.5-0.9-2.3
	c0-0.4-0.1-0.7-0.2-0.9s-0.2-0.4-0.2-0.7c-0.3,0-0.8-0.2-1.1-0.5c-0.4-0.5-0.4-1.1-0.4-1.3v-0.2c-0.3,0.1-0.6,0.1-0.8,0.1
	c-0.4,0-0.8-0.1-1.2-0.3c-0.3,0.1-0.7,0.2-1,0.2c-0.4,0-0.7-0.1-1.1-0.2c-0.6,0.3-1.2,0.5-1.9,0.5c-0.5,0-0.9-0.1-1.3-0.3
	c-0.6,0.3-1.1,0.4-1.6,0.4s-0.9-0.1-1.4-0.3c-0.5,0.3-1.1,0.5-1.7,0.5c-0.3,0-0.6-0.1-0.9-0.2c0.1,0.4,0,0.9-0.5,1.4
	c-0.4,0.4-1,0.7-1.6,0.7c0,0.4,0.1,0.9,0.1,1.3c0,0.5-0.2,1.3-1,1.9c-1.4,1-3,1.7-5.1,2.1l-2.8,0.4h-0.5c-1.5,0-3-0.3-4.3-0.6
	c-1-0.2-1.8-0.7-2.5-1.5c-0.2,0.1-0.4,0.3-0.6,0.4c-0.7,0.3-1.5,0.5-2.2,0.5c-1,0-1.9-0.3-2.8-0.8s-1.6-1.3-2.3-2.4
	c-0.4-0.7-0.7-1.4-0.9-2.1l-0.3-0.9l-1-2.4l-0.9-2.1c-0.3-0.6-0.5-1.3-0.7-2.1c-0.4-1.4-0.1-2.9,0.8-4.2c0.6-0.9,1.5-1.4,2.6-1.4
	c0.4,0,0.8,0.1,1.2,0.2c0.1,0,0.2,0.1,0.2,0.1l1.2-0.6c-0.2-0.2-0.3-0.4-0.5-0.6c-0.2-0.4-0.2-1,0.1-1.4c0.1-0.2,0.2-0.3,0.2-0.4
	c-0.2-0.3-0.4-0.6-0.3-1.1c0-0.2,0.1-0.5,0.1-0.7l-0.1-0.1c-0.4-0.6-0.9-1.4-0.7-2.6c0.4-2.4,1-5,2.2-7.4c1-2.1,2.6-3.3,4.6-3.7
	c0.6-0.1,1.1-0.2,1.6-0.2c0.4,0,0.8,0,1.2,0.1c0-0.4,0.1-0.8,0.1-1.1l0.1-0.8c0.2-1.7,0.5-3.4,1.1-5.1c0.3-0.9,0.7-1.8,1.3-2.7
	c-0.8-0.4-1.5-1-2.2-1.7c-0.6-0.6-1.1-1.3-1.6-2c-0.5,0.4-1.1,0.6-1.8,0.6c-0.3,0-1,0-1.4-0.5c-0.4-0.4-0.4-1-0.3-1.4l0.3-1.3
	c0.3-0.6,0.4-1.3,0.4-2c-0.1,0.1-0.2,0.1-0.3,0.2c-0.3,0.2-0.7,0.3-1.1,0.4h-0.3c-0.5,0-0.9-0.2-1.2-0.6s-0.4-0.9-0.3-1.4
	c0-0.2,0.1-0.4,0.2-0.6c-0.3,0.1-0.7,0.2-1,0.2c-0.2,0-0.5,0-0.7-0.1L37.6,81l-0.2-0.2c-0.5-0.4-0.9-1.1-0.4-2.3l0.4-0.8l-1.5,1
	c-0.4,0.2-0.7,0.3-1,0.3h-0.1c-0.2,0-0.4,0.1-0.5,0.1c-0.5,0-1-0.2-1.3-0.6c-0.2-0.3-0.5-0.8-0.4-1.5c-0.3,0.1-0.5,0.1-0.7,0.1
	c-0.6,0-0.9-0.2-1.1-0.4c-0.4-0.5-0.5-1.1-0.5-1.6v-0.9c0.1-2.3-0.7-4.3-2.3-6.1l-0.3-0.4c0,0.1-0.1,0.1-0.1,0.2
	c-0.2,0.3-0.4,0.5-0.7,0.7s-0.6,0.3-0.9,0.3c-0.4,0-0.8-0.2-1.1-0.5c-0.3-0.3-0.4-0.8-0.4-1.2v-1.4c-0.1-1-0.5-2-1.3-3.3l-0.9-1.3
	l-1.4-2.1c-0.9-1.4-1.9-2.9-2.2-4.7c-0.4-2.1-0.1-3.8,0.8-5.2l0.1-0.1c0.5-0.8,1-1.7,1.7-2.5c1-1.2,2.2-2.1,3.6-2.7l3-1.3l2.1-1
	l4.8-2.3l2.5-1.3l1.3-0.7l1.4-0.7c0.5-0.2,1-0.3,1.5-0.3c0.7,0,1.4,0.2,2,0.7c0.2,0.1,0.4,0.3,0.6,0.4c0.1,0.1,0.2,0.2,0.4,0.3
	L45,38c0.1,0,0.3-0.1,0.5-0.3l1.6-1.4c0.3-0.3,0.7-0.6,1-0.9c1.6-1.4,3.2-2.4,4.9-2.9l2-0.5l0.5-0.1h0.4c0.4,0,0.9,0.1,1.5,0.7
	l0.4,0.5l-0.1,0.2l1.7-0.9c0.6-0.3,1.3-0.5,1.9-0.6c0.2,0,0.4-0.1,0.7-0.1c0.6,0,1.1,0.3,1.4,0.8l0.3,0.4H63
	c-0.1,0.2-0.1,0.5-0.2,0.7c0.6-0.1,1.1-0.1,1.6-0.1H65c0.6-1.5,1.4-2.7,2.1-3.8c0.5-0.8,1.2-1.4,1.9-1.9c0.8-0.5,1.6-0.7,2.6-0.7
	c0.5,0,1,0.1,1.5,0.1c1.4,0.2,2.6,0.8,3.6,1.3l3.5,2.2c0.5,0.4,1,0.7,1.5,1c0.4,0.3,0.9,0.5,1.4,0.7c1.8,0.9,3.7,1.3,5.6,1.3H91
	c0.4,0,1.1,0,1.7,0.7l0.3,0.4v0.6c-0.3,1.1-1,1.7-1.7,2.3l6,1.8h0.2c0.2,0,0.4,0,0.7,0.1c0.6,0.2,1,0.4,1.2,0.8
	c0.4,0.7,0.3,1.5-0.4,2.1l-0.2,0.2c1.1,1,1.7,2.3,2.1,3.6c0.8,2.1,1.1,4.4,1,6.6c0,0.8-0.3,1.4-0.7,2.1c-0.5,0.7-1.1,1.1-1.9,1.1
	h-0.5L98.6,56L98,56.8c0.8,0.4,1.5,0.8,2.1,1.3l0.9,0.6c1.1,0.7,2.2,1.7,3.3,3.1c1.3,1.7,2.3,3.2,3,4.7c0.8,1.6,1.3,3,1.6,4.4
	c0.1,0.3,0.2,0.7,0.2,1c0.2,0.7,0.4,1.5,0.5,2.3l0.5,3.8l0.2,2.7l0.2,2.3c0,0.4,0.1,0.8,0.2,1.2c0.1,0.3,0.1,0.6,0.1,1
	s0.1,0.8,0,1.3c0,1.4-0.7,1.6-1.7,1.9l-0.5,0.1l-0.3,1.2c-0.1,0.4-0.3,0.8-0.4,1.2l-0.3,0.8c-0.3,0.9-0.9,1.4-1.9,1.5h-0.5l-0.3-0.4
	c-0.2-0.2-0.4-0.4-0.5-0.8c-0.5-1.5-1.2-3-2.3-4.4c-1.2-1.7-2.3-2.8-3.6-3.5c-0.3-0.2-0.7-0.4-1.1-0.5c-0.3-0.1-0.5-0.2-0.8-0.4
	c-0.2-0.1-0.4-0.2-0.6-0.4c-0.1-0.1-0.2-0.1-0.3-0.2l-0.1,0.6c-0.1,0.7-0.3,1.5-0.3,2.1l0.1,6.5c0,0.5,0,0.9,0.1,1.4l0.5,5.3
	c0.1,0.5,0,1.1-0.3,1.5c-0.2,0.3-0.7,0.7-1.4,0.8c-0.3,0-0.6,0.1-0.9,0.1H93l-0.4,0.9c1.1,0.3,2.2,0.8,3,1.8
	c0.6,0.8,1.1,1.4,1.4,2.1c0.5,1,0.9,2,1.2,2.9l0.4,1c0.1,0.2,0.2,0.4,0.2,0.6c0.1,0.2,0.2,0.5,0.3,0.7c0.8,1.5,0.6,2.9-0.5,4
	l0.2,0.2c0.4,0.5,0.5,1.1,0.4,1.6c-0.1,0.4-0.3,0.8-0.6,1.1c0.2,0.3,0.3,0.5,0.2,0.9c0.5,0.2,1,0.4,1.5,0.9c0.3-0.1,0.5-0.1,0.7-0.1
	c0.7,0,2,0.3,2.6,2c0.2,0.5,0.5,0.8,1,1l1.4,0.5c1.1,0.4,2.1,0.8,3.2,1c0.7,0.1,1.5,0.1,2.2,0.2l0.9,0.1h0.3c0.2,0,0.5,0,0.9,0.1
	c0.7,0.2,1.2,0.6,1.4,1.2c0.2,0.5,0.1,1-0.1,1.4h0.2c0.5,0,1.1,0,1.7-0.1h0.6c0.2,0,0.4,0,0.6,0.1c0.8,0.2,1.1,0.7,1.3,1
	s0.2,0.9-0.2,1.6c-0.2,0.2-0.4,0.5-0.6,0.6c-0.6,0.4-1.4,1-2.4,1.3c-1.2,0.4-2.7,0.8-4.2,0.8l0,0c-0.3,0-0.6,0-0.9-0.1l-0.1,0.2
	l-0.3,0.2c-0.4,0.3-0.9,0.4-1.4,0.4c-0.2,0-0.5,0-0.7-0.1c-1.1-0.2-2.2-0.5-3.4-1c-0.9-0.4-1.8-0.7-2.7-1c-0.1,0-0.1,0-0.2-0.1
	l-0.2,1c-0.2,1-0.7,2-1.4,3.1c-1.1,1.7-2.8,2.1-4,2.2h-0.7c-0.7,0-1.4-0.2-2-0.5c-0.5,1.1-1.3,1.9-2.5,2.3c-0.5,0.2-1.1,0.4-1.7,0.4
	h-0.7C87.7,139.2,86.5,139.3,85.4,139.3L85.4,139.3z"/>
<path class="st2" d="M71.7,28c0.4,0,0.9,0,1.3,0.1c1.2,0.2,2.2,0.6,3.3,1.2l5,3.2c0.5,0.3,1,0.6,1.5,0.8c1.9,0.9,3.9,1.4,6.1,1.4
	h2.4c0.3,0,0.6,0,0.8,0.3c-0.4,1.4-1.6,1.9-2.7,2.8c0.3,0.1,0.5,0.3,0.7,0.3c2.3,0.9,4.7,1.7,7.1,2.2c0.3,0.1,0.5,0,0.8,0.1
	c0.2,0.1,0.5,0.2,0.6,0.4c0.2,0.3,0.1,0.6-0.2,0.8c-0.2,0.2-0.5,0.4-0.7,0.6c-0.1,0.1-0.3,0.2-0.5,0.3c1.7,0.8,2.3,2.3,2.9,3.9
	c0.7,2,1.1,4.1,0.9,6.3c0,0.6-0.2,1.1-0.5,1.7c-0.2,0.4-0.6,0.6-1,0.6h-0.3c-0.1-0.3-0.3-0.6-0.5-0.8l-2.1,3
	c1.5,0.5,2.8,1.5,4.1,2.3c1.2,0.7,2.1,1.8,3,2.9c1.1,1.4,2.1,2.9,2.9,4.5c0.7,1.3,1.2,2.7,1.6,4.2l0.7,3.2l0.5,3.7l0.4,5l0.3,2.2
	c0,0.4,0.1,0.8,0,1.2c0,0.7-0.1,0.7-1,1c-0.1-0.2-0.2-0.5-0.3-0.7s-0.2-0.5-0.4-0.7l-0.9,3.4c-0.2,0.7-0.5,1.3-0.8,2
	c-0.2,0.5-0.4,0.7-1,0.8c-0.1-0.1-0.3-0.3-0.3-0.4c-0.5-1.7-1.4-3.3-2.4-4.7c-1.1-1.5-2.3-2.9-3.9-3.8c-0.6-0.4-1.3-0.6-2-0.9
	L96,81.8c-0.3-0.1-0.5-0.2-0.9-0.3c-0.2,0.4-0.3,0.7-0.4,1.1c-0.2,1-0.4,2-0.4,3c-0.1,2.2-0.1,4.4,0.1,6.6c0.1,2.3,0.1,4.6,0.6,6.9
	c0.1,0.6-0.2,1-0.9,1.1c-0.3,0-0.5,0.1-0.8,0.1s-0.7,0-1-0.2l-1.1,2.6c0.2,0.1,0.3,0.1,0.5,0.2c1.1,0.3,2.3,0.6,3.1,1.6
	c0.5,0.6,0.9,1.2,1.3,1.9c0.6,1.2,1.1,2.5,1.6,3.8c0.2,0.5,0.3,1,0.5,1.4c0.7,1.4,0.4,2.6-1.2,3.5c0.2,0.2,0.4,0.4,0.6,0.5
	c0.1,0.1,0.3,0.2,0.4,0.3c0.4,0.5,0.3,1.1-0.3,1.5c-0.2,0.1-0.5,0.2-0.7,0.4c1,0.9,1,0.9,0.6,1.9c1,0.1,1.9,0.3,2.3,1.3h0.1
	c0.4-0.1,0.7-0.2,1-0.2c0.7,0,1.3,0.4,1.7,1.3c0.3,0.8,0.9,1.3,1.6,1.6c1.6,0.6,3.1,1.3,4.8,1.5l3.2,0.3c0.3,0,0.7,0,1,0.1
	c0.7,0.2,0.9,0.8,0.5,1.3c-0.3,0.4-0.6,0.7-1,1.1l2.2,0.2c0.6,0,1.2,0,1.8-0.1h0.9c0.6,0.1,0.8,0.6,0.4,1.1
	c-0.1,0.1-0.2,0.3-0.4,0.4c-0.6,0.5-1.3,0.9-2.1,1.2c-1.3,0.4-2.6,0.7-3.9,0.7c-0.3,0-0.6,0-0.9-0.1H110c-0.1,0.2-0.1,0.4-0.2,0.6
	c-0.2,0.2-0.5,0.2-0.8,0.2c-0.2,0-0.3,0-0.5-0.1c-1.1-0.2-2.2-0.6-3.2-1l-4-1.5l-0.5,2c-0.2,1-0.7,1.9-1.3,2.8
	c-0.8,1.2-2,1.6-3.3,1.8h-0.5c-1,0-1.8-0.4-2.6-1.1l-0.3,1c-0.3,1-1,1.7-2,2.1c-0.5,0.2-1,0.3-1.5,0.4l-4.1,0.2h-1.1
	c-1.2,0-2.3-0.1-3.5-0.5c-1.1-0.3-1.8-0.9-2.4-1.7c-0.4-0.5-0.7-1.1-0.7-1.8c0-0.5-0.1-1-0.4-1.4c-0.2-0.3-0.1-0.7-0.1-1.1h-0.7
	c-0.6,0-0.7-0.2-0.7-0.8c0-0.3,0.1-0.6,0.2-1c-0.3-0.2-0.6-0.3-1-0.5c-0.3,0.2-0.6,0.3-1,0.3c-0.4,0-0.7-0.1-1.1-0.5
	c-0.4,0.3-0.7,0.4-1.1,0.4s-0.8-0.1-1.2-0.3c-0.6,0.4-1.2,0.6-1.9,0.6c-0.4,0-0.8-0.1-1.3-0.4c-0.5,0.4-1.1,0.6-1.6,0.6
	s-0.9-0.2-1.4-0.6c-0.5,0.5-1.1,0.8-1.7,0.8c-0.4,0-0.9-0.1-1.2-0.4c-0.3,0.3-0.6,0.5-0.8,0.7v0.2c0.1,0.3,0.3,0.7,0,1
	s-0.6,0.4-0.9,0.4h-0.2c-0.2,0-0.4-0.1-0.7-0.2c-0.2,0.3-0.1,0.6-0.1,0.9c0.1,0.6,0.1,1.1,0.1,1.7c0,0.5-0.2,0.8-0.6,1.1
	c-1.4,1.1-3,1.6-4.7,1.9c-0.9,0.2-1.8,0.3-2.7,0.3h-0.5c-1.4,0-2.7-0.2-4.1-0.5c-0.9-0.2-1.9-0.9-2.6-1.8c-0.4,0.3-0.8,0.6-1.2,0.8
	c-0.6,0.3-1.2,0.4-1.8,0.4c-0.8,0-1.6-0.2-2.3-0.7c-0.8-0.5-1.4-1.2-1.9-2c-0.5-0.9-0.8-1.9-1.2-2.9l-1.9-4.5
	c-0.3-0.6-0.5-1.3-0.6-1.9c-0.3-1.2,0-2.4,0.7-3.5c0.4-0.6,1-1,1.7-1c0.3,0,0.6,0.1,0.9,0.2l0.6,0.3l2.2-1.2c0.1-0.3,0.2-0.6,0.4-1
	c-0.1,0-0.3,0-0.4-0.1c-0.5-0.2-0.7-0.6-0.5-1s0.5-0.7,0.7-1.1c-0.2-0.3-0.7-0.3-0.7-0.8l0.3-1.2l-0.4-0.4c-0.4-0.5-0.7-1.1-0.5-1.8
	c0.4-2.4,1-4.9,2.1-7.1c0.8-1.6,2-2.8,3.9-3.2c0.5-0.1,1-0.2,1.4-0.2c0.6,0,1.2,0.1,1.7,0.4c0.1,0,0.2,0,0.3,0.1h0.2
	c0.1-0.7,0.1-1.5,0.2-2.2c0.3-1.9,0.5-3.9,1.2-5.7c0.4-1.2,0.9-2.4,1.9-3.3c-1.1-0.6-2.2-1.2-3-2c-0.8-0.9-1.5-1.8-2.2-2.8
	c-0.1,0.1-0.2,0.3-0.4,0.4c-0.4,0.4-0.9,0.7-1.5,0.7h-0.1c-0.6,0-0.7-0.2-0.7-0.8c0-0.4,0.1-0.7,0.3-1c0.6-1.4,0.4-2.8,0.4-4.2
	c-0.6,0.4-1.2,0.7-1.7,1l-0.8,0.3h-0.2c-0.4,0-0.6-0.3-0.6-0.7c0.1-0.3,0.2-0.6,0.4-0.9c0.3-0.7,0.6-1.3,0.6-2.2
	c-0.5,0.2-0.9,0.5-1.2,0.8c-0.5,0.4-1,0.7-1.6,0.7c-0.1,0-0.3,0-0.5-0.1c-0.4-0.3-0.3-0.7-0.1-1.1l1-2.2c0.2-0.5,0.3-1,0.2-1.6
	L37.5,77c-0.8,0.6-1.6,1.1-2.4,1.6c-0.2,0.1-0.6,0.2-0.8,0.2H34c-0.6,0-0.8-0.4-0.7-1.1l0.3-1.3c0-0.1,0-0.3,0.1-0.5
	c-0.4,0.2-0.7,0.3-0.9,0.5c-0.2,0.1-0.4,0.2-0.6,0.2c-0.2,0.1-0.4,0.1-0.6,0.1c-0.5,0-0.6-0.3-0.6-1v-1c0.1-2.6-0.9-4.8-2.5-6.8
	c-0.3-0.4-0.6-0.8-1-1.1c-0.1-0.1-0.1-0.1-0.3-0.2c-0.3,0.4-0.5,0.8-0.8,1.1c-0.1,0.2-0.3,0.3-0.5,0.5c-0.1,0.1-0.2,0.1-0.4,0.1
	c-0.1,0-0.2,0-0.3-0.1s-0.1-0.4-0.2-0.6c0-0.5,0.1-1,0-1.5c-0.1-1.4-0.7-2.6-1.5-3.7l-2.1-3.1c-0.9-1.4-1.9-2.8-2.2-4.6
	c-0.3-1.6-0.2-3.1,0.7-4.5c0.5-0.9,1-1.7,1.7-2.5c0.8-1,1.9-1.9,3.1-2.4c1.3-0.5,2.5-1.1,3.7-1.7l6.2-2.9c1.3-0.6,2.5-1.4,3.8-2.1
	l1.3-0.7c0.4-0.2,0.7-0.2,1.1-0.2c0.5,0,1,0.2,1.4,0.5c0.3,0.2,0.6,0.5,0.9,0.7c0.4,0.3,0.8,0.5,1.1,0.5c0.4,0,0.7-0.2,1.1-0.5
	c0.9-0.7,1.7-1.5,2.6-2.3c1.4-1.2,2.8-2.1,4.5-2.7c0.8-0.3,1.6-0.4,2.4-0.6H55c0.3,0,0.5,0.1,0.7,0.3c-0.3,0.7-1,1.3-0.6,2.3
	c0.1-0.1,0.3-0.1,0.4-0.2c1.1-0.8,2.2-1.5,3.4-2l1.8-0.6c0.2,0,0.3-0.1,0.5-0.1s0.4,0.1,0.6,0.3c-0.2,0.7-0.7,1.4-0.7,2.3
	c1-0.4,2-0.5,3-0.5h1.3c0.5-1.6,1.3-3,2.3-4.3c0.4-0.6,1-1.2,1.6-1.6C70.3,28.2,71,28,71.7,28 M84.9,123.4c0.8-0.3,1.4-0.6,2.1-1
	c0.3,0.1,0.5,0.1,0.6,0.4c-0.1-0.3-0.3-0.3-0.6-0.4C86.4,122.8,85.7,123.2,84.9,123.4 M71.7,26c-1.2,0-2.2,0.3-3.2,0.8
	c-0.9,0.5-1.6,1.3-2.2,2.2c-0.7,1-1.4,2.1-2,3.4h-0.1v-0.2l-0.5-0.8c-0.5-0.8-1.3-1.2-2.2-1.2c-0.4,0-0.7,0.1-0.9,0.1L58.5,31
	c-0.3,0.1-0.6,0.3-1,0.4l0,0c-0.6-0.6-1.4-1-2.2-1c-0.2,0-0.4,0-0.6,0.1l-0.5,0.1c-0.7,0.1-1.4,0.3-2.2,0.5
	c-1.8,0.6-3.5,1.6-5.2,3.1c-0.3,0.3-0.7,0.6-1,0.9l-1.4,1.2l-0.2-0.2c-0.2-0.2-0.4-0.3-0.6-0.5c-0.8-0.6-1.7-0.8-2.6-0.8
	c-0.6,0-1.3,0.1-1.9,0.4c-0.5,0.2-0.9,0.4-1.3,0.6l-0.2,0.1l-1.3,0.7c-0.8,0.5-1.6,0.9-2.5,1.3L29,40.2L27.8,41L27,41.4l-2.9,1.3
	c-1.6,0.6-3,1.7-4,3c-0.7,0.8-1.2,1.7-1.8,2.6l-0.1,0.1c-1,1.7-1.3,3.6-0.9,5.9c0.4,2,1.4,3.6,2.4,5.1l1.4,2.1l0.9,1.3
	c0.7,1.1,1.1,1.9,1.1,2.8V67c0,0.5,0.1,1.2,0.6,1.8s1.1,0.9,1.8,0.9c0.5,0,1-0.2,1.5-0.5c0.1-0.1,0.2-0.1,0.3-0.2
	c1.2,1.5,1.7,3.2,1.7,5v1c0,0.4,0,1.5,0.8,2.3c0.3,0.3,0.8,0.7,1.6,0.7c0.1,0.5,0.4,0.8,0.5,1.1c0.5,0.6,1.3,0.9,2.1,0.9
	c0.2,0,0.5,0,0.7-0.1h0.1c0.2,0,0.4-0.1,0.7-0.2c0.1,1,0.7,1.6,1,1.8l0.4,0.3l0.5,0.1c0.2,0.1,0.5,0.1,0.7,0.1c0,0.5,0.2,1,0.6,1.4
	c0.5,0.6,1.2,0.9,2,0.9h0.5v0.1c-0.2,0.5-0.4,1-0.4,1.7c-0.1,0.9,0.1,1.6,0.6,2.1c0.7,0.8,1.7,0.9,2,0.9h0.1c0.5,0,1-0.1,1.5-0.3
	l1.2,1.4c0.5,0.5,1,0.9,1.5,1.3c-0.4,0.7-0.6,1.4-0.9,2c-0.7,1.8-0.9,3.6-1.1,5.3l-0.1,0.8v0.1h-0.4c-0.6,0-1.1,0.1-1.8,0.2
	c-2.3,0.5-4.1,1.9-5.3,4.3c-1.2,2.5-1.8,5.1-2.3,7.6c-0.3,1.5,0.4,2.6,0.7,3.1c0,0.1,0,0.2-0.1,0.4c0,0.3-0.1,0.8,0.1,1.3
	c-0.3,0.6-0.4,1.3-0.2,2c-0.4-0.1-0.7-0.1-1.1-0.1c-1.4,0-2.6,0.7-3.4,1.9c-1,1.6-1.3,3.3-0.9,5c0.2,0.8,0.4,1.6,0.7,2.2l0.9,2.1
	c0.4,0.8,0.7,1.6,1,2.4l0.3,0.9c0.2,0.7,0.5,1.5,1,2.3c0.7,1.3,1.6,2.1,2.6,2.7c1.1,0.6,2.2,1,3.4,1c0.9,0,1.8-0.2,2.6-0.6h0.1
	c0.7,0.6,1.6,1,2.4,1.2c1.3,0.3,2.9,0.6,4.5,0.6H51c1.1,0,2.1-0.2,3-0.4c2.3-0.4,4.1-1.1,5.6-2.2c1.2-0.9,1.4-2,1.4-2.7v-0.5
	c0.4-0.2,0.8-0.4,1.2-0.8c0.2-0.2,0.5-0.5,0.6-0.9h0.1c0.6,0,1.2-0.1,1.8-0.4c0.4,0.2,0.9,0.2,1.3,0.2c0.6,0,1.2-0.1,1.7-0.4
	c0.4,0.1,0.8,0.2,1.2,0.2c0.7,0,1.4-0.2,2-0.5c0.3,0.1,0.7,0.1,1,0.1s0.6,0,0.9-0.1c0.3,0.1,0.7,0.2,1.1,0.2
	c0.1,0.4,0.3,0.8,0.5,1.1c0.3,0.3,0.6,0.5,1,0.7c0.1,0.1,0.1,0.3,0.2,0.4c0,0,0,0.1,0.1,0.4c0.1,1,0.4,1.9,1.1,2.8
	c0.9,1.3,2.1,2.1,3.5,2.5s2.7,0.5,3.9,0.5h1.1l3.5-0.1h0.7c0.7,0,1.4-0.2,2-0.5c1.1-0.4,2-1.1,2.6-2c0.5,0.1,1,0.2,1.5,0.2
	c0.3,0,0.5,0,0.8-0.1c2.2-0.3,3.7-1.2,4.7-2.7c0.7-1,1.3-2.1,1.6-3.3l1.8,0.7c1.3,0.5,2.4,0.9,3.6,1.1c0.3,0.1,0.6,0.1,0.9,0.1
	c0.7,0,1.4-0.2,1.9-0.6l0.3-0.2h0.4c1.7,0,3.2-0.4,4.5-0.8c1.2-0.4,2.1-1,2.7-1.5c0.3-0.2,0.6-0.6,0.8-0.9c0.5-0.8,0.6-1.7,0.3-2.5
	c-0.2-0.5-0.7-1.3-2-1.6c-0.3-0.1-0.5-0.1-0.9-0.1c-0.3,0-0.6,0-0.7,0.1c-0.2,0-0.4,0-0.5,0.1c0-0.2-0.1-0.5-0.1-0.7
	c-0.3-0.9-1.1-1.5-2.1-1.8c-0.4-0.1-0.8-0.1-1.1-0.1h-0.2c-0.3,0-0.6,0-0.9-0.1l-2.2-0.2c-1-0.1-1.9-0.5-3-0.9
	c-0.5-0.2-0.9-0.4-1.4-0.5c-0.3-0.1-0.4-0.2-0.4-0.4c-0.6-1.7-1.9-2.6-3.5-2.6h-0.4c-0.3-0.2-0.6-0.4-0.9-0.5c0.2-0.3,0.4-0.7,0.4-1
	c0.1-0.7,0-1.4-0.3-2c0.9-1.3,0.9-2.9,0.1-4.5c-0.1-0.2-0.2-0.4-0.2-0.6c-0.1-0.2-0.2-0.4-0.2-0.7c-0.1-0.3-0.3-0.6-0.4-1l-1.3-3
	c-0.4-0.7-0.8-1.5-1.5-2.3c-0.4-0.5-0.9-0.9-1.4-1.2c0.6-0.2,1.1-0.6,1.5-1.1c0.5-0.6,0.6-1.4,0.5-2.3c-0.3-1.7-0.4-3.4-0.5-5.2
	c0-0.5,0-0.9-0.1-1.4l-0.1-6.4c0-0.4,0.1-0.8,0.1-1.2l0.6,0.3c0.4,0.2,0.7,0.3,1,0.5c1.1,0.7,2.1,1.7,3.2,3.3c1,1.4,1.7,2.8,2.1,4.2
	c0.1,0.4,0.4,0.8,0.7,1.1l0.7,0.8l1.1-0.1c1.3-0.1,2.3-0.9,2.7-2.2c0.1-0.2,0.2-0.5,0.3-0.8c0.2-0.4,0.3-0.8,0.5-1.3
	c0.1-0.2,0.1-0.4,0.2-0.6c1.2-0.3,2.4-0.8,2.4-2.8c0-0.5,0-1-0.1-1.4c0-0.3-0.1-0.7-0.1-1c-0.1-0.4-0.1-0.8-0.2-1.1l-0.2-2.3
	l-0.2-2.8c-0.1-1.4-0.3-2.6-0.5-3.8c-0.1-0.8-0.3-1.6-0.5-2.3c-0.1-0.3-0.2-0.6-0.2-1c-0.3-1.5-0.9-3-1.7-4.6
	c-0.8-1.5-1.7-3.1-3.1-4.9c-0.7-1-1.9-2.4-3.5-3.4l-0.9-0.6c-0.2-0.1-0.3-0.2-0.5-0.3c0.6-0.2,1.3-0.6,1.8-1.5
	c0.5-0.8,0.8-1.7,0.8-2.6c0.1-2.3-0.2-4.7-1-7c-0.4-1.1-0.8-2.2-1.7-3.3c0.5-0.8,0.6-1.9,0.1-2.7c-0.4-0.6-1-1-1.8-1.2
	c-0.4-0.1-0.7-0.1-0.9-0.1h-0.1c-1.4-0.3-2.8-0.7-4.3-1.2c0.3-0.4,0.6-1,0.8-1.6l0.3-1L93.3,34c-0.9-1-2-1-2.3-1h-2.4
	c-1.8,0-3.5-0.4-5.2-1.2c-0.4-0.2-0.9-0.4-1.2-0.7l-1.5-1c-1.1-0.8-2.3-1.6-3.6-2.3c-1.1-0.6-2.4-1.2-4-1.4
	C72.8,26.1,72.3,26,71.7,26L71.7,26L71.7,26z"/>
<g>
	<path id="B" class="st3" d="M74.4,44.5c0.7-0.3,3.9-0.7,4.8-0.6c0.1,1.5,0.7,2.8,1.3,4.2c0.6,1.3,1.4,2.5,2.6,3.4
		c-0.2,0.2-0.4,0.4-0.5,0.6s-0.1,0.6,0.1,0.8c0.6,1,0.9,2.2,1.9,3.2L82,56.5c-2.2,0.2-4.3,0.6-6.5,1c-3,0.6-5.9,1.4-8.7,2.6
		c-0.9,0.4-1.8,0.8-2.7,1.4c-2.5,1.7-4.8,3.5-6.6,5.8l-1.3,1.5c-1.4,1.5-2.3,3.3-3.1,5.1c-0.8,1.9-1.9,3.4-3.4,4.8
		c-0.2,0.1-0.3,0.3-0.4,0.5c-0.1,0.6,0.1,0.9,0.7,1c0.4,0.1,0.8,0,1.2,0h0.4c-1.1,3-1.3,6.1-0.8,9.3c-1.2-0.6-2.2-1.2-2.9-2.2
		c-0.6-0.8-1.3-1.5-1.6-2.5c-0.1-0.4-0.5-0.4-0.8-0.5c-0.4,0.5-0.8,1-1.3,1.4l-0.1-0.1c0.2-0.7,0.4-1.3,0.5-2s0-1.4,0-2l-0.1-2.1
		l-0.8-0.3c-0.8,0.5-1,1.5-2,1.7c0.5-1.7,0.8-3,0.7-4c-0.2-0.1-0.5-0.2-0.8-0.3c-0.6,0.9-1.5,1.3-2.4,2c0.2-0.5,0.3-0.9,0.5-1.2
		c0.3-0.7,0.5-1.5,0.5-2.3v-1.2c0-0.4,0.1-0.8,0.3-1.2c0.1-0.3,0.3-0.5,0.4-0.8c0.6-1.1,0.9-2.2,0.8-3.5l-0.2-3.1l-0.6-4.6
		c-0.4-2.5-1-5-1.8-7.5C39,53,39,52.8,38.9,52.5l3.5-0.7v0.6L42,54.5c-0.1,0.4-0.1,0.8-0.1,1.2c0,0.3,0,0.7,0.3,0.8
		c0.2,0,0.5-0.2,0.8-0.3c0.2-0.1,0.3-0.3,0.4-0.5c1.9-2.3,4.3-4,7.1-5.2h0.2c-0.3,0.5-0.7,0.9-1,1.3c-0.9,1.3-1.6,2.8-1.9,4.4
		c-0.2,1.3,0.1,2.5,0.7,3.6c0.7,1.1,1.8,1.6,3.1,1.9c1.6,0.3,3.2,0.3,4.8,0.1c1.2-0.1,2.2-0.8,3.1-1.6c1.7-1.5,2.3-3.4,2-5.6
		c-0.2-1.6-0.6-3.2-1.6-4.5c-0.3-0.5-0.8-0.9-1.2-1.4c0.6,0,1.1,0,1.5-0.6c0-0.7-0.4-1.4-0.8-2l-1.3-1.9c-0.3-0.5-0.8-0.8-1.5-0.8
		c-0.6,0-1.1-0.1-1.7-0.2c-2.5-0.4-4.8,0.1-7.1,0.9c-2.9,1.1-5.5,2.7-7.6,5c-0.6,0.6-1.1,1.3-1.6,2v-0.4c0.2-0.7,0.4-1.4,0.7-2
		c0.6-1.4,1.2-2.8,2.3-3.9c0.3-0.3,0.6-0.5,0.9-0.7c0.6-0.4,1.1-0.9,1.4-1.6c-0.1-0.1-0.2-0.3-0.4-0.3c-1-0.6-2.1-0.7-3.3-0.6
		c-0.6,0.1-1.1,0.4-1.5,0.8c-1.3,1-2,2.4-2,4.1c0,1.2,0.1,2.4,0.4,3.5l0.9,4l1.5,6.3c0.3,1.6,0.5,3.1,0.6,4.7c0.1,1,0.1,1.9,0.3,2.9
		c0.2,1.1,0,2.1-0.5,3.1L39,72.8c-0.6,1.4-2.7,3.1-4.1,3.5l0.1-2.5c0-0.3-0.1-0.5-0.5-0.7s-0.7-0.1-0.8,0.4c-0.2,0.7-0.7,1-1.4,1.3
		L32,71.7c-0.2-1-0.5-2-1-2.9s-1.1-1.7-1.7-2.5s-1.4-1.5-2.4-2c-0.2,0.2-0.3,0.4-0.5,0.7c-0.3-2.2-1.5-3.9-2.7-5.6
		c-0.9-1.2-1.7-2.5-2.4-3.8c-0.5-0.9-0.7-1.8-0.8-2.9c-0.2-2.1,0.9-3.7,2.1-5.2c1.1-1.4,2.7-2.3,4.4-2.9l2-0.9l6.5-3l3.6-1.9
		l1.2-0.6c0.8-0.4,1.4-0.3,2.1,0.2c1.3,1,2.2,2.2,2.8,3.7c0,0.1,0.1,0.1,0.1,0.2c0.4,0.1,0.6,0,0.9-0.4c-0.1-0.9-0.9-1.5-1.3-2.4
		c0.9-0.2,1.6-0.8,2.2-1.4c1.3-1.2,2.6-2.4,4.2-3.3c1-0.6,2-1,3.1-1.4h0.4c-0.3,0.7-0.2,1.4-0.1,2.1c0.1,0.5,0.5,0.8,0.9,0.6
		c0.4-0.1,0.8-0.3,1.1-0.6c1.2-0.9,2.5-1.6,3.9-2.2c0.1,0,0.2-0.1,0.4-0.2c-0.4,0.9-0.6,1.8,0,2.7c0.8-0.2,1.5-0.5,2.3-0.6
		c0.7-0.1,1.5-0.1,2.3,0c0,0.9-0.5,1.7-0.3,2.6c0.4,0.1,0.6-0.1,0.8-0.3c0.1-0.2,0.2-0.4,0.2-0.7l0.7-2.6c0.1-0.5,0.3-0.9,0.6-1.3
		c0.5-0.9,1-1.7,1.6-2.5c0.7-1,1.7-1.5,2.9-1.5c1.3,0,2.5,0.4,3.6,1c1.8,1,3.4,2.3,5.1,3.4s3.5,1.9,5.4,2.2c1.3,0.2,2.6,0.4,4,0.4
		c0.1,0,0.2,0,0.3,0.1c-0.6,0.6-1.3,1-2.1,1.4c-0.3,0.1-0.5,0.3-0.5,0.7c1.4,1.1,3,1.6,4.7,2.1c1.6,0.5,3.2,1.1,5.1,1
		c-0.6,0.5-1.2,0.8-1.8,0.9c-0.1,0-0.3,0-0.4,0.1c-0.2,0.1-0.3,0.4-0.1,0.5c0.2,0.2,0.4,0.4,0.7,0.5c1.3,0.3,2,1.2,2.5,2.3
		c0.6,1.3,1.1,2.7,1.2,4.1c0.2,1.1,0.2,2.3,0.2,3.4c0,0.3,0,0.7-0.3,0.9c-0.4-0.6-0.5-1.4-1.5-1.4c-0.1,0.2-0.3,0.4-0.4,0.7
		c-0.4,1.1-1.1,2.1-1.8,3c-0.1,0.1-0.2,0.3-0.4,0.4c-0.3,0.3-0.6,0.4-1,0.2c-1.6-0.4-3.2-0.5-4.8-0.7c-1.1-0.1-2.2,0-3.3,0h-0.4
		l-1.5-1.9c1.5-0.9,1.7-2.4,1.5-3.8c-0.1-0.8-0.5-1.5-0.9-2.2l-2.7-4.8c0.3-0.2,0.7-0.4,1.1-0.6l-0.4-0.4l-1-0.6
		c-0.4-0.2-0.6-0.4-0.7-0.8c-0.5-1.3-0.8-2.6-1.5-3.8c-0.6-1-1.2-1.9-2-2.7c-0.9-0.8-1.9-1.3-3-1.5c-0.9-0.1-1.8-0.2-2.6,0
		c-1.9,0.5-3.4,1.7-3.8,3.8c-0.1,0.4-0.2,0.9-0.2,1.3c-0.7,0.3-1.4,0.5-2,0.9c-0.8,0.4-1.6,0.9-2.4,1.4c-0.2,0.1-0.3,0.5-0.3,0.7
		c0,0.5,0.1,1.1,0.1,1.6c0.1,1.5,0.3,2.9,0.9,4.3c0.6,0.3,1-0.2,1.6-0.5c-0.1,0.2-0.1,0.4-0.2,0.6c-0.9,2.5-0.9,4.9,0.2,7.3
		c0.5,1.2,1.3,2,2.6,2.3c0.7,0.2,1.3,0.5,2,0.6c2.4,0.3,4.6-0.2,6.4-1.9c1.4-1.3,1.8-2.9,1.5-4.7C78.4,48,76.8,46,74.4,44.5
		L74.4,44.5z"/>
</g>
<g>
	<path id="C" class="st4" d="M51,79.1l1.8-2.2c0.6-0.7,0.9-1.6,1.3-2.4c0.6-1.5,1.3-3,2.3-4.3l1.2-1.4c2.1-2.5,4.3-4.7,7-6.5
		c1.2-0.8,2.4-1.4,3.8-1.9c2.1-0.8,4.3-1.4,6.5-1.9l5.2-0.9c1.1-0.2,2.3-0.3,3.4-0.4l5-0.2c0.9,0,1.9,0.1,2.8,0.2
		c1.2,0.1,2.5,0.3,3.6,0.7c0.1,0,0.2,0.1,0.3,0.1c0.9-0.1,1.6,0.3,2.3,0.7c1,0.5,1.9,1.1,2.7,1.8c0.8,0.6,1.5,1.3,2.2,2.1
		c1.4,1.6,2.5,3.4,3.3,5.4c0.8,1.8,1.4,3.7,1.7,5.7l0.8,6.6c0,1.1,0.2,2.1,0.3,3.2v0.9l-0.8-0.3c-0.3,0.1-0.3,0.4-0.4,0.6
		c-0.3,1.7-0.5,3.5-1.2,5.1c0,0.1-0.1,0.2-0.2,0.4c-1.3-2.6-2.8-4.9-5.1-6.9c0.6,0,0.9,0.1,1.2,0.1c0.5,0,1.1,0.1,1.6,0.1
		c0.4,0,0.8-0.1,1.1-0.5c-0.1-0.1-0.2-0.3-0.3-0.3c-0.8-0.3-1.2-1-1.7-1.6s-0.8-1.4-1.2-2c-0.2-0.4-0.5-0.9-0.4-1.4
		c0-0.1,0-0.3-0.1-0.4c-0.1-0.1-0.2-0.2-0.4-0.2c-0.1,0-0.3,0.2-0.3,0.3c-0.1,0.6-0.1,1.3,0.1,1.8l1.2,2.2l0.6,0.9
		c-0.1,0-0.2,0.1-0.3,0.1c-0.8-0.1-1.7-0.2-2.5-0.5c-1.1-0.3-2.2-0.7-3.3-1.2c-1-0.4-1.8-1.1-2.7-1.7s-1.5-1.5-1.9-2.5
		c-0.1-0.2-0.2-0.5-0.3-0.6c-0.2-0.3-0.3-0.7-0.3-1.1l-0.1-2.3c0-0.3,0.1-0.6,0.3-0.9c0.6-0.9,1.4-1.7,2.5-2l2.3-0.8
		c1.8-0.5,2.4-1.4,2.6-3.2s-1.1-3-2.3-3.2L93,61.9c-1.9-0.2-3.8-0.2-5.8-0.2c-1.5,0-3,0.2-4.5,0.5c-0.2,0-0.5,0.1-0.7,0.2
		c-0.9,0.2-1.3,0.9-1.4,1.7c-0.2,1.4,0.1,2.7,0.9,3.9c0.4,0.7,1.2,1,1.9,1.2l2.9,0.7c0.4,0.1,0.8,0.2,1.2,0.4c1,0.3,1.6,1.2,2.2,2
		c0.1,0.1,0.1,0.3,0.1,0.5v3.1c0,0.4-0.1,0.6-0.3,0.9L88.6,78c-0.6,0.8-1.4,1.3-2.2,1.8c-2,1.3-4.2,2-6.4,2.6
		c-1.8,0.5-3.6,0.7-5.5,1L72,83.7l1.4-1.7c0.2-0.2,0.3-0.4,0.5-0.6s0.3-0.5,0.1-0.8s-0.5-0.5-0.9-0.4c-0.7,0.1-1.3,0.2-2,0.4
		c-1.2,0.2-2.4,0.2-3.5,0.1c-1.4-0.1-2.8-0.3-4.2-0.7s-2.8-0.8-4.2-1.5c2.4-0.2,4.5-1.1,6.2-2.7c-0.2-0.4-0.4-0.5-0.7-0.4
		s-0.5,0.2-0.8,0.4l-2.7,1.3c-0.9,0.4-1.7,0.5-2.7,0.2c-0.1,0-0.3-0.1-0.4-0.1c-0.3,0.3-0.4,0.7-0.2,1s0.4,0.7,0.6,0.9l1,0.6
		c-1.3,2-1.9,4.2-2.2,6.6c-1.2-1-1.4-0.7-2.2,0.1c-1.3,1.2-2,2.8-2.4,4.6c-0.1,0.4-0.2,0.9-0.4,1.3c-0.4-1.8-1.2-3.6-1-5.5l0.2-3.2
		c0-0.4,0.2-0.9,0.3-1.3c0.2-0.7,0.5-1.3,0.7-2c0.1-0.4,0-0.6-0.4-0.7C52,79.2,51.5,79.2,51,79.1L51,79.1z"/>
</g>
<g>
	<path id="D" class="st5" d="M51.2,91.5l1.4,4.5c0.9,0,1.1-0.1,1.1-0.9c0-1.6,0.1-3.2,0.6-4.8l0.7-1.8c0.1,0.3,0.2,0.4,0.2,0.5
		l0.7,2.1l2,5.2c0,0.1,0.1,0.2,0.1,0.2c0.4,1,1.5,1.2,2.2,0.3l0.6-0.9l1.5,2.8c0.1,0.3,0.3,0.6,0.2,0.9c0,2.6,1.1,4.6,3,6.2
		c0.7,0.6,1.4,1,2.2,1.4c1.6,0.8,3.2,0.9,4.8-0.2c0.1-0.1,0.2-0.1,0.3-0.2c1,1.3,2.3,2.2,3.9,2.9v5l0.2,5.1
		c-5.3,1-10.6,1.2-15.8,0.4C61,120,61,120,61,119.9c-0.1-1.5-0.1-3.1-0.2-4.6c0-1.4-0.1-2.7-0.3-4.1c-0.1-0.7-0.1-1.3-0.2-2
		c-0.1-0.9-0.1-1.8-0.2-2.7c-0.1-1.2-0.3-2.3-0.4-3.5c0-0.4-0.1-0.8-0.1-1.3c-0.2-0.1-0.4-0.2-0.5-0.3c-0.3,0.3-0.3,0.6-0.3,0.9
		c0.1,1,0.1,2,0.2,3c0.1,1.3,0.3,2.6,0.4,4l0.3,3.7v0.4c0.1,2,0.1,4,0.2,5.9c0,0.6,0.1,1.2,0.3,1.8c0.4,0.9-0.1,2.1-1.3,2.3
		s-2.5,0.5-3.8,0.3c-0.4-0.1-0.9,0-1.3,0c-1.5,0-2.9-0.2-4.2-1.1c-0.1,0-0.2-0.1-0.2-0.1h-0.2c-0.2,0.2-0.2,0.5,0,0.6
		c0.3,0.3,0.7,0.7,1.1,0.8c0.6,0.2,1.2,0.4,1.9,0.4l3.8,0.3c0.9,0.1,1.9,0,2.8-0.3c0.2-0.1,0.5-0.1,0.7-0.1c0.3,0.4,0.5,0.8,0.8,1.2
		c-0.7,0.4-1.4,0.7-2.2,0.7c-1.7,0.1-3.4,0.2-5,0.2c-2.3-0.1-4.5-0.4-6.7-1.1c-0.2-1-0.3-2.1-0.1-3.2c0.1-0.3,0.1-0.6,0-1
		c-0.1-1.5,0.2-3.1,0.5-4.6l1.3-7.8c0.2-1,0.1-2.1,0.2-3.1c0.2-1.8,0.3-3.7,0.5-5.5c0.2-1.4,0.3-2.7,0.6-4.1
		c0.2-1.3,0.7-2.6,1.4-3.8C50.7,92.1,50.9,91.8,51.2,91.5z"/>
</g>
<g>
	<path id="E" class="st6" d="M70.8,95.5l1.4,1.6c0.3,0.3,0.4,0.3,0.9,0c-0.7-1.2-1.4-2.3-2.6-3.1c-0.5-0.4-0.9-0.9-1.4-1.2l-3-2.4
		c0.4-0.2,0.7-0.4,1.2-0.6c1.2-0.4,2.4-0.7,3.6-0.7c1.3,0.1,2.5,0.4,3.6,1.1c1.2,0.8,2,1.9,2.5,3.2c0.1,0.4,0.3,0.7,0.5,1.1
		c0.1,0.2,0.3,0.4,0.4,0.6c0.4,0,0.5-0.2,0.5-0.5v-0.4c-0.5-1.9-1.3-3.6-3.1-4.7c-0.2-0.1-0.5-0.3-0.8-0.6c0.2-0.1,0.4-0.2,0.5-0.3
		c1.6-0.5,3.1-0.8,4.8-0.4c1.8,0.4,3.2,1.3,4.2,2.8c1.3,2,2.2,4.2,2.7,6.5c0.3,1.5,0.5,3.1,0.5,4.6c0,2.6-1.2,4.4-3.3,5.7
		c-1,0.6-2.2,1-3.5,1c-0.9,0-1.8,0-2.7-0.1c-0.6,0-1.1-0.3-1.6-0.6c-1.9-1-3-2.6-3.5-4.6l-0.8-3.7l-0.2-2
		C71.2,97.2,71,96.4,70.8,95.5z"/>
</g>
<g>
	<path id="F" class="st7" d="M77.4,109.9h3.4c1.7,0,3.1-0.7,4.5-1.7c1-0.7,1.6-1.7,2.2-2.8c0.9,1,1.6,2,2,3.3
		c0.4,1.4,0.7,2.9,0.8,4.4l0.5,7.9l0.3,2.5v1.5c-1.1,0.7-2.4,1.1-3.7,1.3c-2.4,0.3-4.8,0.2-7.2,0.1l-2.1-0.2c-0.2,0-0.4-0.1-0.7-0.2
		c-0.1-0.7,0.1-1.2,0.3-1.9l1.6,0.4c1.4,0.5,2.8,0.3,4.2,0.2c1.1-0.1,2.2-0.5,3.2-1c0.1-0.1,0.3-0.1,0.4-0.2
		c0.2-0.1,0.5-0.3,0.5-0.6c0-0.4-0.3-0.5-0.6-0.5c-0.9,0.5-1.8,1-2.9,1.2c-2,0.4-4,0.3-5.9-0.5c-0.8-0.3-1-0.5-0.9-1.4
		c0-0.2,0-0.5,0.1-0.7c0.3-0.7,0.3-1.4,0.3-2.1l-0.2-8.6C77.5,110.3,77.5,110.1,77.4,109.9L77.4,109.9z"/>
</g>
<g>
	<path id="G" class="st8" d="M89.6,78.5c0,0.5,0,0.9-0.1,1.3l-0.9,6.4c-0.3,1.7-0.6,3.4-1.4,4.9C87,91.7,86.7,92,86,92.5l-0.9-1.4
		c-1.4-2.2-3.4-3.4-5.9-3.7c-1.5-0.2-3,0.1-4.4,0.6c-0.3,0.1-0.5,0.2-0.7,0.4c-0.4,0.3-0.7,0.3-1.1,0.2c-2-0.6-4-0.2-6,0.5
		c-0.6,0.2-1,0.5-1.6,0.8c-0.8-0.4-1.2-1.1-1.6-1.8c-0.5-0.8-0.9-1.7-1.2-2.6c-0.5-1.4-0.3-2.7,0.7-3.8c0.5-0.6,1-0.8,1.8-0.6
		c2,0.5,4.1,0.6,6.2,0.4c0.5,0,1.1-0.2,1.8-0.3l-1.5,1.6c-0.4,0.4-0.5,0.8-0.2,1.3c0.1,0.1,0.2,0.2,0.3,0.2c0.2,0,0.4,0.1,0.6,0
		l2.9-0.3l2.3-0.3l3.7-0.9c2.2-0.5,4.3-1.4,6.3-2.6C88,79.7,88.8,79.1,89.6,78.5L89.6,78.5z"/>
</g>
<g>
	<path id="H" class="st9" d="M71.3,103.7c-0.8-0.5-1.2-1.2-2.1-1.3c-0.5,0.3-0.3,0.9-0.5,1.4c-0.2-0.1-0.3-0.2-0.4-0.2
		c-0.2-0.2-0.4-0.4-0.7-0.5c-1.8-1.1-3.2-2.7-4.3-4.5c-0.7-1.1-1.4-2.2-1.7-3.5c0-0.1-0.1-0.2-0.1-0.3c-0.1-0.3-0.2-0.7-0.6-0.6
		c-0.4,0-0.6,0.3-0.8,0.6l-0.6,1.3c-0.1,0.1-0.2,0.2-0.4,0.5c-0.9-3.2-2.6-6-3.2-9.2l0.6-0.6l1.5,1.4c0.3-0.1,0.5-0.3,0.7-0.4
		c-0.4-1.6,0-3,0.5-4.4c0.4-1.2,0.6-2.6,1.8-3.4l1.9,0.7c-0.1,0.2-0.2,0.4-0.4,0.5c-1.4,1.4-1.5,3.1-1,4.9c0.3,0.9,0.8,1.8,1.2,2.6
		c0.6,1.2,1.6,2,2.7,2.7c1,0.6,1.9,1.2,2.7,1.9c1,0.8,1.6,2,1.9,3.2l0.5,3c0.1,1.3,0.3,2.6,0.7,3.8
		C71.3,103.3,71.3,103.4,71.3,103.7z"/>
</g>
<g>
	<path id="I" class="st10" d="M76.4,121c-0.2,1-0.4,2,0.6,2.7c-0.1,0.5-0.3,1-0.4,1.5c-0.3,1.1-0.2,1.3,0.8,1.9
		c0,0.7-0.2,1.3-0.5,1.9c-0.4-0.1-0.7-0.2-1-0.6c-0.3-0.5-0.8-0.5-1.2-0.1c-0.1,0.1-0.3,0.3-0.5,0.4c-0.4-0.3-0.6-1-1.3-0.9
		c-0.1,0.1-0.2,0.3-0.4,0.5c-0.4,0.5-0.5,0.5-1,0.1c-0.2-0.2-0.5-0.3-0.8-0.5l-0.5,0.5c-0.2,0.2-0.4,0.4-0.6,0.5
		c-0.6,0.3-0.9,0.2-1.2-0.3c-0.2-0.3-0.5-0.5-0.9-0.5c-0.1,0.2-0.2,0.4-0.4,0.6c-0.6,0.7-1.2,0.8-1.8,0.1c-0.3-0.3-0.5-0.6-1-0.5
		c-0.1,0.2-0.3,0.4-0.5,0.7c-0.5,0.7-0.8,0.7-1.5,0.2c-0.1-0.1-0.3-0.2-0.4-0.3c-0.4-0.2-0.6-0.1-0.8,0.2s-0.4,0.5-0.6,0.9
		c-0.4-1-0.4-2-0.5-2.9c0.3-0.2,0.6-0.3,0.9-0.5c0.6-0.4,0.6-1,0.1-1.5l-0.3-0.3c-0.2-0.2-0.2-0.5-0.1-0.7c0.1-0.1,0.2-0.2,0.2-0.4
		c0.3-0.7,0.6-1.4,0.4-2.2C66.3,121.9,71.3,121.8,76.4,121L76.4,121z"/>
</g>
<g>
	<path id="J" class="st9" d="M93.8,98.7c-0.5,0.2-0.9,0-1.2-0.3c-0.4-0.3-0.7-0.6-1.2-0.9c-0.1,0.3-0.2,0.4-0.1,0.6l0.3,0.8
		l-0.9,2.1c-0.4,0.9-1.6,2.2-2.5,2.6c0-1.7,0.1-3.4-0.3-5.1s-0.8-3.3-1.5-4.9c1.3-0.8,2-2,2.4-3.3c0.6-1.7,0.9-3.5,1.1-5.3l0.6-5
		c0-0.4,0-0.8,0.1-1.2c0-0.6,0.1-1.1,0.2-1.7c0.8,1.6,2,2.6,3.5,3.5c-0.2,0.5-0.4,0.9-0.5,1.3c-0.4,1.3-0.7,2.7-0.6,4.1l0.3,8.5
		l0.3,3.7C93.9,98.4,93.8,98.6,93.8,98.7z"/>
</g>
<g>
	<path id="K" class="st10" d="M45.5,126.2c-0.5,1.1-0.9,2.2-1.7,3c-0.3,0.3-0.5,0.6-0.7,0.9c-0.3,0.5,0,0.9,0.5,1h1v0.3
		c-0.4,0.7-0.7,1.6-0.8,2.4c0,0.2-0.1,0.4-0.2,0.5c-0.4,0.4-0.8,0.7-1.3,1c-1,0.6-2.7,0.5-3.9-0.7c-0.7-0.7-1.1-1.6-1.5-2.6
		l-1.5-3.6l-1.2-2.8c-0.5-1.3-0.5-2.5,0.2-3.7c0.3-0.5,0.7-0.7,1.2-0.6c0.2,0.1,0.5,0.2,0.7,0.4c0.5,0.5,0.8,0.5,1.3,0
		c0.1-0.1,0.1-0.2,0.2-0.3c0.8-0.9,2.3-1.2,3.2,0.2c0.4,0.1,0.7-0.1,0.9-0.3c0.9-0.8,1.5-0.9,2.5-0.3c0.4,0.2,0.5,0.5,0.5,0.9v2.8
		C44.9,125.3,44.9,125.8,45.5,126.2L45.5,126.2z M42.2,131.3c0-1.5-0.3-2.7-1.1-3.8c-0.4-0.6-1-0.9-1.8-1h-1
		c-0.9,0.1-1.5,0.8-1.5,1.7c0,0.2,0.1,0.5,0.1,0.7c0.2,1,0.7,1.9,1.1,2.9c0.4,0.9,1,1.3,1.8,1.5c1.3,0.3,2.3-0.5,2.3-1.8
		C42.2,131.3,42.2,131.2,42.2,131.3L42.2,131.3z M34.9,123.1c-0.3,0.5-0.4,1-0.3,1.4c0.1,0.5,0.4,0.7,0.9,0.7
		c0.5-0.1,0.8-0.4,0.9-0.9C36.4,123.4,35.8,123,34.9,123.1z M38.1,122.9c0,0.6,0.3,1,0.8,1c0.6,0,1.1-0.4,1.1-1c0-0.5-0.5-0.9-1.1-1
		C38.5,121.9,38.1,122.3,38.1,122.9z M42.2,123.1c0,0.6,0.2,0.9,0.7,0.9c0.6,0,1.1-0.4,1.1-1c0-0.4-0.6-0.9-1.1-0.9
		C42.4,122.2,42.2,122.5,42.2,123.1z"/>
</g>
<g>
	<g>
		<path id="L" class="st4" d="M42.8,54.7l0.2-1.3l0.3-1.4c0.1-0.5-0.1-0.8-0.6-0.8c-0.6,0-1.3,0-1.9,0.1c-0.3,0-0.5,0.1-0.9,0.1
			c0.7-1,1.4-1.8,2.2-2.5c2.5-2.1,5.2-3.6,8.4-4.4c1.1-0.3,2.2-0.5,3.3-0.4l3,0.3c0.2,0,0.3,0.1,0.4,0.3c0.7,1,1.3,2.1,2,3.2
			l-3.3,0.4c-4.9,0.4-9.1,2.4-12.6,5.9l-0.4,0.4C42.9,54.6,42.8,54.6,42.8,54.7z"/>
	</g>
	<g>
		<path id="M" class="st4" d="M81.6,42.6c-0.6,0.1-1.2,0.1-1.8,0.2c-3.6,0.3-7.1,0.7-10.5,1.6c-1.3,0.3-2.5,0.8-3.7,1.5
			c-0.5-0.7-0.4-1.6-0.5-2.4c-0.2-0.8-0.2-1.6-0.3-2.4c1-0.8,2.1-1.4,3.3-1.8c1.7-0.6,3.5-1,5.3-1.1c1.2-0.1,2.4-0.1,3.5-0.2h0.6
			c0.1,0.4-0.1,0.7-0.2,0.9c-0.1,0.3-0.3,0.5-0.4,0.8c-0.1,0.4,0.1,0.6,0.5,0.8l4.3,1.8C81.6,42.5,81.6,42.6,81.6,42.6z"/>
	</g>
</g>
<g>
	<path id="N" class="st11" d="M92.1,121.3c0.6-0.5,1.1-0.6,1.8-0.5s0.9,0.8,1.5,1.1c0.2-0.1,0.4-0.2,0.7-0.3
		c-0.1-0.2-0.1-0.4-0.2-0.6c0.5-0.9,1.3-1,2.2-0.8s1,0.9,1,1.7c0.4,0.1,0.7,0.1,0.9-0.2c0.7-1,1.5-0.6,1.8,0.4
		c0.4,1,0.4,1.9,0.1,2.8c-0.2,0.7-0.5,1.3-0.8,2c-0.6,1.3-1,2.7-1.3,4.1c-0.2,0.9-0.7,1.8-1.2,2.5c-0.8,1.2-3.1,1.6-4.2,1
		c-0.6-0.4-0.8-1-1.3-1.4c0.1-0.1,0.1-0.2,0.2-0.2c0.6-0.4,0.6-0.5,0.4-1.1s-0.5-1.1-0.8-1.7l1.1-0.8v1c0,0.4,0,0.8,0.1,1.2
		c0.2,1.1,1.5,1.7,2.3,1.6c0.3-0.1,0.7-0.1,1-0.2s0.5-0.3,0.6-0.7c0.4-1.5,0.8-3.1,0.7-4.7c-0.1-0.8-0.6-1.4-1.3-1.6
		c-1.4-0.4-3.2,0.2-3.3,2.1c0,0.3-0.1,0.6-0.2,1.1l-1.6-2.9c-0.1-0.2-0.2-0.6-0.2-0.8c0.2-1.2,0.1-2.4-0.1-3.5
		C92.1,121.8,92.1,121.6,92.1,121.3L92.1,121.3z M93.7,122.7c-0.5,0-0.7,0.4-0.7,1s0.3,0.9,0.8,0.9c0.6,0,1.2-0.4,1.2-0.8
		C94.9,123.2,94.3,122.7,93.7,122.7z M97.5,122.3c-0.5,0-0.8,0.3-0.8,0.9s0.1,0.8,0.6,0.9c0.7,0,1.2-0.3,1.2-0.8
		C98.5,122.8,98,122.3,97.5,122.3z M101.1,124.1c-0.1-0.4-0.4-0.5-0.7-0.6c-0.4-0.1-0.7,0-0.9,0.4c-0.2,0.5-0.1,1,0.3,1.2
		c0.1,0.1,0.3,0.1,0.4,0C100.7,124.9,101,124.6,101.1,124.1z"/>
</g>
<g>
	<g>
		<path id="O" class="st12" d="M89.8,132.6c-0.2-0.2-0.3-0.4-0.5-0.5l-0.6-0.6c-0.5-0.3-0.9-0.2-1.1,0.4c-0.1,0.3,0,0.6-0.3,0.8
			c-0.3,0-0.5-0.3-0.7-0.5c-0.3-0.5-0.7-0.6-1.2-0.7c-0.2,0.2-0.3,0.4-0.5,0.6c-0.1,0.2-0.2,0.4-0.4,0.5c-0.6,0.6-1,0.6-1.5-0.1
			c-0.1-0.1-0.2-0.3-0.3-0.4c-0.4-0.5-0.8-0.5-1.2,0c-0.3,0.3-0.6,0.5-0.8,0.8c-0.4-0.2-0.3-0.5-0.4-0.7c0-0.5-0.3-0.8-0.9-0.9
			c-0.3,0.3-0.7,0.7-1.3,1.1c0.1-0.4,0.2-0.6,0.2-0.8v-0.7c-0.5-0.5-1-0.3-1.5-0.1c0.6-1.1,1.3-2.1,1.2-3.3c0.2,0,0.3-0.1,0.4-0.1
			c2.3,0.3,4.5,0.4,6.8,0.3c1.8,0,3.6-0.4,5.3-1.2c0.1-0.1,0.3-0.1,0.4-0.2l1.5,2.7c-0.3,0-0.5,0.1-0.8,0.1c-0.3,0.5-0.2,0.9,0,1.3
			l0.6,1.2c-0.8-0.1-1-1-1.9-0.9C90.1,131.2,90.4,132.1,89.8,132.6L89.8,132.6z"/>
	</g>
	<g>
		<path id="P" class="st12" d="M59.6,131c-0.3-0.1-0.5-0.2-0.7-0.2c-0.6-0.2-0.7-0.1-0.9,0.5c-0.1,0.3-0.1,0.5-0.2,0.8
			c-0.4,0-0.7-0.2-0.9-0.5c-0.2-0.2-0.4-0.5-0.6-0.6c-0.3-0.2-0.6-0.2-0.9-0.3l-0.5,0.9c-0.4,0.5-0.8,0.5-1.2,0
			c-0.1-0.1-0.2-0.3-0.3-0.4c-0.3-0.3-0.8-0.4-1,0.1c-0.1,0.2-0.2,0.3-0.3,0.5c-0.3,0.4-0.7,0.4-1,0c-0.1-0.1-0.1-0.2-0.2-0.3
			c-0.3-0.4-0.3-0.4-0.9-0.7c-0.5,0.3-0.9,1-1.7,1.1c-0.2-0.6-0.1-1.3-1-1.4c-0.5,0.2-0.9,0.5-1.4,0.8l-0.1-0.1c0-0.2,0.3-0.5,0-0.7
			c-0.2-0.2-0.5-0.2-0.8-0.3h-0.4c0.4-0.6,0.7-1.1,1-1.7l0.8-1.8l4,0.8c1.4,0.2,2.8,0.2,4.2,0.2l4.2-0.1c0.1,0.6,0.1,1.2,0.2,1.8
			C59.2,129.9,59.5,130.4,59.6,131L59.6,131z"/>
	</g>
</g>
<g>
	<path id="Q" class="st13" d="M47.2,103.3c0,0.4,0,0.8-0.1,1.1c-0.4,2.3-0.2,4.7-0.9,7.1c-1.1-0.6-2.2-1.2-3.5-1.2
		c-1.2,0-2.5,0-3.7,0.8v-0.7c0.4-1.6,0.8-3.2,1.6-4.8c0.3-0.7,0.7-1.4,1.4-1.9C43.6,102.4,45.3,102.2,47.2,103.3z"/>
</g>
<g>
	<path id="R" class="st12" d="M116.6,128.5c-1.4,1-4.9,1.9-7.7,0.9c-0.1,0.3-0.3,0.7-0.4,1.1l-6.8-2.2c0.5-1.5,1.3-3,1.6-4.7
		c1.6,0.6,3,1.4,4.6,1.8s3.1,0.5,4.8,0.5c-0.1,0.5-0.5,0.6-0.8,0.9c-0.3,0.2-0.5,0.4-0.5,0.8c0,0.3,0.1,0.6,0.5,0.6
		c0.7,0.1,1.3,0.3,2,0.3C114.8,128.6,115.6,128.5,116.6,128.5L116.6,128.5z"/>
</g>
<g>
	<path id="S" class="st13" d="M88.3,104.9c0.2-0.1,0.3-0.2,0.4-0.3c0.5-0.4,1-0.7,1.4-1.1c0.3-0.3,0.7-0.4,1-0.3l1.9,0.6
		c0.6,0.3,1.1,0.7,1.5,1.2c1.1,1.6,1.7,3.4,2.4,5.1c0.1,0.4,0.3,0.8,0.4,1.2c-0.7,0-1.4-0.1-2,0c-0.7,0.1-1.3,0.3-1.9,0.6l-1.9,1
		c-0.2-1.5-0.4-2.9-0.8-4.3C90.2,107.2,89.3,106,88.3,104.9L88.3,104.9z"/>
</g>
<g>
	<path id="T" class="st10" d="M47.5,133.5c-0.6,0.9-0.7,1.8-0.7,2.7c-1.2,0-1.9-0.8-2-1.8c0-0.8,0.1-1.6,0.4-2.2l2-0.6
		c0.1,0.2,0.1,0.3,0.2,0.5c0.2,0.6,0.5,0.7,1.1,0.5c0.4-0.1,0.7-0.3,1-0.5c0.1-0.1,0.2-0.2,0.4-0.2c0.5,0.3,0.8,0.9,1.4,0.9
		s1.1-0.3,1.5-0.6c0.9,0.8,1.5,0.7,2.9-0.2c1.1,0.8,1.1,0.8,2,1c0.2,0.4,0.1,0.9,0.1,1.4c0,0.4-0.3,0.5-0.6,0.7
		c-0.9,0.5-1.9,0.9-2.9,1.2c-0.7,0.2-1.3,0.3-2,0.4c-0.4-0.8-0.1-1.5,0-2.3c-0.2-0.1-0.4-0.2-0.6-0.4c-0.7,0.8-0.5,1.8-0.5,2.7
		c-1.2,0.2-2.3-0.1-3.5-0.1c-0.1-1,0.1-1.8,0.3-2.8C48,133.7,47.8,133.6,47.5,133.5L47.5,133.5z"/>
</g>
<g>
	<path id="U" class="st12" d="M46.1,113.1l-0.6,3.5l-0.5,3.6c-1.3-0.8-2.4-0.7-3.5,0.2l-1.3-0.6c0.1-0.5,0.3-0.9,0.4-1.3
		c0.1-0.6,0.1-0.6-0.4-0.9c-0.1-0.1-0.2-0.1-0.3-0.2c0.2-0.3,0.5-0.6,0.7-0.9c0.4-0.6,0.3-0.9-0.4-1.1c-0.1-0.1-0.3-0.1-0.5-0.2
		c0.9-0.6,1.2-1.4,1.2-2.3c0-0.5,0.1-1,0.2-1.5C42.7,110.8,44.5,111.4,46.1,113.1z"/>
</g>
<g>
	<path id="V" class="st10" d="M78.8,133.2c0.2-0.1,0.4-0.3,0.7-0.4c0.1,0.2,0.1,0.3,0.2,0.5c0.3,0.6,0.6,0.8,1.3,0.5l0.6-0.3
		c0.2-0.1,0.4-0.3,0.6-0.5c0.4,0.7,0.9,1.1,1.8,1.1c0.8,0,1.3-0.6,1.8-1c1.4,1.1,1.8,1.2,2.9,0.1c0.4,0.4,1,0.5,1.6,0.4
		s0.9-0.6,1-1.3c0.2,0.2,0.3,0.3,0.3,0.4c0.2,0.6,0.4,1.2,0.5,1.8c0.2,1.2-0.8,2.3-2,2.4l-0.6-2.3c-0.1-0.4-0.4-0.6-0.9-0.5
		c-0.2,0.3-0.1,0.7,0,1c0.2,0.6,0.3,1.3,0.3,2.1c-0.6,0-1.2,0-1.7,0.1h-1.7l-0.2-1.9c-0.1-0.7-0.3-0.9-1.1-1.1c-0.1,1,0.4,2,0.1,3
		c-1.3,0.1-2.5-0.1-3.7-0.5C79.4,136.1,78.7,134.7,78.8,133.2L78.8,133.2z"/>
</g>
<g>
	<path id="W" class="st12" d="M97.3,116c-0.4,0.4-0.8,0.3-1.2,0.4c-0.6,0-0.8,0.4-0.5,0.9c0.1,0.3,0.4,0.5,0.6,0.7s0.4,0.3,0.6,0.5
		c-0.5,0.6-0.7,1.4-1.5,1.9c-1-0.6-2.1-0.6-3.3-0.2l-0.4-6.1c1.2-0.9,2.4-1.6,4-1.7C95.8,113.7,95.8,115.2,97.3,116z"/>
</g>
<g>
	<path id="X" class="st8" d="M69.4,38c0.2-2.1,1.3-3.6,3.2-4c0.8-0.2,1.8-0.1,2.6,0c1.3,0.2,2.3,1.1,3,2.1c1,1.4,1.7,3,2,4.7
		c-0.8-0.3-1.6-0.6-2.3-1l0.6-1.5c0.2-0.5,0-0.7-0.5-0.9c-0.5-0.1-1-0.2-1.5-0.2C74.2,37.2,71.8,37.4,69.4,38z"/>
</g>
<g>
	<g>
		<path id="Y" class="st4" d="M58.9,59.3v-1.4c-0.1-2-0.9-3.7-2.3-5.1c-0.8-0.8-1.8-1.2-2.9-1.3c-0.8-0.1-1.6-0.1-2.4,0.2h-0.2
			c0.1-0.2,0.2-0.3,0.3-0.5c0.7-0.9,1.5-1.6,2.7-1.6c0.7-0.1,1.3-0.2,2-0.4c0.5-0.2,0.9,0,1.3,0.3c0.7,0.4,1.1,1,1.5,1.6
			c0.8,1.4,1.3,2.8,1.4,4.4C60.3,56.8,60,58.1,58.9,59.3z"/>
	</g>
	<g>
		<path id="Z" class="st4" d="M76.2,55.1c0.6-2.4,0.1-4.5-1.2-6.3c-1-1.4-2.4-2.1-4.1-2.2c-1.3,0-2.6,0.2-3.9,1
			c0.3-0.7,0.6-1.2,0.8-1.6c0.1-0.2,0.3-0.3,0.5-0.4c1.4-0.4,2.9-0.9,4.4-0.8c0.5,0,0.9,0.1,1.3,0.4c1.6,1.3,3,2.8,3.6,4.9
			c0.3,1,0.4,2,0.1,3C77.5,54,77,54.6,76.2,55.1z"/>
	</g>
</g>
<g>
	<path id="a" class="st8" d="M80.1,43.7c0.4-0.1,0.8-0.1,1.2-0.2l1.7,2.7c0.6,0.9,1.1,1.9,1.6,2.8c0.5,0.8,0.7,1.6,0.6,2.5
		c-0.1,0.7-0.3,1.3-0.9,1.7c-0.2-0.2-0.3-0.4-0.5-0.7c0.2-0.2,0.4-0.3,0.6-0.4c0.3-0.3,0.4-0.6,0.1-0.9c-0.2-0.2-0.5-0.4-0.7-0.6
		c-0.6-0.4-1.1-1-1.4-1.7c-0.9-1.4-1.6-2.9-2-4.6C80.2,44.2,80.1,44,80.1,43.7L80.1,43.7z"/>
</g>
<g>
	<path id="b" class="st14" d="M70,104.2l1.7,0.9c0.2,0.2,0.4,0.5,0.6,0.8c-1.2,1-2.4,1.2-3.7,0.7c-1.8-0.7-3.2-1.9-4.3-3.6
		c-0.4-0.7-0.5-1.4-0.8-2.3l1.5,1.5l1.2,1.1l2.7,2c0.1,0.1,0.2,0.2,0.3,0.2c0.5,0.3,1,0,1-0.6C70.1,104.7,70.1,104.5,70,104.2z"/>
</g>
<g>
	<path id="c" class="st8" d="M42.6,42.8l-0.3,0.3c-1.6,0.8-2.6,2.2-3.3,3.8l-0.9,2c-0.1-0.1-0.1-0.2-0.2-0.3
		c-0.1-1.1-0.2-2.3,0.1-3.4c0.3-1.2,1.1-2,2.1-2.5C40.8,42.2,41.7,42.4,42.6,42.8z"/>
</g>
<g>
	<path class="st4" d="M54.3,53.6c0.7,0,1.1,0.4,1.1,1.1c0,0.6-0.5,1-1.1,1.1c-0.6,0-1-0.5-1-1.2C53.2,53.9,53.5,53.6,54.3,53.6z"/>
	<g>
		<path id="d" class="st4" d="M71.1,48.9h0.7c0.9,0,1.2,0.4,1.1,1.3c-0.1,0.5-0.3,0.8-0.7,0.8c-0.5,0.1-0.9-0.1-1.1-0.5
			C70.9,50,70.9,49.5,71.1,48.9z"/>
	</g>
	<path class="st4" d="M84.8,66.6c-0.4,0-0.8,0.2-1.1-0.2c-0.4-0.5-0.8-1.1-0.6-1.9c0.2-0.1,0.4-0.3,0.7-0.4
		C84.3,64.6,84.3,64.6,84.8,66.6z"/>
</g>
<g>
	<g>
		<path id="e" class="st2" d="M39.5,113.7c-0.9-0.9-0.8-1.4,0.4-2.1C39.9,112.4,39.7,113.1,39.5,113.7z"/>
	</g>
	<g>
		<path id="f" class="st2" d="M96.8,113.8c-0.1-0.4-0.3-0.9-0.4-1.3c0.5-0.1,0.9,0.2,1.2,0.5C97.4,113.4,97.1,113.5,96.8,113.8z"/>
	</g>
</g>
<g>
	<path class="st3" d="M74.4,44.5c0.7-0.3,3.9-0.7,4.8-0.6c0.1,1.5,0.7,2.8,1.3,4.2c0.6,1.3,1.4,2.5,2.6,3.4
		c-0.2,0.2-0.4,0.4-0.5,0.6s-0.1,0.6,0.1,0.8c0.6,1,0.9,2.2,1.9,3.2L82,56.5c-2.2,0.2-4.3,0.6-6.5,1c-3,0.6-5.9,1.4-8.7,2.6
		c-0.9,0.4-1.8,0.8-2.7,1.4c-2.5,1.7-4.8,3.5-6.6,5.8l-1.3,1.5c-1.4,1.5-2.3,3.3-3.1,5.1c-0.8,1.9-1.9,3.4-3.4,4.8
		c-0.2,0.1-0.3,0.3-0.4,0.5c-0.1,0.6,0.1,0.9,0.7,1c0.4,0.1,0.8,0,1.2,0h0.4c-1.1,3-1.3,6.1-0.8,9.3c-1.2-0.6-2.2-1.2-2.9-2.2
		c-0.6-0.8-1.3-1.5-1.6-2.5c-0.1-0.4-0.5-0.4-0.8-0.5c-0.4,0.5-0.8,1-1.3,1.4l-0.1-0.1c0.2-0.7,0.4-1.3,0.5-2s0-1.4,0-2l-0.1-2.1
		l-0.8-0.3c-0.8,0.5-1,1.5-2,1.7c0.5-1.7,0.8-3,0.7-4c-0.2-0.1-0.5-0.2-0.8-0.3c-0.6,0.9-1.5,1.3-2.4,2c0.2-0.5,0.3-0.9,0.5-1.2
		c0.3-0.7,0.5-1.5,0.5-2.3v-1.2c0-0.4,0.1-0.8,0.3-1.2c0.1-0.3,0.3-0.5,0.4-0.8c0.6-1.1,0.9-2.2,0.8-3.5l-0.2-3.1l-0.6-4.6
		c-0.4-2.5-1-5-1.8-7.5C39,53,39,52.8,38.9,52.5l3.5-0.7v0.6L42,54.5c-0.1,0.4-0.1,0.8-0.1,1.2c0,0.3,0,0.7,0.3,0.8
		c0.2,0,0.5-0.2,0.8-0.3c0.2-0.1,0.3-0.3,0.4-0.5c1.9-2.3,4.3-4,7.1-5.2h0.2c-0.3,0.5-0.7,0.9-1,1.3c-0.9,1.3-1.6,2.8-1.9,4.4
		c-0.2,1.3,0.1,2.5,0.7,3.6c0.7,1.1,1.8,1.6,3.1,1.9c1.6,0.3,3.2,0.3,4.8,0.1c1.2-0.1,2.2-0.8,3.1-1.6c1.7-1.5,2.3-3.4,2-5.6
		c-0.2-1.6-0.6-3.2-1.6-4.5c-0.3-0.5-0.8-0.9-1.2-1.4c0.6,0,1.1,0,1.5-0.6c0-0.7-0.4-1.4-0.8-2l-1.3-1.9c-0.3-0.5-0.8-0.8-1.5-0.8
		c-0.6,0-1.1-0.1-1.7-0.2c-2.5-0.4-4.8,0.1-7.1,0.9c-2.9,1.1-5.5,2.7-7.6,5c-0.6,0.6-1.1,1.3-1.6,2v-0.4c0.2-0.7,0.4-1.4,0.7-2
		c0.6-1.4,1.2-2.8,2.3-3.9c0.3-0.3,0.6-0.5,0.9-0.7c0.6-0.4,1.1-0.9,1.4-1.6c-0.1-0.1-0.2-0.3-0.4-0.3c-1-0.6-2.1-0.7-3.3-0.6
		c-0.6,0.1-1.1,0.4-1.5,0.8c-1.3,1-2,2.4-2,4.1c0,1.2,0.1,2.4,0.4,3.5l0.9,4l1.5,6.3c0.3,1.6,0.5,3.1,0.6,4.7c0.1,1,0.1,1.9,0.3,2.9
		c0.2,1.1,0,2.1-0.5,3.1L39,72.8c-0.6,1.4-2.7,3.1-4.1,3.5l0.1-2.5c0-0.3-0.1-0.5-0.5-0.7s-0.7-0.1-0.8,0.4c-0.2,0.7-0.7,1-1.4,1.3
		L32,71.7c-0.2-1-0.5-2-1-2.9s-1.1-1.7-1.7-2.5s-1.4-1.5-2.4-2c-0.2,0.2-0.3,0.4-0.5,0.7c-0.3-2.2-1.5-3.9-2.7-5.6
		c-0.9-1.2-1.7-2.5-2.4-3.8c-0.5-0.9-0.7-1.8-0.8-2.9c-0.2-2.1,0.9-3.7,2.1-5.2c1.1-1.4,2.7-2.3,4.4-2.9l2-0.9l6.5-3l3.6-1.9
		l1.2-0.6c0.8-0.4,1.4-0.3,2.1,0.2c1.3,1,2.2,2.2,2.8,3.7c0,0.1,0.1,0.1,0.1,0.2c0.4,0.1,0.6,0,0.9-0.4c-0.1-0.9-0.9-1.5-1.3-2.4
		c0.9-0.2,1.6-0.8,2.2-1.4c1.3-1.2,2.6-2.4,4.2-3.3c1-0.6,2-1,3.1-1.4h0.4c-0.3,0.7-0.2,1.4-0.1,2.1c0.1,0.5,0.5,0.8,0.9,0.6
		c0.4-0.1,0.8-0.3,1.1-0.6c1.2-0.9,2.5-1.6,3.9-2.2c0.1,0,0.2-0.1,0.4-0.2c-0.4,0.9-0.6,1.8,0,2.7c0.8-0.2,1.5-0.5,2.3-0.6
		c0.7-0.1,1.5-0.1,2.3,0c0,0.9-0.5,1.7-0.3,2.6c0.4,0.1,0.6-0.1,0.8-0.3c0.1-0.2,0.2-0.4,0.2-0.7l0.7-2.6c0.1-0.5,0.3-0.9,0.6-1.3
		c0.5-0.9,1-1.7,1.6-2.5c0.7-1,1.7-1.5,2.9-1.5c1.3,0,2.5,0.4,3.6,1c1.8,1,3.4,2.3,5.1,3.4s3.5,1.9,5.4,2.2c1.3,0.2,2.6,0.4,4,0.4
		c0.1,0,0.2,0,0.3,0.1c-0.6,0.6-1.3,1-2.1,1.4c-0.3,0.1-0.5,0.3-0.5,0.7c1.4,1.1,3,1.6,4.7,2.1c1.6,0.5,3.2,1.1,5.1,1
		c-0.6,0.5-1.2,0.8-1.8,0.9c-0.1,0-0.3,0-0.4,0.1c-0.2,0.1-0.3,0.4-0.1,0.5c0.2,0.2,0.4,0.4,0.7,0.5c1.3,0.3,2,1.2,2.5,2.3
		c0.6,1.3,1.1,2.7,1.2,4.1c0.2,1.1,0.2,2.3,0.2,3.4c0,0.3,0,0.7-0.3,0.9c-0.4-0.6-0.5-1.4-1.5-1.4c-0.1,0.2-0.3,0.4-0.4,0.7
		c-0.4,1.1-1.1,2.1-1.8,3c-0.1,0.1-0.2,0.3-0.4,0.4c-0.3,0.3-0.6,0.4-1,0.2c-1.6-0.4-3.2-0.5-4.8-0.7c-1.1-0.1-2.2,0-3.3,0h-0.4
		l-1.5-1.9c1.5-0.9,1.7-2.4,1.5-3.8c-0.1-0.8-0.5-1.5-0.9-2.2l-2.7-4.8c0.3-0.2,0.7-0.4,1.1-0.6l-0.4-0.4l-1-0.6
		c-0.4-0.2-0.6-0.4-0.7-0.8c-0.5-1.3-0.8-2.6-1.5-3.8c-0.6-1-1.2-1.9-2-2.7c-0.9-0.8-1.9-1.3-3-1.5c-0.9-0.1-1.8-0.2-2.6,0
		c-1.9,0.5-3.4,1.7-3.8,3.8c-0.1,0.4-0.2,0.9-0.2,1.3c-0.7,0.3-1.4,0.5-2,0.9c-0.8,0.4-1.6,0.9-2.4,1.4c-0.2,0.1-0.3,0.5-0.3,0.7
		c0,0.5,0.1,1.1,0.1,1.6c0.1,1.5,0.3,2.9,0.9,4.3c0.6,0.3,1-0.2,1.6-0.5c-0.1,0.2-0.1,0.4-0.2,0.6c-0.9,2.5-0.9,4.9,0.2,7.3
		c0.5,1.2,1.3,2,2.6,2.3c0.7,0.2,1.3,0.5,2,0.6c2.4,0.3,4.6-0.2,6.4-1.9c1.4-1.3,1.8-2.9,1.5-4.7C78.4,48,76.8,46,74.4,44.5
		L74.4,44.5z"/>
</g>
<g>
	<path class="st4" d="M51,79.1l1.8-2.2c0.6-0.7,0.9-1.6,1.3-2.4c0.6-1.5,1.3-3,2.3-4.3l1.2-1.4c2.1-2.5,4.3-4.7,7-6.5
		c1.2-0.8,2.4-1.4,3.8-1.9c2.1-0.8,4.3-1.4,6.5-1.9l5.2-0.9c1.1-0.2,2.3-0.3,3.4-0.4l5-0.2c0.9,0,1.9,0.1,2.8,0.2
		c1.2,0.1,2.5,0.3,3.6,0.7c0.1,0,0.2,0.1,0.3,0.1c0.9-0.1,1.6,0.3,2.3,0.7c1,0.5,1.9,1.1,2.7,1.8c0.8,0.6,1.5,1.3,2.2,2.1
		c1.4,1.6,2.5,3.4,3.3,5.4c0.8,1.8,1.4,3.7,1.7,5.7l0.8,6.6c0,1.1,0.2,2.1,0.3,3.2v0.9l-0.8-0.3c-0.3,0.1-0.3,0.4-0.4,0.6
		c-0.3,1.7-0.5,3.5-1.2,5.1c0,0.1-0.1,0.2-0.2,0.4c-1.3-2.6-2.8-4.9-5.1-6.9c0.6,0,0.9,0.1,1.2,0.1c0.5,0,1.1,0.1,1.6,0.1
		c0.4,0,0.8-0.1,1.1-0.5c-0.1-0.1-0.2-0.3-0.3-0.3c-0.8-0.3-1.2-1-1.7-1.6s-0.8-1.4-1.2-2c-0.2-0.4-0.5-0.9-0.4-1.4
		c0-0.1,0-0.3-0.1-0.4c-0.1-0.1-0.2-0.2-0.4-0.2c-0.1,0-0.3,0.2-0.3,0.3c-0.1,0.6-0.1,1.3,0.1,1.8l1.2,2.2l0.6,0.9
		c-0.1,0-0.2,0.1-0.3,0.1c-0.8-0.1-1.7-0.2-2.5-0.5c-1.1-0.3-2.2-0.7-3.3-1.2c-1-0.4-1.8-1.1-2.7-1.7s-1.5-1.5-1.9-2.5
		c-0.1-0.2-0.2-0.5-0.3-0.6c-0.2-0.3-0.3-0.7-0.3-1.1l-0.1-2.3c0-0.3,0.1-0.6,0.3-0.9c0.6-0.9,1.4-1.7,2.5-2l2.3-0.8
		c1.8-0.5,2.4-1.4,2.6-3.2s-1.1-3-2.3-3.2L93,61.9c-1.9-0.2-3.8-0.2-5.8-0.2c-1.5,0-3,0.2-4.5,0.5c-0.2,0-0.5,0.1-0.7,0.2
		c-0.9,0.2-1.3,0.9-1.4,1.7c-0.2,1.4,0.1,2.7,0.9,3.9c0.4,0.7,1.2,1,1.9,1.2l2.9,0.7c0.4,0.1,0.8,0.2,1.2,0.4c1,0.3,1.6,1.2,2.2,2
		c0.1,0.1,0.1,0.3,0.1,0.5v3.1c0,0.4-0.1,0.6-0.3,0.9L88.6,78c-0.6,0.8-1.4,1.3-2.2,1.8c-2,1.3-4.2,2-6.4,2.6
		c-1.8,0.5-3.6,0.7-5.5,1L72,83.7l1.4-1.7c0.2-0.2,0.3-0.4,0.5-0.6s0.3-0.5,0.1-0.8s-0.5-0.5-0.9-0.4c-0.7,0.1-1.3,0.2-2,0.4
		c-1.2,0.2-2.4,0.2-3.5,0.1c-1.4-0.1-2.8-0.3-4.2-0.7s-2.8-0.8-4.2-1.5c2.4-0.2,4.5-1.1,6.2-2.7c-0.2-0.4-0.4-0.5-0.7-0.4
		s-0.5,0.2-0.8,0.4l-2.7,1.3c-0.9,0.4-1.7,0.5-2.7,0.2c-0.1,0-0.3-0.1-0.4-0.1c-0.3,0.3-0.4,0.7-0.2,1s0.4,0.7,0.6,0.9l1,0.6
		c-1.3,2-1.9,4.2-2.2,6.6c-1.2-1-1.4-0.7-2.2,0.1c-1.3,1.2-2,2.8-2.4,4.6c-0.1,0.4-0.2,0.9-0.4,1.3c-0.4-1.8-1.2-3.6-1-5.5l0.2-3.2
		c0-0.4,0.2-0.9,0.3-1.3c0.2-0.7,0.5-1.3,0.7-2c0.1-0.4,0-0.6-0.4-0.7C52,79.2,51.5,79.2,51,79.1L51,79.1z"/>
</g>
<g>
	<path class="st5" d="M51.2,91.5l1.4,4.5c0.9,0,1.1-0.1,1.1-0.9c0-1.6,0.1-3.2,0.6-4.8l0.7-1.8c0.1,0.3,0.2,0.4,0.2,0.5l0.7,2.1
		l2,5.2c0,0.1,0.1,0.2,0.1,0.2c0.4,1,1.5,1.2,2.2,0.3l0.6-0.9l1.5,2.8c0.1,0.3,0.3,0.6,0.2,0.9c0,2.6,1.1,4.6,3,6.2
		c0.7,0.6,1.4,1,2.2,1.4c1.6,0.8,3.2,0.9,4.8-0.2c0.1-0.1,0.2-0.1,0.3-0.2c1,1.3,2.3,2.2,3.9,2.9v5l0.2,5.1
		c-5.3,1-10.6,1.2-15.8,0.4C61,120,61,120,61,119.9c-0.1-1.5-0.1-3.1-0.2-4.6c0-1.4-0.1-2.7-0.3-4.1c-0.1-0.7-0.1-1.3-0.2-2
		c-0.1-0.9-0.1-1.8-0.2-2.7c-0.1-1.2-0.3-2.3-0.4-3.5c0-0.4-0.1-0.8-0.1-1.3c-0.2-0.1-0.4-0.2-0.5-0.3c-0.3,0.3-0.3,0.6-0.3,0.9
		c0.1,1,0.1,2,0.2,3c0.1,1.3,0.3,2.6,0.4,4l0.3,3.7v0.4c0.1,2,0.1,4,0.2,5.9c0,0.6,0.1,1.2,0.3,1.8c0.4,0.9-0.1,2.1-1.3,2.3
		s-2.5,0.5-3.8,0.3c-0.4-0.1-0.9,0-1.3,0c-1.5,0-2.9-0.2-4.2-1.1c-0.1,0-0.2-0.1-0.2-0.1h-0.2c-0.2,0.2-0.2,0.5,0,0.6
		c0.3,0.3,0.7,0.7,1.1,0.8c0.6,0.2,1.2,0.4,1.9,0.4l3.8,0.3c0.9,0.1,1.9,0,2.8-0.3c0.2-0.1,0.5-0.1,0.7-0.1c0.3,0.4,0.5,0.8,0.8,1.2
		c-0.7,0.4-1.4,0.7-2.2,0.7c-1.7,0.1-3.4,0.2-5,0.2c-2.3-0.1-4.5-0.4-6.7-1.1c-0.2-1-0.3-2.1-0.1-3.2c0.1-0.3,0.1-0.6,0-1
		c-0.1-1.5,0.2-3.1,0.5-4.6l1.3-7.8c0.2-1,0.1-2.1,0.2-3.1c0.2-1.8,0.3-3.7,0.5-5.5c0.2-1.4,0.3-2.7,0.6-4.1
		c0.2-1.3,0.7-2.6,1.4-3.8C50.7,92.1,50.9,91.8,51.2,91.5z"/>
</g>
<g>
	<path class="st6" d="M70.8,95.5l1.4,1.6c0.3,0.3,0.4,0.3,0.9,0c-0.7-1.2-1.4-2.3-2.6-3.1c-0.5-0.4-0.9-0.9-1.4-1.2l-3-2.4
		c0.4-0.2,0.7-0.4,1.2-0.6c1.2-0.4,2.4-0.7,3.6-0.7c1.3,0.1,2.5,0.4,3.6,1.1c1.2,0.8,2,1.9,2.5,3.2c0.1,0.4,0.3,0.7,0.5,1.1
		c0.1,0.2,0.3,0.4,0.4,0.6c0.4,0,0.5-0.2,0.5-0.5v-0.4c-0.5-1.9-1.3-3.6-3.1-4.7c-0.2-0.1-0.5-0.3-0.8-0.6c0.2-0.1,0.4-0.2,0.5-0.3
		c1.6-0.5,3.1-0.8,4.8-0.4c1.8,0.4,3.2,1.3,4.2,2.8c1.3,2,2.2,4.2,2.7,6.5c0.3,1.5,0.5,3.1,0.5,4.6c0,2.6-1.2,4.4-3.3,5.7
		c-1,0.6-2.2,1-3.5,1c-0.9,0-1.8,0-2.7-0.1c-0.6,0-1.1-0.3-1.6-0.6c-1.9-1-3-2.6-3.5-4.6l-0.8-3.7l-0.2-2
		C71.2,97.2,71,96.4,70.8,95.5z"/>
</g>
<g>
	<path class="st7" d="M77.4,109.9h3.4c1.7,0,3.1-0.7,4.5-1.7c1-0.7,1.6-1.7,2.2-2.8c0.9,1,1.6,2,2,3.3c0.4,1.4,0.7,2.9,0.8,4.4
		l0.5,7.9l0.3,2.5v1.5c-1.1,0.7-2.4,1.1-3.7,1.3c-2.4,0.3-4.8,0.2-7.2,0.1l-2.1-0.2c-0.2,0-0.4-0.1-0.7-0.2
		c-0.1-0.7,0.1-1.2,0.3-1.9l1.6,0.4c1.4,0.5,2.8,0.3,4.2,0.2c1.1-0.1,2.2-0.5,3.2-1c0.1-0.1,0.3-0.1,0.4-0.2
		c0.2-0.1,0.5-0.3,0.5-0.6c0-0.4-0.3-0.5-0.6-0.5c-0.9,0.5-1.8,1-2.9,1.2c-2,0.4-4,0.3-5.9-0.5c-0.8-0.3-1-0.5-0.9-1.4
		c0-0.2,0-0.5,0.1-0.7c0.3-0.7,0.3-1.4,0.3-2.1l-0.2-8.6C77.5,110.3,77.5,110.1,77.4,109.9L77.4,109.9z"/>
</g>
<g>
	<path class="st8" d="M89.6,78.5c0,0.5,0,0.9-0.1,1.3l-0.9,6.4c-0.3,1.7-0.6,3.4-1.4,4.9C87,91.7,86.7,92,86,92.5l-0.9-1.4
		c-1.4-2.2-3.4-3.4-5.9-3.7c-1.5-0.2-3,0.1-4.4,0.6c-0.3,0.1-0.5,0.2-0.7,0.4c-0.4,0.3-0.7,0.3-1.1,0.2c-2-0.6-4-0.2-6,0.5
		c-0.6,0.2-1,0.5-1.6,0.8c-0.8-0.4-1.2-1.1-1.6-1.8c-0.5-0.8-0.9-1.7-1.2-2.6c-0.5-1.4-0.3-2.7,0.7-3.8c0.5-0.6,1-0.8,1.8-0.6
		c2,0.5,4.1,0.6,6.2,0.4c0.5,0,1.1-0.2,1.8-0.3l-1.5,1.6c-0.4,0.4-0.5,0.8-0.2,1.3c0.1,0.1,0.2,0.2,0.3,0.2c0.2,0,0.4,0.1,0.6,0
		l2.9-0.3l2.3-0.3l3.7-0.9c2.2-0.5,4.3-1.4,6.3-2.6C88,79.7,88.8,79.1,89.6,78.5L89.6,78.5z"/>
</g>
<g>
	<path class="st9" d="M71.3,103.7c-0.8-0.5-1.2-1.2-2.1-1.3c-0.5,0.3-0.3,0.9-0.5,1.4c-0.2-0.1-0.3-0.2-0.4-0.2
		c-0.2-0.2-0.4-0.4-0.7-0.5c-1.8-1.1-3.2-2.7-4.3-4.5c-0.7-1.1-1.4-2.2-1.7-3.5c0-0.1-0.1-0.2-0.1-0.3c-0.1-0.3-0.2-0.7-0.6-0.6
		c-0.4,0-0.6,0.3-0.8,0.6l-0.6,1.3c-0.1,0.1-0.2,0.2-0.4,0.5c-0.9-3.2-2.6-6-3.2-9.2l0.6-0.6l1.5,1.4c0.3-0.1,0.5-0.3,0.7-0.4
		c-0.4-1.6,0-3,0.5-4.4c0.4-1.2,0.6-2.6,1.8-3.4l1.9,0.7c-0.1,0.2-0.2,0.4-0.4,0.5c-1.4,1.4-1.5,3.1-1,4.9c0.3,0.9,0.8,1.8,1.2,2.6
		c0.6,1.2,1.6,2,2.7,2.7c1,0.6,1.9,1.2,2.7,1.9c1,0.8,1.6,2,1.9,3.2l0.5,3c0.1,1.3,0.3,2.6,0.7,3.8
		C71.3,103.3,71.3,103.4,71.3,103.7z"/>
</g>
<g>
	<path class="st10" d="M76.4,121c-0.2,1-0.4,2,0.6,2.7c-0.1,0.5-0.3,1-0.4,1.5c-0.3,1.1-0.2,1.3,0.8,1.9c0,0.7-0.2,1.3-0.5,1.9
		c-0.4-0.1-0.7-0.2-1-0.6c-0.3-0.5-0.8-0.5-1.2-0.1c-0.1,0.1-0.3,0.3-0.5,0.4c-0.4-0.3-0.6-1-1.3-0.9c-0.1,0.1-0.2,0.3-0.4,0.5
		c-0.4,0.5-0.5,0.5-1,0.1c-0.2-0.2-0.5-0.3-0.8-0.5l-0.5,0.5c-0.2,0.2-0.4,0.4-0.6,0.5c-0.6,0.3-0.9,0.2-1.2-0.3
		c-0.2-0.3-0.5-0.5-0.9-0.5c-0.1,0.2-0.2,0.4-0.4,0.6c-0.6,0.7-1.2,0.8-1.8,0.1c-0.3-0.3-0.5-0.6-1-0.5c-0.1,0.2-0.3,0.4-0.5,0.7
		c-0.5,0.7-0.8,0.7-1.5,0.2c-0.1-0.1-0.3-0.2-0.4-0.3c-0.4-0.2-0.6-0.1-0.8,0.2s-0.4,0.5-0.6,0.9c-0.4-1-0.4-2-0.5-2.9
		c0.3-0.2,0.6-0.3,0.9-0.5c0.6-0.4,0.6-1,0.1-1.5l-0.3-0.3c-0.2-0.2-0.2-0.5-0.1-0.7c0.1-0.1,0.2-0.2,0.2-0.4
		c0.3-0.7,0.6-1.4,0.4-2.2C66.3,121.9,71.3,121.8,76.4,121L76.4,121z"/>
</g>
<g>
	<path class="st9" d="M93.8,98.7c-0.5,0.2-0.9,0-1.2-0.3c-0.4-0.3-0.7-0.6-1.2-0.9c-0.1,0.3-0.2,0.4-0.1,0.6l0.3,0.8l-0.9,2.1
		c-0.4,0.9-1.6,2.2-2.5,2.6c0-1.7,0.1-3.4-0.3-5.1s-0.8-3.3-1.5-4.9c1.3-0.8,2-2,2.4-3.3c0.6-1.7,0.9-3.5,1.1-5.3l0.6-5
		c0-0.4,0-0.8,0.1-1.2c0-0.6,0.1-1.1,0.2-1.7c0.8,1.6,2,2.6,3.5,3.5c-0.2,0.5-0.4,0.9-0.5,1.3c-0.4,1.3-0.7,2.7-0.6,4.1l0.3,8.5
		l0.3,3.7C93.9,98.4,93.8,98.6,93.8,98.7z"/>
</g>
<g>
	<path class="st10" d="M45.5,126.2c-0.5,1.1-0.9,2.2-1.7,3c-0.3,0.3-0.5,0.6-0.7,0.9c-0.3,0.5,0,0.9,0.5,1h1v0.3
		c-0.4,0.7-0.7,1.6-0.8,2.4c0,0.2-0.1,0.4-0.2,0.5c-0.4,0.4-0.8,0.7-1.3,1c-1,0.6-2.7,0.5-3.9-0.7c-0.7-0.7-1.1-1.6-1.5-2.6
		l-1.5-3.6l-1.2-2.8c-0.5-1.3-0.5-2.5,0.2-3.7c0.3-0.5,0.7-0.7,1.2-0.6c0.2,0.1,0.5,0.2,0.7,0.4c0.5,0.5,0.8,0.5,1.3,0
		c0.1-0.1,0.1-0.2,0.2-0.3c0.8-0.9,2.3-1.2,3.2,0.2c0.4,0.1,0.7-0.1,0.9-0.3c0.9-0.8,1.5-0.9,2.5-0.3c0.4,0.2,0.5,0.5,0.5,0.9v2.8
		C44.9,125.3,44.9,125.8,45.5,126.2L45.5,126.2z M42.2,131.3c0-1.5-0.3-2.7-1.1-3.8c-0.4-0.6-1-0.9-1.8-1h-1
		c-0.9,0.1-1.5,0.8-1.5,1.7c0,0.2,0.1,0.5,0.1,0.7c0.2,1,0.7,1.9,1.1,2.9c0.4,0.9,1,1.3,1.8,1.5c1.3,0.3,2.3-0.5,2.3-1.8
		C42.2,131.3,42.2,131.2,42.2,131.3L42.2,131.3z M34.9,123.1c-0.3,0.5-0.4,1-0.3,1.4c0.1,0.5,0.4,0.7,0.9,0.7
		c0.5-0.1,0.8-0.4,0.9-0.9C36.4,123.4,35.8,123,34.9,123.1z M38.1,122.9c0,0.6,0.3,1,0.8,1c0.6,0,1.1-0.4,1.1-1c0-0.5-0.5-0.9-1.1-1
		C38.5,121.9,38.1,122.3,38.1,122.9z M42.2,123.1c0,0.6,0.2,0.9,0.7,0.9c0.6,0,1.1-0.4,1.1-1c0-0.4-0.6-0.9-1.1-0.9
		C42.4,122.2,42.2,122.5,42.2,123.1z"/>
</g>
<g>
	<g>
		<path class="st4" d="M42.8,54.7l0.2-1.3l0.3-1.4c0.1-0.5-0.1-0.8-0.6-0.8c-0.6,0-1.3,0-1.9,0.1c-0.3,0-0.5,0.1-0.9,0.1
			c0.7-1,1.4-1.8,2.2-2.5c2.5-2.1,5.2-3.6,8.4-4.4c1.1-0.3,2.2-0.5,3.3-0.4l3,0.3c0.2,0,0.3,0.1,0.4,0.3c0.7,1,1.3,2.1,2,3.2
			l-3.3,0.4c-4.9,0.4-9.1,2.4-12.6,5.9l-0.4,0.4C42.9,54.6,42.8,54.6,42.8,54.7z"/>
	</g>
	<g>
		<path class="st4" d="M81.6,42.6c-0.6,0.1-1.2,0.1-1.8,0.2c-3.6,0.3-7.1,0.7-10.5,1.6c-1.3,0.3-2.5,0.8-3.7,1.5
			c-0.5-0.7-0.4-1.6-0.5-2.4c-0.2-0.8-0.2-1.6-0.3-2.4c1-0.8,2.1-1.4,3.3-1.8c1.7-0.6,3.5-1,5.3-1.1c1.2-0.1,2.4-0.1,3.5-0.2h0.6
			c0.1,0.4-0.1,0.7-0.2,0.9c-0.1,0.3-0.3,0.5-0.4,0.8c-0.1,0.4,0.1,0.6,0.5,0.8l4.3,1.8C81.6,42.5,81.6,42.6,81.6,42.6z"/>
	</g>
</g>
<g>
	<path class="st11" d="M92.1,121.3c0.6-0.5,1.1-0.6,1.8-0.5s0.9,0.8,1.5,1.1c0.2-0.1,0.4-0.2,0.7-0.3c-0.1-0.2-0.1-0.4-0.2-0.6
		c0.5-0.9,1.3-1,2.2-0.8s1,0.9,1,1.7c0.4,0.1,0.7,0.1,0.9-0.2c0.7-1,1.5-0.6,1.8,0.4c0.4,1,0.4,1.9,0.1,2.8c-0.2,0.7-0.5,1.3-0.8,2
		c-0.6,1.3-1,2.7-1.3,4.1c-0.2,0.9-0.7,1.8-1.2,2.5c-0.8,1.2-3.1,1.6-4.2,1c-0.6-0.4-0.8-1-1.3-1.4c0.1-0.1,0.1-0.2,0.2-0.2
		c0.6-0.4,0.6-0.5,0.4-1.1s-0.5-1.1-0.8-1.7l1.1-0.8v1c0,0.4,0,0.8,0.1,1.2c0.2,1.1,1.5,1.7,2.3,1.6c0.3-0.1,0.7-0.1,1-0.2
		s0.5-0.3,0.6-0.7c0.4-1.5,0.8-3.1,0.7-4.7c-0.1-0.8-0.6-1.4-1.3-1.6c-1.4-0.4-3.2,0.2-3.3,2.1c0,0.3-0.1,0.6-0.2,1.1l-1.6-2.9
		c-0.1-0.2-0.2-0.6-0.2-0.8c0.2-1.2,0.1-2.4-0.1-3.5C92.1,121.8,92.1,121.6,92.1,121.3L92.1,121.3z M93.7,122.7
		c-0.5,0-0.7,0.4-0.7,1s0.3,0.9,0.8,0.9c0.6,0,1.2-0.4,1.2-0.8C94.9,123.2,94.3,122.7,93.7,122.7z M97.5,122.3
		c-0.5,0-0.8,0.3-0.8,0.9s0.1,0.8,0.6,0.9c0.7,0,1.2-0.3,1.2-0.8C98.5,122.8,98,122.3,97.5,122.3z M101.1,124.1
		c-0.1-0.4-0.4-0.5-0.7-0.6c-0.4-0.1-0.7,0-0.9,0.4c-0.2,0.5-0.1,1,0.3,1.2c0.1,0.1,0.3,0.1,0.4,0
		C100.7,124.9,101,124.6,101.1,124.1z"/>
</g>
<g>
	<g>
		<path class="st12" d="M89.8,132.6c-0.2-0.2-0.3-0.4-0.5-0.5l-0.6-0.6c-0.5-0.3-0.9-0.2-1.1,0.4c-0.1,0.3,0,0.6-0.3,0.8
			c-0.3,0-0.5-0.3-0.7-0.5c-0.3-0.5-0.7-0.6-1.2-0.7c-0.2,0.2-0.3,0.4-0.5,0.6c-0.1,0.2-0.2,0.4-0.4,0.5c-0.6,0.6-1,0.6-1.5-0.1
			c-0.1-0.1-0.2-0.3-0.3-0.4c-0.4-0.5-0.8-0.5-1.2,0c-0.3,0.3-0.6,0.5-0.8,0.8c-0.4-0.2-0.3-0.5-0.4-0.7c0-0.5-0.3-0.8-0.9-0.9
			c-0.3,0.3-0.7,0.7-1.3,1.1c0.1-0.4,0.2-0.6,0.2-0.8v-0.7c-0.5-0.5-1-0.3-1.5-0.1c0.6-1.1,1.3-2.1,1.2-3.3c0.2,0,0.3-0.1,0.4-0.1
			c2.3,0.3,4.5,0.4,6.8,0.3c1.8,0,3.6-0.4,5.3-1.2c0.1-0.1,0.3-0.1,0.4-0.2l1.5,2.7c-0.3,0-0.5,0.1-0.8,0.1c-0.3,0.5-0.2,0.9,0,1.3
			l0.6,1.2c-0.8-0.1-1-1-1.9-0.9C90.1,131.2,90.4,132.1,89.8,132.6L89.8,132.6z"/>
	</g>
	<g>
		<path class="st12" d="M59.6,131c-0.3-0.1-0.5-0.2-0.7-0.2c-0.6-0.2-0.7-0.1-0.9,0.5c-0.1,0.3-0.1,0.5-0.2,0.8
			c-0.4,0-0.7-0.2-0.9-0.5c-0.2-0.2-0.4-0.5-0.6-0.6c-0.3-0.2-0.6-0.2-0.9-0.3l-0.5,0.9c-0.4,0.5-0.8,0.5-1.2,0
			c-0.1-0.1-0.2-0.3-0.3-0.4c-0.3-0.3-0.8-0.4-1,0.1c-0.1,0.2-0.2,0.3-0.3,0.5c-0.3,0.4-0.7,0.4-1,0c-0.1-0.1-0.1-0.2-0.2-0.3
			c-0.3-0.4-0.3-0.4-0.9-0.7c-0.5,0.3-0.9,1-1.7,1.1c-0.2-0.6-0.1-1.3-1-1.4c-0.5,0.2-0.9,0.5-1.4,0.8l-0.1-0.1c0-0.2,0.3-0.5,0-0.7
			c-0.2-0.2-0.5-0.2-0.8-0.3h-0.4c0.4-0.6,0.7-1.1,1-1.7l0.8-1.8l4,0.8c1.4,0.2,2.8,0.2,4.2,0.2l4.2-0.1c0.1,0.6,0.1,1.2,0.2,1.8
			C59.2,129.9,59.5,130.4,59.6,131L59.6,131z"/>
	</g>
</g>
<g>
	<path class="st15" d="M47.2,103.3c0,0.4,0,0.8-0.1,1.1c-0.4,2.3-0.2,4.7-0.9,7.1c-1.1-0.6-2.2-1.2-3.5-1.2c-1.2,0-2.5,0-3.7,0.8
		v-0.7c0.4-1.6,0.8-3.2,1.6-4.8c0.3-0.7,0.7-1.4,1.4-1.9C43.6,102.4,45.3,102.2,47.2,103.3z"/>
</g>
<g>
	<path class="st12" d="M116.6,128.5c-1.4,1-4.9,1.9-7.7,0.9c-0.1,0.3-0.3,0.7-0.4,1.1l-6.8-2.2c0.5-1.5,1.3-3,1.6-4.7
		c1.6,0.6,3,1.4,4.6,1.8s3.1,0.5,4.8,0.5c-0.1,0.5-0.5,0.6-0.8,0.9c-0.3,0.2-0.5,0.4-0.5,0.8c0,0.3,0.1,0.6,0.5,0.6
		c0.7,0.1,1.3,0.3,2,0.3C114.8,128.6,115.6,128.5,116.6,128.5L116.6,128.5z"/>
</g>
<g>
	<path class="st15" d="M88.3,104.9c0.2-0.1,0.3-0.2,0.4-0.3c0.5-0.4,1-0.7,1.4-1.1c0.3-0.3,0.7-0.4,1-0.3l1.9,0.6
		c0.6,0.3,1.1,0.7,1.5,1.2c1.1,1.6,1.7,3.4,2.4,5.1c0.1,0.4,0.3,0.8,0.4,1.2c-0.7,0-1.4-0.1-2,0c-0.7,0.1-1.3,0.3-1.9,0.6l-1.9,1
		c-0.2-1.5-0.4-2.9-0.8-4.3C90.2,107.2,89.3,106,88.3,104.9L88.3,104.9z"/>
</g>
<g>
	<path class="st10" d="M47.5,133.5c-0.6,0.9-0.7,1.8-0.7,2.7c-1.2,0-1.9-0.8-2-1.8c0-0.8,0.1-1.6,0.4-2.2l2-0.6
		c0.1,0.2,0.1,0.3,0.2,0.5c0.2,0.6,0.5,0.7,1.1,0.5c0.4-0.1,0.7-0.3,1-0.5c0.1-0.1,0.2-0.2,0.4-0.2c0.5,0.3,0.8,0.9,1.4,0.9
		s1.1-0.3,1.5-0.6c0.9,0.8,1.5,0.7,2.9-0.2c1.1,0.8,1.1,0.8,2,1c0.2,0.4,0.1,0.9,0.1,1.4c0,0.4-0.3,0.5-0.6,0.7
		c-0.9,0.5-1.9,0.9-2.9,1.2c-0.7,0.2-1.3,0.3-2,0.4c-0.4-0.8-0.1-1.5,0-2.3c-0.2-0.1-0.4-0.2-0.6-0.4c-0.7,0.8-0.5,1.8-0.5,2.7
		c-1.2,0.2-2.3-0.1-3.5-0.1c-0.1-1,0.1-1.8,0.3-2.8C48,133.7,47.8,133.6,47.5,133.5L47.5,133.5z"/>
</g>
<g>
	<path class="st12" d="M46.1,113.1l-0.6,3.5l-0.5,3.6c-1.3-0.8-2.4-0.7-3.5,0.2l-1.3-0.6c0.1-0.5,0.3-0.9,0.4-1.3
		c0.1-0.6,0.1-0.6-0.4-0.9c-0.1-0.1-0.2-0.1-0.3-0.2c0.2-0.3,0.5-0.6,0.7-0.9c0.4-0.6,0.3-0.9-0.4-1.1c-0.1-0.1-0.3-0.1-0.5-0.2
		c0.9-0.6,1.2-1.4,1.2-2.3c0-0.5,0.1-1,0.2-1.5C42.7,110.8,44.5,111.4,46.1,113.1z"/>
</g>
<g>
	<path class="st10" d="M78.8,133.2c0.2-0.1,0.4-0.3,0.7-0.4c0.1,0.2,0.1,0.3,0.2,0.5c0.3,0.6,0.6,0.8,1.3,0.5l0.6-0.3
		c0.2-0.1,0.4-0.3,0.6-0.5c0.4,0.7,0.9,1.1,1.8,1.1c0.8,0,1.3-0.6,1.8-1c1.4,1.1,1.8,1.2,2.9,0.1c0.4,0.4,1,0.5,1.6,0.4
		s0.9-0.6,1-1.3c0.2,0.2,0.3,0.3,0.3,0.4c0.2,0.6,0.4,1.2,0.5,1.8c0.2,1.2-0.8,2.3-2,2.4l-0.6-2.3c-0.1-0.4-0.4-0.6-0.9-0.5
		c-0.2,0.3-0.1,0.7,0,1c0.2,0.6,0.3,1.3,0.3,2.1c-0.6,0-1.2,0-1.7,0.1h-1.7l-0.2-1.9c-0.1-0.7-0.3-0.9-1.1-1.1c-0.1,1,0.4,2,0.1,3
		c-1.3,0.1-2.5-0.1-3.7-0.5C79.4,136.1,78.7,134.7,78.8,133.2L78.8,133.2z"/>
</g>
<g>
	<path class="st12" d="M97.3,116c-0.4,0.4-0.8,0.3-1.2,0.4c-0.6,0-0.8,0.4-0.5,0.9c0.1,0.3,0.4,0.5,0.6,0.7s0.4,0.3,0.6,0.5
		c-0.5,0.6-0.7,1.4-1.5,1.9c-1-0.6-2.1-0.6-3.3-0.2l-0.4-6.1c1.2-0.9,2.4-1.6,4-1.7C95.8,113.7,95.8,115.2,97.3,116z"/>
</g>
<g>
	<path class="st8" d="M69.4,38c0.2-2.1,1.3-3.6,3.2-4c0.8-0.2,1.8-0.1,2.6,0c1.3,0.2,2.3,1.1,3,2.1c1,1.4,1.7,3,2,4.7
		c-0.8-0.3-1.6-0.6-2.3-1l0.6-1.5c0.2-0.5,0-0.7-0.5-0.9c-0.5-0.1-1-0.2-1.5-0.2C74.2,37.2,71.8,37.4,69.4,38z"/>
</g>
<g>
	<g>
		<path class="st4" d="M58.9,59.3v-1.4c-0.1-2-0.9-3.7-2.3-5.1c-0.8-0.8-1.8-1.2-2.9-1.3c-0.8-0.1-1.6-0.1-2.4,0.2h-0.2
			c0.1-0.2,0.2-0.3,0.3-0.5c0.7-0.9,1.5-1.6,2.7-1.6c0.7-0.1,1.3-0.2,2-0.4c0.5-0.2,0.9,0,1.3,0.3c0.7,0.4,1.1,1,1.5,1.6
			c0.8,1.4,1.3,2.8,1.4,4.4C60.3,56.8,60,58.1,58.9,59.3z"/>
	</g>
	<g>
		<path class="st4" d="M76.2,55.1c0.6-2.4,0.1-4.5-1.2-6.3c-1-1.4-2.4-2.1-4.1-2.2c-1.3,0-2.6,0.2-3.9,1c0.3-0.7,0.6-1.2,0.8-1.6
			c0.1-0.2,0.3-0.3,0.5-0.4c1.4-0.4,2.9-0.9,4.4-0.8c0.5,0,0.9,0.1,1.3,0.4c1.6,1.3,3,2.8,3.6,4.9c0.3,1,0.4,2,0.1,3
			C77.5,54,77,54.6,76.2,55.1z"/>
	</g>
</g>
<g>
	<path class="st8" d="M80.1,43.7c0.4-0.1,0.8-0.1,1.2-0.2l1.7,2.7c0.6,0.9,1.1,1.9,1.6,2.8c0.5,0.8,0.7,1.6,0.6,2.5
		c-0.1,0.7-0.3,1.3-0.9,1.7c-0.2-0.2-0.3-0.4-0.5-0.7c0.2-0.2,0.4-0.3,0.6-0.4c0.3-0.3,0.4-0.6,0.1-0.9c-0.2-0.2-0.5-0.4-0.7-0.6
		c-0.6-0.4-1.1-1-1.4-1.7c-0.9-1.4-1.6-2.9-2-4.6C80.2,44.2,80.1,44,80.1,43.7L80.1,43.7z"/>
</g>
<g>
	<path class="st14" d="M70,104.2l1.7,0.9c0.2,0.2,0.4,0.5,0.6,0.8c-1.2,1-2.4,1.2-3.7,0.7c-1.8-0.7-3.2-1.9-4.3-3.6
		c-0.4-0.7-0.5-1.4-0.8-2.3l1.5,1.5l1.2,1.1l2.7,2c0.1,0.1,0.2,0.2,0.3,0.2c0.5,0.3,1,0,1-0.6C70.1,104.7,70.1,104.5,70,104.2z"/>
</g>
<g>
	<path class="st8" d="M42.6,42.8l-0.3,0.3c-1.6,0.8-2.6,2.2-3.3,3.8l-0.9,2c-0.1-0.1-0.1-0.2-0.2-0.3c-0.1-1.1-0.2-2.3,0.1-3.4
		c0.3-1.2,1.1-2,2.1-2.5C40.8,42.2,41.7,42.4,42.6,42.8z"/>
</g>
<g>
	<path class="st4" d="M54.3,53.6c0.7,0,1.1,0.4,1.1,1.1c0,0.6-0.5,1-1.1,1.1c-0.6,0-1-0.5-1-1.2C53.2,53.9,53.5,53.6,54.3,53.6z"/>
	<g>
		<path class="st4" d="M71.1,48.9h0.7c0.9,0,1.2,0.4,1.1,1.3c-0.1,0.5-0.3,0.8-0.7,0.8c-0.5,0.1-0.9-0.1-1.1-0.5
			C70.9,50,70.9,49.5,71.1,48.9z"/>
	</g>
	<path class="st4" d="M84.8,66.6c-0.4,0-0.8,0.2-1.1-0.2c-0.4-0.5-0.8-1.1-0.6-1.9c0.2-0.1,0.4-0.3,0.7-0.4
		C84.3,64.6,84.3,64.6,84.8,66.6z"/>
</g>
<g>
	<g>
		<path class="st2" d="M39.5,113.7c-0.9-0.9-0.8-1.4,0.4-2.1C39.9,112.4,39.7,113.1,39.5,113.7z"/>
	</g>
	<g>
		<path class="st2" d="M96.8,113.8c-0.1-0.4-0.3-0.9-0.4-1.3c0.5-0.1,0.9,0.2,1.2,0.5C97.4,113.4,97.1,113.5,96.8,113.8z"/>
	</g>
</g>
<path class="st16" d="M79.4,124.5c-0.5-0.2-1-0.3-1.6-0.4c-0.2,0.7-0.4,1.2-0.3,1.9c0.2,0.1,0.4,0.2,0.7,0.2l2.1,0.2
	c0.3,0,0.5,0,0.8,0.1c0-0.6,0.2-1.2,0.5-1.7C80.9,124.8,80.1,124.8,79.4,124.5z M77.4,109.9c0,0.2,0.1,0.4,0.1,0.5l0.2,8.6
	c0,0.7,0,1.4-0.3,2.1c-0.1,0.2-0.1,0.5-0.1,0.7c-0.1,0.8,0.1,1.1,0.9,1.4c0.6,0.2,1.2,0.4,1.8,0.5c-0.1-0.1-0.2-0.3-0.3-0.5
	c-0.4-0.8-0.5-1.8-0.6-2.7l-0.3-5.9c2.4-0.6,4.7-1.7,6.4-3.6c1.3-1.4,2.1-3.3,2.2-5.2c-0.6,0.9-1.2,1.7-2,2.4
	c-1.3,1-2.8,1.6-4.5,1.7C80.9,109.9,77.4,109.9,77.4,109.9z"/>
<g>
	<g>
		<path class="st10" d="M47.5,133.5c-0.6,0.9-0.7,1.8-0.7,2.7c-1.2,0-1.9-0.8-2-1.8c0-0.8,0.1-1.6,0.4-2.2l2-0.6
			c0.1,0.2,0.1,0.3,0.2,0.5c0.2,0.6,0.5,0.7,1.1,0.5c0.4-0.1,0.7-0.3,1-0.5c0.1-0.1,0.2-0.2,0.4-0.2c0.5,0.3,0.8,0.9,1.4,0.9
			s1.1-0.3,1.5-0.6c0.9,0.8,1.5,0.7,2.9-0.2c1.1,0.8,1.1,0.8,2,1c0.2,0.4,0.1,0.9,0.1,1.4c0,0.4-0.3,0.5-0.6,0.7
			c-0.9,0.5-1.9,0.9-2.9,1.2c-0.7,0.2-1.3,0.3-2,0.4c-0.4-0.8-0.1-1.5,0-2.3c-0.2-0.1-0.4-0.2-0.6-0.4c-0.7,0.8-0.5,1.8-0.5,2.7
			c-1.2,0.2-2.3-0.1-3.5-0.1c-0.1-1,0.1-1.8,0.3-2.8C48,133.7,47.8,133.6,47.5,133.5L47.5,133.5z"/>
	</g>
	<g>
		<path class="st10" d="M78.8,133.2c0.2-0.1,0.4-0.3,0.7-0.4c0.1,0.2,0.1,0.3,0.2,0.5c0.3,0.6,0.6,0.8,1.3,0.5l0.6-0.3
			c0.2-0.1,0.4-0.3,0.6-0.5c0.4,0.7,0.9,1.1,1.8,1.1c0.8,0,1.3-0.6,1.8-1c1.4,1.1,1.8,1.2,2.9,0.1c0.4,0.4,1,0.5,1.6,0.4
			s0.9-0.6,1-1.3c0.2,0.2,0.3,0.3,0.3,0.4c0.2,0.6,0.4,1.2,0.5,1.8c0.2,1.2-0.8,2.3-2,2.4l-0.6-2.3c-0.1-0.4-0.4-0.6-0.9-0.5
			c-0.2,0.3-0.1,0.7,0,1c0.2,0.6,0.3,1.3,0.3,2.1c-0.6,0-1.2,0-1.7,0.1h-1.7l-0.2-1.9c-0.1-0.7-0.3-0.9-1.1-1.1c-0.1,1,0.4,2,0.1,3
			c-1.3,0.1-2.5-0.1-3.7-0.5C79.4,136.1,78.7,134.7,78.8,133.2L78.8,133.2z"/>
	</g>
</g>
<g>
	<path class="st8" d="M80.1,43.7c0.4-0.1,0.8-0.1,1.2-0.2l1.7,2.7c0.6,0.9,1.1,1.9,1.6,2.8c0.5,0.8,0.7,1.6,0.6,2.5
		c-0.1,0.7-0.3,1.3-0.9,1.7c-0.2-0.2-0.3-0.4-0.5-0.7c0.2-0.2,0.4-0.3,0.6-0.4c0.3-0.3,0.4-0.6,0.1-0.9c-0.2-0.2-0.5-0.4-0.7-0.6
		c-0.6-0.4-1.1-1-1.4-1.7c-0.9-1.4-1.6-2.9-2-4.6C80.2,44.2,80.1,44,80.1,43.7L80.1,43.7z"/>
</g>
<g>
	<path class="st12" d="M70,104.2l1.7,0.9c0.2,0.2,0.4,0.5,0.6,0.8c-1.2,1-2.4,1.2-3.7,0.7c-1.8-0.7-3.2-1.9-4.3-3.6
		c-0.4-0.7-0.5-1.4-0.8-2.3l1.5,1.5l1.2,1.1l2.7,2c0.1,0.1,0.2,0.2,0.3,0.2c0.5,0.3,1,0,1-0.6C70.1,104.7,70.1,104.5,70,104.2z"/>
</g>
<g>
	<g>
		<path class="st12" d="M39.5,113.7c-0.9-0.9-0.8-1.4,0.4-2.1C39.9,112.4,39.7,113.1,39.5,113.7z"/>
	</g>
	<g>
		<path class="st12" d="M96.8,113.8c-0.1-0.4-0.3-0.9-0.4-1.3c0.5-0.1,0.9,0.2,1.2,0.5C97.4,113.4,97.1,113.5,96.8,113.8z"/>
	</g>
</g>
<path class="st17" d="M46,41.9c-0.5,1.1-3.3,3-3.4,5.5L39.4,51l-0.3,0.9l1.8-0.2c0,0-0.2,6.3,0.6,8.3c0.5-1.7,1.8-2.9,1.8-2.9
	s-1.7,4.6-1.1,9.7c1.5-3.7,4-5.7,4.6-6c-1.2,3.1-3.8,8.9-2.5,12.5c1.8-3.8,4.5-6.5,6.9-7.8c-2.4,3.7-4.4,7.1-3.9,10.9
	c3.1-4.7,5.4-5.7,6.8-6.2c-2.4,3.1-3.5,4.6-3,7.4l-0.6,1.5L50,79.6l1.8,0.2l0.4,0.8l-0.9,2.2l-0.2,4.1l0.5,3.2c0,0-2.8,0.5-5.9-4.5
	l-0.3-0.3c0,0,0,0.1-1.1,1.2c-0.4,0.4-1.3,0-0.8-1.1s0.6-4.5,0.3-5.5l-2.7,2.2c0,0,0-0.7,0.3-2.1c0.4-1.4,0.4-2.3,0.4-2.3l-2.7,1.8
	l-0.5-0.6c0,0,0.4,2.2,0.8-2s0.2-2.7,0.2-2.7l0.1-1.4l1.4-2.9c0,0-0.3-6-0.9-8.6s-2.5-9-2.4-10.2s1.1-3.9,2.4-5.4
	C41.5,43.8,44.1,42.1,46,41.9L46,41.9z"/>
<path class="st12" d="M43.4,43.1l1-0.6c0,0-0.9-2.5-2.5-3s-3.9,0.7-6.2,1.7s-10.9,3.6-12.1,5.1s-1.2,5.9,0.3,9.4s3,3.1,3.8,6.3
	c0.3-0.1,0.9-1.1,0.9-2.1s0.2-1.3,0.2-1.3s0.6,0.6,1.4,2.2s2.2,4.1,2.4,6.4c0.5-0.4,0.5-1.2,0.5-1.2s0.7-0.1,1,2
	c0.2,1.1-0.1,2.4-0.1,2.4s0.5-0.5,0.8-1.2s0.6-0.6,0.6-0.6s-0.1,1.5,0.3,3.3s1.2,3.5-0.1,4.7c3-2.8,5.6-5.1,5.1-9.6
	s-1.5-9.6-2.7-14.5s-1.8-7.8,0.4-9.5C39.5,42.3,41.8,40.5,43.4,43.1z"/>
<path class="st17" d="M44.7,40.4c1.7-0.3,3.3-1.9,4.8-3.3s3.4-3.2,5.1-3.7c0.5,0-0.4,1.7,0.1,2.5s1.3,1.3,2.9,0.1
	c1.5-1.2,2.6-1.8,3.3-1.8c-0.2,1-0.3,2.3,1,2.3c1.3-0.1,3.2-1.1,3.8-0.3l0.3-1c0,0-0.4-0.5-2.5-0.2c-1.2,0-2.5,0.5-2.5,0.5l0.4-2.3
	c0.2-0.8-0.7-0.7-2.2,0.2c-1.5,0.8-4,2.6-4,2.6s-0.8-1.3,0.1-3c-1.1,0-2.8,0-6.9,3.3c-1.4,1.2-3.2,3.2-4.6,2.7
	C44.7,40.1,44.7,40.4,44.7,40.4z"/>
<path class="st12" d="M65.1,37.9c0,0,1.7-4.5,4.1-6.3s4.5-2.7,8.8,0.6s8.1,5.2,10.5,5.1c-0.9,1-0.7,2.2,2.4,4c3,1.7,4.9,3.3,5,5.8
	c-2-2.6-4.1-3.2-5.5-2.3c3.6,1.9,4.7,4.9,4.7,4.9s-1.4-0.9-3-0.2c2.7,3,2.6,6.5,2.4,7.9c-4.4-1.7-8.8-0.9-8.8-0.9l-1.8-2.7
	c0,0,2.6-0.4,1.9-3.3c-0.8-3-3.5-6-4.2-7.6l1.3-0.1l-1.7-1.6c0,0-2-8.4-7.7-7.9c-2.1,0.2-4.4,1.4-4.5,4.9c-0.2,0.3-1.9,0.9-1.9,0.9
	S65.1,37.9,65.1,37.9z"/>
<path class="st18" d="M73.9,80L73.9,80c-8.1-0.4-10.1-1.8-11.2-2.5c-1,0.4-2.1,0.7-3.2,0.8c1.4,0.6,2.8,1,4.2,1.5
	c1.4,0.4,2.8,0.6,4.2,0.7c1.2,0.1,2.4,0.2,3.5-0.1c0.7-0.1,1.3-0.2,2-0.4C73.6,79.9,73.7,79.9,73.9,80z M89.8,71.6
	c-0.8,4.5-5.8,6.6-9.3,8.1l-8.3,3.7c1-0.1,1.8-0.2,2.5-0.3c1.8-0.3,3.7-0.5,5.5-1c2.3-0.6,4.4-1.4,6.4-2.6c0.8-0.5,1.6-1,2.2-1.8
	l0.9-1.2c0.2-0.3,0.3-0.5,0.3-0.9v-3.1c0-0.2,0-0.4-0.1-0.5C90,71.8,89.9,71.7,89.8,71.6z M102.1,82.2c0.1,0,0.1,0,0.3-0.1l-0.6-0.9
	c-0.1-0.1-0.1-0.2-0.2-0.4c-1.6-0.5-4.2-1-6.9-3.2c-2.8-2.3-2.9-5.8-2.9-6.7c-0.2,0.2-0.3,0.4-0.5,0.6S91,72,91,72.3
	c0.1,0.8,0.1,1.5,0.1,2.3c0,0.4,0,0.8,0.3,1.1l0.3,0.6c0.4,1,1,1.9,1.9,2.5s1.7,1.3,2.7,1.7l3.3,1.2
	C99.6,81.7,102.1,82.2,102.1,82.2z M106.1,90.1c0.1-0.2,0.2-0.3,0.2-0.4c0.6-1.6,0.9-3.3,1.2-5l-1.4,2.8l-0.8-1.7
	c-0.3-0.7-0.8-1.6-1.3-2.5h-0.2c-0.5,0-1.1-0.1-1.6-0.1c-0.3,0-0.7-0.1-1.2-0.1C103.3,85.2,104.8,87.5,106.1,90.1z M53.3,89.5
	c-0.2-0.6-0.8-2.8-0.7-5.1l0.3-4.9h-0.2c0.1,0.1,0.1,0.3,0,0.5c-0.2,0.7-0.4,1.3-0.7,2c-0.1,0.4-0.3,0.8-0.3,1.3l-0.2,3.2
	c-0.1,1.9,0.6,3.7,1,5.5c0.2-0.4,0.3-0.9,0.4-1.3C53.1,90.3,53.2,89.9,53.3,89.5z M58.8,78.9c-0.2-0.2-0.3-0.3-0.4-0.5
	c-1,1.5-1.3,5.6-1.4,7.2c0.2,0.1,0.4,0.3,0.7,0.5c0.3-2.4,0.9-4.6,2.2-6.6C59.4,79.3,59,79.1,58.8,78.9z"/>
<path class="st19" d="M92.6,98.5c0.4,0.3,0.7,0.5,1.2,0.3v-0.5c0,0-2-2.3-2.8-2.1s-0.9,3-1.5,4.1c-0.3,0.6-0.7,1.6-1.3,2.1v1.2
	c0.9-0.4,2.1-1.7,2.5-2.6l0.9-2.1c-0.1-0.3-0.3-0.5-0.3-0.8c0-0.1,0.1-0.3,0.1-0.6L92.6,98.5L92.6,98.5z M86.4,93.6
	c0.2,0.3,0.3,0.7,0.4,1.1c1.7-1,2.8-2.4,3.9-5.8c0.9-3.2,1.3-7.4,1.5-9.9c-0.5-0.5-1-1.1-1.3-1.8c-0.1,0.6-0.2,1.1-0.2,1.7
	c0,0.4,0,0.8-0.1,1.2l-0.6,5c-0.2,1.8-0.6,3.5-1.1,5.3C88.4,91.6,87.7,92.8,86.4,93.6L86.4,93.6z M63.3,96.2
	c-1.2-2.2-1.6-1.7-1.8-1.5c0,0.1,0.1,0.2,0.1,0.3c0.4,1.3,1.1,2.4,1.7,3.5c1.1,1.8,2.5,3.4,4.3,4.5c0.2,0.2,0.4,0.4,0.7,0.5
	c0.1,0.1,0.2,0.2,0.4,0.2c0.1-0.3,0.1-0.7,0.2-0.9C67,101.8,64.5,98.4,63.3,96.2z M58.5,86.4c0.7-2.7,1.8-3.9,3.5-4.8
	c0.1-0.2,0.3-0.4,0.5-0.6c0.1-0.1,0.2-0.3,0.4-0.5c-0.7-0.2-1.3-0.4-1.9-0.7c-1.2,0.9-1.4,2.2-1.8,3.4
	C58.8,84.3,58.5,85.3,58.5,86.4z M59.4,96c0.1-0.1,0.2-0.2,0.2-0.4c-0.4-0.7-1-2.1-1.5-3.8s-0.6-3.2-0.6-4l-1.2-1.1l-0.6,0.6
	c0.5,3.3,2.2,6,3.2,9.2C59.2,96.3,59.4,96.2,59.4,96z"/>
<path class="st4" d="M84.8,66.6c-0.2,0.2-0.8,0.2-1.1-0.2c-0.4-0.5-0.8-1.1-0.6-1.9c0.1-0.3,0.4-0.5,0.7-0.4
	C84.6,64.5,85,65.7,84.8,66.6z"/>
<path class="st16" d="M74.1,116.2c-3.5,2.7-7.9,4.2-12.3,4.1c5,0.6,10,0.5,15-0.5c-0.1-1.7-0.1-3.4-0.2-5.1v-5
	c-1.5-0.7-2.8-1.6-3.9-2.9c-0.1,0.1-0.2,0.1-0.3,0.2c-1.5,1.1-3.1,1-4.8,0.2c-0.8-0.4-1.6-0.9-2.2-1.4c-1.9-1.6-3-3.7-3-6.2
	c0-0.3-0.1-0.6-0.2-0.9l-1.5-2.8l-0.6,0.9c-0.7,0.9-1.8,0.7-2.2-0.3c0-0.1-0.1-0.2-0.1-0.2c-0.7-1.7-1.3-3.5-2-5.2
	c-0.3-0.7-0.5-1.4-0.7-2.1c0-0.1-0.1-0.2-0.2-0.5c-0.3,0.7-0.5,1.3-0.7,1.8c-0.5,1.6-0.5,3.2-0.6,4.8c0,0.8-0.2,1-1.1,0.9
	c-0.5-1.4-0.9-2.9-1.4-4.5c-0.3,0.3-0.5,0.5-0.6,0.8c-0.7,1.2-1.2,2.5-1.4,3.8c-0.3,1.4-0.4,2.7-0.6,4.1c-0.2,1.8-0.4,3.7-0.5,5.5
	c-0.1,1-0.1,2.1-0.2,3.1l-1.3,7.8c-0.2,1.5-0.6,3-0.5,4.6v1c-0.2,1.1-0.1,2.2,0.1,3.2c2.2,0.7,4.5,1.1,6.7,1.1
	c1.7,0.1,3.4-0.1,5-0.2c0.8,0,1.5-0.4,2.2-0.7c-0.3-0.4-0.5-0.8-0.8-1.2c-0.1,0-0.3,0.1-0.4,0.1c-2.4,0.9-5.1,1.3-7.7,1
	c-1.3-0.1-2.6-0.5-3.4-1.4c-0.5-0.6-0.7-1.3-0.9-2c-0.5-2.5,0.4-5,1.1-7.4c1.3-4.6,1.9-9.5,1.8-14.3c0-1.5-0.1-3.1,0.5-4.6
	c0.1-0.3,0.3-0.8,0.5-1c0.4-0.3,0.3-0.1,0.6,0.3c0.4,0.5,0.8,1.3,1.6,1c0.3-0.1,0.5-0.3,0.7-0.5c0.6-0.6,1.2-1.3,1.7-2
	c0.2,1.3,0.6,2.6,1.2,3.7c0.4,0.8,1,1.6,1.8,2s2,0.3,2.5-0.4c0.4,1.9,0.8,3.8,1.6,5.6s2.1,3.4,3.9,4.2c1.9,0.8,4.1,0.7,5.9-0.3
	c0,1.5,1.6,2.5,3,2.8c0.3,0.1,0.7,0.1,0.9,0.4c0.1,0.2,0.2,0.4,0.2,0.6C76.7,113.8,75.4,115.2,74.1,116.2z"/>
<path class="st10" d="M59,129.2c-0.1-0.6-0.2-1.3-0.2-1.8l-3.1,0.1l0.7,1.9c0.2,0.4,0.3,1,0.1,1.4c-0.1,0.1-0.1,0.2-0.2,0.3l0.6,0.6
	c0.2,0.2,0.5,0.5,0.9,0.5c0.1-0.3,0.1-0.5,0.2-0.8c0.1-0.6,0.3-0.7,0.9-0.5c0.2,0.1,0.4,0.2,0.7,0.2C59.4,130.3,59.2,129.8,59,129.2
	z"/>
<g>
	<path class="st12" d="M98.6,133c-0.6,0.6-1.2,1.1-2,1.2c-0.7,0.1-1.4-0.2-2-0.7c-0.3-0.3-0.6-0.6-0.8-0.9c-0.1,0.1-0.2,0.2-0.4,0.3
		c-0.1,0-0.1,0.1-0.2,0.2c0.5,0.4,0.7,1,1.3,1.4c1,0.6,3.4,0.2,4.2-1c0.4-0.7,0.8-1.3,1.1-2.1C99.4,132,99,132.5,98.6,133z
		 M96.1,121.6c0.5-0.4,1.1-0.7,1.7-0.8c0.3,0,0.7,0,1,0.2c0.2,0.2,0.3,0.5,0.4,0.8c-0.1-0.7-0.2-1.5-1-1.6c-0.9-0.2-1.7,0-2.2,0.8
		C96,121.2,96.1,121.4,96.1,121.6z M93.3,121.4c0.4-0.2,0.9-0.2,1.3,0c0.2,0,0.3,0.1,0.4,0.2c-0.3-0.3-0.6-0.7-1.1-0.8
		c-0.7-0.1-1.3,0-1.8,0.5v0.7c0,0.2,0.1,0.4,0.1,0.7C92.4,122.1,92.8,121.7,93.3,121.4L93.3,121.4z M95.6,121.9
		c0.1,0,0.1,0.1,0.2,0.1c0.1-0.1,0.1-0.2,0.2-0.3C95.9,121.8,95.8,121.9,95.6,121.9z"/>
	<path class="st12" d="M101.9,122c-0.4-0.9-1.1-1.3-1.8-0.4c-0.2,0.3-0.5,0.4-0.9,0.2v0.1c0.2,0,0.4,0,0.6,0.2
		c0.4-0.3,0.8-0.5,1.2-0.5C101.4,121.7,101.7,121.9,101.9,122C101.9,122.1,101.9,122,101.9,122z"/>
</g>
<path class="st20" d="M113.9,128.5c-0.7,0-1.3-0.2-2-0.3c-0.4-0.1-0.5-0.3-0.5-0.6c0-0.4,0.2-0.6,0.5-0.8s0.7-0.4,0.8-0.9
	c-1.6,0-3.2-0.1-4.8-0.5s-3-1.2-4.6-1.8c-0.1,0.6-0.2,1.1-0.4,1.7v0.1c0.4,0.5,1.1,0.8,1.7,1c0.7,0.3,1.4,0.4,2.2,0.5l2.6,0.2
	c-0.4,0.1-0.8,0.3-1.1,0.5c-0.1,0.1-0.3,0.1-0.3,0.3c-0.1,0.2,0.1,0.4,0.3,0.6c0.6,0.5,1.3,0.6,2,0.7c1.6,0.2,3.2,0.2,4.8,0.1
	c0.6-0.2,1.2-0.5,1.6-0.8C115.6,128.5,114.8,128.6,113.9,128.5L113.9,128.5z"/>
<path class="st12" d="M76.6,123.7c0.1-0.1,0.1-0.2,0.2-0.2c-0.7-0.7-0.5-1.6-0.4-2.5c-5.1,0.8-10.1,0.9-15.2,0.2
	c0.2,0.6,0.1,1.2-0.2,1.7l0.4,0.4c0.3,0.4,0.6,1.3,1.1,1.4c0.4,0.1,0.7-0.4,0.8-0.9c0.1,0.5,0.4,1,0.9,1.1c0.5,0.1,1.1-0.3,1-0.8
	c0,0.5,0.6,0.9,1.1,0.8s0.9-0.6,1-1c-0.1,0.6,0.3,1.3,0.8,1.6c0.6-0.2,1-0.8,1-1.4c0.1,0.5,0.4,0.9,0.8,1c0.5-0.2,0.8-0.6,0.9-1.1
	c0.2,0.4,0.4,0.8,0.8,1.1c0.3,0.3,0.8,0.4,1.2,0.4c0.3-0.1,0.6-0.3,0.7-0.6c0,0.2,0.3,0.5,0.5,0.5c0.4,0.1,0.7-0.2,0.9-0.5
	s0.3-0.6,0.4-1C75.9,124.1,76.3,124,76.6,123.7z M43.8,133.7c-0.6,0.6-1.4,1-2.2,1.1c-1.3,0.2-2.6-0.3-3.5-1.3c-0.8-0.9-1.1-2-1.8-3
	l0.6,1.5c0.4,0.9,0.8,1.8,1.5,2.6c1.2,1.2,2.9,1.3,3.9,0.7c0.5-0.3,0.9-0.7,1.3-1C43.7,134.2,43.8,133.9,43.8,133.7z M33.9,123.5
	c0.1-0.4,0.3-0.8,0.7-1.1c0.7-0.6,1.8-0.6,2.6-0.2c1.2-0.9,3.1-0.9,4.3,0c0.6-0.5,1.4-0.8,2.1-0.8c0.5,0,1,0.2,1.4,0.6v-0.2
	c0-0.4-0.2-0.7-0.5-0.9c-1-0.5-1.6-0.5-2.5,0.3c-0.3,0.2-0.5,0.5-0.9,0.3c-0.9-1.4-2.4-1.1-3.2-0.2c-0.1,0.1-0.1,0.2-0.2,0.3
	c-0.5,0.5-0.7,0.5-1.3,0c-0.2-0.2-0.4-0.3-0.7-0.4c-0.5-0.1-0.9,0.1-1.2,0.6C34.1,122.3,33.9,122.9,33.9,123.5z"/>
<path class="st21" d="M91.4,112.9l1.9-1c0.2-0.1,0.4-0.2,0.6-0.2c-0.2-2.5-1.2-4.8-2.8-6.7c-0.1-0.1-0.2-0.2-0.2-0.4
	c0-0.1,0-0.2,0.1-0.3l0.5-1c-0.2,0-0.3-0.1-0.5-0.1c-0.4-0.1-0.7,0-1,0.3c-0.4,0.4-0.9,0.7-1.4,1.1c-0.1,0.1-0.2,0.2-0.4,0.3
	c1,1.2,1.9,2.3,2.3,3.8C91,110,91.3,111.5,91.4,112.9z M44.3,105.9c-0.7,1.4-1.1,2.8-1.4,4.3c1.2,0.1,2.3,0.6,3.4,1.2
	c0.7-2.4,0.5-4.7,0.9-7.1c0.1-0.4,0.1-0.8,0.1-1.1c-0.3-0.1-0.5-0.3-0.8-0.4C45.5,103.8,44.7,105.2,44.3,105.9z"/>
<path class="st1" d="M96.5,57.2c1.5,0.5,2.8,1.5,4.1,2.3c1.2,0.7,2.1,1.8,3,2.9c1.1,1.4,2.1,2.9,2.9,4.5c0.7,1.3,1.2,2.7,1.6,4.2
	l0.7,3.2l0.5,3.7l0.4,5l0.3,2.2c0,0.4,0.1,0.8,0,1.2c0,0.7-0.1,0.7-1,1c-0.1-0.2-0.2-0.5-0.3-0.7s-0.2-0.5-0.4-0.7l-0.9,3.4
	c-0.2,0.7-0.5,1.3-0.8,2c-0.2,0.5-0.4,0.7-1,0.8c-0.1-0.1-0.3-0.3-0.3-0.4c-0.5-1.7-1.4-3.3-2.4-4.7c-1.1-1.5-2.3-2.9-3.9-3.8
	c-0.6-0.4-1.3-0.6-2-0.9l-1.1-0.6c-0.3-0.1-0.5-0.2-0.9-0.3c-0.2,0.4-0.3,0.7-0.4,1.1c-0.2,1-0.4,2-0.4,3c-0.1,2.2-0.1,4.4,0.1,6.6
	c0.1,2.3,0.1,4.6,0.6,6.9c0.1,0.6-0.2,1-0.9,1.1c-0.6,0.1-1.2,0.1-1.8-0.1l-1.1,2.6c0.2,0.1,0.3,0.1,0.5,0.2
	c1.1,0.3,2.3,0.6,3.1,1.6c0.5,0.6,0.9,1.2,1.3,1.9c0.6,1.2,1.1,2.5,1.6,3.8c0.2,0.5,0.3,1,0.5,1.4c0.7,1.4,0.4,2.6-1.2,3.5
	c0.2,0.2,0.4,0.4,0.6,0.5c0.1,0.1,0.3,0.2,0.4,0.3c0.4,0.5,0.3,1.1-0.3,1.5c-0.2,0.1-0.5,0.2-0.7,0.4c1,0.9,1,0.9,0.6,1.9
	c1,0.1,1.9,0.3,2.3,1.3h0.1c1.2-0.5,2.2-0.2,2.7,1.1c0.3,0.8,0.9,1.3,1.6,1.6c1.6,0.6,3.1,1.3,4.8,1.5l3.2,0.3c0.3,0,0.7,0,1,0.1
	c0.7,0.2,0.9,0.8,0.5,1.3c-0.3,0.4-0.6,0.7-1,1.1c1.4,0.3,2.7,0.3,4,0.1c0.3,0,0.6-0.1,0.9,0c0.6,0.1,0.8,0.6,0.4,1.1
	c-0.1,0.1-0.2,0.3-0.4,0.4c-0.6,0.5-1.3,0.9-2.1,1.2c-1.6,0.5-3.2,0.9-4.9,0.7h-0.8c-0.1,0.2-0.1,0.4-0.2,0.6
	c-0.4,0.3-0.8,0.3-1.3,0.2c-1.1-0.2-2.2-0.6-3.2-1l-4-1.5l-0.5,2c-0.2,1-0.7,1.9-1.3,2.8c-0.8,1.2-2,1.6-3.3,1.8
	c-1.2,0.2-2.2-0.2-3.1-1.1l-0.3,1c-0.3,1-1,1.7-2,2.1c-0.5,0.2-1,0.3-1.5,0.4l-5.1,0.1c-1.2,0-2.3-0.1-3.5-0.5
	c-1.1-0.3-1.8-0.9-2.4-1.7c-0.4-0.5-0.7-1.1-0.7-1.8c0-0.5-0.1-1-0.4-1.4c-0.2-0.3-0.1-0.7-0.1-1.1h-0.7c-0.6,0-0.7-0.2-0.7-0.8
	c0-0.3,0.1-0.6,0.2-1c-0.3-0.2-0.6-0.3-1-0.5c-0.7,0.3-1.4,0.5-2.1-0.2c-0.7,0.5-1.5,0.5-2.3,0.1c-1,0.6-2,1-3.1,0.2
	c-1,0.7-2,0.9-3,0c-0.9,0.8-1.8,1.1-2.9,0.4c-0.3,0.3-0.6,0.5-0.8,0.7v0.2c0.1,0.3,0.3,0.7,0,1s-0.7,0.4-1.1,0.4
	c-0.2,0-0.4-0.1-0.7-0.2c-0.2,0.3-0.1,0.6-0.1,0.9c0.1,0.6,0.1,1.1,0.1,1.7c0,0.5-0.2,0.8-0.6,1.1c-1.4,1.1-3,1.6-4.7,1.9
	c-0.9,0.2-1.8,0.3-2.7,0.3c-1.5,0.1-3.1-0.2-4.5-0.5c-0.9-0.2-1.9-0.9-2.6-1.8c-0.4,0.3-0.8,0.6-1.2,0.8c-1.4,0.7-2.8,0.5-4.1-0.3
	c-0.8-0.5-1.4-1.2-1.9-2c-0.5-0.9-0.8-1.9-1.2-2.9l-1.9-4.5c-0.3-0.6-0.5-1.3-0.6-1.9c-0.3-1.2,0-2.4,0.7-3.5
	c0.6-0.9,1.5-1.2,2.6-0.8l0.6,0.3l2.2-1.2c0.1-0.3,0.2-0.6,0.4-1c-0.1,0-0.3,0-0.4-0.1c-0.5-0.2-0.7-0.6-0.5-1s0.5-0.7,0.7-1.1
	c-0.2-0.3-0.7-0.3-0.7-0.8l0.3-1.2l-0.4-0.4c-0.4-0.5-0.7-1.1-0.5-1.8c0.4-2.4,1-4.9,2.1-7.1c0.8-1.6,2-2.8,3.9-3.2
	c1-0.2,2.1-0.3,3.1,0.2c0.1,0,0.2,0,0.3,0.1h0.2c0.1-0.7,0.1-1.5,0.2-2.2c0.3-1.9,0.5-3.9,1.2-5.7c0.4-1.2,0.9-2.4,1.9-3.3
	c-1.1-0.6-2.2-1.2-3-2c-0.8-0.9-1.5-1.8-2.2-2.8c-0.1,0.1-0.2,0.3-0.4,0.4c-0.4,0.4-1,0.7-1.6,0.7s-0.7-0.2-0.7-0.8
	c0-0.4,0.1-0.7,0.3-1c0.6-1.4,0.4-2.8,0.4-4.2c-0.6,0.4-1.2,0.7-1.7,1l-0.8,0.3c-0.5,0.1-0.8-0.2-0.7-0.7c0.1-0.3,0.2-0.6,0.4-0.9
	c0.3-0.7,0.6-1.3,0.6-2.2c-0.5,0.2-0.9,0.5-1.2,0.8c-0.6,0.5-1.2,0.8-2,0.6c-0.4-0.3-0.3-0.7-0.1-1.1l1-2.2c0.2-0.5,0.3-1,0.2-1.6
	l-1.3,1.1c-0.8,0.6-1.6,1.1-2.4,1.6c-0.2,0.1-0.6,0.2-0.8,0.2c-0.8,0.2-1.2-0.2-1-1l0.3-1.3c0-0.1,0-0.3,0.1-0.5
	c-0.4,0.2-0.7,0.3-0.9,0.5c-0.2,0.1-0.4,0.2-0.6,0.2c-0.9,0.3-1.2,0.1-1.2-0.9v-1c0.1-2.6-0.9-4.8-2.5-6.8c-0.3-0.4-0.6-0.8-1-1.1
	c-0.1-0.1-0.1-0.1-0.3-0.2c-0.3,0.4-0.5,0.8-0.8,1.1c-0.1,0.2-0.3,0.3-0.5,0.5c-0.2,0.1-0.5,0.2-0.6,0c-0.1-0.1-0.1-0.4-0.2-0.6
	c0-0.5,0.1-1,0-1.5c-0.1-1.4-0.7-2.6-1.5-3.7l-2.1-3.1c-0.9-1.4-1.9-2.8-2.2-4.6c-0.3-1.6-0.2-3.1,0.7-4.5c0.5-0.9,1-1.7,1.7-2.5
	c0.8-1,1.9-1.9,3.1-2.4c1.3-0.5,2.5-1.1,3.7-1.7l6.2-2.9c1.3-0.6,2.5-1.4,3.8-2.1l1.3-0.7c0.9-0.4,1.7-0.3,2.5,0.2
	c0.3,0.2,0.6,0.5,0.9,0.7c0.8,0.6,1.4,0.6,2.2,0c0.9-0.7,1.7-1.5,2.6-2.3c1.4-1.2,2.8-2.1,4.5-2.7c0.8-0.3,1.6-0.4,2.4-0.6
	c0.3-0.1,0.6,0,0.9,0.3c-0.3,0.7-1,1.3-0.6,2.3c0.1-0.1,0.3-0.1,0.4-0.2c1.1-0.8,2.2-1.5,3.4-2l1.8-0.6c0.3-0.1,0.8-0.2,1.1,0.2
	c-0.2,0.7-0.7,1.4-0.7,2.3c1.4-0.6,2.9-0.5,4.3-0.5c0.5-1.6,1.3-3,2.3-4.3c0.4-0.6,1-1.2,1.6-1.6c1.1-0.7,2.3-0.6,3.4-0.4
	c1.2,0.2,2.2,0.6,3.3,1.2l5,3.2c0.5,0.3,1,0.6,1.5,0.8c1.9,0.9,4,1.4,6.1,1.4h2.2c0.3,0,0.7,0,0.9,0.3c-0.4,1.4-1.6,1.9-2.7,2.8
	c0.3,0.1,0.5,0.3,0.7,0.3c2.3,0.9,4.7,1.7,7.1,2.2c0.3,0.1,0.5,0,0.8,0.1c0.2,0.1,0.5,0.2,0.6,0.4c0.2,0.3,0.1,0.6-0.2,0.8
	c-0.2,0.2-0.5,0.4-0.7,0.6c-0.1,0.1-0.3,0.2-0.5,0.3c1.7,0.8,2.3,2.3,2.9,3.9c0.7,2,1.1,4.1,0.9,6.3c0,0.6-0.2,1.1-0.5,1.7
	c-0.2,0.5-0.8,0.7-1.3,0.6c-0.1-0.3-0.3-0.6-0.5-0.8C97.9,55.2,97.3,56.2,96.5,57.2L96.5,57.2z M74.4,44.5c2.4,1.5,4,3.6,4.4,6.4
	c0.3,1.8-0.1,3.4-1.5,4.7c-1.8,1.6-4,2.2-6.4,1.9c-0.7-0.1-1.3-0.4-2-0.6c-1.3-0.3-2.1-1.2-2.6-2.3c-1.1-2.4-1.1-4.9-0.2-7.3
	c0.1-0.2,0.1-0.4,0.2-0.6c-0.6,0.2-1,0.7-1.6,0.5c-0.5-1.4-0.7-2.8-0.9-4.3c0-0.5-0.1-1.1-0.1-1.6c0-0.2,0.1-0.6,0.3-0.7
	c0.8-0.5,1.5-1,2.4-1.4l2-0.9c0.1-0.4,0.1-0.9,0.2-1.3c0.5-2.1,1.9-3.3,3.8-3.8c0.8-0.2,1.8-0.1,2.6,0c1.1,0.2,2.1,0.6,3,1.5
	c0.8,0.8,1.4,1.7,2,2.7c0.7,1.2,1,2.5,1.5,3.8c0.1,0.4,0.4,0.6,0.7,0.8l1,0.6l0.4,0.4l-1.1,0.6l2.7,4.8c0.4,0.7,0.8,1.4,0.9,2.2
	c0.2,1.5,0,2.9-1.5,3.8l1.5,1.9h3.7c1.6,0.2,3.2,0.3,4.8,0.7c0.4,0.1,0.7,0,1-0.2l0.4-0.4c0.7-0.9,1.4-1.9,1.8-3
	c0.1-0.2,0.2-0.5,0.4-0.7c0.9,0,1.1,0.8,1.5,1.4c0.3-0.3,0.3-0.6,0.3-0.9l-0.2-3.4c-0.2-1.4-0.6-2.8-1.2-4.1c-0.5-1.1-1.2-2-2.5-2.3
	c-0.3-0.1-0.5-0.3-0.7-0.5c-0.2-0.1-0.1-0.4,0.1-0.5c0.1-0.1,0.3-0.1,0.4-0.1c0.6-0.1,1.2-0.4,1.8-0.9c-1.9,0.1-3.5-0.5-5.1-1
	s-3.3-1-4.7-2.1c0-0.4,0.2-0.6,0.5-0.7c0.8-0.3,1.4-0.8,2.1-1.4c-0.1,0-0.2-0.1-0.3-0.1c-1.3,0.1-2.6-0.1-4-0.4
	c-2-0.4-3.8-1.1-5.4-2.2l-5.1-3.4c-1.2-0.6-2.3-1-3.6-1s-2.2,0.5-2.9,1.5c-0.6,0.8-1.1,1.7-1.6,2.5L67,34.4
	c-0.3,0.9-0.5,1.8-0.7,2.6c-0.1,0.2-0.1,0.5-0.2,0.7C66,38,65.7,38.2,65.3,38c-0.2-0.9,0.2-1.7,0.3-2.6c-0.8-0.1-1.5-0.1-2.3,0
	S61.8,35.8,61,36c-0.6-0.9-0.4-1.8,0-2.7c-0.2,0.1-0.3,0.1-0.4,0.2c-1.4,0.6-2.7,1.3-3.9,2.2c-0.3,0.2-0.7,0.4-1.1,0.6
	c-0.5,0.2-0.9-0.1-0.9-0.6c-0.1-0.7-0.2-1.4,0.1-2.1h-0.4c-1.1,0.3-2.1,0.8-3.1,1.4c-1.5,0.9-2.8,2.1-4.2,3.3
	c-0.7,0.6-1.4,1.1-2.2,1.4c0.4,0.8,1.1,1.5,1.3,2.4c-0.3,0.4-0.5,0.5-0.9,0.4c-0.1-0.1-0.1-0.1-0.1-0.2c-0.6-1.5-1.5-2.7-2.8-3.7
	c-0.7-0.5-1.4-0.6-2.1-0.2L39.1,39l-3.6,1.9l-6.5,3l-2,0.9c-1.7,0.7-3.2,1.5-4.4,2.9c-1.2,1.5-2.2,3.1-2.1,5.2c0.1,1,0.3,2,0.8,2.9
	c0.7,1.3,1.6,2.5,2.4,3.8c1.2,1.7,2.4,3.3,2.7,5.6l0.5-0.7c1,0.5,1.7,1.1,2.4,2L31,69c0.5,0.9,0.9,1.9,1,2.9c0.2,1,0.2,2,0.3,3.1
	c0.7-0.3,1.2-0.6,1.4-1.3c0.2-0.5,0.4-0.5,0.8-0.4c0.3,0.1,0.5,0.3,0.5,0.7l-0.1,2.5c1.4-0.3,3.5-2.1,4.1-3.5l0.9-1.8
	c0.5-1,0.7-2,0.5-3.1l-0.3-2.9c-0.1-1.6-0.3-3.2-0.6-4.7L38,53.9c-0.4-1.3-0.6-2.6-0.9-4c-0.3-1.2-0.4-2.3-0.4-3.5
	c0-1.7,0.7-3,2-4.1c0.4-0.4,0.9-0.7,1.5-0.8c1.1-0.2,2.2,0,3.3,0.6c0.1,0.1,0.2,0.2,0.4,0.3c-0.3,0.7-0.8,1.2-1.4,1.6
	c-0.3,0.2-0.6,0.5-0.9,0.7c-1.2,1.1-1.7,2.5-2.3,3.9c-0.3,0.7-0.5,1.3-0.7,2V51l1.6-2c2.1-2.3,4.7-3.9,7.6-5
	c2.3-0.8,4.7-1.3,7.1-0.9c0.6,0.1,1.1,0.2,1.7,0.2c0.7,0,1.1,0.3,1.5,0.8l1.3,1.9c0.4,0.6,0.7,1.3,0.8,2c-0.4,0.5-0.9,0.5-1.5,0.6
	l1.2,1.4c1,1.4,1.4,2.9,1.6,4.5c0.2,2.2-0.4,4.1-2,5.6c-0.9,0.8-1.9,1.5-3.1,1.6c-1.6,0.1-3.2,0.2-4.8-0.1c-1.3-0.2-2.4-0.8-3.1-1.9
	s-1-2.3-0.7-3.6c0.3-1.6,0.9-3,1.9-4.4l1-1.3h-0.2c-2.8,1.2-5.1,2.9-7.1,5.2c-0.1,0.2-0.2,0.4-0.4,0.5c-0.2,0.2-0.5,0.4-0.8,0.3
	c-0.4-0.1-0.3-0.5-0.3-0.8c0-0.4,0-0.8,0.1-1.2l0.4-2.1v-0.6l-3.5,0.7c0.1,0.3,0.1,0.5,0.2,0.7c0.8,2.4,1.3,4.9,1.8,7.5
	c0.3,1.5,0.4,3.1,0.6,4.6l0.2,3.1c0.1,1.2-0.2,2.4-0.8,3.5c-0.1,0.3-0.3,0.5-0.4,0.8l-0.3,1.2c0,0.4-0.1,0.8,0,1.2
	c0,0.8-0.2,1.6-0.5,2.3c-0.2,0.3-0.3,0.7-0.5,1.2c1-0.7,1.9-1.1,2.4-2l0.8,0.3c0.1,1.1-0.2,2.3-0.7,4c0.9-0.2,1.2-1.3,2-1.7
	c0.2,0.1,0.5,0.2,0.8,0.3l0.1,2.1c0,0.7,0.1,1.4,0,2c-0.1,0.7-0.3,1.3-0.5,2l0.1,0.1c0.4-0.5,0.8-0.9,1.3-1.4
	c0.3,0.1,0.7,0.2,0.8,0.5c0.3,1,1,1.7,1.6,2.5c0.8,1,1.8,1.6,2.9,2.2c-0.5-3.2-0.3-6.3,0.8-9.3H50c-0.6-0.1-0.8-0.4-0.7-1
	c0-0.2,0.2-0.4,0.4-0.5c1.5-1.3,2.7-2.9,3.4-4.8s1.6-3.7,3.1-5.1c0.5-0.5,0.9-1,1.3-1.5c1.9-2.3,4.2-4.2,6.6-5.8
	c0.8-0.6,1.7-1,2.7-1.4c2.8-1.2,5.7-2,8.7-2.6l9.1-1.4c-0.9-1-1.2-2.2-1.9-3.2c-0.1-0.2-0.1-0.5-0.1-0.8c0.1-0.2,0.3-0.4,0.5-0.6
	c-1.2-0.9-2-2.1-2.6-3.4s-1.2-2.7-1.3-4.2C78.3,43.8,75.1,44.2,74.4,44.5L74.4,44.5z M51,79.1c0.5,0.1,1,0.1,1.4,0.2
	s0.5,0.3,0.4,0.7c-0.2,0.7-0.4,1.3-0.7,2c-0.1,0.4-0.3,0.8-0.3,1.3l-0.2,3.2c-0.1,1.9,0.6,3.7,1,5.5c0.2-0.4,0.3-0.9,0.4-1.3
	c0.4-1.7,1-3.3,2.4-4.6c0.9-0.8,1-1.1,2.2-0.1c0.3-2.4,0.9-4.6,2.2-6.6c-0.4-0.2-0.7-0.3-1-0.6c-0.3-0.2-0.4-0.6-0.6-0.9
	c-0.2-0.4-0.2-0.7,0.2-1c0.2,0,0.3,0.1,0.4,0.1c0.9,0.3,1.8,0.2,2.7-0.2l2.7-1.3c0.3-0.1,0.5-0.3,0.8-0.4s0.6,0,0.7,0.4
	c-1.8,1.6-3.8,2.5-6.2,2.7c1.4,0.6,2.8,1,4.2,1.5c1.4,0.4,2.8,0.6,4.2,0.7c1.2,0.1,2.4,0.2,3.5-0.1c0.7-0.1,1.3-0.2,2-0.4
	c0.4-0.1,0.7,0.1,0.9,0.4s0.1,0.6-0.1,0.8s-0.3,0.4-0.5,0.6l-1.4,1.7l2.5-0.3l5.5-1c2.3-0.6,4.4-1.4,6.4-2.6c0.8-0.5,1.6-1,2.2-1.8
	l0.9-1.2c0.2-0.3,0.3-0.5,0.3-0.9v-3.1c0-0.2,0-0.4-0.1-0.5c-0.6-0.8-1.1-1.7-2.2-2c-0.4-0.1-0.8-0.3-1.2-0.4l-2.9-0.7
	c-0.8-0.2-1.5-0.5-1.9-1.2c-0.8-1.2-1.1-2.5-0.9-3.9c0.1-0.8,0.5-1.5,1.4-1.7c0.2-0.1,0.5-0.1,0.7-0.2c1.5-0.3,3-0.5,4.5-0.5
	l5.8,0.2c1.1,0.1,2.2,0.3,3.2,0.5c1.2,0.3,2.5,1.4,2.3,3.2c-0.2,1.8-0.9,2.7-2.6,3.2c-0.8,0.2-1.6,0.6-2.3,0.8
	c-1.1,0.4-1.8,1.1-2.5,2c-0.3,0.4-0.4,0.7-0.4,1c0.1,0.8,0.1,1.5,0.1,2.3c0,0.4,0,0.8,0.3,1.1l0.3,0.6c0.4,1,1,1.9,1.9,2.5
	s1.7,1.3,2.7,1.7l3.3,1.2l2.5,0.5c0.1,0,0.1,0,0.3-0.1l-0.6-0.9l-1.2-2.2c-0.3-0.6-0.2-1.2-0.1-1.8c0-0.1,0.2-0.3,0.3-0.3
	c0.2,0,0.3,0.1,0.4,0.2s0.1,0.3,0.1,0.4c0,0.5,0.2,1,0.4,1.4l1.2,2c0.5,0.6,0.9,1.3,1.7,1.6c0.1,0,0.2,0.2,0.3,0.3
	c-0.3,0.4-0.7,0.5-1.1,0.5c-0.5,0-1.1-0.1-1.6-0.1c-0.3,0-0.7-0.1-1.2-0.1c2.3,2,3.8,4.3,5.1,6.9c0.1-0.2,0.2-0.3,0.2-0.4
	c0.7-1.7,0.9-3.4,1.2-5.1c0-0.2,0-0.5,0.4-0.6c0.2,0.1,0.5,0.2,0.8,0.3v-0.9l-0.3-3.2c-0.1-2.2-0.4-4.4-0.8-6.6
	c-0.3-2-0.9-3.8-1.7-5.7c-0.8-2-2-3.8-3.3-5.4c-0.6-0.8-1.4-1.5-2.2-2.1c-0.9-0.7-1.8-1.3-2.7-1.8c-0.7-0.4-1.4-0.9-2.3-0.7
	c-0.1,0-0.2-0.1-0.3-0.1c-1.2-0.4-2.4-0.5-3.6-0.7l-2.8-0.2l-5,0.2l-3.4,0.4l-5.2,0.9c-2.2,0.4-4.4,1.1-6.5,1.9
	c-1.3,0.5-2.6,1.1-3.8,1.9c-2.7,1.8-4.9,4-7,6.5L56.6,70c-1,1.3-1.7,2.8-2.3,4.3C54,75.2,53.6,76,53,76.7C53,76.7,51,79.1,51,79.1z
	 M51.2,91.5c-0.3,0.3-0.5,0.5-0.6,0.8c-0.7,1.2-1.2,2.5-1.4,3.8c-0.3,1.4-0.4,2.7-0.6,4.1l-0.5,5.5l-0.2,3.1l-1.3,7.8
	c-0.2,1.5-0.6,3-0.5,4.6v1c-0.2,1.1-0.1,2.2,0.1,3.2c2.2,0.7,4.5,1.1,6.7,1.1c1.7,0.1,3.4-0.1,5-0.2c0.8,0,1.5-0.4,2.2-0.7
	c-0.3-0.4-0.5-0.8-0.8-1.2c-0.3,0-0.5,0-0.7,0.1c-0.9,0.3-1.9,0.4-2.8,0.3l-3.8-0.3c-0.6-0.1-1.3-0.2-1.9-0.4
	c-0.4-0.2-0.8-0.5-1.1-0.8c-0.2-0.1-0.2-0.4-0.1-0.5c0,0,0.1-0.1,0.1-0.1h0.2c0.1,0,0.2,0,0.2,0.1c1.3,0.9,2.7,1.1,4.2,1.1h1.3
	c1.3,0.3,2.5,0,3.8-0.3c1.1-0.2,1.7-1.4,1.3-2.3c-0.3-0.6-0.3-1.2-0.3-1.8l-0.2-5.9v-0.4l-0.3-3.7l-0.4-4l-0.2-3
	c0-0.3,0-0.7,0.3-0.9c0.2,0.1,0.4,0.2,0.5,0.3c0,0.5,0.1,0.9,0.1,1.3l0.4,3.5l0.2,2.7l0.2,2c0.2,1.3,0.3,2.7,0.3,4.1l0.2,4.6
	c0,0.1,0.1,0.2,0.1,0.3c5.3,0.8,10.5,0.6,15.8-0.4c-0.1-1.7-0.1-3.4-0.2-5.1v-5c-1.5-0.7-2.8-1.6-3.9-2.9c-0.1,0.1-0.2,0.1-0.3,0.2
	c-1.5,1.1-3.1,1-4.8,0.2c-0.8-0.4-1.6-0.9-2.2-1.4c-1.9-1.6-3-3.7-3-6.2c0-0.3-0.1-0.6-0.2-0.9l-1.5-2.8L60,97
	c-0.7,0.9-1.8,0.7-2.2-0.3c0-0.1-0.1-0.2-0.1-0.2c-0.7-1.7-1.3-3.5-2-5.2c-0.3-0.7-0.5-1.4-0.7-2.1c0-0.1-0.1-0.2-0.2-0.5
	c-0.3,0.7-0.5,1.3-0.7,1.8c-0.5,1.6-0.5,3.2-0.6,4.8c0,0.8-0.2,1-1.1,0.9C52.1,94.6,51.7,93.1,51.2,91.5z M70.8,95.5
	c0.2,0.9,0.4,1.7,0.5,2.5c0.1,0.7,0.1,1.4,0.2,2c0.2,1.2,0.5,2.5,0.8,3.7c0.5,2,1.6,3.6,3.5,4.6c0.5,0.3,1.1,0.5,1.6,0.6
	c0.9,0.1,1.8,0.1,2.7,0.1c1.2,0,2.4-0.4,3.5-1c2.1-1.3,3.3-3.1,3.3-5.7c0-1.6-0.2-3.1-0.5-4.6c-0.5-2.3-1.3-4.5-2.7-6.5
	c-1-1.5-2.4-2.5-4.2-2.8c-1.6-0.4-3.2-0.1-4.8,0.4c-0.1,0-0.3,0.2-0.5,0.3c0.3,0.2,0.5,0.4,0.8,0.6c1.8,1.1,2.6,2.8,3.1,4.7v0.4
	c0,0.3-0.1,0.4-0.5,0.5c-0.1-0.2-0.3-0.4-0.4-0.6c-0.2-0.3-0.3-0.7-0.5-1.1c-0.5-1.4-1.3-2.4-2.5-3.2c-1.1-0.8-2.3-1.1-3.6-1.1
	c-1.3-0.1-2.4,0.3-3.6,0.7c-0.4,0.1-0.8,0.4-1.2,0.6c1.1,0.8,2.1,1.6,3,2.4c0.5,0.4,0.9,0.9,1.4,1.2c1.1,0.8,1.9,1.9,2.6,3.1
	c-0.6,0.3-0.6,0.3-0.9,0C71.8,96.6,71.4,96.1,70.8,95.5z M77.4,109.9c0,0.2,0.1,0.4,0.1,0.5l0.2,8.6c0,0.7,0,1.4-0.3,2.1
	c-0.1,0.2-0.1,0.5-0.1,0.7c-0.1,0.8,0.1,1.1,0.9,1.4c1.9,0.8,3.9,0.8,5.9,0.5c1.1-0.2,2-0.7,2.9-1.2c0.3,0.1,0.6,0.2,0.6,0.5
	s-0.2,0.4-0.5,0.6c-0.1,0.1-0.3,0.1-0.4,0.2c-1,0.5-2,0.9-3.2,1c-1.4,0.1-2.8,0.3-4.2-0.2c-0.5-0.2-1-0.3-1.6-0.4
	c-0.2,0.7-0.4,1.2-0.3,1.9c0.2,0.1,0.4,0.2,0.7,0.2c0.7,0.1,1.4,0.2,2.1,0.2c2.4,0.2,4.8,0.3,7.2-0.1c1.3-0.2,2.5-0.7,3.7-1.3v-1.5
	l-0.3-2.5l-0.5-7.9c-0.1-1.5-0.3-3-0.8-4.4c-0.4-1.3-1.1-2.3-2-3.3c-0.6,1.1-1.3,2-2.2,2.8c-1.3,1-2.8,1.6-4.5,1.7
	C79.7,109.9,78.6,109.9,77.4,109.9L77.4,109.9z M89.6,78.5c-0.8,0.6-1.6,1.2-2.4,1.7c-1.9,1.2-4.1,2.1-6.3,2.6l-3.7,0.9
	c-0.7,0.2-1.5,0.2-2.3,0.3L72,84.3h-0.6c-0.1,0-0.3-0.1-0.3-0.2c-0.3-0.5-0.2-0.9,0.2-1.3c0.5-0.5,0.9-1,1.5-1.6
	c-0.7,0.1-1.3,0.2-1.8,0.3c-2.1,0.1-4.1,0-6.2-0.4c-0.8-0.2-1.3,0.1-1.8,0.6c-1,1.1-1.1,2.5-0.7,3.8c0.3,0.9,0.7,1.7,1.2,2.6
	c0.4,0.7,0.9,1.4,1.6,1.8c0.6-0.3,1-0.7,1.6-0.8c1.9-0.6,3.9-1,6-0.5c0.4,0.1,0.8,0.2,1.1-0.2c0.2-0.2,0.5-0.3,0.7-0.4
	c1.4-0.4,2.9-0.8,4.4-0.6c2.6,0.3,4.5,1.6,5.9,3.7c0.3,0.5,0.6,0.9,0.9,1.4c0.7-0.5,1-0.8,1.3-1.4c0.8-1.5,1.1-3.2,1.4-4.9
	c0.4-2.1,0.6-4.3,0.9-6.4C89.6,79.4,89.6,79,89.6,78.5z M71.3,103.7c0-0.3,0-0.4-0.1-0.6c-0.4-1.2-0.6-2.5-0.7-3.8
	c-0.1-1-0.3-2-0.5-3c-0.3-1.2-0.9-2.4-1.9-3.2c-0.9-0.7-1.8-1.4-2.7-1.9c-1.1-0.7-2.1-1.5-2.7-2.7c-0.4-0.9-0.9-1.7-1.2-2.6
	c-0.5-1.8-0.4-3.4,1-4.9c0.1-0.1,0.2-0.3,0.4-0.5c-0.7-0.2-1.3-0.4-1.9-0.7c-1.2,0.9-1.4,2.2-1.8,3.4c-0.5,1.4-0.8,2.8-0.5,4.4
	c-0.2,0.1-0.5,0.3-0.7,0.4c-0.5-0.5-1-0.9-1.5-1.4l-0.6,0.6c0.5,3.3,2.2,6,3.2,9.2c0.2-0.2,0.3-0.4,0.4-0.5c0.2-0.4,0.4-0.8,0.6-1.3
	c0.2-0.4,0.4-0.6,0.8-0.6s0.5,0.3,0.6,0.6c0,0.1,0.1,0.2,0.1,0.3c0.4,1.3,1.1,2.4,1.7,3.5c1.1,1.8,2.5,3.4,4.3,4.5
	c0.2,0.2,0.4,0.4,0.7,0.5c0.1,0.1,0.2,0.2,0.4,0.2c0.2-0.5,0-1.1,0.5-1.4C70.1,102.5,70.6,103.2,71.3,103.7z M76.4,121
	c-5.1,0.8-10.1,0.9-15.2,0.2c0.2,0.8,0,1.5-0.4,2.2c-0.1,0.1-0.1,0.3-0.2,0.4c-0.2,0.3-0.1,0.5,0.1,0.7l0.3,0.3
	c0.5,0.6,0.4,1.1-0.1,1.5c-0.2,0.2-0.5,0.3-0.9,0.5c0.1,0.9,0.1,1.9,0.5,2.9c0.3-0.3,0.4-0.6,0.6-0.9c0.3-0.3,0.5-0.4,0.8-0.2
	c0.2,0.1,0.3,0.2,0.4,0.3c0.7,0.5,1,0.5,1.5-0.2c0.2-0.2,0.3-0.5,0.5-0.7c0.5,0,0.7,0.2,1,0.5c0.6,0.7,1.2,0.6,1.8-0.1
	c0.1-0.2,0.2-0.4,0.4-0.6c0.4,0,0.7,0.2,0.9,0.5c0.3,0.5,0.6,0.6,1.2,0.3c0.2-0.1,0.4-0.3,0.6-0.5c0.2-0.1,0.3-0.3,0.5-0.5
	c0.3,0.2,0.6,0.3,0.8,0.5c0.5,0.4,0.6,0.4,1-0.1c0.1-0.2,0.3-0.4,0.4-0.5c0.7-0.1,0.9,0.6,1.3,0.9c0.2-0.2,0.3-0.3,0.5-0.4
	c0.5-0.5,0.9-0.5,1.2,0.1c0.2,0.4,0.6,0.5,1,0.6c0.3-0.7,0.6-1.3,0.5-1.9c-1-0.6-1.1-0.8-0.8-1.9c0.1-0.5,0.3-1,0.4-1.5
	C76,122.9,76.2,122,76.4,121L76.4,121z M93.8,98.7v-0.5c-0.1-1.2-0.3-2.5-0.3-3.7L93.2,86c0-1.4,0.2-2.8,0.6-4.1
	c0.1-0.4,0.3-0.9,0.5-1.3c-1.4-0.9-2.7-2-3.5-3.5c-0.1,0.6-0.2,1.1-0.2,1.7c0,0.4,0,0.8-0.1,1.2l-0.6,5c-0.2,1.8-0.6,3.5-1.1,5.3
	c-0.4,1.3-1.1,2.5-2.4,3.3c0.7,1.6,1.1,3.2,1.5,4.9s0.3,3.4,0.3,5.1c0.9-0.4,2.1-1.7,2.5-2.6l0.9-2.1c-0.1-0.3-0.3-0.5-0.3-0.8
	c0-0.1,0.1-0.3,0.1-0.6c0.5,0.3,0.8,0.6,1.2,0.9S93.4,99,93.8,98.7z M45.5,126.2c-0.5-0.4-0.6-0.9-0.6-1.5v-2.8
	c0-0.4-0.2-0.7-0.5-0.9c-1-0.5-1.6-0.5-2.5,0.3c-0.3,0.2-0.5,0.5-0.9,0.3c-0.9-1.4-2.4-1.1-3.2-0.2c-0.1,0.1-0.1,0.2-0.2,0.3
	c-0.5,0.5-0.7,0.5-1.3,0c-0.2-0.2-0.4-0.3-0.7-0.4c-0.5-0.1-0.9,0.1-1.2,0.6c-0.8,1.2-0.7,2.5-0.2,3.7c0.4,1,0.8,1.9,1.2,2.8
	l1.5,3.6c0.4,0.9,0.8,1.8,1.5,2.6c1.2,1.2,2.9,1.3,3.9,0.7c0.5-0.3,0.9-0.7,1.3-1c0.1-0.1,0.2-0.4,0.2-0.5c0.2-0.8,0.4-1.7,0.8-2.4
	v-0.3h-1c-0.5-0.1-0.8-0.5-0.5-1c0.2-0.3,0.5-0.6,0.7-0.9C44.6,128.3,45,127.2,45.5,126.2L45.5,126.2z M42.8,54.7
	C42.9,54.7,42.9,54.7,42.8,54.7l0.5-0.5c3.5-3.5,7.7-5.5,12.6-5.9c1-0.1,2-0.2,3.2-0.4c-0.7-1.2-1.4-2.2-2-3.2
	c-0.1-0.1-0.3-0.2-0.4-0.3c-1-0.1-2-0.3-3-0.3c-1.1-0.1-2.2,0.1-3.3,0.4c-3.2,0.8-5.9,2.3-8.4,4.4c-0.8,0.7-1.6,1.5-2.2,2.5
	c0.4-0.1,0.6-0.1,0.9-0.1c0.6,0,1.3-0.1,1.9-0.1c0.5,0,0.7,0.3,0.6,0.8l-0.3,1.4C42.9,53.8,42.8,54.2,42.8,54.7z M81.6,42.6
	L81.6,42.6l-4.3-1.9c-0.4-0.2-0.6-0.3-0.5-0.8c0.1-0.3,0.2-0.5,0.4-0.8c0.1-0.3,0.4-0.5,0.2-0.9h-0.6c-1.2,0.1-2.4,0.1-3.5,0.2
	c-1.8,0.1-3.6,0.5-5.3,1.1c-1.2,0.4-2.3,0.9-3.3,1.8c0.1,0.8,0.1,1.6,0.3,2.4s0,1.6,0.5,2.4c1.2-0.7,2.4-1.2,3.7-1.5
	c3.5-0.9,7-1.3,10.5-1.6C80.3,42.7,80.9,42.7,81.6,42.6z M92.1,121.3v0.7c0.2,1.2,0.3,2.3,0.1,3.5c0,0.3,0.1,0.6,0.2,0.8l1.6,2.9
	c0.1-0.5,0.2-0.8,0.2-1.1c0.1-1.9,1.9-2.5,3.3-2.1c0.8,0.2,1.2,0.8,1.3,1.6c0.1,1.6-0.2,3.2-0.7,4.7c-0.1,0.4-0.3,0.6-0.6,0.7
	s-0.7,0.2-1,0.2c-0.8,0.1-2-0.5-2.3-1.6c-0.1-0.4-0.1-0.8-0.1-1.2v-1l-1.1,0.8c0.2,0.6,0.5,1.1,0.8,1.7c0.2,0.6,0.2,0.7-0.4,1.1
	c-0.1,0-0.1,0.1-0.2,0.2c0.5,0.4,0.7,1,1.3,1.4c1,0.6,3.4,0.2,4.2-1c0.5-0.8,1-1.6,1.2-2.5c0.3-1.4,0.7-2.8,1.3-4.1
	c0.3-0.6,0.5-1.3,0.8-2c0.3-1,0.3-1.9-0.1-2.8s-1.1-1.3-1.8-0.4c-0.2,0.3-0.5,0.4-0.9,0.2c-0.1-0.7-0.1-1.5-1-1.7s-1.7,0-2.2,0.8
	c0.1,0.2,0.1,0.4,0.2,0.6c-0.3,0.1-0.5,0.2-0.7,0.3c-0.6-0.4-0.8-1-1.5-1.1C93.2,120.7,92.7,120.9,92.1,121.3L92.1,121.3z
	 M89.8,132.6c0.6-0.6,0.3-1.5,0.8-1.9c0.8-0.1,1.1,0.7,1.9,0.9c-0.2-0.5-0.4-0.9-0.6-1.2c-0.2-0.4-0.4-0.9,0-1.3
	c0.3,0,0.5-0.1,0.8-0.1l-1.5-2.7c-0.2,0.1-0.3,0.1-0.4,0.2c-1.7,0.8-3.5,1.1-5.3,1.2c-2.3,0-4.5,0-6.8-0.3c-0.1,0-0.2,0-0.4,0.1
	c0,1.2-0.7,2.2-1.2,3.3c0.6-0.1,1.1-0.4,1.5,0.1v0.7c0,0.2-0.1,0.4-0.2,0.8c0.5-0.5,0.9-0.8,1.3-1.1c0.6,0.1,0.9,0.3,0.9,0.9
	c0,0.3,0,0.5,0.4,0.7c0.3-0.2,0.6-0.5,0.8-0.8c0.4-0.4,0.9-0.4,1.2,0c0.1,0.1,0.2,0.3,0.3,0.4c0.5,0.7,0.9,0.8,1.5,0.1
	c0.1-0.1,0.2-0.3,0.4-0.5s0.3-0.4,0.5-0.6c0.5,0.1,0.9,0.2,1.2,0.7c0.1,0.2,0.3,0.5,0.7,0.5c0.3-0.2,0.2-0.5,0.3-0.8
	c0.2-0.6,0.5-0.8,1.1-0.4c0.2,0.1,0.4,0.4,0.6,0.6C89.5,132.3,89.6,132.5,89.8,132.6L89.8,132.6z M59.6,131
	c-0.2-0.6-0.4-1.2-0.5-1.8s-0.2-1.3-0.2-1.8c-1.5,0-2.9,0.1-4.2,0.1c-1.4,0-2.8,0-4.2-0.2s-2.7-0.5-4-0.8c-0.3,0.6-0.5,1.3-0.8,1.8
	c-0.3,0.6-0.7,1.1-1,1.7h0.4c0.3,0.1,0.6,0.1,0.8,0.3c0.3,0.2,0,0.5,0,0.7l0.1,0.1c0.5-0.3,1-0.5,1.4-0.8c0.9,0,0.8,0.8,1,1.4
	c0.8,0,1.1-0.8,1.7-1.1c0.6,0.2,0.6,0.2,0.9,0.7c0.1,0.1,0.1,0.2,0.2,0.3c0.3,0.4,0.7,0.4,1,0c0.1-0.1,0.2-0.3,0.3-0.5
	c0.3-0.5,0.8-0.4,1-0.1c0.1,0.1,0.2,0.3,0.3,0.4c0.4,0.5,0.8,0.6,1.2,0c0.2-0.3,0.3-0.6,0.5-0.9l0.9,0.3l0.6,0.6
	c0.2,0.2,0.5,0.5,0.9,0.5c0.1-0.3,0.1-0.5,0.2-0.8c0.1-0.6,0.3-0.7,0.9-0.5C59.1,130.8,59.3,130.9,59.6,131L59.6,131z M47.2,103.3
	c-1.9-1-3.7-0.9-5.2,0.4c-0.6,0.5-1,1.2-1.4,1.9c-0.7,1.5-1.1,3.1-1.6,4.8v0.7c1.2-0.8,2.4-0.8,3.7-0.8s2.4,0.6,3.5,1.2
	c0.7-2.4,0.5-4.7,0.9-7.1C47.2,104,47.2,103.7,47.2,103.3z M116.6,128.5h-2.7c-0.7,0-1.3-0.2-2-0.3c-0.4-0.1-0.5-0.3-0.5-0.6
	c0-0.4,0.2-0.6,0.5-0.8s0.7-0.4,0.8-0.9c-1.6,0-3.2-0.1-4.8-0.5s-3-1.2-4.6-1.8c-0.3,1.7-1,3.1-1.6,4.7c2.3,0.7,4.5,1.4,6.8,2.2
	c0.2-0.4,0.3-0.7,0.4-1.1C111.7,130.4,115.2,129.6,116.6,128.5L116.6,128.5z M88.3,104.9c1,1.2,1.9,2.3,2.3,3.8
	c0.4,1.4,0.7,2.8,0.8,4.3c0.7-0.4,1.3-0.7,1.9-1s1.3-0.5,1.9-0.6s1.3,0,2,0c-0.2-0.4-0.3-0.8-0.4-1.2c-0.7-1.8-1.3-3.6-2.4-5.1
	c-0.4-0.6-0.9-1-1.5-1.2c-0.6-0.3-1.3-0.5-1.9-0.6c-0.4-0.1-0.7,0-1,0.3c-0.4,0.4-0.9,0.7-1.4,1.1C88.6,104.6,88.5,104.7,88.3,104.9
	L88.3,104.9z M47.5,133.5c0.3,0.1,0.5,0.2,0.7,0.3c-0.2,1-0.4,1.8-0.3,2.8c1.2,0,2.3,0.4,3.5,0.1c0-0.9-0.3-1.9,0.5-2.7
	c0.2,0.1,0.4,0.2,0.6,0.4c-0.1,0.8-0.3,1.5,0,2.3c0.7-0.1,1.3-0.2,2-0.4c1-0.2,2-0.7,2.9-1.2c0.3-0.2,0.6-0.4,0.6-0.7
	c0-0.5,0.1-0.9-0.1-1.4c-1-0.2-1-0.2-2-1c-1.4,1-2,1-2.9,0.2c-0.5,0.3-0.9,0.6-1.5,0.6c-0.7,0-1-0.6-1.4-0.9
	c-0.2,0.1-0.3,0.2-0.4,0.2c-0.3,0.2-0.6,0.4-1,0.5c-0.6,0.2-0.9,0-1.1-0.5c-0.1-0.2-0.1-0.4-0.2-0.5l-2,0.6
	c-0.3,0.6-0.4,1.4-0.4,2.2c0,1.1,0.8,1.8,2,1.8C46.8,135.3,46.9,134.4,47.5,133.5L47.5,133.5z M46.1,113.1c-1.5-1.7-3.4-2.3-5.1-1.8
	c-0.1,0.5-0.2,1-0.2,1.5c-0.1,0.9-0.4,1.8-1.2,2.3c0.2,0.1,0.3,0.1,0.5,0.2c0.7,0.3,0.7,0.5,0.4,1.1c-0.2,0.3-0.4,0.5-0.7,0.9
	c0.1,0.1,0.2,0.1,0.3,0.2c0.5,0.3,0.5,0.3,0.4,0.9c-0.1,0.4-0.2,0.8-0.4,1.3c0.4,0.2,0.8,0.4,1.3,0.6c1.1-0.9,2.3-0.9,3.5-0.2
	c0.2-1.2,0.3-2.4,0.5-3.6C45.6,115.5,45.8,114.3,46.1,113.1z M78.8,133.2c-0.1,1.5,0.6,3,1.8,3.5s2.4,0.6,3.7,0.5c0.3-1-0.2-2-0.1-3
	c0.7,0.2,1,0.4,1.1,1.1c0.1,0.6,0.1,1.3,0.2,1.9h1.7c0.6,0,1.2,0,1.7-0.1c0.1-0.7,0-1.4-0.3-2.1c-0.1-0.3-0.2-0.7,0-1
	c0.5-0.1,0.8,0.1,0.9,0.5l0.6,2.3c1.2-0.1,2.1-1.2,2-2.4c-0.1-0.6-0.3-1.2-0.5-1.8c0-0.1-0.2-0.2-0.3-0.4c-0.1,0.7-0.4,1.2-1,1.3
	s-1.1,0-1.6-0.4c-1,1-1.5,1-2.9-0.1c-0.5,0.5-1,1-1.8,1c-0.9,0-1.4-0.4-1.8-1.1c-0.2,0.2-0.4,0.3-0.6,0.5l-0.6,0.3
	c-0.7,0.2-1,0.1-1.3-0.5c-0.1-0.1-0.1-0.3-0.2-0.5C79.2,132.9,79,133.1,78.8,133.2L78.8,133.2z M97.3,116c-1.5-0.8-1.5-2.3-1.8-3.7
	c-1.5,0.2-2.8,0.8-4,1.7c0,2,0.3,4,0.4,6.1c1.2-0.4,2.3-0.4,3.3,0.2c0.8-0.4,1-1.3,1.5-1.9c-0.2-0.2-0.4-0.3-0.6-0.5
	s-0.4-0.4-0.6-0.7c-0.3-0.6-0.1-0.9,0.5-0.9C96.5,116.4,96.9,116.5,97.3,116z M69.4,38c2.4-0.6,4.8-0.8,7.2-0.7c0.5,0,1,0.1,1.5,0.2
	s0.6,0.4,0.5,0.9L78,39.9c0.7,0.4,1.5,0.7,2.3,1c-0.4-1.8-1-3.3-2-4.7c-0.8-1.1-1.7-1.9-3-2.1c-0.9-0.1-1.8-0.2-2.6,0
	C70.7,34.4,69.6,35.9,69.4,38z M58.9,59.3c1.1-1.2,1.4-2.5,1.4-3.9c-0.1-1.6-0.5-3.1-1.4-4.4c-0.4-0.6-0.8-1.2-1.5-1.6
	c-0.4-0.2-0.8-0.4-1.3-0.3c-0.6,0.2-1.3,0.3-2,0.4c-1.2,0.1-2,0.8-2.7,1.6c-0.1,0.1-0.2,0.3-0.3,0.5c0.1,0,0.2,0.1,0.2,0
	c0.8-0.3,1.6-0.3,2.4-0.2c1.1,0.1,2.1,0.5,2.9,1.3c1.4,1.4,2.2,3.1,2.3,5.1C58.9,57.8,58.9,59.3,58.9,59.3z M76.2,55.1
	c0.8-0.5,1.2-1.1,1.5-1.9c0.3-1,0.2-2-0.1-3c-0.6-2.1-1.9-3.6-3.6-4.9c-0.4-0.3-0.8-0.4-1.3-0.4c-1.5-0.1-3,0.4-4.4,0.8
	c-0.2,0.1-0.4,0.2-0.5,0.4c-0.3,0.5-0.5,1-0.8,1.6c1.3-0.8,2.6-1.1,3.9-1c1.8,0,3.1,0.7,4.1,2.2C76.3,50.7,76.8,52.7,76.2,55.1z
	 M80.1,43.7c0.1,0.3,0.1,0.5,0.2,0.7c0.4,1.6,1.2,3.1,2,4.6c0.4,0.6,0.8,1.2,1.4,1.7c0.3,0.2,0.5,0.4,0.7,0.6
	c0.3,0.3,0.3,0.6-0.1,0.9c-0.2,0.2-0.4,0.3-0.6,0.4c0.2,0.2,0.3,0.5,0.5,0.7c0.6-0.5,0.8-1,0.9-1.7c0.1-0.9-0.1-1.7-0.6-2.5
	c-0.6-0.9-1.1-1.9-1.6-2.8s-1.1-1.8-1.7-2.7C80.9,43.6,80.5,43.6,80.1,43.7z M70,104.2v0.7c0,0.6-0.5,0.9-1,0.6
	c-0.1-0.1-0.2-0.1-0.3-0.2c-0.9-0.7-1.8-1.3-2.7-2c-0.4-0.3-0.8-0.7-1.2-1.1l-1.5-1.5c0.2,0.9,0.4,1.7,0.8,2.3
	c1,1.6,2.5,2.8,4.3,3.6c1.4,0.5,2.6,0.3,3.7-0.7c-0.2-0.3-0.3-0.6-0.6-0.8C71.2,104.8,70.7,104.5,70,104.2z M42.6,42.8
	c-0.9-0.4-1.8-0.6-2.6-0.1c-1,0.5-1.8,1.4-2.1,2.5s-0.2,2.3-0.1,3.4c0,0.1,0.1,0.2,0.2,0.3c0.3-0.7,0.6-1.4,0.9-2
	c0.8-1.6,1.7-2.9,3.3-3.8C42.4,43.1,42.4,43,42.6,42.8z M54.3,53.6c-0.7,0-1,0.3-1,0.9c0,0.7,0.5,1.2,1,1.2c0.6,0,1.1-0.5,1.1-1.1
	C55.4,54,55,53.6,54.3,53.6z M71.1,48.9c-0.2,0.6-0.2,1.1,0.1,1.6c0.3,0.4,0.6,0.6,1.1,0.5c0.4-0.1,0.6-0.4,0.7-0.8
	c0.1-0.9-0.2-1.3-1.1-1.3C71.6,48.8,71.4,48.8,71.1,48.9z M84.8,66.6c-0.5-1.9-0.5-1.9-1.1-2.5c-0.2,0.1-0.5,0.3-0.7,0.4
	c-0.2,0.8,0.2,1.4,0.6,1.9C84,66.7,84.4,66.6,84.8,66.6z M39.5,113.7c0.2-0.7,0.4-1.3,0.4-2.1C38.7,112.3,38.6,112.9,39.5,113.7z
	 M96.8,113.8c0.4-0.2,0.7-0.4,0.8-0.8c-0.3-0.3-0.6-0.6-1.2-0.5C96.5,112.9,96.6,113.3,96.8,113.8z M42.2,131.3v0.2
	c0,1.3-1,2.1-2.3,1.8c-0.8-0.2-1.5-0.7-1.8-1.5c-0.4-1-0.9-1.9-1.1-2.9c0-0.2-0.1-0.5-0.1-0.7c-0.1-1,0.5-1.7,1.5-1.7h1
	c0.7,0.1,1.3,0.4,1.8,1C41.9,128.5,42.2,129.8,42.2,131.3L42.2,131.3z"/>
<path class="st1" d="M34.9,123.1c1-0.1,1.5,0.4,1.4,1.2c0,0.5-0.3,0.9-0.9,0.9c-0.4,0-0.7-0.2-0.9-0.7
	C34.5,124,34.6,123.6,34.9,123.1z M38.1,122.9c0-0.6,0.4-1,0.9-1c0.6,0,1.1,0.5,1.1,1c0,0.6-0.5,1-1.1,1S38.1,123.5,38.1,122.9z
	 M42.2,123.1c0-0.6,0.3-0.9,0.7-0.9c0.5,0,1.1,0.5,1.1,0.9c0,0.5-0.5,1-1.1,1C42.4,124.1,42.2,123.7,42.2,123.1z M93.7,122.7
	c0.6,0,1.2,0.6,1.2,1s-0.6,0.8-1.2,0.8c-0.5,0-0.8-0.3-0.8-0.9C93,123.1,93.2,122.7,93.7,122.7z M97.5,122.3c0.6,0,1.1,0.5,1,1
	c0,0.5-0.5,0.9-1.2,0.8c-0.5,0-0.6-0.2-0.6-0.9C96.7,122.6,96.9,122.3,97.5,122.3z M101.1,124.1c-0.1,0.6-0.4,0.9-0.9,1h-0.4
	c-0.4-0.2-0.5-0.7-0.3-1.2c0.2-0.4,0.5-0.6,0.9-0.4C100.7,123.6,101,123.7,101.1,124.1z"/>
<path class="st12" d="M193.1,103.8c0.3,0.3,0.4,0.9,0.4,1.6c0,0.9-0.2,1.5-0.7,2s-1.3,0.7-2.5,0.7c-1,0-1.8-0.1-2.5-0.4
	c-0.2-0.1-0.3-0.2-0.3-0.4c0-0.1,0.1-0.3,0.2-0.7c0.1-0.2,0.2-0.3,0.4-0.3c0.1,0,0.2,0,0.4,0.1c0.6,0.2,1.2,0.3,1.9,0.3
	c0.6,0,0.9-0.1,1.1-0.3s0.3-0.4,0.3-0.8c0-0.3-0.1-0.5-0.2-0.7s-0.5-0.3-0.9-0.4l-1.1-0.3c-0.7-0.2-1.2-0.4-1.5-0.8
	s-0.5-0.9-0.5-1.6c0-0.8,0.2-1.5,0.7-1.9c0.5-0.5,1.3-0.7,2.4-0.7c0.9,0,1.7,0.1,2.2,0.3c0.2,0.1,0.3,0.2,0.3,0.4
	c0,0.1,0,0.4-0.1,0.7c0,0.2-0.1,0.3-0.3,0.3c-0.1,0-0.2,0-0.4-0.1l-1.7-0.2c-0.5,0-0.8,0.1-1,0.3s-0.3,0.4-0.3,0.8
	c0,0.3,0.1,0.5,0.2,0.6c0.1,0.2,0.4,0.3,0.8,0.4l1.1,0.3C192.2,103.2,192.8,103.5,193.1,103.8L193.1,103.8z M201.3,107.9h-1
	c-0.2,0-0.3-0.1-0.3-0.4v-7.9c0-0.2,0.1-0.4,0.3-0.4h1c0.2,0,0.3,0.1,0.3,0.4v3.1h3.3v-3c0-0.2,0.1-0.4,0.3-0.4h1
	c0.2,0,0.3,0.1,0.3,0.4v7.9c0,0.2-0.1,0.4-0.3,0.4h-1c-0.2,0-0.3-0.1-0.3-0.4v-3.3h-3.3v3.3C201.6,107.8,201.5,107.9,201.3,107.9z
	 M214.4,107.6c0,0.2-0.1,0.3-0.2,0.3c-0.1,0.1-0.1,0.1-0.3,0.1c-0.6,0-1,0-1.2-0.1c-0.1,0-0.2-0.1-0.2-0.2s0-0.2,0.1-0.4l2.4-6.9
	c0.1-0.4,0.3-0.7,0.4-0.8c0.2-0.1,0.4-0.2,0.8-0.2h0.4c0.4,0,0.6,0.1,0.8,0.2c0.1,0.1,0.3,0.4,0.4,0.8l2.3,6.9
	c0.1,0.2,0.1,0.3,0.1,0.4s-0.1,0.2-0.2,0.3c-0.1,0-0.5,0.1-1.2,0.1c-0.1,0-0.2,0-0.3-0.1s-0.1-0.2-0.2-0.3l-0.6-1.8H215L214.4,107.6
	L214.4,107.6z M217.5,104.3l-1.1-3.5l-1.1,3.5H217.5L217.5,104.3z M227.6,107.9h-1c-0.2,0-0.3-0.1-0.3-0.4v-7.1
	c0-0.4,0.1-0.7,0.3-0.9s0.5-0.3,0.9-0.3h0.5c0.3,0,0.5,0.1,0.7,0.2c0.1,0.1,0.3,0.3,0.4,0.6l2.7,5.7v-6.1c0-0.3,0.1-0.4,0.4-0.4h0.9
	c0.2,0,0.3,0.1,0.3,0.4v7.3c0,0.4-0.1,0.6-0.3,0.7s-0.4,0.2-0.7,0.2H232c-0.3,0-0.6-0.1-0.7-0.2c-0.2-0.1-0.3-0.4-0.5-0.7l-2.7-5.8
	v6.3C227.9,107.8,227.8,107.9,227.6,107.9L227.6,107.9z M246.4,107.5c-0.1,0.1-0.2,0.1-0.3,0.2c-0.7,0.3-1.7,0.4-2.9,0.4
	s-2.1-0.3-2.6-1c-0.6-0.6-0.9-1.8-0.9-3.3c0-1.6,0.3-2.8,0.9-3.5s1.6-1.1,3-1.1c0.9,0,1.7,0.1,2.2,0.2c0.2,0.1,0.3,0.2,0.3,0.3
	c0,0.3-0.1,0.6-0.2,0.9c0,0.1-0.1,0.2-0.2,0.2h-0.4c-0.5-0.1-1.1-0.1-1.6-0.1c-0.8,0-1.4,0.2-1.7,0.7s-0.5,1.2-0.5,2.3
	s0.1,1.9,0.4,2.4s0.8,0.7,1.7,0.7c0.5,0,1-0.1,1.4-0.2c0.1,0,0.2-0.1,0.2-0.3v-1.5h-1.4c-0.2,0-0.2-0.1-0.2-0.3v-0.9
	c0-0.2,0.1-0.3,0.3-0.3h2.5c0.2,0,0.3,0.1,0.3,0.3v3.4C246.5,107.2,246.5,107.4,246.4,107.5z M254.4,107.9h-1
	c-0.2,0-0.3-0.1-0.3-0.4v-6.8c0-0.5,0.1-0.8,0.3-1s0.6-0.3,1-0.3h0.9c1.1,0,2,0.1,2.5,0.3c0.8,0.3,1.2,1.1,1.2,2.3s-0.5,2-1.4,2.3
	l1.7,3l0.2,0.4c0,0.1-0.1,0.2-0.2,0.2c-0.2,0-0.6,0.1-1.2,0.1c-0.2,0-0.3-0.1-0.4-0.3l-1.6-3.1h-1.4v3
	C254.8,107.8,254.7,107.9,254.4,107.9L254.4,107.9z M255.5,103.2c0.5,0,0.9,0,1.2-0.1c0.4-0.2,0.6-0.5,0.6-1.1s-0.2-1-0.6-1.1
	c-0.2-0.1-0.6-0.1-1.1-0.1h-0.5c-0.3,0-0.4,0.1-0.4,0.4v2.1h0.8L255.5,103.2z M267.1,107.9h-1c-0.2,0-0.3-0.1-0.3-0.4v-7.9
	c0-0.2,0.1-0.4,0.3-0.4h1c0.2,0,0.3,0.1,0.3,0.4v7.9C267.4,107.8,267.3,107.9,267.1,107.9z M275.6,107.9c-0.8,0-1.3-0.4-1.3-1.2v-7
	c0-0.2,0.1-0.4,0.3-0.4h1c0.2,0,0.3,0.1,0.3,0.4v6.3c0,0.3,0.1,0.4,0.4,0.4h2.9c0.2,0,0.3,0.1,0.3,0.3v0.8c0,0.2-0.1,0.3-0.3,0.3
	L275.6,107.9L275.6,107.9z M286.9,107.6c0,0.2-0.1,0.3-0.2,0.3c-0.1,0.1-0.1,0.1-0.3,0.1c-0.6,0-1,0-1.2-0.1c-0.1,0-0.2-0.1-0.2-0.2
	s0-0.2,0.1-0.4l2.4-6.9c0.1-0.4,0.3-0.7,0.4-0.8c0.2-0.1,0.4-0.2,0.8-0.2h0.4c0.4,0,0.6,0.1,0.8,0.2c0.1,0.1,0.3,0.4,0.4,0.8
	l2.3,6.9c0.1,0.2,0.1,0.3,0.1,0.4s-0.1,0.2-0.2,0.3c-0.1,0-0.5,0.1-1.2,0.1c-0.1,0-0.2,0-0.3-0.1s-0.1-0.2-0.2-0.3l-0.6-1.8h-2.9
	L286.9,107.6L286.9,107.6z M290.1,104.3l-1.1-3.5l-1.1,3.5H290.1z"/>
<g>
	<path class="st0" d="M168.9,57.3c0,1.5-0.2,3-0.6,4.4c-0.6,2-2,3.8-4.1,5.5c-1.6,1.2-3.5,2.3-5.8,3.1c-1.7,0.7-2.9,1-3.5,1h-0.7
		l0.8,16.5c0,1.1-0.3,1.9-1,2.5s-1.5,0.9-2.4,0.9s-1.7-0.3-2.3-0.8c-0.7-0.6-1.1-1.4-1.2-2.5l-2-39.9c0-1.5,1.1-2.7,3.4-3.8
		c2-0.9,3.9-1.3,5.7-1.3h0.6c2,0.2,4,0.7,5.9,1.5c2.4,1,3.9,2.2,4.7,3.7C168,50.9,168.9,54.1,168.9,57.3L168.9,57.3z"/>
	<g>
		<path id="g" class="st0" d="M192.7,66c0,1.7-1.4,3-4.1,3.9c-1.3,0.4-4,1-8,1.6c0.8,1,1.7,1.7,2.7,2.2c0.8,0.4,1.6,0.6,2.3,0.6
			c0.3-0.1,0.6-0.2,0.9-0.4c0.5-0.2,0.9-0.2,1.4-0.2c1,0,1.8,0.4,2.5,1.1s1,1.6,1,2.6c0,1.5-0.7,2.5-2.2,3.1
			c-0.2,0.1-0.6,0.2-1.2,0.4c-1.1,0.4-2,0.6-2.6,0.6c-1.2,0-2.9-0.5-5-1.4c-2.9-1.4-4.9-3.2-6.1-5.5c-1.9-3.6-2.9-7-2.9-10
			c0-2.8,0.8-5.4,2.5-7.9c1.6-2.5,3.6-4.1,5.9-4.7c0.7-0.2,1.5-0.3,2.4-0.3c2.8,0,5,0.7,6.6,2c1.4,1.2,2.4,3.1,3.2,5.7
			C192.4,61.6,192.7,63.8,192.7,66L192.7,66z"/>
	</g>
	<g>
		<path id="h" class="st0" d="M219.4,59.7c-0.2,2-1.3,3-3.3,3.1l-7.5,0.4l-0.2,1.3c-0.5,1.9-1,4.9-1.6,9c-0.1,1.5,0,2.6,0.2,3.3
			c0.2,0.2,0.6,0.2,1,0.3c0.8,0.1,1.7-0.1,2.6-0.5c0.1-0.2,0.4-0.6,0.8-1.3c0.7-1.3,1.8-1.9,3.2-1.8c1,0.1,1.8,0.5,2.5,1.2
			c0.7,0.6,1,1.6,0.9,2.5c0,0.6-0.2,1.1-0.5,1.6c-0.1,0.1-0.3,0.4-0.6,1c-1,1.5-2.3,2.6-4,3.4c-1.6,0.7-3.3,1-5.1,0.9
			c-2-0.2-3.7-0.9-5.1-2c-1.5-1.3-2.4-3-2.7-5.2c-0.3-2.6,0.2-7,1.5-13.2l-3.4,0.1c-1.2,0.1-2.1-0.3-2.8-1.2
			c-0.6-0.7-0.9-1.6-0.8-2.6c0.2-2,1.3-3,3.3-3.2l5.4-0.2l2.2-8.2c0.5-1.9,1.7-2.7,3.6-2.6c1,0.1,1.8,0.4,2.4,1.1
			c0.7,0.7,0.9,1.5,0.8,2.6c0,0.2,0,0.5-0.1,0.7c-0.3,0.9-0.8,2.9-1.6,5.9l5.3-0.3c1.2-0.1,2.1,0.3,2.8,1.1
			C219.2,57.7,219.5,58.7,219.4,59.7L219.4,59.7z"/>
	</g>
</g>
<g>
	<path class="st22" d="M260.4,71.3c0,1.8-0.8,3.1-2.3,3.9l0.7,10.8v0.4c0,1.4-0.5,2.5-1.4,3.3s-2,1.2-3.2,1.2s-2.2-0.4-3-1.1
		c-0.9-0.8-1.4-1.8-1.5-3.2l-0.5-9.6l-6.2,1.2l0.7,7.8v0.4c0,1.4-0.5,2.5-1.4,3.3s-2,1.2-3.2,1.2c-1.1,0-2.1-0.4-3-1.1
		s-1.4-1.8-1.5-3.1l-1-11.8l-1.1-24.4v-0.4c0-1.4,0.5-2.5,1.4-3.3c0.8-0.8,1.9-1.1,3.1-1.1s2.2,0.3,3,1c0.9,0.8,1.4,1.9,1.4,3.2
		l0.7,20l6.3-1.2l-1.1-20.6v-0.4c0-1.4,0.5-2.5,1.4-3.3c0.9-0.7,1.9-1.1,3.1-1.1s2.2,0.3,3,1c0.9,0.8,1.4,1.9,1.5,3.2l1.1,19.7
		C259.5,67.7,260.4,69.1,260.4,71.3L260.4,71.3z M293.1,66.6c0,4.1-1.6,7.6-4.8,10.5s-6.9,4.3-11.1,4.3c-4,0-7.4-1.3-10.3-3.8
		c-3-2.6-4.4-5.9-4.4-9.9c0-4.1,1.6-7.6,4.9-10.5c3.1-2.8,6.8-4.2,11-4.2c4,0,7.4,1.3,10.3,3.9C291.7,59.4,293.1,62.6,293.1,66.6z"
		/>
	<g>
		<path class="st22" d="M320.3,59.7c-0.2,2-1.3,3-3.3,3.1l-7.5,0.4l-0.2,1.3c-0.5,1.9-1,4.9-1.6,9c-0.1,1.5,0,2.6,0.2,3.3
			c0.2,0.2,0.6,0.2,1,0.3c0.8,0.1,1.7-0.1,2.6-0.5c0.1-0.2,0.4-0.6,0.8-1.3c0.7-1.3,1.8-1.9,3.2-1.8c1,0.1,1.8,0.5,2.5,1.2
			c0.7,0.6,1,1.6,0.9,2.5c0,0.6-0.2,1.1-0.5,1.6c-0.1,0.1-0.3,0.4-0.6,1c-1,1.5-2.3,2.6-4,3.4c-1.6,0.7-3.3,1-5.1,0.9
			c-2-0.2-3.7-0.9-5.1-2c-1.5-1.3-2.4-3-2.7-5.2c-0.3-2.6,0.2-7,1.5-13.2l-3.4,0.1c-1.2,0.1-2.1-0.3-2.8-1.2
			c-0.6-0.7-0.9-1.6-0.8-2.6c0.2-2,1.3-3,3.3-3.2l5.4-0.2l2.2-8.2c0.5-1.9,1.7-2.7,3.6-2.6c1,0.1,1.8,0.4,2.4,1.1
			c0.7,0.7,0.9,1.5,0.8,2.6c0,0.2,0,0.5-0.1,0.7c-0.3,0.9-0.8,2.9-1.6,5.9l5.3-0.3c1.2-0.1,2.1,0.3,2.8,1.1
			C320.1,57.7,320.4,58.7,320.3,59.7L320.3,59.7z"/>
	</g>
	<g>
		<path class="st22" d="M343.3,66c0,1.7-1.4,3-4.1,3.9c-1.3,0.4-4,1-8,1.6c0.8,1,1.7,1.7,2.7,2.2c0.8,0.4,1.6,0.6,2.3,0.6
			c0.3-0.1,0.6-0.2,0.9-0.4c0.5-0.2,0.9-0.2,1.4-0.2c1,0,1.8,0.4,2.5,1.1c0.7,0.7,1,1.6,1,2.6c0,1.5-0.7,2.5-2.2,3.1
			c-0.2,0.1-0.6,0.2-1.2,0.4c-1.1,0.4-2,0.6-2.6,0.6c-1.2,0-2.9-0.5-5-1.4c-2.9-1.4-4.9-3.2-6.1-5.5c-1.9-3.6-2.9-7-2.9-10
			c0-2.8,0.8-5.4,2.5-7.9c1.6-2.5,3.6-4.1,5.9-4.7c0.7-0.2,1.5-0.3,2.4-0.3c2.8,0,5,0.7,6.6,2c1.4,1.2,2.4,3.1,3.2,5.7
			C343,61.6,343.3,63.8,343.3,66L343.3,66z"/>
	</g>
	<path class="st22" d="M354.5,86c0,1.1-0.3,1.9-1,2.5s-1.5,0.9-2.4,0.9s-1.7-0.3-2.4-0.9s-1-1.4-1.1-2.5l-1.3-40.2
		c0-1.1,0.4-1.9,1.1-2.6c0.7-0.6,1.4-0.9,2.4-0.9c0.9,0,1.7,0.3,2.4,0.9s1,1.4,1.1,2.5l1.3,40.1C354.5,85.9,354.5,85.9,354.5,86z"/>
</g>
<g>
	<path class="st12" d="M271.1,73.4c0-1.4,0.5-2,2.5-4.1s2.7-3.7,4.1-3.7s1.9,0.7,2.6,1.5l3.6,4.9c0.9,1.3,0.5,3.6-1.4,3.6h-8.9
		C272.1,75.6,271.1,74.9,271.1,73.4L271.1,73.4z"/>
	
		<ellipse transform="matrix(0.9007 -0.4345 0.4345 0.9007 -1.9659 124.0249)" class="st12" cx="270.3" cy="66.3" rx="2.1" ry="2.6"/>
	<ellipse transform="matrix(0.9725 -0.2327 0.2327 0.9725 -6.9152 65.6269)" class="st12" cx="274.7" cy="62.1" rx="2.3" ry="2.9"/>
	
		<ellipse transform="matrix(0.4345 -0.9007 0.9007 0.4345 101.5464 294.3286)" class="st12" cx="285.2" cy="66.3" rx="2.6" ry="2.1"/>
	
		<ellipse transform="matrix(0.2327 -0.9725 0.9725 0.2327 155.0093 320.6758)" class="st12" cx="280.7" cy="62.1" rx="2.9" ry="2.3"/>
</g>
</svg>
