<?xml version="1.0" encoding="utf-8"?>
<!-- Generator: Adobe Illustrator 23.0.5, SVG Export Plug-In . SVG Version: 6.00 Build 0)  -->
<svg version="1.1" id="Capa_1" xmlns="http://www.w3.org/2000/svg" xmlns:xlink="http://www.w3.org/1999/xlink" x="0px" y="0px"
	 viewBox="0 0 151 137" style="enable-background:new 0 0 151 137;" xml:space="preserve">
<style type="text/css">
	.st0{clip-path:url(#SVGID_2_);}
	.st1{clip-path:url(#SVGID_2_);fill:none;stroke:#000000;stroke-width:0.7;stroke-miterlimit:10;}
	.st2{clip-path:url(#SVGID_2_);fill:#919291;}
	.st3{clip-path:url(#SVGID_2_);fill:#FEFEFD;}
	.st4{clip-path:url(#SVGID_2_);fill:#C05053;}
	.st5{clip-path:url(#SVGID_2_);fill:#7C352E;}
	.st6{clip-path:url(#SVGID_2_);fill:#DCD7D0;}
	.st7{clip-path:url(#SVGID_2_);fill:#6A6969;}
	.st8{clip-path:url(#SVGID_2_);fill:#3D3F3E;}
	.st9{clip-path:url(#SVGID_2_);fill:#CAD2D0;}
	.st10{clip-path:url(#SVGID_2_);fill:#B2AB9B;}
</style>
<g>
	<defs>
		<rect id="SVGID_1_" x="0.8" y="1" width="149.8" height="135.2"/>
	</defs>
	<clipPath id="SVGID_2_">
		<use xlink:href="#SVGID_1_"  style="overflow:visible;"/>
	</clipPath>
	<path class="st0" d="M1,95.4c-0.1,0.6-0.1,1.3-0.1,1.9c0,1.1,0.1,1.2,1.6,1.6c0.1-0.4,0.3-0.8,0.5-1.1c0.2-0.4,0.4-0.7,0.6-1.2
		c0.5,1.9,0.9,3.8,1.4,5.6c0.3,1.1,0.9,2.2,1.2,3.3c0.3,0.8,0.7,1.2,1.6,1.3c0.2-0.2,0.5-0.4,0.6-0.7c0.9-2.8,2.3-5.4,4-7.8
		c1.7-2.5,3.7-4.8,6.4-6.3c1-0.6,2.2-1,3.3-1.5c0.6-0.3,1.2-0.7,1.8-1c0.4-0.2,0.9-0.3,1.4-0.5c0.2,0.7,0.5,1.2,0.6,1.7
		c0.3,1.6,0.7,3.3,0.7,4.9c0.1,3.6,0.1,7.2-0.1,10.8c-0.2,3.8-0.2,7.6-1,11.3c-0.2,1,0.3,1.6,1.4,1.8c1,0.1,1.9,0.2,2.9-0.2
		c0.6,1.4,1.2,2.8,1.8,4.4c-0.1,0-0.1,0-0.2,0.1c0.4,0.5,0.8,1,1.3,1.4c0.3,0.1,0.6,0.2,0.9,0.5c0.7,0.7,1.5,1.2,2.3,1.8
		c0.1,0.1,0.2,0.2,0.3,0.2c0.2,0.1,0.3,0.2,0.5,0.2c0.4,0.2,0.8,0.5,1,0.9c0.2,0.2,0.3,0.5,0.4,0.7c0.9,1.5,1.9,2.9,3.3,3.9
		c2.2,1.6,4.6,2.7,7.4,2.7c1.8,0,3.7,0,5.6,0c0,0,0,0,0,0c0.5-0.1,0.9-0.2,1.4-0.3v0c2.4-1.1,4.4-2.5,6-4.3c0.2-0.4,0.5-0.9,0.7-1.3
		c0.1-0.2,0.3-0.5,0.5-0.7c0,0,0,0,0,0c0.3-0.5,0.5-1,0.9-1.3c0.8-0.5,1.7-0.9,2.7-1.5c0,0.5-0.1,0.9-0.1,1.2c0,1,0.8,1.5,1.7,1
		c0.2-0.1,0.3-0.2,0.5-0.4c1.5-1.1,2.9-2.2,4.4-3.4c0.7-0.5,1.3-1.1,1.9-1.7c0.6-0.6,1.1-1.2,1.8-1.9c0.3-0.5,0.7-1,1.1-1.5
		c0.2-0.3,0.5-0.6,0.7-0.8c0.2-0.2,0.3-0.4,0.5-0.5c0-0.4,0.2-0.8,0.4-1.2c0.8-1.5,1.6-3,2.4-4.6c0.3,0.5,0.6,1,0.9,1.5
		c1.1,1.4,2.9,1.2,3.7-0.5c0.1-0.1,0.1-0.3,0.2-0.4c1.1-2.9,2.2-5.7,3.3-8.6c0.4-1.1,0.8-2.3,1.2-3.4c0.1-0.2,0.2-0.4,0.4-0.8
		c0.4,1.2,0.8,2.1,1.1,3c0.7,2.6,0.9,5.3,0.9,7.9c0,1.4,0.3,1.6,1.8,1.5c0.8-2.3,1.5-4.7,2.3-7.2c0-0.1,0-0.2,0.1-0.3
		c0.1-0.4,0.3-0.9,0.7-1.1c0.2-0.1,0.3-0.1,0.5-0.1c1.7-0.9,3.3-1.8,4.6-3.2c1.3-1.4,2.4-3,3.7-4.6c0.2,0.2,0.4,0.4,0.6,0.6
		c0.7,0.7,1.6,1.1,2.6,1.1c0.9,0,1.2-0.3,1.1-1.3c-0.1-0.6-0.2-1.2-0.4-1.7c-1.1-2.2-0.6-4.6-0.7-6.9c1,0.6,1.9,1.2,2.9,1.7
		c0.4,0.2,0.9,0.4,1.4,0.4c0.8,0.1,1.3-0.4,1.2-1.2c-0.1-0.5-0.3-1-0.6-1.5c-0.6-1.1-0.9-2.2-1.1-3.6c0.9,0.3,1.5,0.8,2,1.3
		c1,0.8,2,1.3,3.4,1c0.7-0.5,0.5-1.2,0.2-1.8c-0.6-1.2-1.1-2.4-1.7-3.6c-0.3-0.8-0.5-1.7-0.3-2.7c0.7,0.6,1.4,1.2,2.1,1.7
		c1.3,0.9,2.7,1.8,4,2.6c0.4,0.2,0.9,0.3,1.4,0.4c1.3,0.3,1.9-0.4,1.7-1.7c-0.1-0.7-0.4-1.4-0.5-2.1c-0.1-0.2-0.1-0.4-0.1-0.8
		c0.6,0.3,1.1,0.6,1.6,0.8c0.3,0.1,0.6,0.3,0.9,0.4c1.6,0.5,2,0.1,2-1.5c0-0.5,0-1.1,0-1.6c-0.1-4.3,1.4-8,4.1-11.2
		c0.5-0.6,1.1-1.3,1.6-1.9c0.1-0.1,0.2-0.2,0.4-0.3c0.4,0.6,0.9,1.3,1.3,1.9c0.2,0.3,0.5,0.6,0.8,0.8c0.3,0.2,0.8,0.4,1.1,0
		c0.2-0.2,0.2-0.6,0.2-0.9c0-0.8-0.1-1.6-0.1-2.4c0.2-2.3,1.2-4.3,2.4-6.2c1.1-1.7,2.3-3.3,3.5-5.1c1.5-2.4,3.2-4.7,3.7-7.5
		c0.5-2.6,0.3-5.1-1.1-7.5c-0.9-1.4-1.7-2.8-2.7-4.1c-1.4-1.7-3.1-3-5.2-3.9c-2.1-0.8-4.1-1.8-6.1-2.7c-3.4-1.6-6.8-3.1-10.2-4.8
		c-2.1-1.1-4.2-2.3-6.3-3.4c-0.7-0.4-1.4-0.8-2.2-1.1c-1.4-0.6-2.8-0.5-4.2,0.4c-0.5,0.4-1,0.8-1.5,1.2c-1.4,1-2.4,1-3.7,0
		c-1.5-1.2-2.9-2.5-4.3-3.7c-2.2-1.9-4.7-3.5-7.5-4.5c-1.3-0.4-2.6-0.6-4-0.9c-0.5-0.1-1.1,0-1.5,0.5c0.5,1.2,1.6,2.2,1.1,3.8
		c-0.2-0.1-0.5-0.2-0.7-0.3c-1.7-1.4-3.6-2.5-5.6-3.3c-0.9-0.4-1.9-0.7-2.9-0.9c-0.6-0.1-1.3-0.3-1.7,0.4c0.3,1.2,1.2,2.3,1.2,3.8
		c-2.4-1-4.7-0.9-7.1-0.8c-0.8-2.6-2.2-4.9-3.7-7.1c-0.7-1-1.6-1.9-2.7-2.6c-1.8-1.1-3.7-1-5.7-0.7c-1.9,0.3-3.7,1.1-5.4,2
		C53.6,5,51,6.9,48.3,8.7c-0.8,0.5-1.6,0.9-2.4,1.3c-3.2,1.5-6.6,2.4-10.1,2.3c-1.2,0-2.4,0-3.7,0c-0.5,0-1.1,0-1.5,0.5
		c0.6,2.3,2.7,3.2,4.4,4.6c-0.5,0.2-0.8,0.4-1.2,0.6c-3.8,1.4-7.7,2.7-11.7,3.6c-0.4,0.1-0.9,0-1.3,0.1c-0.4,0.1-0.9,0.3-1,0.6
		c-0.3,0.4-0.1,1,0.3,1.3c0.4,0.4,0.8,0.7,1.2,1c0.2,0.2,0.5,0.3,0.8,0.5c-2.8,1.4-3.8,3.8-4.7,6.4c-1.2,3.3-1.7,6.8-1.5,10.3
		c0.1,1,0.4,1.9,0.9,2.7c0.5,0.8,1.1,1.2,2.2,1c0.2-0.4,0.5-0.9,0.8-1.4c1.1,1.6,2.2,3.3,3.5,5c-2.5,0.8-4.5,2.4-6.7,3.7
		c-2,1.2-3.5,2.9-4.9,4.7c-1.8,2.4-3.5,4.8-4.8,7.5c-1.1,2.2-2,4.5-2.6,6.9c-0.4,1.7-0.9,3.5-1.2,5.2c-0.3,2-0.6,4-0.8,6.1
		c-0.3,2.8-0.4,5.5-0.6,8.3C1.4,93,1.2,94.2,1,95.4 M17.6,42.3c0,0.3,0,0.7,0.1,1C17.6,43,17.6,42.7,17.6,42.3 M117.7,84.4
		C117.7,84.4,117.7,84.3,117.7,84.4C117.7,84.3,117.7,84.4,117.7,84.4z"/>
	<path class="st1" d="M0.9,97.3c0,1.1,0.1,1.2,1.6,1.6c0.1-0.4,0.3-0.8,0.5-1.1c0.2-0.4,0.4-0.7,0.6-1.2c0.5,1.9,0.9,3.8,1.4,5.6
		c0.3,1.1,0.9,2.2,1.2,3.3c0.3,0.8,0.7,1.2,1.6,1.3c0.2-0.2,0.5-0.4,0.6-0.7c0.9-2.8,2.3-5.4,4-7.8c1.7-2.5,3.7-4.8,6.4-6.3
		c1-0.6,2.2-1,3.3-1.5c0.6-0.3,1.2-0.7,1.8-1c0.4-0.2,0.9-0.3,1.4-0.5c0.2,0.7,0.5,1.2,0.6,1.7c0.3,1.6,0.7,3.3,0.7,4.9
		c0.1,3.6,0.1,7.2-0.1,10.8c-0.2,3.8-0.2,7.6-1,11.3c-0.2,1,0.3,1.6,1.4,1.8c1,0.1,1.9,0.2,2.9-0.2c0.6,1.4,1.2,2.8,1.8,4.4
		c-0.1,0-0.1,0-0.2,0.1c0.4,0.5,0.8,1,1.3,1.4c0.3,0.1,0.6,0.2,0.9,0.5c0.7,0.7,1.5,1.2,2.3,1.8c0.1,0.1,0.2,0.2,0.3,0.2
		c0.2,0.1,0.3,0.2,0.5,0.2c0.4,0.2,0.8,0.5,1,0.9c0.2,0.2,0.3,0.5,0.4,0.7c0.9,1.5,1.9,2.9,3.3,3.9c2.2,1.6,4.6,2.7,7.4,2.7
		c1.8,0,3.7,0,5.6,0c0,0,0,0,0,0c0.5-0.1,0.9-0.2,1.4-0.3v0c2.4-1.1,4.4-2.5,6-4.3c0.2-0.4,0.5-0.9,0.7-1.3c0.1-0.2,0.3-0.5,0.5-0.7
		c0,0,0,0,0,0c0.3-0.5,0.5-1,0.9-1.3c0.8-0.5,1.7-0.9,2.7-1.5c0,0.5-0.1,0.9-0.1,1.2c0,1,0.8,1.5,1.7,1c0.2-0.1,0.3-0.2,0.5-0.4
		c1.5-1.1,2.9-2.2,4.4-3.4c0.7-0.5,1.3-1.1,1.9-1.7c0.6-0.6,1.1-1.2,1.8-1.9c0.3-0.5,0.7-1,1.1-1.5c0.2-0.3,0.5-0.6,0.7-0.8
		c0.2-0.2,0.3-0.4,0.5-0.5c0-0.4,0.2-0.8,0.4-1.2c0.8-1.5,1.6-3,2.4-4.6c0.3,0.5,0.6,1,0.9,1.5c1.1,1.4,2.9,1.2,3.7-0.5
		c0.1-0.1,0.1-0.3,0.2-0.4c1.1-2.9,2.2-5.7,3.3-8.6c0.4-1.1,0.8-2.3,1.2-3.4c0.1-0.2,0.2-0.4,0.4-0.8c0.4,1.2,0.8,2.1,1.1,3
		c0.7,2.6,0.9,5.3,0.9,7.9c0,1.4,0.3,1.6,1.8,1.5c0.8-2.3,1.5-4.7,2.3-7.2c0-0.1,0-0.2,0.1-0.3c0.1-0.4,0.3-0.9,0.7-1.1
		c0.2-0.1,0.3-0.1,0.5-0.1c1.7-0.9,3.3-1.8,4.6-3.2c1.3-1.4,2.4-3,3.7-4.6c0.2,0.2,0.4,0.4,0.6,0.6c0.7,0.7,1.6,1.1,2.6,1.1
		c0.9,0,1.2-0.3,1.1-1.3c-0.1-0.6-0.2-1.2-0.4-1.7c-1.1-2.2-0.6-4.6-0.7-6.9c1,0.6,1.9,1.2,2.9,1.7c0.4,0.2,0.9,0.4,1.4,0.4
		c0.8,0.1,1.3-0.4,1.2-1.2c-0.1-0.5-0.3-1-0.6-1.5c-0.6-1.1-0.9-2.2-1.1-3.6c0.9,0.3,1.5,0.8,2,1.3c1,0.8,2,1.3,3.4,1
		c0.7-0.5,0.5-1.2,0.2-1.8c-0.6-1.2-1.1-2.4-1.7-3.6c-0.3-0.8-0.5-1.7-0.3-2.7c0.7,0.6,1.4,1.2,2.1,1.7c1.3,0.9,2.7,1.8,4,2.6
		c0.4,0.2,0.9,0.3,1.4,0.4c1.3,0.3,1.9-0.4,1.7-1.7c-0.1-0.7-0.4-1.4-0.5-2.1c-0.1-0.2-0.1-0.4-0.1-0.8c0.6,0.3,1.1,0.6,1.6,0.8
		c0.3,0.1,0.6,0.3,0.9,0.4c1.6,0.5,2,0.1,2-1.5c0-0.5,0-1.1,0-1.6c-0.1-4.3,1.4-8,4.1-11.2c0.5-0.6,1.1-1.3,1.6-1.9
		c0.1-0.1,0.2-0.2,0.4-0.3c0.4,0.6,0.9,1.3,1.3,1.9c0.2,0.3,0.5,0.6,0.8,0.8c0.3,0.2,0.8,0.4,1.1,0c0.2-0.2,0.2-0.6,0.2-0.9
		c0-0.8-0.1-1.6-0.1-2.4c0.2-2.3,1.2-4.3,2.4-6.2c1.1-1.7,2.3-3.3,3.5-5.1c1.5-2.4,3.2-4.7,3.7-7.5c0.5-2.6,0.3-5.1-1.1-7.5
		c-0.9-1.4-1.7-2.8-2.7-4.1c-1.4-1.7-3.1-3-5.2-3.9c-2.1-0.8-4.1-1.8-6.1-2.7c-3.4-1.6-6.8-3.1-10.2-4.8c-2.1-1.1-4.2-2.3-6.3-3.4
		c-0.7-0.4-1.4-0.8-2.2-1.1c-1.4-0.6-2.8-0.5-4.2,0.4c-0.5,0.4-1,0.8-1.5,1.2c-1.4,1-2.4,1-3.7,0c-1.5-1.2-2.9-2.5-4.3-3.7
		c-2.2-1.9-4.7-3.5-7.5-4.5c-1.3-0.4-2.6-0.6-4-0.9c-0.5-0.1-1.1,0-1.5,0.5c0.5,1.2,1.6,2.2,1.1,3.8c-0.2-0.1-0.5-0.2-0.7-0.3
		c-1.7-1.4-3.6-2.5-5.6-3.3c-0.9-0.4-1.9-0.7-2.9-0.9c-0.6-0.1-1.3-0.3-1.7,0.4c0.3,1.2,1.2,2.3,1.2,3.8c-2.4-1-4.7-0.9-7.1-0.8
		c-0.8-2.6-2.2-4.9-3.7-7.1c-0.7-1-1.6-1.9-2.7-2.6c-1.8-1.1-3.7-1-5.7-0.7c-1.9,0.3-3.7,1.1-5.4,2C53.6,5,51,6.9,48.3,8.7
		c-0.8,0.5-1.6,0.9-2.4,1.3c-3.2,1.5-6.6,2.4-10.1,2.3c-1.2,0-2.4,0-3.7,0c-0.5,0-1.1,0-1.5,0.5c0.6,2.3,2.7,3.2,4.4,4.6
		c-0.5,0.2-0.8,0.4-1.2,0.6c-3.8,1.4-7.7,2.7-11.7,3.6c-0.4,0.1-0.9,0-1.3,0.1c-0.4,0.1-0.9,0.3-1,0.6c-0.3,0.4-0.1,1,0.3,1.3
		c0.4,0.4,0.8,0.7,1.2,1c0.2,0.2,0.5,0.3,0.8,0.5c-2.8,1.4-3.8,3.8-4.7,6.4c-1.2,3.3-1.7,6.8-1.5,10.3c0.1,1,0.4,1.9,0.9,2.7
		c0.5,0.8,1.1,1.2,2.2,1c0.2-0.4,0.5-0.9,0.8-1.4c1.1,1.6,2.2,3.3,3.5,5c-2.5,0.8-4.5,2.4-6.7,3.7c-2,1.2-3.5,2.9-4.9,4.7
		c-1.8,2.4-3.5,4.8-4.8,7.5c-1.1,2.2-2,4.5-2.6,6.9c-0.4,1.7-0.9,3.5-1.2,5.2c-0.3,2-0.6,4-0.8,6.1c-0.3,2.8-0.4,5.5-0.6,8.3
		C1.4,93,1.2,94.2,1,95.4C0.9,96,0.9,96.7,0.9,97.3z M17.7,43.3c-0.1-0.3-0.1-0.7-0.1-1C17.6,42.7,17.6,43,17.7,43.3z M117.7,84.4
		C117.7,84.4,117.7,84.3,117.7,84.4C117.7,84.3,117.7,84.4,117.7,84.4z"/>
	<path class="st2" d="M59.6,28.3c-1.2-0.5-6.4-1.1-8-0.9c-0.2,2.5-1.2,4.7-2.2,6.9c-1,2.2-2.3,4.2-4.3,5.6c0.3,0.4,0.7,0.7,0.8,1
		c0.1,0.4,0.1,0.9-0.1,1.3c-1,1.7-1.6,3.7-3.1,5.3c1.5,0.2,2.9,0.5,4.3,0.6c3.6,0.4,7.1,1,10.6,1.6c4.9,0.9,9.7,2.3,14.3,4.2
		c1.5,0.6,3,1.4,4.4,2.3c4,2.7,7.8,5.8,10.9,9.6c0.7,0.9,1.4,1.7,2.2,2.5c2.3,2.4,3.8,5.4,5.1,8.5c1.3,3.1,3.1,5.7,5.7,7.8
		c0.3,0.2,0.6,0.6,0.6,0.9c0.2,0.9-0.2,1.5-1.2,1.6c-0.6,0.1-1.3,0.1-1.9,0.1c-0.2,0-0.4,0-0.6,0.1c1.9,5,2.2,10,1.4,15.3
		c1.9-0.9,3.6-2,4.9-3.6c1-1.3,2.1-2.5,2.7-4.2c0.2-0.6,0.8-0.7,1.3-0.9c0.7,0.8,1.4,1.6,2.1,2.4c0.1,0,0.1-0.1,0.2-0.1
		c-0.3-1.1-0.7-2.2-0.8-3.3c-0.1-1.1-0.1-2.2,0-3.4c0-1.2,0.1-2.3,0.2-3.5c0.5-0.2,0.9-0.4,1.3-0.5c1.3,0.8,1.7,2.5,3.2,2.9
		c-0.9-2.8-1.2-4.9-1.1-6.6c0.4-0.2,0.8-0.3,1.3-0.6c0.9,1.5,2.4,2.2,4,3.3c-0.3-0.8-0.5-1.4-0.7-2c-0.5-1.2-0.9-2.5-0.8-3.8
		c0-0.6,0-1.3-0.1-1.9c-0.1-0.7-0.2-1.3-0.4-2c-0.1-0.5-0.4-0.9-0.6-1.3c-1-1.8-1.5-3.7-1.3-5.7c0.1-1.7,0.2-3.4,0.4-5.1
		c0.3-2.6,0.6-5.1,1-7.6c0.7-4.2,1.6-8.3,2.9-12.3c0.1-0.3,0.2-0.6,0.3-1.1c-1.9-0.4-3.7-0.7-5.7-1.1c0,0.4,0,0.7,0.1,1
		c0.2,1.1,0.5,2.3,0.7,3.4c0.1,0.7,0.1,1.4,0.1,2c0,0.5,0.1,1.2-0.6,1.4c-0.4,0.1-0.9-0.3-1.3-0.5c-0.3-0.2-0.4-0.5-0.7-0.8
		c-3.2-3.8-7.1-6.6-11.7-8.6c-0.1,0-0.2,0-0.4,0c0.6,0.7,1.1,1.4,1.6,2.2c1.6,2.2,2.6,4.5,3.1,7.2c0.4,2.1-0.1,4.1-1.2,5.9
		c-1.1,1.8-3,2.7-5.1,3.1c-2.6,0.5-5.3,0.4-7.9,0.2c-2-0.2-3.7-1.3-5.1-2.6c-2.7-2.5-3.7-5.6-3.4-9.2c0.3-2.7,1.1-5.2,2.6-7.5
		c0.5-0.8,1.2-1.5,1.9-2.3c-0.9,0-1.8-0.1-2.4-0.9c0.1-1.2,0.6-2.3,1.3-3.3c0.7-1.1,1.4-2.1,2.1-3.2c0.6-0.9,1.3-1.4,2.4-1.4
		c0.9,0,1.8-0.2,2.7-0.3c4-0.6,7.9,0.1,11.7,1.5c4.8,1.8,9.1,4.5,12.6,8.2c1,1,1.8,2.2,2.6,3.2c0-0.2,0.1-0.5,0-0.7
		c-0.3-1.1-0.7-2.2-1.1-3.3c-1-2.3-1.9-4.7-3.8-6.5c-0.5-0.4-0.9-0.9-1.5-1.2c-1-0.6-1.8-1.4-2.3-2.6c0.2-0.2,0.3-0.4,0.6-0.6
		c1.7-1,3.5-1.2,5.4-0.9c0.9,0.2,1.8,0.7,2.5,1.3c2.1,1.7,3.2,3.9,3.2,6.7c0,2-0.1,3.9-0.6,5.8c-0.5,2.2-0.8,4.4-1.5,6.5
		c-1,3.4-1.7,6.9-2.4,10.4c-0.5,2.6-0.8,5.2-1,7.8c-0.1,1.6-0.2,3.2-0.5,4.8c-0.3,1.8,0,3.5,0.8,5.1c0.5,1,1,2,1.4,3
		c1.1,2.3,4.5,5.1,6.8,5.7c0-1.4,0-2.8-0.1-4.1c0-0.6,0.2-0.9,0.8-1.1c0.7-0.3,1.1-0.2,1.3,0.6c0.4,1.1,1.2,1.7,2.3,2.1
		c0.1-1.8,0.2-3.4,0.4-5.1c0.3-1.7,0.8-3.3,1.7-4.8c0.8-1.4,1.8-2.7,2.8-4c1-1.3,2.3-2.5,3.9-3.2c0.3,0.4,0.5,0.7,0.9,1.1
		c0.4-3.7,2.5-6.4,4.5-9.2c1.4-2,2.9-4,4-6.2c0.8-1.5,1.2-3,1.3-4.7c0.3-3.4-1.4-6.1-3.4-8.6c-1.9-2.4-4.4-3.7-7.2-4.8
		c-1.1-0.4-2.2-0.9-3.3-1.4c-3.6-1.7-7.1-3.3-10.7-5c-2-1-3.9-2.1-5.9-3.2c-0.6-0.3-1.3-0.7-1.9-1c-1.2-0.6-2.4-0.5-3.5,0.4
		c-2.1,1.6-3.6,3.7-4.6,6c0,0.1-0.1,0.2-0.2,0.3c-0.6,0.2-1.1,0-1.5-0.7c0.2-1.5,1.4-2.5,2.1-3.9c-1.5-0.4-2.6-1.3-3.7-2.3
		c-2.2-2-4.3-3.9-6.8-5.4c-1.6-1-3.3-1.7-5-2.3c-0.2-0.1-0.4,0-0.7,0c0.5,1.2,0.4,2.3,0.2,3.5c-0.1,0.8-0.8,1.3-1.5,1.1
		c-0.6-0.2-1.3-0.5-1.8-0.9c-2-1.5-4.2-2.7-6.4-3.7c-0.2-0.1-0.3-0.1-0.7-0.3c0.6,1.6,1.1,3,0,4.5c-1.3-0.3-2.5-0.7-3.8-0.9
		c-1.2-0.2-2.5-0.2-3.8,0c0.1,1.5,0.8,2.8,0.5,4.2c-0.7,0.2-1-0.1-1.3-0.5c-0.2-0.3-0.3-0.7-0.4-1.1c-0.4-1.4-0.7-2.9-1.1-4.3
		c-0.2-0.7-0.5-1.5-0.9-2.1c-0.8-1.4-1.7-2.8-2.6-4.2c-1.1-1.7-2.7-2.5-4.8-2.5c-2.1,0.1-4.1,0.6-6,1.6c-3,1.6-5.6,3.7-8.4,5.5
		c-2.7,1.8-5.7,3.1-9,3.7c-2.2,0.4-4.3,0.7-6.5,0.6c-0.1,0-0.3,0.1-0.5,0.1c1.1,1,2.2,1.7,3.4,2.2c0.5,0.2,0.8,0.6,0.8,1.2
		c-2.2,1.8-5,2.7-7.7,3.5c-2.7,0.8-5.3,1.8-8.4,1.7c1.1,0.8,2,1.3,3,1.4c0.2,0,0.5,0.1,0.7,0.1c0.3,0.1,0.4,0.7,0.2,0.9
		c-0.4,0.3-0.8,0.7-1.2,0.8c-2.1,0.4-3.3,2-4.2,3.8c-1,2.2-1.7,4.4-2,6.8c-0.2,1.9-0.3,3.8-0.4,5.7c0,0.5-0.1,1.1,0.4,1.5
		c0.6-1,0.9-2.2,2.5-2.3c0.2,0.4,0.4,0.7,0.6,1.1c0.7,1.9,1.8,3.5,3,5c0.2,0.2,0.4,0.4,0.6,0.6c0.5,0.4,1,0.6,1.7,0.4
		c2.6-0.7,5.3-0.9,7.9-1.2c1.8-0.2,3.6-0.1,5.4-0.1c0.2,0,0.5,0,0.7,0c0.8-1.1,1.6-2.1,2.4-3.1c-2.5-1.5-2.9-3.9-2.5-6.3
		c0.2-1.2,0.9-2.5,1.5-3.6c1.4-2.7,2.9-5.3,4.4-7.9c-0.6-0.3-1.2-0.6-1.9-1c0.3-0.3,0.5-0.5,0.7-0.7c0.5-0.3,1.1-0.7,1.6-0.9
		c0.6-0.3,0.9-0.7,1.2-1.3c0.7-2.1,1.3-4.3,2.4-6.2c0.9-1.6,1.9-3.1,3.3-4.4c1.4-1.3,3.1-2.1,4.9-2.4c1.4-0.2,3-0.3,4.4,0
		c3.2,0.9,5.5,2.8,6.3,6.2c0.2,0.7,0.3,1.4,0.4,2.2c1.1,0.5,2.3,0.9,3.3,1.4c1.3,0.7,2.6,1.5,3.9,2.3c0.3,0.2,0.5,0.7,0.5,1.1
		c0,0.9-0.1,1.7-0.2,2.6c-0.2,2.4-0.5,4.8-1.4,7.1c-1,0.5-1.7-0.4-2.7-0.8c0.1,0.4,0.2,0.7,0.3,1c1.4,4.1,1.5,8.1-0.3,12.1
		c-0.9,1.9-2.2,3.3-4.3,3.8c-1.1,0.3-2.2,0.8-3.3,1c-3.9,0.6-7.5-0.4-10.5-3.1c-2.4-2.1-2.9-4.8-2.5-7.7
		C53,34.2,55.6,30.8,59.6,28.3"/>
	<path class="st3" d="M98.2,85.4c-1-1.2-2.1-2.4-3-3.6c-0.9-1.2-1.6-2.6-2.1-4c-1-2.5-2.1-4.9-3.7-7.1c-0.6-0.8-1.3-1.6-1.9-2.4
		c-3.4-4-7.1-7.7-11.5-10.7c-1.9-1.3-4-2.4-6.2-3.2c-3.5-1.3-7.1-2.4-10.8-3.1c-2.9-0.6-5.7-1.1-8.6-1.6c-1.9-0.3-3.8-0.5-5.6-0.6
		c-2.8-0.2-5.5-0.3-8.3-0.3c-1.5,0-3.1,0.1-4.6,0.3c-2,0.2-4,0.5-6,1.1c-0.2,0.1-0.4,0.2-0.6,0.1c-1.5-0.2-2.6,0.6-3.8,1.2
		c-1.6,0.9-3.1,1.9-4.5,3c-1.3,1-2.5,2.2-3.5,3.5c-2.2,2.7-4.1,5.7-5.5,8.9c-1.3,3-2.3,6.1-2.8,9.3C4.5,80,3.9,83.6,3.8,87.2
		c-0.1,1.7-0.3,3.5-0.5,5.2c0,0.4,0,0.9-0.1,1.5c0.5-0.2,0.9-0.4,1.3-0.6c0.5,0.2,0.5,0.6,0.6,1c0.4,2.9,0.9,5.8,2,8.5
		c0.1,0.2,0.2,0.3,0.3,0.6c2.1-4.3,4.6-8.1,8.4-11.3c-0.9,0.1-1.5,0.1-2,0.2c-0.9,0.1-1.7,0.2-2.6,0.2c-0.7,0-1.3-0.2-1.8-0.9
		c0.2-0.2,0.3-0.5,0.5-0.5c1.4-0.4,2.1-1.6,2.8-2.7c0.8-1.1,1.4-2.2,2-3.4c0.4-0.7,0.8-1.5,0.7-2.3c0-0.2,0-0.5,0.1-0.7
		c0.2-0.2,0.5-0.3,0.7-0.4c0.2,0,0.4,0.3,0.4,0.5c0.2,1,0.2,2.1-0.2,3c-0.6,1.2-1.3,2.4-1.9,3.6c-0.3,0.5-0.6,1-1,1.5
		c0.2,0.1,0.3,0.2,0.4,0.2c1.4-0.2,2.8-0.4,4.1-0.8c1.9-0.5,3.7-1.2,5.5-1.9c1.6-0.6,3-1.8,4.4-2.8c1.5-1.1,2.4-2.5,3.1-4.1
		c0.2-0.4,0.3-0.7,0.5-1.1c0.4-0.6,0.4-1.1,0.4-1.8c0-1.3,0.1-2.5,0.2-3.8c0-0.6-0.1-1-0.5-1.5c-1.1-1.5-2.3-2.7-4.1-3.3
		c-1.3-0.4-2.5-1-3.8-1.3c-3-0.8-4-2.3-4.4-5.3c-0.4-3,1.8-4.9,3.8-5.3c1.7-0.4,3.5-0.6,5.3-0.9c3.1-0.4,6.3-0.3,9.5-0.3
		c2.5,0,4.9,0.4,7.4,0.9c0.4,0.1,0.7,0.2,1.1,0.3c1.5,0.4,2.2,1.5,2.4,2.8c0.3,2.3-0.2,4.5-1.5,6.4c-0.7,1.1-1.9,1.6-3.2,1.9
		c-1.6,0.4-3.2,0.8-4.8,1.2c-0.7,0.2-1.3,0.4-1.9,0.6c-1.7,0.5-2.6,1.9-3.6,3.3c-0.1,0.2-0.1,0.6-0.1,0.9c0,1.7,0,3.4,0,5.1
		c0,0.6,0.2,1,0.6,1.5c0.5,0.6,1,1.3,1.5,2c1,1.3,2.3,2.1,3.6,2.9c3.3,2.1,6.9,3.3,10.6,4.4c3,0.8,6,1.2,9,1.7
		c1.3,0.2,2.6,0.3,4.2,0.5c-0.9-1.1-1.6-1.9-2.3-2.7c-0.3-0.3-0.6-0.7-0.8-1c-0.3-0.4-0.5-0.8-0.2-1.3c0.4-0.5,0.9-0.7,1.5-0.6
		c1.1,0.2,2.2,0.4,3.3,0.6c1.9,0.4,3.9,0.3,5.8,0.2c2.3-0.2,4.6-0.4,6.9-1.1c2.3-0.7,4.6-1.4,6.9-2.4c-4-0.4-7.4-1.8-10.3-4.4
		c0.3-0.7,0.7-0.8,1.2-0.6c0.5,0.2,0.9,0.4,1.3,0.6c1.5,0.7,3,1.5,4.5,2.2c1.4,0.6,2.9,0.9,4.4,0.4c0.2-0.1,0.5-0.1,0.7-0.2
		c0.6,0.5,0.6,1.1,0.3,1.7c-0.3,0.5-0.6,1.1-1,1.5c-0.4,0.4-1.1,0.6-1.7,0.9c2.1,3.3,3.2,7,3.6,10.9c2-1.7,2.3-1.2,3.7,0.1
		c2.2,2.1,3.3,4.6,3.9,7.5c0.2,0.7,0.3,1.5,0.6,2.2c0.7-3,1.9-5.9,1.7-9c-0.1-1.7-0.2-3.5-0.3-5.2c-0.1-0.7-0.3-1.4-0.6-2.1
		c-0.3-1.1-0.8-2.2-1.1-3.3c-0.2-0.7,0-1,0.7-1.2C96.6,85.6,97.3,85.5,98.2,85.4"/>
	<path class="st4" d="M65.5,112.3c-0.9,1-1.6,1.8-2.4,2.6c-0.6,0.6-0.6,0.5-1.5,0c1.1-1.9,2.3-3.8,4.2-5.1c0.8-0.6,1.5-1.4,2.3-2.1
		c1.6-1.3,3.3-2.6,5-3.9c-0.6-0.3-1.2-0.7-1.9-0.9c-1.9-0.6-3.9-1.2-6-1.1c-2.1,0.1-4,0.6-5.8,1.9c-2,1.4-3.3,3.1-4.1,5.3
		c-0.2,0.6-0.5,1.2-0.8,1.7c-0.2,0.4-0.4,0.7-0.6,1c-0.6-0.1-0.9-0.3-0.8-0.8c0-0.2,0-0.4,0.1-0.6c0.9-3.1,2.2-5.9,5.1-7.7
		c0.4-0.2,0.8-0.6,1.3-1c-0.4-0.2-0.6-0.4-0.8-0.5c-2.6-0.8-5.2-1.3-7.9-0.7c-3,0.6-5.3,2.2-6.9,4.7c-2.2,3.3-3.6,6.8-4.4,10.7
		c-0.5,2.5-0.8,5.1-0.8,7.7c0,4.2,2,7.3,5.5,9.3c1.7,1,3.6,1.6,5.7,1.6c1.5,0,3,0,4.5-0.1c1-0.1,1.8-0.5,2.7-1
		c3.2-1.7,4.9-4.3,5.8-7.6c0.5-2,0.9-4.1,1.3-6.1c0.2-1.1,0.2-2.2,0.4-3.3C64.8,115.1,65.2,113.8,65.5,112.3"/>
	<path class="st5" d="M34.5,84.4c0,0.7,0,1.4,0.1,2.1c0.5,3.5,0.8,7,1.4,10.5c0.5,2.8,1.1,5.5,2.3,8.1c0.5,1,0.9,1.5,2.1,2.3
		c0.5-0.8,0.9-1.5,1.4-2.3c2.3-3.6,5.5-5.6,9.7-6.1c2.5-0.3,4.9,0.2,7.3,1c0.4,0.1,0.9,0.3,1.2,0.6c0.6,0.6,1.2,0.5,1.9,0.3
		c3.4-0.9,6.6-0.3,9.9,0.8c0.9,0.3,1.7,0.9,2.6,1.4c1.3-0.6,2-1.8,2.7-2.9c0.8-1.3,1.5-2.7,2-4.2c0.8-2.2,0.5-4.4-1.1-6.3
		c-0.8-0.9-1.6-1.3-2.9-1c-3.3,0.7-6.7,1-10.1,0.7c-0.9-0.1-1.8-0.3-3-0.5c1,1,1.8,1.8,2.5,2.6c0.6,0.7,0.8,1.3,0.3,2.1
		c-0.1,0.2-0.4,0.4-0.6,0.4c-0.3,0.1-0.7,0.1-1,0.1c-1.6-0.2-3.2-0.3-4.8-0.5c-1.3-0.1-2.5-0.3-3.7-0.5c-2-0.4-4.1-0.9-6.1-1.4
		c-3.7-0.9-7.1-2.2-10.3-4.3C37.1,86.4,35.9,85.4,34.5,84.4"/>
	<path class="st6" d="M64.6,125.9c1.2-0.9,2-2,3.4-2.1c0.8,0.5,0.5,1.5,0.8,2.3c0.3-0.1,0.5-0.3,0.7-0.4c0.4-0.3,0.8-0.6,1.2-0.9
		c3-1.9,5.3-4.5,7.1-7.4c1.1-1.8,2.3-3.6,2.8-5.7c0.1-0.2,0.1-0.4,0.2-0.5c0.2-0.5,0.4-1.1,1-1.1c0.6,0,1,0.4,1.3,1
		c0.3,0.7,0.7,1.4,1.1,2.1c0.1,0.2,0.3,0.4,0.7,0.8c1.5-5.3,4.4-9.8,5.2-15.2c-0.3-0.3-0.6-0.7-0.9-1c-0.8,0.8-1.6,1.5-2.5,2.3
		c-0.4-0.2-0.8-0.5-1.2-0.7c0.6-2.6,0-5-0.8-7.2c-0.7-1.9-1-4.2-3-5.6c-1,0.3-2,0.7-3.1,1.1c0.2,0.3,0.4,0.6,0.6,0.8
		c2.3,2.3,2.5,5.1,1.6,8c-0.5,1.5-1.3,2.9-2,4.4c-1,2-2.6,3.4-4.5,4.5c-1.6,0.9-3.1,2-4.5,3.2c-1.7,1.4-2.6,3.2-3.1,5.3
		c-0.4,1.6-0.7,3.2-0.8,4.9c-0.2,2.1-0.6,4.2-1.2,6.3C64.7,125.2,64.7,125.4,64.6,125.9"/>
	<path class="st6" d="M27.6,117.7c0.8,0.4,1.4,0,2-0.5c0.6-0.5,1.2-0.9,2-1.5c0.1,0.4,0.3,0.7,0.2,0.9c-0.1,0.5-0.4,0.9-0.5,1.3
		c0.5,1.1,1,2.2,1.5,3.4c0.7,1.5,2.7,3.6,4.1,4.2c0-2.8-0.2-5.7,0.4-8.4c0.6-2.7,1.3-5.5,2.4-8.1c-2.1-1.3-3.2-3.3-3.9-5.5
		c-0.9-2.8-1.6-5.7-1.9-8.7c-0.3-2.7-0.7-5.5-1-8.2c-0.1-0.7,0-1.4-0.1-2c-0.1-0.9-0.2-1.8-0.4-2.8c-1.3,2.6-3.4,4.3-5.7,5.8
		c0.3,0.8,0.6,1.5,0.9,2.2c0.7,2.2,1.1,4.4,1.1,6.7c-0.1,4.7-0.3,9.3-0.5,14c-0.1,2-0.4,4.1-0.6,6.1
		C27.6,117.1,27.6,117.4,27.6,117.7"/>
	<path class="st3" d="M111.7,45.1c-0.1-0.8-0.2-1.5-0.3-2.2c-0.1-0.8-0.3-1.5-0.4-2.3c-0.1-0.8,0.2-1.3,1.1-1.3
		c1.1,0,2.1,0.1,3.2,0.1c0.4,0,0.8,0.1,1.5,0.2c-1.1-1.7-2.3-3-3.7-4.1c-4.1-3.5-8.6-6-13.8-7.2c-1.8-0.4-3.6-0.8-5.5-0.7
		c-1.6,0.1-3.3,0.3-4.9,0.6c-0.3,0-0.6,0.2-0.7,0.4c-1.1,1.7-2.2,3.4-3.4,5.3c1.9,0.2,3.6,0.4,5.2,0.6c8.1,0.7,15.1,3.9,20.8,9.7
		c0.2,0.2,0.5,0.5,0.7,0.7C111.5,45,111.6,45,111.7,45.1"/>
	<path class="st3" d="M47.8,25.2c1,0.1,2,0.2,3,0.3c5.8,0.5,11.7,1.2,17.4,2.7c2.1,0.6,4.1,1.3,6.1,2.5c0.8-1.2,0.6-2.6,0.9-3.9
		c0.3-1.3,0.3-2.7,0.5-4c-1.7-1.4-3.5-2.3-5.4-2.9c-2.9-0.9-5.8-1.6-8.8-1.8c-1.9-0.1-3.9-0.2-5.8-0.3c-0.3,0-0.7,0-1,0
		c-0.2,0.7,0.2,1.1,0.4,1.6c0.2,0.4,0.5,0.8,0.6,1.3c0.2,0.7-0.1,0.9-0.8,1.2c-2.4,1-4.7,2-7,3C47.8,25.1,47.8,25.1,47.8,25.2"/>
	<path class="st5" d="M67.8,17.6c-0.4-3.5-2.1-5.9-5.2-6.6c-1.4-0.3-2.9-0.2-4.3,0c-2.2,0.3-3.8,1.8-5,3.5c-1.6,2.3-2.8,4.9-3.4,7.8
		c1.4-0.4,2.6-1,3.8-1.6c-0.3-0.8-0.7-1.6-0.9-2.4c-0.2-0.8,0-1.2,0.8-1.4c0.8-0.2,1.6-0.4,2.4-0.4C60,16.3,63.9,16.6,67.8,17.6"/>
	<path class="st3" d="M85.1,52.7c0-0.9,0-1.6,0-2.3c0.2-3.3,1.4-6.1,3.8-8.4c1.4-1.3,3-1.9,4.8-2.1c1.3-0.2,2.6-0.2,3.9,0.3
		c0.1,0,0.2,0,0.4-0.1c-0.2-0.3-0.3-0.6-0.5-0.8c-1.2-1.4-2.5-2.6-4.5-2.7c-1.1-0.1-2.2-0.3-3.3-0.6c-0.9-0.3-1.5,0.1-2.2,0.4
		C86.5,37,85.8,38,85.2,39c-1.4,2.2-2.1,4.7-2.3,7.3C82.8,48.6,83.3,50.8,85.1,52.7"/>
	<path class="st3" d="M56.6,45.8c-0.9-4-0.2-7.3,2-10.4c1.6-2.3,3.9-3.5,6.8-3.6c2.2-0.1,4.2,0.4,6.4,1.7c-0.6-1.1-0.9-1.9-1.4-2.7
		c-0.2-0.3-0.5-0.5-0.8-0.6c-2.4-0.7-4.7-1.5-7.3-1.3c-0.8,0.1-1.6,0.2-2.2,0.7c-2.7,2.2-5,4.7-5.9,8.1c-0.4,1.6-0.6,3.2-0.1,4.9
		C54.6,44,55.3,44.9,56.6,45.8"/>
	<path class="st5" d="M50.3,27c-0.7-0.1-1.3-0.2-2-0.4c-0.9,1.5-1.9,3-2.7,4.5c-0.9,1.5-1.8,3.1-2.7,4.7c-0.8,1.3-1.1,2.6-1,4.2
		c0.1,1.1,0.4,2.1,1.4,2.8c0.3-0.4,0.5-0.7,0.8-1.1c-0.4-0.3-0.7-0.5-0.9-0.7c-0.5-0.5-0.6-1-0.1-1.5c0.4-0.4,0.8-0.7,1.2-1.1
		c1-0.7,1.8-1.7,2.4-2.7c1.4-2.4,2.7-4.9,3.4-7.6C50,27.8,50.2,27.5,50.3,27"/>
	<path class="st5" d="M112,25.6c0.2,0.2,0.4,0.4,0.5,0.5c2.6,1.3,4.2,3.6,5.5,6.2c0.5,1,1,2.1,1.5,3.3c0.1-0.2,0.2-0.3,0.3-0.4
		c0.2-1.9,0.4-3.8-0.1-5.6c-0.5-1.9-1.8-3.2-3.4-4.1C114.9,24.6,113.5,24.8,112,25.6"/>
	<path class="st3" d="M92.8,43.3c-1.2,0-1.8,0.6-1.8,1.7c0,1,0.8,1.7,1.8,1.7c0.9,0,1.7-0.8,1.7-2C94.5,43.8,94,43.3,92.8,43.3"/>
	<path class="st3" d="M65,35.5c-0.5,0-0.9-0.1-1.2-0.1c-1.5,0.1-2,0.7-1.8,2.1c0.1,0.8,0.5,1.3,1.1,1.4c0.9,0.2,1.4-0.1,1.8-0.8
		C65.4,37.3,65.4,36.5,65,35.5"/>
	<path class="st3" d="M42.5,64.7c0.7,0,1.4,0.3,1.8-0.3c0.7-0.9,1.4-1.8,1-3.1c-0.3-0.2-0.7-0.4-1.1-0.7
		C43.2,61.5,43.2,61.5,42.5,64.7"/>
	<path class="st2" d="M59.6,28.3c-1.2-0.5-6.4-1.1-8-0.9c-0.2,2.5-1.2,4.7-2.2,6.9c-1,2.2-2.3,4.2-4.3,5.6c0.3,0.4,0.7,0.7,0.8,1
		c0.1,0.4,0.1,0.9-0.1,1.3c-1,1.7-1.6,3.7-3.1,5.3c1.5,0.2,2.9,0.5,4.3,0.6c3.6,0.4,7.1,1,10.6,1.6c4.9,0.9,9.7,2.3,14.3,4.2
		c1.5,0.6,3,1.4,4.4,2.3c4,2.7,7.8,5.8,10.9,9.6c0.7,0.9,1.4,1.7,2.2,2.5c2.3,2.4,3.8,5.4,5.1,8.5c1.3,3.1,3.1,5.7,5.7,7.8
		c0.3,0.2,0.6,0.6,0.6,0.9c0.2,0.9-0.2,1.5-1.2,1.6c-0.6,0.1-1.3,0.1-1.9,0.1c-0.2,0-0.4,0-0.6,0.1c1.9,5,2.2,10,1.4,15.3
		c1.9-0.9,3.6-2,4.9-3.6c1-1.3,2.1-2.5,2.7-4.2c0.2-0.6,0.8-0.7,1.3-0.9c0.7,0.8,1.4,1.6,2.1,2.4c0.1,0,0.1-0.1,0.2-0.1
		c-0.3-1.1-0.7-2.2-0.8-3.3c-0.1-1.1-0.1-2.2,0-3.4c0-1.2,0.1-2.3,0.2-3.5c0.5-0.2,0.9-0.4,1.3-0.5c1.3,0.8,1.7,2.5,3.2,2.9
		c-0.9-2.8-1.2-4.9-1.1-6.6c0.4-0.2,0.8-0.3,1.3-0.6c0.9,1.5,2.4,2.2,4,3.3c-0.3-0.8-0.5-1.4-0.7-2c-0.5-1.2-0.9-2.5-0.8-3.8
		c0-0.6,0-1.3-0.1-1.9c-0.1-0.7-0.2-1.3-0.4-2c-0.1-0.5-0.4-0.9-0.6-1.3c-1-1.8-1.5-3.7-1.3-5.7c0.1-1.7,0.2-3.4,0.4-5.1
		c0.3-2.6,0.6-5.1,1-7.6c0.7-4.2,1.6-8.3,2.9-12.3c0.1-0.3,0.2-0.6,0.3-1.1c-1.9-0.4-3.7-0.7-5.7-1.1c0,0.4,0,0.7,0.1,1
		c0.2,1.1,0.5,2.3,0.7,3.4c0.1,0.7,0.1,1.4,0.1,2c0,0.5,0.1,1.2-0.6,1.4c-0.4,0.1-0.9-0.3-1.3-0.5c-0.3-0.2-0.4-0.5-0.7-0.8
		c-3.2-3.8-7.1-6.6-11.7-8.6c-0.1,0-0.2,0-0.4,0c0.6,0.7,1.1,1.4,1.6,2.2c1.6,2.2,2.6,4.5,3.1,7.2c0.4,2.1-0.1,4.1-1.2,5.9
		c-1.1,1.8-3,2.7-5.1,3.1c-2.6,0.5-5.3,0.4-7.9,0.2c-2-0.2-3.7-1.3-5.1-2.6c-2.7-2.5-3.7-5.6-3.4-9.2c0.3-2.7,1.1-5.2,2.6-7.5
		c0.5-0.8,1.2-1.5,1.9-2.3c-0.9,0-1.8-0.1-2.4-0.9c0.1-1.2,0.6-2.3,1.3-3.3c0.7-1.1,1.4-2.1,2.1-3.2c0.6-0.9,1.3-1.4,2.4-1.4
		c0.9,0,1.8-0.2,2.7-0.3c4-0.6,7.9,0.1,11.7,1.5c4.8,1.8,9.1,4.5,12.6,8.2c1,1,1.8,2.2,2.6,3.2c0-0.2,0.1-0.5,0-0.7
		c-0.3-1.1-0.7-2.2-1.1-3.3c-1-2.3-1.9-4.7-3.8-6.5c-0.5-0.4-0.9-0.9-1.5-1.2c-1-0.6-1.8-1.4-2.3-2.6c0.2-0.2,0.3-0.4,0.6-0.6
		c1.7-1,3.5-1.2,5.4-0.9c0.9,0.2,1.8,0.7,2.5,1.3c2.1,1.7,3.2,3.9,3.2,6.7c0,2-0.1,3.9-0.6,5.8c-0.5,2.2-0.8,4.4-1.5,6.5
		c-1,3.4-1.7,6.9-2.4,10.4c-0.5,2.6-0.8,5.2-1,7.8c-0.1,1.6-0.2,3.2-0.5,4.8c-0.3,1.8,0,3.5,0.8,5.1c0.5,1,1,2,1.4,3
		c1.1,2.3,4.5,5.1,6.8,5.7c0-1.4,0-2.8-0.1-4.1c0-0.6,0.2-0.9,0.8-1.1c0.7-0.3,1.1-0.2,1.3,0.6c0.4,1.1,1.2,1.7,2.3,2.1
		c0.1-1.8,0.2-3.4,0.4-5.1c0.3-1.7,0.8-3.3,1.7-4.8c0.8-1.4,1.8-2.7,2.8-4c1-1.3,2.3-2.5,3.9-3.2c0.3,0.4,0.5,0.7,0.9,1.1
		c0.4-3.7,2.5-6.4,4.5-9.2c1.4-2,2.9-4,4-6.2c0.8-1.5,1.2-3,1.3-4.7c0.3-3.4-1.4-6.1-3.4-8.6c-1.9-2.4-4.4-3.7-7.2-4.8
		c-1.1-0.4-2.2-0.9-3.3-1.4c-3.6-1.7-7.1-3.3-10.7-5c-2-1-3.9-2.1-5.9-3.2c-0.6-0.3-1.3-0.7-1.9-1c-1.2-0.6-2.4-0.5-3.5,0.4
		c-2.1,1.6-3.6,3.7-4.6,6c0,0.1-0.1,0.2-0.2,0.3c-0.6,0.2-1.1,0-1.5-0.7c0.2-1.5,1.4-2.5,2.1-3.9c-1.5-0.4-2.6-1.3-3.7-2.3
		c-2.2-2-4.3-3.9-6.8-5.4c-1.6-1-3.3-1.7-5-2.3c-0.2-0.1-0.4,0-0.7,0c0.5,1.2,0.4,2.3,0.2,3.5c-0.1,0.8-0.8,1.3-1.5,1.1
		c-0.6-0.2-1.3-0.5-1.8-0.9c-2-1.5-4.2-2.7-6.4-3.7c-0.2-0.1-0.3-0.1-0.7-0.3c0.6,1.6,1.1,3,0,4.5c-1.3-0.3-2.5-0.7-3.8-0.9
		c-1.2-0.2-2.5-0.2-3.8,0c0.1,1.5,0.8,2.8,0.5,4.2c-0.7,0.2-1-0.1-1.3-0.5c-0.2-0.3-0.3-0.7-0.4-1.1c-0.4-1.4-0.7-2.9-1.1-4.3
		c-0.2-0.7-0.5-1.5-0.9-2.1c-0.8-1.4-1.7-2.8-2.6-4.2c-1.1-1.7-2.7-2.5-4.8-2.5c-2.1,0.1-4.1,0.6-6,1.6c-3,1.6-5.6,3.7-8.4,5.5
		c-2.7,1.8-5.7,3.1-9,3.7c-2.2,0.4-4.3,0.7-6.5,0.6c-0.1,0-0.3,0.1-0.5,0.1c1.1,1,2.2,1.7,3.4,2.2c0.5,0.2,0.8,0.6,0.8,1.2
		c-2.2,1.8-5,2.7-7.7,3.5c-2.7,0.8-5.3,1.8-8.4,1.7c1.1,0.8,2,1.3,3,1.4c0.2,0,0.5,0.1,0.7,0.1c0.3,0.1,0.4,0.7,0.2,0.9
		c-0.4,0.3-0.8,0.7-1.2,0.8c-2.1,0.4-3.3,2-4.2,3.8c-1,2.2-1.7,4.4-2,6.8c-0.2,1.9-0.3,3.8-0.4,5.7c0,0.5-0.1,1.1,0.4,1.5
		c0.6-1,0.9-2.2,2.5-2.3c0.2,0.4,0.4,0.7,0.6,1.1c0.7,1.9,1.8,3.5,3,5c0.2,0.2,0.4,0.4,0.6,0.6c0.5,0.4,1,0.6,1.7,0.4
		c2.6-0.7,5.3-0.9,7.9-1.2c1.8-0.2,3.6-0.1,5.4-0.1c0.2,0,0.5,0,0.7,0c0.8-1.1,1.6-2.1,2.4-3.1c-2.5-1.5-2.9-3.9-2.5-6.3
		c0.2-1.2,0.9-2.5,1.5-3.6c1.4-2.7,2.9-5.3,4.4-7.9c-0.6-0.3-1.2-0.6-1.9-1c0.3-0.3,0.5-0.5,0.7-0.7c0.5-0.3,1.1-0.7,1.6-0.9
		c0.6-0.3,0.9-0.7,1.2-1.3c0.7-2.1,1.3-4.3,2.4-6.2c0.9-1.6,1.9-3.1,3.3-4.4c1.4-1.3,3.1-2.1,4.9-2.4c1.4-0.2,3-0.3,4.4,0
		c3.2,0.9,5.5,2.8,6.3,6.2c0.2,0.7,0.3,1.4,0.4,2.2c1.1,0.5,2.3,0.9,3.3,1.4c1.3,0.7,2.6,1.5,3.9,2.3c0.3,0.2,0.5,0.7,0.5,1.1
		c0,0.9-0.1,1.7-0.2,2.6c-0.2,2.4-0.5,4.8-1.4,7.1c-1,0.5-1.7-0.4-2.7-0.8c0.1,0.4,0.2,0.7,0.3,1c1.4,4.1,1.5,8.1-0.3,12.1
		c-0.9,1.9-2.2,3.3-4.3,3.8c-1.1,0.3-2.2,0.8-3.3,1c-3.9,0.6-7.5-0.4-10.5-3.1c-2.4-2.1-2.9-4.8-2.5-7.7
		C53,34.2,55.6,30.8,59.6,28.3"/>
	<path class="st3" d="M98.2,85.4c-1-1.2-2.1-2.4-3-3.6c-0.9-1.2-1.6-2.6-2.1-4c-1-2.5-2.1-4.9-3.7-7.1c-0.6-0.8-1.3-1.6-1.9-2.4
		c-3.4-4-7.1-7.7-11.5-10.7c-1.9-1.3-4-2.4-6.2-3.2c-3.5-1.3-7.1-2.4-10.8-3.1c-2.9-0.6-5.7-1.1-8.6-1.6c-1.9-0.3-3.8-0.5-5.6-0.6
		c-2.8-0.2-5.5-0.3-8.3-0.3c-1.5,0-3.1,0.1-4.6,0.3c-2,0.2-4,0.5-6,1.1c-0.2,0.1-0.4,0.2-0.6,0.1c-1.5-0.2-2.6,0.6-3.8,1.2
		c-1.6,0.9-3.1,1.9-4.5,3c-1.3,1-2.5,2.2-3.5,3.5c-2.2,2.7-4.1,5.7-5.5,8.9c-1.3,3-2.3,6.1-2.8,9.3C4.5,80,3.9,83.6,3.8,87.2
		c-0.1,1.7-0.3,3.5-0.5,5.2c0,0.4,0,0.9-0.1,1.5c0.5-0.2,0.9-0.4,1.3-0.6c0.5,0.2,0.5,0.6,0.6,1c0.4,2.9,0.9,5.8,2,8.5
		c0.1,0.2,0.2,0.3,0.3,0.6c2.1-4.3,4.6-8.1,8.4-11.3c-0.9,0.1-1.5,0.1-2,0.2c-0.9,0.1-1.7,0.2-2.6,0.2c-0.7,0-1.3-0.2-1.8-0.9
		c0.2-0.2,0.3-0.5,0.5-0.5c1.4-0.4,2.1-1.6,2.8-2.7c0.8-1.1,1.4-2.2,2-3.4c0.4-0.7,0.8-1.5,0.7-2.3c0-0.2,0-0.5,0.1-0.7
		c0.2-0.2,0.5-0.3,0.7-0.4c0.2,0,0.4,0.3,0.4,0.5c0.2,1,0.2,2.1-0.2,3c-0.6,1.2-1.3,2.4-1.9,3.6c-0.3,0.5-0.6,1-1,1.5
		c0.2,0.1,0.3,0.2,0.4,0.2c1.4-0.2,2.8-0.4,4.1-0.8c1.9-0.5,3.7-1.2,5.5-1.9c1.6-0.6,3-1.8,4.4-2.8c1.5-1.1,2.4-2.5,3.1-4.1
		c0.2-0.4,0.3-0.7,0.5-1.1c0.4-0.6,0.4-1.1,0.4-1.8c0-1.3,0.1-2.5,0.2-3.8c0-0.6-0.1-1-0.5-1.5c-1.1-1.5-2.3-2.7-4.1-3.3
		c-1.3-0.4-2.5-1-3.8-1.3c-3-0.8-4-2.3-4.4-5.3c-0.4-3,1.8-4.9,3.8-5.3c1.7-0.4,3.5-0.6,5.3-0.9c3.1-0.4,6.3-0.3,9.5-0.3
		c2.5,0,4.9,0.4,7.4,0.9c0.4,0.1,0.7,0.2,1.1,0.3c1.5,0.4,2.2,1.5,2.4,2.8c0.3,2.3-0.2,4.5-1.5,6.4c-0.7,1.1-1.9,1.6-3.2,1.9
		c-1.6,0.4-3.2,0.8-4.8,1.2c-0.7,0.2-1.3,0.4-1.9,0.6c-1.7,0.5-2.6,1.9-3.6,3.3c-0.1,0.2-0.1,0.6-0.1,0.9c0,1.7,0,3.4,0,5.1
		c0,0.6,0.2,1,0.6,1.5c0.5,0.6,1,1.3,1.5,2c1,1.3,2.3,2.1,3.6,2.9c3.3,2.1,6.9,3.3,10.6,4.4c3,0.8,6,1.2,9,1.7
		c1.3,0.2,2.6,0.3,4.2,0.5c-0.9-1.1-1.6-1.9-2.3-2.7c-0.3-0.3-0.6-0.7-0.8-1c-0.3-0.4-0.5-0.8-0.2-1.3c0.4-0.5,0.9-0.7,1.5-0.6
		c1.1,0.2,2.2,0.4,3.3,0.6c1.9,0.4,3.9,0.3,5.8,0.2c2.3-0.2,4.6-0.4,6.9-1.1c2.3-0.7,4.6-1.4,6.9-2.4c-4-0.4-7.4-1.8-10.3-4.4
		c0.3-0.7,0.7-0.8,1.2-0.6c0.5,0.2,0.9,0.4,1.3,0.6c1.5,0.7,3,1.5,4.5,2.2c1.4,0.6,2.9,0.9,4.4,0.4c0.2-0.1,0.5-0.1,0.7-0.2
		c0.6,0.5,0.6,1.1,0.3,1.7c-0.3,0.5-0.6,1.1-1,1.5c-0.4,0.4-1.1,0.6-1.7,0.9c2.1,3.3,3.2,7,3.6,10.9c2-1.7,2.3-1.2,3.7,0.1
		c2.2,2.1,3.3,4.6,3.9,7.5c0.2,0.7,0.3,1.5,0.6,2.2c0.7-3,1.9-5.9,1.7-9c-0.1-1.7-0.2-3.5-0.3-5.2c-0.1-0.7-0.3-1.4-0.6-2.1
		c-0.3-1.1-0.8-2.2-1.1-3.3c-0.2-0.7,0-1,0.7-1.2C96.6,85.6,97.3,85.5,98.2,85.4"/>
	<path class="st5" d="M34.5,84.4c0,0.7,0,1.4,0.1,2.1c0.5,3.5,0.8,7,1.4,10.5c0.5,2.8,1.1,5.5,2.3,8.1c0.5,1,0.9,1.5,2.1,2.3
		c0.5-0.8,0.9-1.5,1.4-2.3c2.3-3.6,5.5-5.6,9.7-6.1c2.5-0.3,4.9,0.2,7.3,1c0.4,0.1,0.9,0.3,1.2,0.6c0.6,0.6,1.2,0.5,1.9,0.3
		c3.4-0.9,6.6-0.3,9.9,0.8c0.9,0.3,1.7,0.9,2.6,1.4c1.3-0.6,2-1.8,2.7-2.9c0.8-1.3,1.5-2.7,2-4.2c0.8-2.2,0.5-4.4-1.1-6.3
		c-0.8-0.9-1.6-1.3-2.9-1c-3.3,0.7-6.7,1-10.1,0.7c-0.9-0.1-1.8-0.3-3-0.5c1,1,1.8,1.8,2.5,2.6c0.6,0.7,0.8,1.3,0.3,2.1
		c-0.1,0.2-0.4,0.4-0.6,0.4c-0.3,0.1-0.7,0.1-1,0.1c-1.6-0.2-3.2-0.3-4.8-0.5c-1.3-0.1-2.5-0.3-3.7-0.5c-2-0.4-4.1-0.9-6.1-1.4
		c-3.7-0.9-7.1-2.2-10.3-4.3C37.1,86.4,35.9,85.4,34.5,84.4"/>
	<path class="st6" d="M64.6,125.9c1.2-0.9,2-2,3.4-2.1c0.8,0.5,0.5,1.5,0.8,2.3c0.3-0.1,0.5-0.3,0.7-0.4c0.4-0.3,0.8-0.6,1.2-0.9
		c3-1.9,5.3-4.5,7.1-7.4c1.1-1.8,2.3-3.6,2.8-5.7c0.1-0.2,0.1-0.4,0.2-0.5c0.2-0.5,0.4-1.1,1-1.1c0.6,0,1,0.4,1.3,1
		c0.3,0.7,0.7,1.4,1.1,2.1c0.1,0.2,0.3,0.4,0.7,0.8c1.5-5.3,4.4-9.8,5.2-15.2c-0.3-0.3-0.6-0.7-0.9-1c-0.8,0.8-1.6,1.5-2.5,2.3
		c-0.4-0.2-0.8-0.5-1.2-0.7c0.6-2.6,0-5-0.8-7.2c-0.7-1.9-1-4.2-3-5.6c-1,0.3-2,0.7-3.1,1.1c0.2,0.3,0.4,0.6,0.6,0.8
		c2.3,2.3,2.5,5.1,1.6,8c-0.5,1.5-1.3,2.9-2,4.4c-1,2-2.6,3.4-4.5,4.5c-1.6,0.9-3.1,2-4.5,3.2c-1.7,1.4-2.6,3.2-3.1,5.3
		c-0.4,1.6-0.7,3.2-0.8,4.9c-0.2,2.1-0.6,4.2-1.2,6.3C64.7,125.2,64.7,125.4,64.6,125.9"/>
	<path class="st6" d="M27.6,117.7c0.8,0.4,1.4,0,2-0.5c0.6-0.5,1.2-0.9,2-1.5c0.1,0.4,0.3,0.7,0.2,0.9c-0.1,0.5-0.4,0.9-0.5,1.3
		c0.5,1.1,1,2.2,1.5,3.4c0.7,1.5,2.7,3.6,4.1,4.2c0-2.8-0.2-5.7,0.4-8.4c0.6-2.7,1.3-5.5,2.4-8.1c-2.1-1.3-3.2-3.3-3.9-5.5
		c-0.9-2.8-1.6-5.7-1.9-8.7c-0.3-2.7-0.7-5.5-1-8.2c-0.1-0.7,0-1.4-0.1-2c-0.1-0.9-0.2-1.8-0.4-2.8c-1.3,2.6-3.4,4.3-5.7,5.8
		c0.3,0.8,0.6,1.5,0.9,2.2c0.7,2.2,1.1,4.4,1.1,6.7c-0.1,4.7-0.3,9.3-0.5,14c-0.1,2-0.4,4.1-0.6,6.1
		C27.6,117.1,27.6,117.4,27.6,117.7"/>
	<path class="st3" d="M111.7,45.1c-0.1-0.8-0.2-1.5-0.3-2.2c-0.1-0.8-0.3-1.5-0.4-2.3c-0.1-0.8,0.2-1.3,1.1-1.3
		c1.1,0,2.1,0.1,3.2,0.1c0.4,0,0.8,0.1,1.5,0.2c-1.1-1.7-2.3-3-3.7-4.1c-4.1-3.5-8.6-6-13.8-7.2c-1.8-0.4-3.6-0.8-5.5-0.7
		c-1.6,0.1-3.3,0.3-4.9,0.6c-0.3,0-0.6,0.2-0.7,0.4c-1.1,1.7-2.2,3.4-3.4,5.3c1.9,0.2,3.6,0.4,5.2,0.6c8.1,0.7,15.1,3.9,20.8,9.7
		c0.2,0.2,0.5,0.5,0.7,0.7C111.5,45,111.6,45,111.7,45.1"/>
	<path class="st3" d="M47.8,25.2c1,0.1,2,0.2,3,0.3c5.8,0.5,11.7,1.2,17.4,2.7c2.1,0.6,4.1,1.3,6.1,2.5c0.8-1.2,0.6-2.6,0.9-3.9
		c0.3-1.3,0.3-2.7,0.5-4c-1.7-1.4-3.5-2.3-5.4-2.9c-2.9-0.9-5.8-1.6-8.8-1.8c-1.9-0.1-3.9-0.2-5.8-0.3c-0.3,0-0.7,0-1,0
		c-0.2,0.7,0.2,1.1,0.4,1.6c0.2,0.4,0.5,0.8,0.6,1.3c0.2,0.7-0.1,0.9-0.8,1.2c-2.4,1-4.7,2-7,3C47.8,25.1,47.8,25.1,47.8,25.2"/>
	<path class="st5" d="M67.8,17.6c-0.4-3.5-2.1-5.9-5.2-6.6c-1.4-0.3-2.9-0.2-4.3,0c-2.2,0.3-3.8,1.8-5,3.5c-1.6,2.3-2.8,4.9-3.4,7.8
		c1.4-0.4,2.6-1,3.8-1.6c-0.3-0.8-0.7-1.6-0.9-2.4c-0.2-0.8,0-1.2,0.8-1.4c0.8-0.2,1.6-0.4,2.4-0.4C60,16.3,63.9,16.6,67.8,17.6"/>
	<path class="st3" d="M85.1,52.7c0-0.9,0-1.6,0-2.3c0.2-3.3,1.4-6.1,3.8-8.4c1.4-1.3,3-1.9,4.8-2.1c1.3-0.2,2.6-0.2,3.9,0.3
		c0.1,0,0.2,0,0.4-0.1c-0.2-0.3-0.3-0.6-0.5-0.8c-1.2-1.4-2.5-2.6-4.5-2.7c-1.1-0.1-2.2-0.3-3.3-0.6c-0.9-0.3-1.5,0.1-2.2,0.4
		C86.5,37,85.8,38,85.2,39c-1.4,2.2-2.1,4.7-2.3,7.3C82.8,48.6,83.3,50.8,85.1,52.7"/>
	<path class="st3" d="M56.6,45.8c-0.9-4-0.2-7.3,2-10.4c1.6-2.3,3.9-3.5,6.8-3.6c2.2-0.1,4.2,0.4,6.4,1.7c-0.6-1.1-0.9-1.9-1.4-2.7
		c-0.2-0.3-0.5-0.5-0.8-0.6c-2.4-0.7-4.7-1.5-7.3-1.3c-0.8,0.1-1.6,0.2-2.2,0.7c-2.7,2.2-5,4.7-5.9,8.1c-0.4,1.6-0.6,3.2-0.1,4.9
		C54.6,44,55.3,44.9,56.6,45.8"/>
	<path class="st5" d="M50.3,27c-0.7-0.1-1.3-0.2-2-0.4c-0.9,1.5-1.9,3-2.7,4.5c-0.9,1.5-1.8,3.1-2.7,4.7c-0.8,1.3-1.1,2.6-1,4.2
		c0.1,1.1,0.4,2.1,1.4,2.8c0.3-0.4,0.5-0.7,0.8-1.1c-0.4-0.3-0.7-0.5-0.9-0.7c-0.5-0.5-0.6-1-0.1-1.5c0.4-0.4,0.8-0.7,1.2-1.1
		c1-0.7,1.8-1.7,2.4-2.7c1.4-2.4,2.7-4.9,3.4-7.6C50,27.8,50.2,27.5,50.3,27"/>
	<path class="st5" d="M112,25.6c0.2,0.2,0.4,0.4,0.5,0.5c2.6,1.3,4.2,3.6,5.5,6.2c0.5,1,1,2.1,1.5,3.3c0.1-0.2,0.2-0.3,0.3-0.4
		c0.2-1.9,0.4-3.8-0.1-5.6c-0.5-1.9-1.8-3.2-3.4-4.1C114.9,24.6,113.5,24.8,112,25.6"/>
	<path class="st3" d="M92.8,43.3c-1.2,0-1.8,0.6-1.8,1.7c0,1,0.8,1.7,1.8,1.7c0.9,0,1.7-0.8,1.7-2C94.5,43.8,94,43.3,92.8,43.3"/>
	<path class="st3" d="M65,35.5c-0.5,0-0.9-0.1-1.2-0.1c-1.5,0.1-2,0.7-1.8,2.1c0.1,0.8,0.5,1.3,1.1,1.4c0.9,0.2,1.4-0.1,1.8-0.8
		C65.4,37.3,65.4,36.5,65,35.5"/>
	<path class="st3" d="M42.5,64.7c0.7,0,1.4,0.3,1.8-0.3c0.7-0.9,1.4-1.8,1-3.1c-0.3-0.2-0.7-0.4-1.1-0.7
		C43.2,61.5,43.2,61.5,42.5,64.7"/>
	<path class="st5" d="M50.3,27c-0.7-0.1-1.3-0.2-2-0.4c-0.9,1.5-1.9,3-2.7,4.5c-0.9,1.5-1.8,3.1-2.7,4.7c-0.8,1.3-1.1,2.6-1,4.2
		c0.1,1.1,0.4,2.1,1.4,2.8c0.3-0.4,0.5-0.7,0.8-1.1c-0.4-0.3-0.7-0.5-0.9-0.7c-0.5-0.5-0.6-1-0.1-1.5c0.4-0.4,0.8-0.7,1.2-1.1
		c1-0.7,1.8-1.7,2.4-2.7c1.4-2.4,2.7-4.9,3.4-7.6C50,27.8,50.2,27.5,50.3,27"/>
	<path class="st7" d="M106.4,24c0.9,1.9,5.5,4.9,5.7,9.1c2.4,2.8,5.2,5.9,5.2,5.9l0.4,1.4l-3-0.3c0,0,0.4,10.3-1,13.7
		c-0.9-2.8-2.9-4.7-2.9-4.7s2.7,7.5,1.8,16c-2.5-6.1-6.5-9.3-7.6-9.9c2,5.1,6.3,14.6,4.2,20.6c-3-6.3-7.4-10.8-11.4-12.9
		c3.9,6.1,7.3,11.7,6.5,17.9c-5.1-7.7-9-9.3-11.1-10.2c3.9,5.1,5.7,7.6,5,12.2c0.3,0.9,1,2.5,1,2.5l0.8,0.8L97,86.5l-0.6,1.3
		l1.5,3.6l0.4,6.7l-0.9,5.3c0,0,4.6,0.9,9.7-7.4l0.6-0.6c0,0,0,0.2,1.8,2c0.6,0.6,2.2,0,1.3-1.8c-0.9-1.8-1-7.5-0.6-9.1
		c2,1.7,4.5,3.5,4.5,3.5s0.1-1.1-0.6-3.5c-0.6-2.3-0.7-3.9-0.7-3.9l4.4,2.9l0.8-1c0,0-0.6,3.7-1.3-3.4c-0.6-7-0.3-4.4-0.3-4.4
		l-0.1-2.3l-2.3-4.7c0,0,0.5-9.8,1.4-14.1c0.9-4.3,4.1-14.8,3.9-16.8c-0.2-2-1.8-6.3-4-8.9C113.8,27.2,109.4,24.4,106.4,24"/>
	<path class="st8" d="M110.7,26l-1.7-1c0,0,1.5-4.1,4.1-5c2.6-0.9,6.4,1.1,10.3,2.8c3.9,1.7,17.9,6,19.9,8.4c2,2.4,1.9,9.7-0.5,15.6
		c-2.4,5.8-5,5.1-6.3,10.3c-0.6-0.2-1.5-1.8-1.5-3.5s-0.4-2.1-0.4-2.1s-0.9,1-2.3,3.6c-1.3,2.6-3.5,6.8-3.9,10.5
		c-0.9-0.7-0.8-2-0.8-2s-1.1-0.2-1.7,3.2c-0.3,1.8,0.2,4,0.2,4s-0.8-0.8-1.3-2c-0.5-1.1-1-0.9-1-0.9s0.1,2.5-0.6,5.5
		c-0.7,3-1.9,5.8,0.1,7.7c-4.9-4.6-9.2-8.4-8.4-15.8s2.5-15.8,4.4-23.8c1.9-8,2.9-12.9-0.7-15.7C117.1,24.7,113.3,21.8,110.7,26"/>
	<path class="st7" d="M108.5,21.5c-2.8-0.4-5.5-3.1-7.9-5.4c-2.3-2.3-5.6-5.3-8.5-6c-0.8,0,0.6,2.8-0.1,4.2
		c-0.8,1.4-2.2,2.1-4.7,0.2c-2.5-1.9-4.2-2.9-5.4-3c0.3,1.6,0.5,3.9-1.7,3.7c-2.2-0.1-5.2-1.8-6.3-0.6l-0.4-1.7c0,0,0.6-0.9,4.2-0.4
		c1.9,0.2,4,0.9,4,0.9S81.4,11,81,9.6c-0.4-1.4,1.1-1.1,3.7,0.3c2.5,1.4,6.5,4.2,6.5,4.2s1.4-2.1-0.2-5c1.9,0.1,4.7,0,11.3,5.4
		c2.3,2,5.3,5.3,7.6,4.4C108.5,21.1,108.5,21.5,108.5,21.5"/>
	<path class="st8" d="M74.9,17.5c0,0-2.8-7.3-6.8-10.3c-4-3-7.4-4.4-14.5,1c-7.1,5.4-13.4,8.5-17.3,8.4c1.5,1.7,1.1,3.7-3.9,6.6
		c-5,2.9-8.1,5.5-8.3,9.5c3.3-4.3,6.8-5.3,9-3.7C27.3,32,25.5,37,25.5,37s2.2-1.5,4.9-0.4c-4.4,4.9-4.3,10.6-3.9,13
		c7.3-2.8,14.5-1.5,14.5-1.5l3-4.4c0,0-4.4-0.6-3.1-5.5s5.8-9.9,6.9-12.5l-2.1-0.1l2.9-2.6c0,0,3.3-13.9,12.8-13
		c3.5,0.3,7.3,2.3,7.5,8c0.3,0.5,3.2,1.5,3.2,1.5L74.9,17.5z"/>
	<path class="st9" d="M60.4,86.8c0-0.1,0-0.2,0-0.2c13.3-0.5,16.7-2.8,18.5-4c1.6,0.7,3.4,1.1,5.3,1.3c-2.3,1-4.6,1.7-6.9,2.4
		c-2.2,0.7-4.6,0.9-6.9,1.1c-1.9,0.2-3.9,0.2-5.8-0.2c-1.1-0.2-2.2-0.4-3.3-0.6C61,86.6,60.7,86.7,60.4,86.8"/>
	<path class="st9" d="M34.2,73c1.3,7.4,9.6,10.8,15.3,13.3c6,2.6,13.7,6.1,13.7,6.1c-1.6-0.2-2.9-0.3-4.2-0.5c-3-0.5-6-0.9-9-1.7
		c-3.7-1.1-7.3-2.3-10.6-4.4c-1.3-0.8-2.6-1.6-3.6-2.9c-0.5-0.7-1-1.3-1.5-2c-0.4-0.4-0.6-0.9-0.6-1.5c0-1.7,0-3.4,0-5.1
		c0-0.3,0-0.6,0.1-0.9C34,73.3,34.1,73.1,34.2,73"/>
	<path class="st9" d="M13.9,90.4c-0.1,0-0.2-0.1-0.4-0.2c0.4-0.5,0.7-1,1-1.5c0.1-0.2,0.2-0.4,0.3-0.6c2.6-0.9,6.9-1.7,11.4-5.3
		c4.6-3.7,4.8-9.5,4.8-11.1c0.3,0.3,0.5,0.6,0.8,1c0.3,0.5,0.5,0.9,0.5,1.5c-0.1,1.3-0.2,2.5-0.2,3.8c0,0.6,0,1.2-0.4,1.8
		c-0.2,0.3-0.3,0.7-0.5,1.1c-0.7,1.6-1.7,3.1-3.1,4.1c-1.4,1-2.8,2.2-4.4,2.8c-1.8,0.7-3.6,1.4-5.5,1.9C16.7,90,15.3,90.1,13.9,90.4
		"/>
	<path class="st9" d="M7.4,103.5c-0.2-0.3-0.3-0.5-0.3-0.6c-1.1-2.6-1.5-5.4-1.9-8.2l2.3,4.6l1.3-2.7c0.6-1.2,1.3-2.7,2.1-4.1
		c0.1,0,0.2,0,0.3,0c0.9,0,1.7-0.1,2.6-0.2c0.6,0,1.1-0.1,2-0.2C12,95.4,9.6,99.2,7.4,103.5"/>
	<path class="st9" d="M94.3,102.5c0.3-1,1.4-4.6,1.1-8.4c-0.2-4.6-0.5-8-0.5-8l0.3,0.1c-0.2,0.2-0.2,0.5-0.1,0.9
		c0.3,1.1,0.7,2.2,1.1,3.3c0.2,0.7,0.5,1.4,0.6,2.1c0.2,1.7,0.2,3.5,0.3,5.2c0.2,3.1-1,6-1.7,9c-0.3-0.7-0.5-1.5-0.6-2.2
		C94.7,103.8,94.5,103.1,94.3,102.5"/>
	<path class="st9" d="M85.4,85c0.3-0.2,0.5-0.6,0.7-0.9c1.6,2.5,2.2,9.2,2.4,11.9c-0.3,0.2-0.7,0.4-1.1,0.8
		c-0.4-3.9-1.5-7.5-3.6-10.9C84.3,85.6,84.9,85.4,85.4,85"/>
	<path class="st10" d="M29.6,117.2c-0.6,0.5-1.2,0.8-2,0.5c0-0.3,0-0.6,0-0.9c0,0,3.3-3.8,4.6-3.4c1.4,0.4,1.5,5,2.5,6.8
		c0.6,1,1.1,2.6,2.2,3.5c0,0.7,0,1.3,0,2c-1.5-0.7-3.5-2.8-4.1-4.2c-0.5-1.1-1-2.3-1.5-3.4c0.2-0.5,0.4-0.9,0.5-1.3
		c0.1-0.2-0.1-0.5-0.2-0.9C30.8,116.3,30.2,116.8,29.6,117.2"/>
	<path class="st10" d="M39.8,109.2c-0.3,0.6-0.5,1.2-0.7,1.7c-2.8-1.6-4.7-3.9-6.4-9.6c-1.6-5.2-2.2-12.2-2.5-16.4
		c0.9-0.9,1.6-1.8,2.2-3c0.2,1,0.3,1.9,0.4,2.8c0.1,0.7,0,1.4,0.1,2c0.3,2.7,0.7,5.5,1,8.2c0.3,3,1,5.8,1.9,8.7
		C36.5,105.9,37.6,107.9,39.8,109.2"/>
	<path class="st10" d="M78,113.5c2-3.6,2.6-2.9,2.9-2.4c-0.1,0.2-0.2,0.4-0.2,0.5c-0.6,2.1-1.7,3.9-2.8,5.7c-1.8,3-4.1,5.6-7.1,7.4
		c-0.4,0.3-0.8,0.6-1.2,0.9c-0.2,0.2-0.5,0.3-0.7,0.4c-0.2-0.5-0.2-1.1-0.3-1.6C71.8,122.6,76,117.2,78,113.5"/>
	<path class="st10" d="M85.8,97.4c-1.1-4.4-3-6.5-5.7-8c-0.2-0.3-0.5-0.6-0.8-0.9c-0.2-0.2-0.4-0.5-0.6-0.8c1.1-0.4,2.1-0.7,3.1-1.1
		c2,1.4,2.3,3.7,3,5.6C85.4,93.9,85.8,95.6,85.8,97.4"/>
	<path class="st10" d="M84.3,113.2c-0.1-0.2-0.3-0.5-0.4-0.7c0.6-1.2,1.6-3.4,2.4-6.3c0.9-2.9,1-5.2,1-6.6c0.7-0.6,1.3-1.2,1.9-1.8
		c0.3,0.3,0.6,0.7,0.9,1c-0.9,5.4-3.7,9.9-5.2,15.2C84.6,113.6,84.4,113.4,84.3,113.2"/>
	<path class="st3" d="M42.5,64.7c0.4,0.4,1.3,0.4,1.8-0.3c0.7-0.9,1.4-1.8,1-3.1c-0.2-0.5-0.6-0.8-1.1-0.7
		C42.8,61.3,42.1,63.2,42.5,64.7"/>
	<path class="st0" d="M1,95.4c-0.1,0.6-0.1,1.3-0.1,1.9c0,1.1,0.1,1.2,1.6,1.6c0.1-0.4,0.3-0.8,0.5-1.1c0.2-0.4,0.4-0.7,0.6-1.2
		c0.5,1.9,0.9,3.8,1.4,5.6c0.3,1.1,0.9,2.2,1.2,3.3c0.3,0.8,0.7,1.2,1.6,1.3c0.2-0.2,0.5-0.4,0.6-0.7c0.9-2.8,2.3-5.4,4-7.8
		c1.7-2.5,3.7-4.8,6.4-6.3c1-0.6,2.2-1,3.3-1.5c0.6-0.3,1.2-0.7,1.8-1c0.4-0.2,0.9-0.3,1.4-0.5c0.2,0.7,0.5,1.2,0.6,1.7
		c0.3,1.6,0.7,3.3,0.7,4.9c0.1,3.6,0.1,7.2-0.1,10.8c-0.2,3.8-0.2,7.6-1,11.3c-0.2,1,0.3,1.6,1.4,1.8c1,0.1,1.9,0.2,2.9-0.2
		c0.6,1.4,1.2,2.8,1.8,4.4c-0.1,0-0.1,0-0.2,0.1c0.4,0.5,0.8,1,1.3,1.4c0.3,0.1,0.6,0.2,0.9,0.5c0.7,0.7,1.5,1.2,2.3,1.8
		c0.1,0.1,0.2,0.2,0.3,0.2c0.2,0.1,0.3,0.2,0.5,0.2c0.4,0.2,0.8,0.5,1,0.9c0.2,0.2,0.3,0.5,0.4,0.7c0.9,1.5,1.9,2.9,3.3,3.9
		c2.2,1.6,4.6,2.7,7.4,2.7c1.8,0,3.7,0,5.6,0c0,0,0,0,0,0c0.5-0.1,0.9-0.2,1.4-0.3v0c2.4-1.1,4.4-2.5,6-4.3c0.2-0.4,0.5-0.9,0.7-1.3
		c0.1-0.2,0.3-0.5,0.5-0.7c0,0,0,0,0,0c0.3-0.5,0.5-1,0.9-1.3c0.8-0.5,1.7-0.9,2.7-1.5c0,0.5-0.1,0.9-0.1,1.2c0,1,0.8,1.5,1.7,1
		c0.2-0.1,0.3-0.2,0.5-0.4c1.5-1.1,2.9-2.2,4.4-3.4c0.7-0.5,1.3-1.1,1.9-1.7c0.6-0.6,1.1-1.2,1.8-1.9c0.3-0.5,0.7-1,1.1-1.5
		c0.2-0.3,0.4-0.6,0.7-0.8c0.2-0.2,0.3-0.4,0.5-0.5c0-0.4,0.2-0.8,0.4-1.2c0.8-1.5,1.6-3,2.4-4.6c0.3,0.5,0.6,1,0.9,1.5
		c1.1,1.4,2.9,1.2,3.7-0.5c0.1-0.1,0.1-0.3,0.2-0.4c1.1-2.9,2.2-5.7,3.3-8.6c0.4-1.1,0.8-2.3,1.2-3.4c0.1-0.2,0.2-0.4,0.4-0.8
		c0.4,1.2,0.8,2.1,1.1,3c0.7,2.6,0.9,5.3,0.9,7.9c0,1.4,0.3,1.6,1.8,1.5c0.8-2.3,1.5-4.7,2.3-7.2c0-0.1,0-0.2,0.1-0.3
		c0.1-0.4,0.3-0.9,0.7-1.1c0.2-0.1,0.3-0.1,0.5-0.1c1.7-0.9,3.3-1.8,4.6-3.2c1.3-1.4,2.4-3,3.7-4.6c0.2,0.2,0.4,0.4,0.6,0.6
		c0.7,0.7,1.6,1.1,2.6,1.1c0.9,0,1.2-0.3,1.1-1.3c-0.1-0.6-0.2-1.2-0.4-1.7c-1.1-2.2-0.6-4.6-0.7-6.9c1,0.6,1.9,1.2,2.9,1.7
		c0.4,0.2,0.9,0.4,1.4,0.4c0.8,0.1,1.3-0.4,1.2-1.2c-0.1-0.5-0.3-1-0.6-1.5c-0.6-1.1-0.9-2.2-1.1-3.6c0.9,0.3,1.5,0.8,2,1.3
		c1,0.8,2,1.3,3.4,1c0.7-0.5,0.5-1.2,0.2-1.8c-0.6-1.2-1.1-2.4-1.7-3.6c-0.3-0.8-0.5-1.7-0.3-2.7c0.7,0.6,1.4,1.2,2.1,1.7
		c1.3,0.9,2.7,1.8,4,2.6c0.4,0.2,0.9,0.3,1.4,0.4c1.3,0.3,1.9-0.4,1.7-1.7c-0.1-0.7-0.4-1.4-0.5-2.1c-0.1-0.2-0.1-0.4-0.1-0.8
		c0.6,0.3,1.1,0.6,1.6,0.8c0.3,0.1,0.6,0.3,0.9,0.4c1.6,0.5,2,0.1,2-1.5c0-0.5,0-1.1,0-1.6c-0.1-4.3,1.4-8,4.1-11.2
		c0.5-0.6,1.1-1.3,1.6-1.9c0.1-0.1,0.2-0.2,0.4-0.3c0.4,0.6,0.9,1.3,1.3,1.9c0.2,0.3,0.5,0.6,0.8,0.8c0.3,0.2,0.8,0.4,1.1,0
		c0.2-0.2,0.2-0.6,0.2-0.9c0-0.8-0.1-1.6-0.1-2.4c0.2-2.3,1.2-4.3,2.4-6.2c1.1-1.7,2.3-3.3,3.5-5.1c1.5-2.4,3.2-4.7,3.7-7.5
		c0.5-2.6,0.3-5.1-1.1-7.5c-0.9-1.4-1.7-2.8-2.7-4.1c-1.4-1.7-3.1-3-5.2-3.9c-2.1-0.8-4.1-1.8-6.1-2.8c-3.4-1.6-6.8-3.1-10.2-4.8
		c-2.1-1.1-4.2-2.3-6.3-3.4c-0.7-0.4-1.4-0.8-2.2-1.1c-1.4-0.6-2.8-0.5-4.2,0.4c-0.5,0.4-1,0.8-1.5,1.2c-1.4,1-2.4,1-3.7,0
		c-1.5-1.2-2.9-2.5-4.3-3.7c-2.2-1.9-4.7-3.5-7.5-4.5c-1.3-0.4-2.6-0.6-4-0.9c-0.5-0.1-1.1,0-1.5,0.5c0.5,1.2,1.6,2.2,1.1,3.8
		c-0.2-0.1-0.5-0.2-0.7-0.3c-1.7-1.4-3.6-2.5-5.6-3.3c-0.9-0.4-1.9-0.7-2.9-0.9c-0.6-0.1-1.3-0.3-1.7,0.4c0.3,1.2,1.2,2.3,1.2,3.8
		c-2.4-1-4.7-0.9-7.1-0.8c-0.8-2.6-2.2-4.9-3.7-7.1c-0.7-1-1.6-1.9-2.7-2.6c-1.8-1.1-3.7-1-5.7-0.7c-1.9,0.3-3.7,1.1-5.4,2
		C53.6,5,51,6.9,48.3,8.7c-0.8,0.5-1.6,0.9-2.4,1.3c-3.2,1.5-6.6,2.4-10.1,2.3c-1.2,0-2.4,0-3.7,0c-0.5,0-1.1,0-1.5,0.5
		c0.6,2.3,2.7,3.2,4.4,4.6c-0.5,0.2-0.8,0.4-1.2,0.6c-3.8,1.4-7.7,2.7-11.7,3.6c-0.4,0.1-0.9,0-1.3,0.1c-0.4,0.1-0.9,0.3-1,0.6
		c-0.3,0.4-0.1,1,0.3,1.3c0.4,0.4,0.8,0.7,1.2,1c0.2,0.2,0.5,0.3,0.8,0.5c-2.8,1.4-3.8,3.8-4.7,6.4c-1.2,3.3-1.7,6.8-1.5,10.3
		c0.1,1,0.4,1.9,0.9,2.7c0.5,0.8,1.1,1.2,2.2,1c0.2-0.4,0.5-0.9,0.8-1.4c1.1,1.6,2.2,3.3,3.5,5c-2.5,0.8-4.5,2.4-6.7,3.7
		c-2,1.2-3.5,2.9-4.9,4.7c-1.8,2.4-3.5,4.8-4.8,7.5c-1.1,2.2-2,4.5-2.6,6.9c-0.4,1.7-0.9,3.5-1.2,5.2c-0.3,2-0.6,4-0.8,6.1
		c-0.3,2.8-0.4,5.5-0.6,8.3C1.4,93,1.2,94.2,1,95.4 M98.6,102.6c0.8-5.3,0.5-10.4-1.4-15.3c0.3,0,0.5-0.1,0.6-0.1
		c0.6,0,1.3,0,1.9-0.1c1-0.2,1.4-0.7,1.2-1.6c-0.1-0.3-0.4-0.7-0.6-0.9c-2.5-2.2-4.4-4.7-5.7-7.8c-1.2-3.1-2.7-6-5.1-8.5
		c-0.8-0.8-1.5-1.6-2.2-2.5c-3.1-3.8-6.9-6.9-10.9-9.6c-1.4-0.9-2.9-1.7-4.4-2.3c-4.6-1.9-9.4-3.3-14.3-4.2
		c-3.5-0.7-7.1-1.2-10.6-1.6c-1.4-0.1-2.8-0.4-4.3-0.6c1.5-1.6,2-3.6,3.1-5.3c0.2-0.3,0.2-0.9,0.1-1.3c-0.1-0.4-0.5-0.6-0.8-1
		c2-1.5,3.2-3.5,4.3-5.6c1.1-2.2,2.1-4.4,2.2-6.9c1.6-0.2,6.8,0.4,8,0.9c-4,2.5-6.6,5.9-7.3,10.5c-0.5,2.9,0.1,5.6,2.5,7.7
		c3,2.7,6.6,3.6,10.5,3.1c1.1-0.2,2.2-0.7,3.3-1c2.1-0.5,3.4-1.9,4.3-3.8c1.8-4,1.7-8,0.3-12.1c-0.1-0.3-0.2-0.6-0.3-1
		c1,0.4,1.7,1.2,2.7,0.8c0.9-2.3,1.2-4.7,1.4-7.1c0.1-0.9,0.2-1.7,0.2-2.6c0-0.4-0.2-0.9-0.5-1.1c-1.3-0.8-2.5-1.6-3.9-2.3
		c-1.1-0.5-2.2-0.9-3.3-1.4c-0.1-0.7-0.2-1.5-0.4-2.2c-0.8-3.4-3.1-5.4-6.3-6.2c-1.4-0.4-2.9-0.2-4.4,0c-1.8,0.3-3.5,1.1-4.9,2.4
		c-1.4,1.3-2.4,2.8-3.3,4.4c-1.1,2-1.7,4.1-2.4,6.2c-0.2,0.7-0.6,1.1-1.2,1.3c-0.6,0.3-1.1,0.6-1.6,0.9c-0.2,0.1-0.4,0.4-0.7,0.7
		c0.7,0.4,1.3,0.7,1.9,1c-1.5,2.6-3,5.2-4.4,7.9c-0.6,1.1-1.3,2.4-1.5,3.6c-0.3,2.4,0.1,4.8,2.5,6.3c-0.8,1.1-1.6,2.1-2.4,3.1
		c-0.2,0-0.4,0-0.7,0c-1.8,0-3.6-0.1-5.4,0.1c-2.7,0.3-5.3,0.4-7.9,1.2c-0.7,0.2-1.2,0-1.7-0.4c-0.2-0.2-0.4-0.4-0.6-0.6
		c-1.2-1.5-2.3-3.1-3-5c-0.1-0.4-0.4-0.8-0.6-1.1c-1.6,0.1-1.9,1.3-2.5,2.3c-0.5-0.5-0.4-1-0.4-1.5c0.1-1.9,0.1-3.8,0.4-5.7
		c0.3-2.4,1-4.7,2-6.8c0.9-1.8,2-3.3,4.2-3.8c0.4-0.1,0.8-0.5,1.2-0.8c0.3-0.2,0.2-0.7-0.2-0.9c-0.2-0.1-0.5-0.1-0.7-0.1
		c-1-0.2-1.9-0.6-3-1.4c3.1,0.1,5.8-0.9,8.4-1.7c2.7-0.9,5.5-1.7,7.7-3.5c0-0.6-0.2-1-0.8-1.2c-1.3-0.5-2.4-1.3-3.4-2.2
		c0.2-0.1,0.3-0.1,0.5-0.1c2.2,0.1,4.4-0.2,6.5-0.6c3.3-0.6,6.2-1.9,9-3.7c2.8-1.8,5.4-3.9,8.4-5.5c1.9-1,3.8-1.6,6-1.6
		c2.1-0.1,3.7,0.8,4.8,2.5c0.9,1.4,1.8,2.8,2.6,4.2c0.4,0.7,0.7,1.4,0.9,2.1c0.4,1.4,0.7,2.9,1.1,4.3c0.1,0.4,0.2,0.8,0.4,1.1
		c0.2,0.5,0.6,0.8,1.3,0.5c0.3-1.4-0.4-2.7-0.5-4.2c1.3-0.2,2.6-0.1,3.8,0c1.3,0.2,2.5,0.6,3.8,0.9c1.1-1.5,0.6-3,0-4.5
		c0.4,0.1,0.5,0.2,0.7,0.3c2.3,1,4.5,2.2,6.4,3.7c0.5,0.4,1.2,0.7,1.8,0.9c0.8,0.3,1.4-0.2,1.5-1.1c0.2-1.1,0.2-2.3-0.2-3.5
		c0.3,0,0.5,0,0.7,0c1.8,0.5,3.4,1.3,5,2.3c2.5,1.5,4.7,3.5,6.8,5.4c1.1,1,2.2,1.9,3.7,2.3c-0.7,1.4-1.9,2.4-2.1,3.9
		c0.4,0.6,0.9,0.9,1.5,0.7c0.1-0.1,0.2-0.2,0.2-0.3c1.1-2.4,2.5-4.4,4.6-6c1.2-0.9,2.3-1,3.5-0.4c0.6,0.3,1.3,0.7,1.9,1
		c2,1.1,3.9,2.2,5.9,3.2c3.5,1.7,7.1,3.4,10.7,5c1.1,0.5,2.2,1,3.3,1.4c2.7,1.1,5.3,2.5,7.2,4.8c2,2.5,3.7,5.1,3.4,8.6
		c-0.1,1.7-0.5,3.2-1.3,4.7c-1.2,2.2-2.6,4.2-4,6.2c-1.9,2.8-4,5.5-4.5,9.2c-0.3-0.4-0.6-0.7-0.9-1.1c-1.6,0.8-2.9,1.9-3.9,3.2
		c-1,1.3-2,2.6-2.8,4c-0.9,1.5-1.4,3.1-1.7,4.8c-0.3,1.6-0.3,3.3-0.4,5.1c-1.1-0.5-2-1-2.3-2.1c-0.3-0.8-0.6-0.9-1.3-0.6
		c-0.5,0.2-0.8,0.5-0.8,1.1c0,1.4,0.1,2.8,0.1,4.1c-2.3-0.6-5.7-3.4-6.8-5.7c-0.5-1-1-2-1.4-3c-0.8-1.6-1.1-3.3-0.8-5.1
		c0.2-1.6,0.3-3.2,0.5-4.8c0.2-2.6,0.5-5.2,1-7.8c0.7-3.5,1.4-6.9,2.4-10.4c0.6-2.1,1-4.4,1.5-6.5c0.5-1.9,0.6-3.8,0.6-5.8
		c0-2.8-1.1-5-3.2-6.7c-0.7-0.6-1.6-1.2-2.5-1.3c-1.8-0.3-3.7,0-5.4,0.9c-0.2,0.1-0.4,0.4-0.6,0.6c0.5,1.2,1.3,2,2.3,2.6
		c0.5,0.3,1,0.8,1.5,1.2c1.9,1.8,2.9,4.1,3.8,6.5c0.4,1.1,0.8,2.2,1.1,3.3c0.1,0.3,0,0.5,0,0.7c-0.9-1.1-1.7-2.2-2.6-3.2
		c-3.5-3.8-7.8-6.5-12.6-8.2c-3.8-1.4-7.7-2.1-11.7-1.5c-0.9,0.1-1.8,0.3-2.7,0.3c-1.1,0-1.8,0.5-2.4,1.4c-0.7,1.1-1.4,2.1-2.1,3.2
		c-0.7,1-1.2,2.1-1.3,3.3c0.6,0.8,1.5,0.9,2.4,0.9c-0.7,0.8-1.4,1.5-1.9,2.3c-1.6,2.2-2.4,4.8-2.6,7.5c-0.4,3.6,0.6,6.8,3.4,9.2
		c1.5,1.3,3.2,2.4,5.1,2.6c2.6,0.2,5.3,0.3,7.9-0.2c2.1-0.4,4-1.3,5.1-3.1c1.1-1.7,1.6-3.8,1.2-5.9c-0.5-2.6-1.5-5-3.1-7.2
		c-0.5-0.7-1.1-1.4-1.6-2.2c0.2,0,0.3-0.1,0.4,0c4.5,2,8.5,4.8,11.7,8.6c0.2,0.3,0.4,0.6,0.7,0.8c0.4,0.3,0.9,0.6,1.3,0.5
		c0.6-0.1,0.6-0.8,0.6-1.4c0-0.7,0-1.4-0.1-2c-0.2-1.1-0.5-2.3-0.7-3.4c-0.1-0.3,0-0.6-0.1-1c2,0.4,3.8,0.7,5.7,1.1
		c-0.1,0.5-0.2,0.8-0.3,1.1c-1.3,4-2.2,8.1-2.9,12.3c-0.4,2.5-0.7,5.1-1,7.6c-0.2,1.7-0.2,3.4-0.4,5.1c-0.2,2.1,0.3,3.9,1.3,5.7
		c0.2,0.4,0.5,0.8,0.6,1.3c0.2,0.6,0.3,1.3,0.4,2c0.1,0.6,0.1,1.3,0.1,1.9c-0.1,1.3,0.3,2.6,0.8,3.8c0.3,0.6,0.4,1.1,0.7,2
		c-1.6-1.1-3.1-1.8-4-3.3c-0.5,0.2-0.9,0.4-1.3,0.6c-0.1,1.8,0.3,3.9,1.1,6.6c-1.6-0.4-2-2.1-3.2-2.9c-0.4,0.2-0.8,0.3-1.3,0.5
		c-0.1,1.2-0.2,2.3-0.2,3.5c0,1.1-0.1,2.3,0,3.4c0.1,1.1,0.5,2.2,0.8,3.3c-0.1,0-0.1,0.1-0.2,0.1c-0.7-0.8-1.4-1.5-2.1-2.4
		c-0.5,0.2-1.1,0.3-1.3,0.9c-0.5,1.6-1.7,2.9-2.7,4.2C102.3,100.6,100.5,101.7,98.6,102.6 M85.1,50.4c0,0.7,0,1.4,0,2.3
		c-1.8-1.9-2.3-4.1-2.2-6.4c0.1-2.6,0.9-5.1,2.3-7.3c0.6-1,1.3-2,2.4-2.6c0.7-0.4,1.3-0.7,2.2-0.4c1.1,0.3,2.2,0.5,3.3,0.6
		c2,0.2,3.3,1.3,4.5,2.7c0.2,0.2,0.3,0.5,0.5,0.8c-0.2,0-0.3,0.1-0.4,0.1c-1.3-0.5-2.6-0.4-3.9-0.3c-1.8,0.2-3.5,0.8-4.8,2.1
		C86.6,44.3,85.3,47.1,85.1,50.4 M90.9,45.1c0-1.1,0.6-1.7,1.8-1.7c1.2,0,1.7,0.4,1.6,1.5c0,1.1-0.8,2-1.7,2
		C91.7,46.8,90.9,46,90.9,45.1 M90,34.5c-1.7-0.2-3.3-0.4-5.2-0.6c1.2-1.9,2.3-3.6,3.4-5.3c0.1-0.2,0.5-0.4,0.7-0.4
		c1.6-0.2,3.3-0.5,4.9-0.6c1.9-0.1,3.7,0.2,5.5,0.7c5.2,1.3,9.8,3.8,13.8,7.2c1.3,1.1,2.6,2.4,3.7,4.1c-0.6-0.1-1.1-0.2-1.5-0.2
		c-1.1-0.1-2.1-0.2-3.2-0.1c-0.9,0-1.2,0.5-1.1,1.4c0.1,0.8,0.3,1.5,0.4,2.3c0.1,0.7,0.2,1.4,0.3,2.2c-0.1-0.1-0.2-0.1-0.2-0.1
		c-0.2-0.2-0.5-0.5-0.7-0.7C105.1,38.4,98.1,35.2,90,34.5 M119.6,35.5c-0.6-1.2-1-2.3-1.5-3.3c-1.3-2.6-2.9-4.8-5.5-6.2
		c-0.2-0.1-0.3-0.2-0.5-0.5c1.5-0.7,2.9-1,4.2-0.2c1.7,0.9,2.9,2.2,3.4,4.1c0.5,1.9,0.3,3.7,0.1,5.6
		C119.8,35.2,119.7,35.3,119.6,35.5 M43,39.4c-0.5,0.5-0.4,1,0.1,1.5c0.3,0.3,0.6,0.5,0.9,0.7c-0.3,0.4-0.6,0.7-0.8,1.1
		c-1-0.8-1.3-1.7-1.4-2.8c-0.2-1.5,0.2-2.9,1-4.2c0.9-1.5,1.8-3.1,2.7-4.7c0.9-1.5,1.8-3,2.7-4.5c0.7,0.1,1.3,0.2,2,0.4
		c-0.1,0.4-0.2,0.7-0.3,1.1c-0.7,2.7-1.9,5.2-3.4,7.6c-0.6,1.1-1.4,2-2.4,2.7C43.8,38.7,43.4,39.1,43,39.4 M58.6,35.4
		c-2.1,3-2.9,6.4-2,10.4c-1.3-0.9-2-1.8-2.4-3.1c-0.5-1.6-0.3-3.3,0.1-4.9c0.9-3.4,3.2-5.9,5.9-8.1c0.6-0.5,1.4-0.7,2.2-0.7
		c2.5-0.2,4.9,0.6,7.3,1.3c0.3,0.1,0.6,0.3,0.8,0.6c0.4,0.8,0.8,1.6,1.4,2.7c-2.2-1.3-4.2-1.8-6.4-1.7
		C62.5,31.9,60.2,33.1,58.6,35.4 M62,37.6c-0.2-1.5,0.3-2.1,1.8-2.1c0.4,0,0.8,0,1.2,0.1c0.4,1,0.3,1.8-0.1,2.6
		c-0.4,0.7-1,1-1.8,0.8C62.5,38.8,62.1,38.4,62,37.6 M68.2,28.2c-5.7-1.5-11.5-2.2-17.4-2.7c-1-0.1-2-0.2-3-0.3c0-0.1,0-0.1,0-0.2
		c2.3-1,4.7-2,7-3c0.7-0.3,1-0.5,0.8-1.2c-0.1-0.5-0.4-0.9-0.6-1.3c-0.2-0.5-0.6-0.9-0.4-1.6c0.3,0,0.7,0,1,0
		c1.9,0.1,3.9,0.2,5.8,0.3c3,0.1,5.9,0.9,8.8,1.8c2,0.6,3.8,1.5,5.4,2.9c-0.1,1.3-0.2,2.7-0.5,4c-0.2,1.3-0.1,2.7-0.9,3.9
		C72.3,29.5,70.3,28.7,68.2,28.2 M53.6,16.9c-0.8,0.2-1,0.6-0.8,1.4c0.3,0.8,0.6,1.6,0.9,2.4c-1.2,0.6-2.4,1.2-3.8,1.6
		c0.6-2.9,1.7-5.5,3.4-7.8c1.2-1.7,2.8-3.2,5-3.5c1.4-0.2,3-0.4,4.3,0c3.1,0.7,4.8,3.1,5.2,6.6c-4-1-7.9-1.3-11.8-1.1
		C55.2,16.5,54.4,16.7,53.6,16.9 M68.1,123.8c-1.4,0.2-2.2,1.3-3.4,2.1c0.1-0.5,0.1-0.7,0.1-1c0.6-2.1,1-4.1,1.2-6.3
		c0.1-1.6,0.4-3.3,0.8-4.9c0.5-2,1.4-3.9,3.1-5.3c1.4-1.2,2.9-2.3,4.5-3.2c1.9-1.1,3.5-2.5,4.5-4.5c0.7-1.4,1.6-2.8,2-4.4
		c0.9-2.9,0.7-5.7-1.6-8c-0.2-0.2-0.4-0.5-0.6-0.8c1.1-0.4,2.1-0.7,3.1-1.1c2,1.4,2.3,3.7,3,5.6c0.8,2.2,1.4,4.6,0.8,7.2
		c0.4,0.2,0.8,0.4,1.2,0.7c0.9-0.8,1.6-1.5,2.5-2.3c0.3,0.3,0.6,0.7,0.9,1c-0.9,5.4-3.7,9.9-5.2,15.2c-0.3-0.4-0.6-0.6-0.7-0.8
		c-0.4-0.7-0.7-1.4-1.1-2.1c-0.3-0.6-0.7-1-1.3-1c-0.6,0-0.8,0.5-1,1.1c-0.1,0.2-0.2,0.4-0.2,0.5c-0.6,2.1-1.7,3.9-2.8,5.7
		c-1.8,3-4.1,5.6-7.1,7.4c-0.4,0.3-0.8,0.6-1.2,0.9c-0.2,0.2-0.5,0.3-0.7,0.4C68.5,125.3,68.9,124.3,68.1,123.8 M64.9,93.5
		c0.5-0.8,0.4-1.4-0.3-2.1c-0.8-0.8-1.5-1.6-2.5-2.6c1.2,0.2,2.1,0.4,3,0.5c3.4,0.2,6.8,0,10.1-0.7c1.3-0.3,2.1,0.1,2.9,1
		c1.6,1.9,1.9,4.1,1.1,6.3c-0.5,1.5-1.2,2.9-2,4.2c-0.7,1.2-1.4,2.3-2.7,2.9c-0.9-0.5-1.7-1.1-2.6-1.4c-3.2-1.1-6.5-1.7-9.9-0.8
		c-0.7,0.2-1.3,0.3-1.9-0.3c-0.3-0.3-0.8-0.5-1.2-0.6c-2.4-0.7-4.8-1.3-7.3-1c-4.2,0.5-7.5,2.6-9.7,6.1c-0.5,0.8-1,1.5-1.4,2.3
		c-1.2-0.9-1.6-1.3-2.1-2.3c-1.3-2.5-1.9-5.3-2.3-8.1c-0.6-3.5-1-7-1.4-10.5c-0.1-0.7-0.1-1.3-0.1-2.1c1.4,1,2.6,2,3.9,2.8
		c3.2,2,6.6,3.4,10.3,4.3c2,0.5,4,1,6.1,1.4c1.2,0.3,2.5,0.4,3.7,0.5c1.6,0.2,3.2,0.4,4.8,0.5c0.3,0,0.7,0,1-0.1
		C64.6,93.8,64.8,93.6,64.9,93.5 M44.1,133c-3.5-2.1-5.5-5.1-5.5-9.3c0-2.6,0.3-5.1,0.8-7.7c0.8-3.9,2.2-7.5,4.4-10.7
		c1.6-2.5,4-4,6.9-4.7c2.7-0.6,5.3-0.1,7.9,0.7c0.2,0.1,0.5,0.2,0.8,0.5c-0.5,0.4-0.9,0.7-1.3,1c-2.9,1.7-4.2,4.6-5.1,7.7
		c-0.1,0.2-0.1,0.4-0.1,0.6c0,0.5,0.2,0.7,0.8,0.8c0.2-0.3,0.5-0.6,0.6-1c0.3-0.6,0.6-1.1,0.8-1.7c0.8-2.2,2.2-3.9,4.1-5.3
		c1.8-1.3,3.7-1.8,5.8-1.9c2.1-0.1,4,0.5,6,1.1c0.7,0.2,1.3,0.6,1.9,0.9c-1.7,1.3-3.4,2.6-5,3.9c-0.8,0.6-1.4,1.5-2.3,2.1
		c-1.9,1.3-3.1,3.1-4.2,5.1c0.9,0.5,1,0.5,1.5,0c0.8-0.8,1.5-1.6,2.4-2.6c-0.3,1.5-0.7,2.8-0.9,4.1c-0.2,1.1-0.2,2.2-0.4,3.3
		c-0.4,2-0.8,4.1-1.3,6.1c-0.9,3.3-2.7,6-5.8,7.6c-0.9,0.5-1.7,0.9-2.7,1c-1.5,0.1-3,0.1-4.5,0.1C47.7,134.6,45.8,134,44.1,133
		 M27.6,90c-0.2-0.7-0.6-1.4-0.9-2.2c2.3-1.6,4.4-3.2,5.7-5.8c0.2,1,0.3,1.9,0.4,2.8c0.1,0.7,0,1.4,0.1,2c0.3,2.7,0.7,5.5,1,8.2
		c0.3,3,1,5.8,1.9,8.7c0.7,2.2,1.8,4.2,3.9,5.5c-1.2,2.6-1.8,5.3-2.4,8.1c-0.6,2.8-0.4,5.6-0.4,8.4c-1.5-0.7-3.5-2.8-4.1-4.2
		c-0.5-1.1-1-2.3-1.5-3.4c0.2-0.5,0.4-0.9,0.5-1.3c0.1-0.2-0.1-0.5-0.2-0.9c-0.8,0.6-1.4,1-2,1.5c-0.6,0.5-1.2,0.8-2,0.5
		c0-0.3,0-0.6,0-0.9c0.2-2,0.5-4.1,0.6-6.1c0.2-4.7,0.4-9.3,0.5-14C28.7,94.4,28.3,92.2,27.6,90 M4.5,93.4c-0.4,0.2-0.8,0.3-1.3,0.6
		c0-0.6,0-1,0.1-1.5c0.2-1.7,0.4-3.5,0.5-5.2C3.9,83.6,4.5,80,5,76.4c0.5-3.2,1.5-6.3,2.8-9.3c1.4-3.2,3.3-6.2,5.5-8.9
		c1-1.3,2.3-2.4,3.5-3.5c1.4-1.1,2.9-2.1,4.5-3c1.2-0.6,2.3-1.4,3.8-1.2c0.2,0,0.4-0.1,0.6-0.1c2-0.6,4-0.9,6-1.1
		c1.5-0.2,3.1-0.3,4.6-0.3c2.8,0,5.5,0.1,8.3,0.3c1.9,0.1,3.8,0.3,5.6,0.6c2.9,0.5,5.7,1,8.6,1.6c3.7,0.7,7.2,1.8,10.8,3.1
		c2.2,0.8,4.3,1.8,6.2,3.1c4.4,2.9,8.2,6.6,11.5,10.7c0.7,0.8,1.3,1.6,1.9,2.4c1.6,2.2,2.7,4.6,3.7,7.1c0.5,1.4,1.2,2.8,2.1,4
		c0.9,1.2,2,2.4,3,3.6c-0.8,0.1-1.6,0.2-2.3,0.4C95.1,86,95,86.3,95.2,87c0.3,1.1,0.7,2.2,1.1,3.3c0.2,0.7,0.5,1.4,0.6,2.1
		c0.2,1.7,0.2,3.5,0.3,5.2c0.2,3.1-1,6-1.7,9c-0.3-0.7-0.5-1.5-0.6-2.2c-0.6-2.9-1.7-5.5-3.9-7.5c-1.4-1.3-1.7-1.8-3.7-0.1
		c-0.4-3.9-1.5-7.5-3.6-10.9c0.6-0.3,1.2-0.5,1.7-0.9c0.4-0.4,0.7-1,1-1.5c0.3-0.6,0.3-1.2-0.3-1.7c-0.3,0.1-0.5,0.1-0.7,0.2
		c-1.5,0.5-3,0.3-4.4-0.3c-1.5-0.7-3-1.4-4.5-2.2c-0.4-0.2-0.9-0.5-1.3-0.6c-0.5-0.2-0.9,0-1.2,0.6c2.9,2.7,6.3,4.1,10.3,4.4
		c-2.3,1-4.6,1.7-6.9,2.4c-2.2,0.7-4.6,0.9-6.9,1.1c-1.9,0.2-3.9,0.2-5.8-0.2c-1.1-0.2-2.2-0.4-3.3-0.6c-0.6-0.1-1.1,0.1-1.5,0.6
		c-0.4,0.5-0.1,0.9,0.2,1.3c0.3,0.3,0.6,0.7,0.8,1c0.7,0.8,1.4,1.7,2.3,2.7c-1.6-0.2-2.9-0.3-4.2-0.5c-3-0.5-6-0.9-9-1.7
		c-3.7-1.1-7.3-2.3-10.6-4.4c-1.3-0.8-2.6-1.6-3.6-2.9c-0.5-0.7-1-1.3-1.5-2c-0.4-0.4-0.6-0.9-0.6-1.5c0-1.7,0-3.4,0-5.1
		c0-0.3,0-0.6,0.1-0.9c0.9-1.3,1.9-2.8,3.6-3.3c0.7-0.2,1.3-0.4,1.9-0.6c1.6-0.4,3.2-0.8,4.8-1.2c1.2-0.3,2.4-0.8,3.2-1.9
		c1.3-1.9,1.8-4.1,1.5-6.4c-0.2-1.4-0.9-2.5-2.4-2.8c-0.4-0.1-0.7-0.2-1.1-0.3c-2.4-0.5-4.9-0.9-7.4-0.9c-3.2,0-6.3-0.1-9.5,0.3
		c-1.8,0.2-3.6,0.5-5.3,0.9c-2,0.4-4.2,2.4-3.8,5.3c0.4,3,1.4,4.5,4.4,5.3c1.3,0.3,2.6,0.9,3.8,1.3c1.8,0.6,3,1.8,4.1,3.3
		c0.3,0.5,0.5,0.9,0.5,1.5c-0.1,1.3-0.2,2.5-0.2,3.8c0,0.6,0,1.2-0.4,1.8c-0.2,0.3-0.3,0.7-0.5,1.1c-0.7,1.6-1.7,3.1-3.1,4.1
		c-1.4,1-2.8,2.2-4.4,2.8c-1.8,0.7-3.6,1.4-5.5,1.9c-1.3,0.4-2.8,0.5-4.1,0.8c-0.1,0-0.2-0.1-0.4-0.2c0.4-0.5,0.7-1,1-1.5
		c0.7-1.2,1.4-2.4,1.9-3.6c0.5-0.9,0.4-2,0.2-3c0-0.2-0.3-0.5-0.4-0.5c-0.3,0-0.6,0.2-0.7,0.4c-0.1,0.2-0.2,0.5-0.1,0.7
		c0.1,0.9-0.3,1.6-0.7,2.3c-0.6,1.1-1.3,2.3-2,3.4c-0.7,1.1-1.4,2.2-2.8,2.7c-0.2,0.1-0.3,0.3-0.5,0.5c0.5,0.6,1.1,0.9,1.8,0.9
		c0.9,0,1.7-0.1,2.6-0.2c0.6,0,1.1-0.1,2-0.2c-3.8,3.2-6.3,7-8.4,11.3c-0.2-0.3-0.3-0.5-0.3-0.6c-1.1-2.7-1.5-5.6-2-8.5
		C5.1,93.9,5,93.6,4.5,93.4 M42.5,64.7c0.8-3.2,0.8-3.2,1.8-4.1c0.4,0.2,0.8,0.5,1.1,0.7c0.4,1.4-0.3,2.3-1,3.1
		C43.8,65,43.2,64.7,42.5,64.7"/>
</g>
</svg>
