<?xml version="1.0" encoding="utf-8"?>
<!-- Generator: Adobe Illustrator 23.0.5, SVG Export Plug-In . SVG Version: 6.00 Build 0)  -->
<svg version="1.1" id="Capa_1" xmlns="http://www.w3.org/2000/svg" xmlns:xlink="http://www.w3.org/1999/xlink" x="0px" y="0px"
	 viewBox="0 0 283.5 165.2" style="enable-background:new 0 0 283.5 165.2;" xml:space="preserve">
<style type="text/css">
	.st0{clip-path:url(#SVGID_2_);}
	.st1{clip-path:url(#SVGID_2_);fill:#418091;}
	.st2{clip-path:url(#SVGID_2_);fill:#418090;}
	.st3{clip-path:url(#SVGID_2_);fill:#909190;}
	.st4{clip-path:url(#SVGID_2_);fill:#90908F;}
	.st5{clip-path:url(#SVGID_2_);fill:#404140;}
	.st6{clip-path:url(#SVGID_2_);fill:#659D52;}
	.st7{clip-path:url(#SVGID_2_);fill:#90918F;}
	.st8{clip-path:url(#SVGID_2_);fill:#FFFFFF;}
	.st9{clip-path:url(#SVGID_2_);fill:#D99528;}
	.st10{clip-path:url(#SVGID_2_);fill:#2B545E;}
	.st11{clip-path:url(#SVGID_2_);fill:#414140;}
	.st12{clip-path:url(#SVGID_2_);fill:#8F9190;}
	.st13{clip-path:url(#SVGID_2_);fill:#CE641D;}
</style>
<g>
	<defs>
		<rect id="SVGID_1_" x="0" width="283.5" height="165.2"/>
	</defs>
	<clipPath id="SVGID_2_">
		<use xlink:href="#SVGID_1_"  style="overflow:visible;"/>
	</clipPath>
	<path class="st0" d="M2,129.6c0.9-0.2,1.9-0.1,2.9,0c4.4,0.6,8.8,0.6,13.3-0.3c-1.2-1.3-2.4-2.3-3.3-3.5c-1.5-1.9-0.8-3.9,1.6-4.5
		c1-0.3,2.1-0.1,3.2-0.2c3.5-0.3,7-0.5,10.5-0.9c5.6-0.7,10.6-3.2,15.9-5.1c2.6-0.9,4.4-2.4,5.4-5.2c1.6-4.2,4.8-5.3,8.9-3.7
		c0.1,0,0.2,0,0.4,0c1.6-3,4.6-3.8,7.7-4.2c-1.5-3.3-1.5-3.3,2-6.2c-0.8-0.4-1.6-0.8-2.4-1.2c-2-1.2-2.5-3.1-1.1-4.9
		c0.3-0.5,0.9-0.8,1.3-1.2c0.6-0.6,1.3-1.1,2-1.8c-5.3-2.8-6.4-6.9-4-11.5c0.7-1.5,1.2-3.1,1.8-4.6c1.7-4.2,3.4-8.6,5.3-12.7
		c1.1-2.3,2.6-4.4,4.2-6.3c2-2.4,4.7-3.6,7.6-4.6c0.7-0.5,1.6-0.7,2.4-0.8c0.1,0,0.3,0,0.4,0c0.1,0,0.1,0,0.2-0.1c0,0,0,0,0,0
		c0.9-0.1,1.8-0.2,2.7-0.3c2.1-0.2,4.1-0.2,6.2-0.1c0.4-1.4,0.7-2.7,1-3.8c2.3-8.6,5.1-17.1,9.7-24.8c2.5-4.1,5.4-7.9,8.9-11.1
		c1.2-1.1,2.8,0.3,2.5,1.5c5.1,1.5,15.7,0.6,18.3,2.5c5.1-2.3,7.2,19.1,7.2,33.3c0.1-1.9,3.1-1.8,3,0.1c-0.1,2.9,0.3,5.9,1.4,8.6
		c0.5,1.4,1.2,2.7,2,3.9c0.5,0.7,1.2,2.1,2.1,2.5c0,0,0.1-0.1,0.1-0.1c-0.3-0.2-0.6-0.4-0.9-0.7c0.7-1,1.1-2.1,1.9-2.6
		c1.6-1.1,3.4-1.8,5.5-2.9c-0.1,1-0.1,1.7-0.2,2.5c0,1.9,1.7,2.9,3.4,2c0.3-0.2,0.6-0.5,0.9-0.7c2.9-2.3,5.9-4.5,8.8-6.8
		c1.4-1.1,2.6-2.3,3.9-3.5c1.4-1.4,2.8-2.9,4.6-4.8c0.5-3.2,0.3-6.5-0.3-9.7c-0.4-1.9,2.5-2.6,2.9-0.7c1.5-3.1,5.1-2.7,6.8-5.9
		c0.7,1,1.2,2.1,1.9,3c2.3,2.9,5.9,2.4,7.4-1c0.1-0.3,0.2-0.5,0.3-0.8c2.2-5.8,4.4-11.5,6.6-17.3c0.6-1.7,1.2-3.5,1.7-5.2
		c0.2-0.6,0.4-1.2,0.6-1.7c0.1-0.4,0.4-0.7,0.8-1.6c0.9,2.4,7.1,2.3,12.4,10.3c0.3,0.4,0.6,0.7,0.9,1.1c0-0.1,0-0.2,0-0.3
		c0-0.1,0-0.3,0-0.4c0,0,0-0.1,0-0.1c0,0,0,0,0,0c0-0.1,0-0.1,0-0.2c0-0.3,0.1-0.5,0.2-0.7c0.1-0.2,0.1-0.4,0.3-0.6
		c0.1-0.2,0.2-0.3,0.4-0.5c0,0,0,0,0.1,0c0,0,0.1-0.1,0.1-0.1c0,0,0.1,0,0.1,0c0,0,0.1,0,0.1,0c0,0,0.1,0,0.1,0
		c2.9,3.1,4.5,6.7,5.8,10.4c2.2,6.1,2.9,12.5,3.9,18.9c0.4,2.5,0.6,5,0.8,7.4c0.4,0.1,0.5,0.1,0.6,0.1c0.3-0.1,0.6-0.1,0.8-0.2
		c3.4-1.6,6.9-1.3,10.4-0.6c6.1,1.2,10.2,5.1,12.9,10.6c3.7,7.4,5.5,15.4,6.9,23.5c0.4,2.3-0.5,4.2-1.8,6c-0.5,0.6-1,1.1-1.3,1.5
		c0.3,1.5,0.7,2.7,0.8,3.9c0.2,1.6-1.6,1.7-2.2,2.6c0.8,1.2,1.8,2.3,2.4,3.5c0.7,1.5-0.1,2.9-1.7,3.4c-0.4,0.1-0.8,0.2-1.3,0.3
		c0.5,1.4,0.9,2.6,1.2,3.5c2.5,1.4,4.8,2.7,7.2,4c0.6-0.3,1.3-0.6,2-0.9c3.4-1.2,6.6-0.3,8.5,2.7c2.2,3.5,3.2,7.3,2.2,11.5
		c-0.6,2.2-1.2,4.3-2.1,6.4c-2.1,5-4.4,9.8-6.4,14.8c-1.3,3.2-2.1,6.5-3.8,9.5c-1.6,2.7-3.6,5.1-6.3,6.8c-4.4,2.6-9,3.1-13.7,0.9
		c-1.5-0.7-2.7-1.7-4.1-2.6c-2.2,3-5.3,5.4-8.5,6.1c-5,1.1-10,2-15.1,1.8c-3-0.1-6-0.6-9-1.1c-5.6-1-11-2.7-15.6-6.2
		c-1.3-1-2-2.1-2-3.7c0-1.8,0.2-3.7,0.4-5.5c0.1-0.9,0.5-1.9-0.3-2.8c-0.8,0.2-1.5,0.5-2.2,0.6c-1.4,0.2-2.7-0.3-3.8-1.3
		c-1.1-1-0.5-2.2,0-3.3c0.1-0.2,0-0.4,0-0.7c-0.9-0.7-1.8-1.5-2.8-2.4c-3.6,2.4-6.7,1.5-9.6-1.2c-3.4,3-6.8,2.2-10.1,0
		c-3.7,2.7-7.1,1.3-10.4-0.7c-2.6,1.3-5.1,1.6-7.5-0.2c-2.2,2.3-4.7,1.8-6.9,0.7c-1.3,0.6-2.3,1.1-3.3,1.6c0.3,1.2,0.6,2.2,0.7,3.2
		c0.2,1.9-0.5,2.5-2.3,2.6c-0.8,0-1.5,0-2.3,0c-0.1,1.4,0.2,2.8-0.4,3.6c-1,1.5-1.2,3.1-1.3,4.7c-0.1,2.3-1.1,4.2-2.3,6
		c-1.9,2.7-4.3,4.8-7.8,5.8c-3.8,1-7.7,1.3-11.6,1.5c-5.7,0.2-11.3-0.2-17-0.5c-1.6-0.1-3.3-0.6-4.8-1.2c-3.3-1.2-5.7-3.4-6.8-6.8
		c-0.3-1-0.5-2-0.9-3.2c-2.9,2.9-6.4,4-10.3,3.5c-4.4-0.6-8.4-2.1-11-5.9c-1.9-2.8-3.5-5.9-4.3-9.3c-0.5-2.2-1-4.3-1.6-6.8
		c-4.5,1.6-8.9,3-13.2,4.8c-3.5,1.4-6.9,2.6-10.6,3.3c-1.6,0.3-3.1,0.3-4.4-0.6c-0.2-0.7-0.4-1.3-0.5-2c-1,0-1.8-0.1-2.5,0
		c-5.6,0.7-10.9-0.7-16.1-2.3c-2.6-0.8-4.8-2.2-6.9-3.8c-0.5-0.4-0.9-0.8-1.2-1.3C-0.5,131.4,0,130,2,129.6"/>
	<path class="st1" d="M222.6,10.3c-1.7,5.2-3.2,10-4.8,14.8c-3,0.1-3.6-0.4-3.7-3.1c0-5.4-0.3-10.8-1.8-16c-0.5-1.9-1.3-3.6-2.2-6
		c-0.4,0.9-0.7,1.2-0.8,1.6c-0.8,2.3-1.5,4.7-2.3,6.9c-2.1,5.8-4.4,11.5-6.6,17.3c-0.1,0.3-0.2,0.5-0.3,0.8c-1.5,3.4-5.1,3.9-7.4,1
		c-0.7-0.9-1.2-1.9-1.9-3c-1.7,3.2-3.3,6.2-4.9,9.2c-0.5,0.9-0.8,2-0.8,3c0.1,8.6-3.5,15.3-9.9,20.7c-2.2,1.9-4.8,3.4-7.4,4.8
		c-5.3,2.7-10.7,2.9-15.8-0.7c-0.3-0.2-0.7-0.4-1.1-0.6c-3.4,4.2-7.7,7.2-12.8,9.5c0,5.5,0.1,11.1,0,16.6
		c-0.1,5.6-0.3,11.1-0.5,16.8c17.6,3.4,35,3.9,52.5,1.3c0.2-0.5,0.3-0.8,0.3-1c0.2-5.1,0.4-10.2,0.5-15.3c0.1-4.5,0.4-9,1.1-13.4
		c0.3-2.2,0.4-4.5,0.6-6.7c0.3-3,0.5-6,0.8-9.1c0.4-3.9,0.9-7.8,1.4-11.6c0.2-1.4,0.3-2.7,0.4-4.3c0.5-0.3,1.2-0.6,1.8-0.9
		c1.1,0.9,1.1,2,1,3.1c-0.2,3.3-0.4,6.6-0.8,9.9c-0.4,4.4-1,8.7-1.5,13.1c-0.4,4.1-0.8,8.2-1.1,12.3c0,0.5-0.1,1-0.1,1.5
		c-0.2,6.6-0.4,13.1-0.5,19.7c0,2.1-0.2,4-1,6c-1.3,3.1,0.4,6.9,4.1,7.7c4.1,0.8,8.2,1.8,12.5,1c1.4-0.3,2.9-0.1,4.4-0.1
		c4.9-0.1,9.7-0.7,13.9-3.7c0.2-0.2,0.5-0.3,0.8-0.3c0.2,0,0.4,0,0.6,0c0.7,0.7,0.7,1.5,0.1,2.1c-1.1,1.1-2.3,2.3-3.7,2.8
		c-2,0.8-4.1,1.2-6.2,1.5c-4.2,0.5-8.3,0.8-12.5,1.1c-3.1,0.2-6.2,0-9.3-1c-0.7-0.2-1.5-0.2-2.4-0.3c-0.9,1.3-1.7,2.6-2.6,4
		c2.4,1.3,4.8,2.3,7.3,2.5c5.6,0.4,11.2,0.8,16.7,0.5c7.5-0.3,14.9-1.4,22.3-3.8c0.7-3.5,0.9-7,0.3-10.6c-0.2-1.1-0.2-2.2-0.1-3.2
		c0.3-5.1-0.8-10.1-1.6-15.1c-1.4-8.6-2.9-17.1-4.2-25.7c-0.5-3.4-0.4-6.8-0.7-10.2c-0.5-6.1-1-12.3-1.7-18.4
		c-0.5-4.6-1.1-9.1-1.9-13.6c-0.8-4.4-2.4-8.6-4.7-12.6C224.2,12.1,223.5,11.3,222.6,10.3"/>
	<path class="st2" d="M135.6,71.1c-3.9,0-7.6,0.1-11.3,0c-5.6-0.1-10.4-2.2-14.8-5.5c-3.2-2.4-5.4-5.6-7.5-9.1
		c-2.9,3.3-5.4,6.7-6.7,10.9c-1.4,4.8-2.3,9.7-2.5,14.7c-0.4,8.7-1.1,17.4-1.8,26c-0.2,2.8-0.7,5.6-0.9,8.4c-0.1,1.6,0,3.1,0,4.8
		c3.8,2.2,7.8,3.8,12.2,4.4c7.9,1.1,15.8,0.8,23.7,0.2c2.3-0.2,4.7-0.4,7-0.8c0.7-0.1,1.5-0.5,2.2-0.7c0.4-2.2-0.3-4.1-0.9-6.3
		c-1.8,0.5-3.5,0.9-5.2,1.5c-4.6,1.6-9.3,0.9-14,0.7c-3.8-0.2-7.2-1.6-10.5-3.3c-0.4-0.2-0.9-0.4-1.3-0.7c-0.7-0.5-1.6-0.9-1.6-2
		c0-1.3,1-1.5,2-1.8c3.1,1.7,6.1,3.4,9.7,4.1c6.7,1.2,13.2,1.1,19.6-1.5c2.6-1.1,3.2-1.8,3-4.6c0-0.8-0.1-1.6-0.4-2.3
		c-0.8-2.2-1-4.6-0.9-6.9c0.3-9.5,0.5-19,0.7-28.5C135.4,72.4,135.5,71.9,135.6,71.1"/>
	<path class="st3" d="M139,107.8c0.6,3.3,1.2,6.5-1.9,8.8c0.5,1.7,1,3.3,1.4,4.9c0.9,3.6,0.6,4.2-2.6,6.4c-0.1,2.2,0.7,4.3,1.8,6.4
		c1.3-0.3,2.4-0.6,3.2-2c1-1.8,2.5-1.7,4-0.2c0.5,0.5,1,0.9,1.6,1.4c1.4-1.1,1.9-3.3,4.4-3c0.3,0.4,0.8,1,1.3,1.6
		c1.3,1.6,1.8,1.6,3.4,0.4c0.8-0.6,1.7-1.1,2.7-1.8c0.7,0.7,1.2,1.3,1.8,1.8c0.7,0.6,1.3,1.2,2.1,1.6c1.8,0.9,2.9,0.7,3.9-1.1
		c0.7-1.2,1.6-1.6,3-1.7c0.3,0.6,0.7,1.3,1.2,1.8c2,2.4,3.9,2.6,5.8,0.3c0.9-1,1.6-1.9,3.3-1.8c0.5,0.7,1,1.5,1.6,2.2
		c1.6,2.2,2.7,2.3,4.8,0.7c0.5-0.4,0.9-0.7,1.4-1c1.2-0.6,1.9-0.4,2.8,0.7c0.7,0.8,1.3,1.7,2.1,2.8c1.4-3.4,1.4-6.6,1.6-9.6
		c-1.1-0.7-2.1-1.1-2.9-1.8c-1.8-1.5-2-3.2-0.5-5.1c0.3-0.4,0.7-0.7,1-1.1c0.6-0.8,0.8-1.6,0.2-2.4c-0.3-0.4-0.5-0.8-0.8-1.3
		c-1.1-2.3-1.9-4.7-1.2-7.3C172.4,110.9,155.8,110.6,139,107.8"/>
	<path class="st3" d="M241.5,125.1c1.8-1.3,2-3,1.9-5c-0.1-3.1,0-6.3-0.1-9.4c0-1.5,0.5-2.4,1.8-3.1c3.2-1.8,5.3-1.6,8.2,1.1
		c0.9,0.8,1.8,1.5,3,1.1c3-4.7,8.1-3.8,10.7-0.8c0.3,0.3,0.5,0.6,0.7,0.9c1.6,1.6,2.4,1.6,4.2,0.1c0.6-0.5,1.4-1,2.2-1.2
		c1.7-0.4,3,0.3,4,1.8c2.5,4,2.3,8.2,0.7,12.4c-1.2,3.2-2.7,6.3-4.1,9.4c-1.7,4-3.3,7.9-4.8,11.9c-1.2,3.1-2.6,6.1-5,8.5
		c-3.9,4.1-9.6,4.5-12.9,2.5c-1.6-1-3-2.2-4.4-3.4c-0.4-0.4-0.6-1.2-0.8-1.8c-0.5-2.8-1.2-5.5-2.7-8c-0.1-0.2-0.1-0.5-0.1-1
		c0.7,0,1.2,0,1.8,0c0.6,0,1.2,0.1,1.8,0c1.7-0.2,2.6-1.7,1.7-3.2c-0.6-1.1-1.5-2-2.4-2.9C244.4,132.2,243.2,128.6,241.5,125.1
		 M252.4,142c0-0.2,0,0.2,0,0.6c0,4.3,3.4,6.9,7.7,5.9c2.8-0.7,4.8-2.2,6-5c1.3-3.2,2.9-6.2,3.5-9.6c0.1-0.8,0.3-1.5,0.3-2.3
		c0.2-3.2-1.7-5.5-4.8-5.7c-1.1-0.1-2.2-0.1-3.2,0c-2.4,0.3-4.4,1.4-5.9,3.4C253.3,132.9,252.3,137,252.4,142 M276.6,114.8
		c-3.2-0.2-4.9,1.2-4.8,3.9c0.1,1.8,1.1,2.9,2.9,3c1.4,0.1,2.4-0.7,2.9-2.3C277.9,118,277.6,116.4,276.6,114.8 M266,114.4
		c0-2-1.3-3.5-2.9-3.4c-1.9,0.1-3.6,1.7-3.5,3.3c0.1,1.9,1.8,3.3,3.8,3.3C265,117.6,266,116.3,266,114.4 M252.5,115
		c0-1.9-0.9-3.1-2.3-3.1c-1.6-0.1-3.6,1.6-3.7,3.1c-0.1,1.8,1.7,3.3,3.8,3.2C251.6,118.1,252.5,117,252.5,115"/>
	<path class="st4" d="M86.9,109c0,0.9,0.1,1.6,0,2.3c-0.5,3.9-0.9,7.8-0.3,11.7c0.1,0.9-0.3,1.9-0.7,2.7c-1.6,3-3.3,5.9-5.3,9.4
		c-0.3-1.7-0.5-2.7-0.6-3.7c-0.4-6.4-6.4-8.4-11.1-7.1c-2.5,0.7-4.1,2.6-4.4,5.3c-0.4,5.4,0.7,10.5,2.2,15.6c0.3,1.2,1,1.9,2.1,2.2
		c1.1,0.4,2.3,0.6,3.4,0.8c2.6,0.5,6.8-1.5,7.6-5.1c0.3-1.3,0.4-2.7,0.5-4.1c0.1-1.2,0-2.3,0-3.4c1.3,0.9,2.4,1.7,3.7,2.6
		c-0.8,1.8-1.7,3.7-2.5,5.6c-0.8,1.9-0.7,2.3,1.2,3.5c0.2,0.1,0.3,0.4,0.6,0.7c-1.7,1.4-2.5,3.4-4.5,4.6c-3.4,2.1-11.1,0.8-13.8-3.2
		c-1.8-2.6-3.3-5.3-4-8.4c-1-4.7-2.3-9.3-4.4-13.6c-1-2.1-1.7-4.4-2.5-6.6c-1.1-3.2-1-6.3,0.2-9.4c1.2-3.1,3.5-4.4,6-1.2
		c0.8,1,1.7,1.2,2.9,0.8c0.2-2.4,0.5-5,3.4-5.5c2.9-0.6,5.7-0.1,7.3,2.7c-0.2,0.7-0.4,1.4-0.6,2.2c0.9,0.4,1.7,0.7,2.4,0.9
		c1.9-1.3,2.7-3.4,5-3.8C83.2,106.9,85.1,107.5,86.9,109 M81.7,113.5c-1.9,0-4.1,1.9-4.1,3.5c0.1,1.4,2,2.7,4,2.8
		c1.6,0,2.5-1,2.5-2.9C84.1,114.8,83.2,113.5,81.7,113.5 M69.2,112.3c-1.9,0.1-3.5,1.6-3.4,3.2c0,1.7,1.7,2.8,4.1,2.7
		c1.6-0.1,2-0.8,2-2.9C71.7,113.2,70.9,112.2,69.2,112.3 M57.2,118.1c0.2,1.8,1.3,2.9,3.1,3.4c0.4,0.1,1,0.1,1.4-0.1
		c1.2-0.5,1.6-2.3,0.9-3.9c-0.5-1.3-1.7-1.9-3-1.4C58.5,116.5,57.5,116.9,57.2,118.1"/>
	<path class="st5" d="M94.5,146.6c0.6-0.6,1-1.2,1.6-1.7c0.7-0.7,1.3-1.5,2.1-2c1.8-1.1,3-0.5,3.5,1.5c0.2,0.9-0.1,2,0.9,2.7
		c1.1-0.1,1.7-1,2.2-1.8c0.8-1.6,2.2-2,4-2.4c0.5,0.7,1,1.3,1.5,2c0.4,0.5,0.7,1.2,1.2,1.6c2,2.1,3.2,1.9,4.9-0.5
		c0.3-0.5,0.6-1,0.9-1.5c1.3-1.5,2.7-1.5,4.1-0.1c0.9,0.9,1.8,1.7,2.7,2.5c1.2-0.6,1.1-1.5,1.2-2.4c0.1-1.8,1-2.7,2.9-2.9
		c1.2,1,2.4,2.2,4.2,3.7c-0.3-1.3-0.6-2-0.7-2.8c-0.1-0.8,0-1.5,0-2.2c1.5-1.8,3.3-0.9,5.1-0.5c-1.8-3.8-4.3-6.9-4.1-10.9
		c-0.6-0.2-0.9-0.3-1.2-0.3c-7.5,0.9-15,1.2-22.5,1.1c-6.1-0.1-12-1.2-17.6-3.9c-0.4-0.2-0.9-0.4-1.4-0.6c-1.6,3-3.2,6-4.9,9.1
		c0.9,0.1,1.8,0.2,2.6,0.3c1.1,1.5,0.6,3-0.2,4.4c-0.7,1.2-1.3,2.5-2,4.1c2.6-0.5,3.4-3.3,6.1-2.9C93.5,141.8,92.6,144.7,94.5,146.6
		"/>
	<path class="st5" d="M194.8,141c0.8-0.3,1.5-0.6,2.3-0.8c1.9-0.6,2.5-0.2,3,1.6c0.2,0.8,0.4,1.7,0.7,2.6c1.4,0,2.2-0.8,3-1.6
		c0.7-0.7,1.3-1.5,2.1-2c0.9-0.5,1.9-0.8,3-1.1c0.7,1.2,1.1,2.1,1.7,3c1.2,1.8,2.7,1.8,3.9,0c0.3-0.5,0.6-1,1-1.5
		c0.9-0.9,2.5-1.3,3.4,0.4c0.3,0.5,0.5,1.1,0.8,1.5c1,1.4,2.3,1.3,3.4,0c0.2-0.3,0.4-0.7,0.6-1c0.9-1.5,0.9-1.5,3-2.2
		c1.8,1,2.9,3.4,5.5,3.6c0.5-1.9,0.3-4.4,3.3-4.5c1.5,0.8,3.2,1.7,4.8,2.5c0.2-0.2,0.4-0.3,0.4-0.5c0.1-0.8-0.8-1.8,0.1-2.5
		c0.8-0.5,1.8-0.7,2.7-1c0.3-0.1,0.8,0,1.2,0c-1.2-1.9-2.4-3.6-3.3-5.5c-1-1.9-1.7-4-2.5-6.1c-4.3,0.9-8.7,2.1-13.2,2.6
		c-4.6,0.6-9.4,0.7-14.1,0.7c-4.6,0-9.2-0.2-14.1-0.4c-0.2,1.9-0.3,4-0.7,6C196.1,137,195.4,138.9,194.8,141"/>
	<path class="st6" d="M235.7,49.2c0.1,1.3,0,2.6,0.3,3.8c1.4,7.7,0.7,15.6,2.9,23.4c3.7-2.1,7.4-4,11.7-4.1c4.1,0,8.2-0.1,12.1,2.7
		c0-1,0.1-1.7,0-2.3c-1.4-5.4-2.8-10.8-5.2-15.8c-1.1-2.4-2.4-4.6-4.6-6.4C247.9,46.3,242,45.7,235.7,49.2"/>
	<path class="st5" d="M5.6,132.9c4.8,3.5,16.4,6.3,25.4,3c0.4,1.1,0.9,2.2,1.4,3.5c7.5-2.4,14.9-4.8,22.6-7.2
		c-1.8-5.1-4.4-9.9-5.3-15.5c-5.2,1.9-9.9,4.5-15.1,5.8c-5.2,1.3-10.4,1.7-15.8,1.5c0.4,1.7,1.7,2.1,2.6,2.8
		c0.9,0.7,1.6,1.4,1.5,2.7c-0.1,1.1-0.4,1.9-1.6,2.1c-2.2,0.4-4.4,0.9-6.6,1.1C11.8,133.1,9,132.9,5.6,132.9"/>
	<path class="st6" d="M99.5,54.4c-0.5-0.4-0.9-0.7-1.2-1c-1.5-1.2-3.2-2.3-4.6-3.6c-1.1-1-2.2-1.4-3.4-1c-2.2,0.6-4.3,1.3-6.4,2.2
		c-2,0.8-3.6,2.3-4.9,4.1c-3.6,5.2-5.6,11.2-7.9,17c-0.5,1.3-0.9,2.6-1.4,4c2.3,0,4.5-0.2,6.6,0.1c2.2,0.3,4.4,1,6.4,1.8
		c2.1,0.8,4,2,6.2,3.2c0.6-4.9,1.4-9.7,2.8-14.3C93.4,62.1,96.3,58.3,99.5,54.4"/>
	<path class="st3" d="M234.8,149.5c2,2.9,2.2,6,2.3,9.1c3.8-0.1,6.4-2.6,6.5-6c0.1-2.7-0.2-5.3-1.2-7.4c-2.3-0.7-4.4-1.3-6.5-1.9
		c-0.2,0.5-0.4,1.2-0.7,1.8c-0.8,1.9-1.7,2.4-3.7,1.8c-1.2-0.3-2.3-1-3.5-1.5c-0.4-0.2-0.8-0.5-1.3-0.8c-1.6,1.1-2.6,3-4.8,3.1
		c-2,0-3.5-1.1-5.1-2.1c-3,2.6-5.1,2.4-9.6-0.8c-3.6,2.7-3.6,2.7-6.8,3.4c-0.7,1.4-0.4,3-0.3,4.5c0.1,1.2,1,1.8,2,2.4
		c3,1.7,6.1,3,9.5,3.8c2.2,0.5,4.4,0.8,6.6,1.2c1.2-2.6,0.4-5,0.1-7.5c0.7-0.4,1.3-0.8,2.1-1.2c2.4,2.7,1.5,5.9,1.5,9
		c3.9,0.7,7.6-0.3,11.6-0.4c0.5-3.2-0.4-6.1-1-9.3C233.2,150.2,233.9,149.9,234.8,149.5"/>
	<path class="st5" d="M239.6,81.8c0.7,4,1.4,7.8,2.1,11.7c0.6,3.8,1.1,7.6,1.7,11.8c4.2-2.5,8.1-2.2,11.8,0.6
		c1.4-0.7,2.8-1.4,4.2-2.1c-0.4-1.5-0.9-2.9-1.2-4.3c-0.4-2-0.4-2,1.3-3.1c0.3-0.2,0.6-0.4,1.1-0.7c-0.8-1-1.6-1.9-2.2-2.8
		c-1.3-2-0.9-2.8,1.2-3.7c0.4-0.2,0.9-0.4,1.5-0.7c-2.9-1.9-3.8-4.6-4-7.8c-0.1-1.6-0.5-3.3-0.7-4.9
		C250.8,74.1,244.6,76.3,239.6,81.8"/>
	<path class="st3" d="M131,148.4c-0.7-0.4-1.4-0.8-2.3-1.4c-0.3,0.6-0.5,1.1-0.7,1.6c-1,2-2.1,2.5-4.3,1.8c-0.7-0.2-1.4-0.6-2.1-1.1
		c-0.7-0.4-1.2-0.9-2-1.5c-1.3,2.2-3,3.6-5.9,3.5c-2.7-0.1-4.2-1.9-5.9-3.4c-4.7,3.8-6.1,3.8-9.6,0.4c-1.5,1.3-3.3,1.5-5.2,1.2
		c-2.1-0.4-3.1-1.9-3.4-4.3c-0.5,0.6-1,1-1.1,1.4c-0.6,2-1.2,3.9-1.5,5.9c-0.6,4,2.5,7.7,6.5,7.9c0.7-2.5,1.3-5.1,2-7.6
		c0.4-1.4,1.4-2.1,3-1.6c0.6,1.1,0.3,2.2-0.1,3.4c-0.8,2.1-1.1,4.3-0.8,6.9c1.9,0.1,3.8,0.1,5.8,0.2c1.8,0,3.7,0,5.5,0
		c0.2-2.2,0.3-4.3,0.5-6.4c0.3-2.2,1.1-3,3.5-3.5c0.4,3.3-1.3,6.5-0.2,9.8c4.2,0.2,8.3-0.2,12.2-1.8
		C129,158.2,131.5,153.3,131,148.4"/>
	<path class="st5" d="M69.7,91.5c1.3,1.4,2.6,1.2,3.9,1.2c2,0.1,2.8,1.3,1.8,3.1c-0.4,0.8-1.2,1.5-1.9,2.2c-0.5,0.5-1.2,0.9-2,1.5
		c1.7,2,2.3,4.8,5,6.2c3.3-1.9,6.9-2,10.8-0.6c0.3-6.9,1.5-13.6,1.4-20.3c-4-2.9-8.1-5.1-13.2-5.7C74.7,83.9,74.8,88.9,69.7,91.5"/>
	<path class="st7" d="M160.1,52.3c-2.1,1.1-3.9,1.9-5.5,2.9c-0.8,0.5-1.2,1.6-1.9,2.6c3.9,3.2,8,4.1,12.4,2.3
		c6-2.4,10.7-6.4,14.1-11.8c1.4-2.2,1.8-4.6,2.6-7.7c-1.9,2-3.4,3.6-4.9,5.1c-1.2,1.2-2.5,2.4-3.9,3.5c-2.9,2.3-5.9,4.5-8.8,6.8
		c-0.3,0.2-0.6,0.5-0.9,0.7c-1.7,1-3.4-0.1-3.4-2C159.9,54,160,53.3,160.1,52.3"/>
	<path class="st8" d="M261.4,83.9c3-2.9,2.7-4.6-1.2-6.8C260,79.5,260.6,81.7,261.4,83.9"/>
	<path class="st8" d="M71.5,84c0.4-1.5,0.9-2.8,1.3-4.4c-1.8-0.4-2.8,0.5-3.9,1.6C69.2,82.6,70.3,83.2,71.5,84"/>
	<path class="st1" d="M222.6,10.3c-1.7,5.2-3.2,10-4.8,14.8c-3,0.1-3.6-0.4-3.7-3.1c0-5.4-0.3-10.8-1.8-16c-0.5-1.9-1.3-3.6-2.2-6
		c-0.4,0.9-0.7,1.2-0.8,1.6c-0.8,2.3-1.5,4.7-2.3,6.9c-2.1,5.8-4.4,11.5-6.6,17.3c-0.1,0.3-0.2,0.5-0.3,0.8c-1.5,3.4-5.1,3.9-7.4,1
		c-0.7-0.9-1.2-1.9-1.9-3c-1.7,3.2-3.3,6.2-4.9,9.2c-0.5,0.9-0.8,2-0.8,3c0.1,8.6-3.5,15.3-9.9,20.7c-2.2,1.9-4.8,3.4-7.4,4.8
		c-5.3,2.7-10.7,2.9-15.8-0.7c-0.3-0.2-0.7-0.4-1.1-0.6c-3.4,4.2-7.7,7.2-12.8,9.5c0,5.5,0.1,11.1,0,16.6
		c-0.1,5.6-0.3,11.1-0.5,16.8c17.6,3.4,35,3.9,52.5,1.3c0.2-0.5,0.3-0.8,0.3-1c0.2-5.1,0.4-10.2,0.5-15.3c0.1-4.5,0.4-9,1.1-13.4
		c0.3-2.2,0.4-4.5,0.6-6.7c0.3-3,0.5-6,0.8-9.1c0.4-3.9,0.9-7.8,1.4-11.6c0.2-1.4,0.3-2.7,0.4-4.3c0.5-0.3,1.2-0.6,1.8-0.9
		c1.1,0.9,1.1,2,1,3.1c-0.2,3.3-0.4,6.6-0.8,9.9c-0.4,4.4-1,8.7-1.5,13.1c-0.4,4.1-0.8,8.2-1.1,12.3c0,0.5-0.1,1-0.1,1.5
		c-0.2,6.6-0.4,13.1-0.5,19.7c0,2.1-0.2,4-1,6c-1.3,3.1,0.4,6.9,4.1,7.7c4.1,0.8,8.2,1.8,12.5,1c1.4-0.3,2.9-0.1,4.4-0.1
		c4.9-0.1,9.7-0.7,13.9-3.7c0.2-0.2,0.5-0.3,0.8-0.3c0.2,0,0.4,0,0.6,0c0.7,0.7,0.7,1.5,0.1,2.1c-1.1,1.1-2.3,2.3-3.7,2.8
		c-2,0.8-4.1,1.2-6.2,1.5c-4.2,0.5-8.3,0.8-12.5,1.1c-3.1,0.2-6.2,0-9.3-1c-0.7-0.2-1.5-0.2-2.4-0.3c-0.9,1.3-1.7,2.6-2.6,4
		c2.4,1.3,4.8,2.3,7.3,2.5c5.6,0.4,11.2,0.8,16.7,0.5c7.5-0.3,14.9-1.4,22.3-3.8c0.7-3.5,0.9-7,0.3-10.6c-0.2-1.1-0.2-2.2-0.1-3.2
		c0.3-5.1-0.8-10.1-1.6-15.1c-1.4-8.6-2.9-17.1-4.2-25.7c-0.5-3.4-0.4-6.8-0.7-10.2c-0.5-6.1-1-12.3-1.7-18.4
		c-0.5-4.6-1.1-9.1-1.9-13.6c-0.8-4.4-2.4-8.6-4.7-12.6C224.2,12.1,223.5,11.3,222.6,10.3"/>
	<path class="st2" d="M135.6,71.1c-3.9,0-7.6,0.1-11.3,0c-5.6-0.1,17.9-57.5,13.4-60.8c-3.2-2.4-18.8-0.5-20.8-4
		C97.2,31.1,94.5,65.8,95.3,67.4c-1.4,4.8-2.3,9.7-2.5,14.7c-0.4,8.7-1.1,17.4-1.8,26c-0.2,2.8-0.7,5.6-0.9,8.4
		c-0.1,1.6,0,3.1,0,4.8c3.8,2.2,7.8,3.8,12.2,4.4c7.9,1.1,15.8,0.8,23.7,0.2c2.3-0.2,4.7-0.4,7-0.8c0.7-0.1,1.5-0.5,2.2-0.7
		c0.4-2.2-0.3-4.1-0.9-6.3c-1.8,0.5-3.5,0.9-5.2,1.5c-4.6,1.6-9.3,0.9-14,0.7c-3.8-0.2-7.2-1.6-10.5-3.3c-0.4-0.2-0.9-0.4-1.3-0.7
		c-0.7-0.5-1.6-0.9-1.6-2c0-1.3,1-1.5,2-1.8c3.1,1.7,6.1,3.4,9.7,4.1c6.7,1.2,13.2,1.1,19.6-1.5c2.6-1.1,3.2-1.8,3-4.6
		c0-0.8-0.1-1.6-0.4-2.3c-0.8-2.2-1-4.6-0.9-6.9c0.3-9.5,0.5-19,0.7-28.5C135.4,72.4,135.5,71.9,135.6,71.1"/>
	<path class="st3" d="M139,107.8c0.6,3.3,1.2,6.5-1.9,8.8c0.5,1.7,1,3.3,1.4,4.9c0.9,3.6,0.6,4.2-2.6,6.4c-0.1,2.2,0.7,4.3,1.8,6.4
		c1.3-0.3,2.4-0.6,3.2-2c1-1.8,2.5-1.7,4-0.2c0.5,0.5,1,0.9,1.6,1.4c1.4-1.1,1.9-3.3,4.4-3c0.3,0.4,0.8,1,1.3,1.6
		c1.3,1.6,1.8,1.6,3.4,0.4c0.8-0.6,1.7-1.1,2.7-1.8c0.7,0.7,1.2,1.3,1.8,1.8c0.7,0.6,1.3,1.2,2.1,1.6c1.8,0.9,2.9,0.7,3.9-1.1
		c0.7-1.2,1.6-1.6,3-1.7c0.3,0.6,0.7,1.3,1.2,1.8c2,2.4,3.9,2.6,5.8,0.3c0.9-1,1.6-1.9,3.3-1.8c0.5,0.7,1,1.5,1.6,2.2
		c1.6,2.2,2.7,2.3,4.8,0.7c0.5-0.4,0.9-0.7,1.4-1c1.2-0.6,1.9-0.4,2.8,0.7c0.7,0.8,1.3,1.7,2.1,2.8c1.4-3.4,1.4-6.6,1.6-9.6
		c-1.1-0.7-2.1-1.1-2.9-1.8c-1.8-1.5-2-3.2-0.5-5.1c0.3-0.4,0.7-0.7,1-1.1c0.6-0.8,0.8-1.6,0.2-2.4c-0.3-0.4-0.5-0.8-0.8-1.3
		c-1.1-2.3-1.9-4.7-1.2-7.3C172.4,110.9,155.8,110.6,139,107.8"/>
	<path class="st3" d="M241.5,125.1c1.8-1.3,2-3,1.9-5c-0.1-3.1,0-6.3-0.1-9.4c0-1.5,0.5-2.4,1.8-3.1c3.2-1.8,5.3-1.6,8.2,1.1
		c0.9,0.8,1.8,1.5,3,1.1c3-4.7,8.1-3.8,10.7-0.8c0.3,0.3,0.5,0.6,0.7,0.9c1.6,1.6,2.4,1.6,4.2,0.1c0.6-0.5,1.4-1,2.2-1.2
		c1.7-0.4,3,0.3,4,1.8c2.5,4,2.3,8.2,0.7,12.4c-1.2,3.2-2.7,6.3-4.1,9.4c-1.7,4-3.3,7.9-4.8,11.9c-1.2,3.1-2.6,6.1-5,8.5
		c-3.9,4.1-9.6,4.5-12.9,2.5c-1.6-1-3-2.2-4.4-3.4c-0.4-0.4-0.6-1.2-0.8-1.8c-0.5-2.8-1.2-5.5-2.7-8c-0.1-0.2-0.1-0.5-0.1-1
		c0.7,0,1.2,0,1.8,0c0.6,0,1.2,0.1,1.8,0c1.7-0.2,2.6-1.7,1.7-3.2c-0.6-1.1-1.5-2-2.4-2.9C244.4,132.2,243.2,128.6,241.5,125.1
		 M252.4,142c0-0.2,0,0.2,0,0.6c0,4.3,3.4,6.9,7.7,5.9c2.8-0.7,4.8-2.2,6-5c1.3-3.2,2.9-6.2,3.5-9.6c0.1-0.8,0.3-1.5,0.3-2.3
		c0.2-3.2-1.7-5.5-4.8-5.7c-1.1-0.1-2.2-0.1-3.2,0c-2.4,0.3-4.4,1.4-5.9,3.4C253.3,132.9,252.3,137,252.4,142 M276.6,114.8
		c-3.2-0.2-4.9,1.2-4.8,3.9c0.1,1.8,1.1,2.9,2.9,3c1.4,0.1,2.4-0.7,2.9-2.3C277.9,118,277.6,116.4,276.6,114.8 M266,114.4
		c0-2-1.3-3.5-2.9-3.4c-1.9,0.1-3.6,1.7-3.5,3.3c0.1,1.9,1.8,3.3,3.8,3.3C265,117.6,266,116.3,266,114.4 M252.5,115
		c0-1.9-0.9-3.1-2.3-3.1c-1.6-0.1-3.6,1.6-3.7,3.1c-0.1,1.8,1.7,3.3,3.8,3.2C251.6,118.1,252.5,117,252.5,115"/>
	<path class="st4" d="M86.9,109c0,0.9,0.1,1.6,0,2.3c-0.5,3.9-0.9,7.8-0.3,11.7c0.1,0.9-0.3,1.9-0.7,2.7c-1.6,3-3.3,5.9-5.3,9.4
		c-0.3-1.7-0.5-2.7-0.6-3.7c-0.4-6.4-6.4-8.4-11.1-7.1c-2.5,0.7-4.1,2.6-4.4,5.3c-0.4,5.4,0.7,10.5,2.2,15.6c0.3,1.2,1,1.9,2.1,2.2
		c1.1,0.4,2.3,0.6,3.4,0.8c2.6,0.5,6.8-1.5,7.6-5.1c0.3-1.3,0.4-2.7,0.5-4.1c0.1-1.2,0-2.3,0-3.4c1.3,0.9,2.4,1.7,3.7,2.6
		c-0.8,1.8-1.7,3.7-2.5,5.6c-0.8,1.9-0.7,2.3,1.2,3.5c0.2,0.1,0.3,0.4,0.6,0.7c-1.7,1.4-2.5,3.4-4.5,4.6c-3.4,2.1-11.1,0.8-13.8-3.2
		c-1.8-2.6-3.3-5.3-4-8.4c-1-4.7-2.3-9.3-4.4-13.6c-1-2.1-1.7-4.4-2.5-6.6c-1.1-3.2-1-6.3,0.2-9.4c1.2-3.1,3.5-4.4,6-1.2
		c0.8,1,1.7,1.2,2.9,0.8c0.2-2.4,0.5-5,3.4-5.5c2.9-0.6,5.7-0.1,7.3,2.7c-0.2,0.7-0.4,1.4-0.6,2.2c0.9,0.4,1.7,0.7,2.4,0.9
		c1.9-1.3,2.7-3.4,5-3.8C83.2,106.9,85.1,107.5,86.9,109 M81.7,113.5c-1.9,0-4.1,1.9-4.1,3.5c0.1,1.4,2,2.7,4,2.8
		c1.6,0,2.5-1,2.5-2.9C84.1,114.8,83.2,113.5,81.7,113.5 M69.2,112.3c-1.9,0.1-3.5,1.6-3.4,3.2c0,1.7,1.7,2.8,4.1,2.7
		c1.6-0.1,2-0.8,2-2.9C71.7,113.2,70.9,112.2,69.2,112.3 M57.2,118.1c0.2,1.8,1.3,2.9,3.1,3.4c0.4,0.1,1,0.1,1.4-0.1
		c1.2-0.5,1.6-2.3,0.9-3.9c-0.5-1.3-1.7-1.9-3-1.4C58.5,116.5,57.5,116.9,57.2,118.1"/>
	<path class="st5" d="M94.5,146.6c0.6-0.6,1-1.2,1.6-1.7c0.7-0.7,1.3-1.5,2.1-2c1.8-1.1,3-0.5,3.5,1.5c0.2,0.9-0.1,2,0.9,2.7
		c1.1-0.1,1.7-1,2.2-1.8c0.8-1.6,2.2-2,4-2.4c0.5,0.7,1,1.3,1.5,2c0.4,0.5,0.7,1.2,1.2,1.6c2,2.1,3.2,1.9,4.9-0.5
		c0.3-0.5,0.6-1,0.9-1.5c1.3-1.5,2.7-1.5,4.1-0.1c0.9,0.9,1.8,1.7,2.7,2.5c1.2-0.6,1.1-1.5,1.2-2.4c0.1-1.8,1-2.7,2.9-2.9
		c1.2,1,2.4,2.2,4.2,3.7c-0.3-1.3-0.6-2-0.7-2.8c-0.1-0.8,0-1.5,0-2.2c1.5-1.8,3.3-0.9,5.1-0.5c-1.8-3.8-4.3-6.9-4.1-10.9
		c-0.6-0.2-0.9-0.3-1.2-0.3c-7.5,0.9-15,1.2-22.5,1.1c-6.1-0.1-12-1.2-17.6-3.9c-0.4-0.2-0.9-0.4-1.4-0.6c-1.6,3-3.2,6-4.9,9.1
		c0.9,0.1,1.8,0.2,2.6,0.3c1.1,1.5,0.6,3-0.2,4.4c-0.7,1.2-1.3,2.5-2,4.1c2.6-0.5,3.4-3.3,6.1-2.9C93.5,141.8,92.6,144.7,94.5,146.6
		"/>
	<path class="st5" d="M194.8,141c0.8-0.3,1.5-0.6,2.3-0.8c1.9-0.6,2.5-0.2,3,1.6c0.2,0.8,0.4,1.7,0.7,2.6c1.4,0,2.2-0.8,3-1.6
		c0.7-0.7,1.3-1.5,2.1-2c0.9-0.5,1.9-0.8,3-1.1c0.7,1.2,1.1,2.1,1.7,3c1.2,1.8,2.7,1.8,3.9,0c0.3-0.5,0.6-1,1-1.5
		c0.9-0.9,2.5-1.3,3.4,0.4c0.3,0.5,0.5,1.1,0.8,1.5c1,1.4,2.3,1.3,3.4,0c0.2-0.3,0.4-0.7,0.6-1c0.9-1.5,0.9-1.5,3-2.2
		c1.8,1,2.9,3.4,5.5,3.6c0.5-1.9,0.3-4.4,3.3-4.5c1.5,0.8,3.2,1.7,4.8,2.5c0.2-0.2,0.4-0.3,0.4-0.5c0.1-0.8-0.8-1.8,0.1-2.5
		c0.8-0.5,1.8-0.7,2.7-1c0.3-0.1,0.8,0,1.2,0c-1.2-1.9-2.4-3.6-3.3-5.5c-1-1.9-1.7-4-2.5-6.1c-4.3,0.9-8.7,2.1-13.2,2.6
		c-4.6,0.6-9.4,0.7-14.1,0.7c-4.6,0-9.2-0.2-14.1-0.4c-0.2,1.9-0.3,4-0.7,6C196.1,137,195.4,138.9,194.8,141"/>
	<path class="st9" d="M235.7,49.2c0.1,1.3,0,2.6,0.3,3.8c1.4,7.7,0.7,15.6,2.9,23.4c3.7-2.1,7.4-4,11.7-4.1c4.1,0,8.2-0.1,12.1,2.7
		c0-1,0.1-1.7,0-2.3c-1.4-5.4-2.8-10.8-5.2-15.8c-1.1-2.4-2.4-4.6-4.6-6.4C247.9,46.3,242,45.7,235.7,49.2"/>
	<path class="st5" d="M5.6,132.9c4.8,3.5,16.4,6.3,25.4,3c0.4,1.1,0.9,2.2,1.4,3.5c7.5-2.4,14.9-4.8,22.6-7.2
		c-1.8-5.1-4.4-9.9-5.3-15.5c-5.2,1.9-9.9,4.5-15.1,5.8c-5.2,1.3-10.4,1.7-15.8,1.5c0.4,1.7,1.7,2.1,2.6,2.8
		c0.9,0.7,1.6,1.4,1.5,2.7c-0.1,1.1-0.4,1.9-1.6,2.1c-2.2,0.4-4.4,0.9-6.6,1.1C11.8,133.1,9,132.9,5.6,132.9"/>
	<path class="st9" d="M93.4,57.2c-0.5-0.4,0.9-3.9,0.6-4.2c-1.5-1.2,1.1-1.8-0.2-3.2c-1.1-1-2.2-1.4-3.4-1c-2.2,0.6-4.3,1.3-6.4,2.2
		c-2,0.8-3.6,2.3-4.8,4.1c-3.6,5.2-5.6,11.2-7.9,17c-0.5,1.3-0.9,2.6-1.4,4c2.3,0,4.5-0.2,6.6,0.1c2.2,0.3,4.4,1,6.4,1.8
		c2.1,0.8,4,2,6.2,3.2c0.6-4.9,1.4-9.7,2.8-14.3C93.4,62.1,90.2,61.1,93.4,57.2"/>
	<path class="st3" d="M234.8,149.5c2,2.9,2.2,6,2.3,9.1c3.8-0.1,6.4-2.6,6.5-6c0.1-2.7-0.2-5.3-1.2-7.4c-2.3-0.7-4.4-1.3-6.5-1.9
		c-0.2,0.5-0.4,1.2-0.7,1.8c-0.8,1.9-1.7,2.4-3.7,1.8c-1.2-0.3-2.3-1-3.5-1.5c-0.4-0.2-0.8-0.5-1.3-0.8c-1.6,1.1-2.6,3-4.8,3.1
		c-2,0-3.5-1.1-5.1-2.1c-3,2.6-5.1,2.4-9.6-0.8c-3.6,2.7-3.6,2.7-6.8,3.4c-0.7,1.4-0.4,3-0.3,4.5c0.1,1.2,1,1.8,2,2.4
		c3,1.7,6.1,3,9.5,3.8c2.2,0.5,4.4,0.8,6.6,1.2c1.2-2.6,0.4-5,0.1-7.5c0.7-0.4,1.3-0.8,2.1-1.2c2.4,2.7,1.5,5.9,1.5,9
		c3.9,0.7,7.6-0.3,11.6-0.4c0.5-3.2-0.4-6.1-1-9.3C233.2,150.2,233.9,149.9,234.8,149.5"/>
	<path class="st5" d="M239.6,81.8c0.7,4,1.4,7.8,2.1,11.7c0.6,3.8,1.1,7.6,1.7,11.8c4.2-2.5,8.1-2.2,11.8,0.6
		c1.4-0.7,2.8-1.4,4.2-2.1c-0.4-1.5-0.9-2.9-1.2-4.3c-0.4-2-0.4-2,1.3-3.1c0.3-0.2,0.6-0.4,1.1-0.7c-0.8-1-1.6-1.9-2.2-2.8
		c-1.3-2-0.9-2.8,1.2-3.7c0.4-0.2,0.9-0.4,1.5-0.7c-2.9-1.9-3.8-4.6-4-7.8c-0.1-1.6-0.5-3.3-0.7-4.9
		C250.8,74.1,244.6,76.3,239.6,81.8"/>
	<path class="st3" d="M131,148.4c-0.7-0.4-1.4-0.8-2.3-1.4c-0.3,0.6-0.5,1.1-0.7,1.6c-1,2-2.1,2.5-4.3,1.8c-0.7-0.2-1.4-0.6-2.1-1.1
		c-0.7-0.4-1.2-0.9-2-1.5c-1.3,2.2-3,3.6-5.9,3.5c-2.7-0.1-4.2-1.9-5.9-3.4c-4.7,3.8-6.1,3.8-9.6,0.4c-1.5,1.3-3.3,1.5-5.2,1.2
		c-2.1-0.4-3.1-1.9-3.4-4.3c-0.5,0.6-1,1-1.1,1.4c-0.6,2-1.2,3.9-1.5,5.9c-0.6,4,2.5,7.7,6.5,7.9c0.7-2.5,1.3-5.1,2-7.6
		c0.4-1.4,1.4-2.1,3-1.6c0.6,1.1,0.3,2.2-0.1,3.4c-0.8,2.1-1.1,4.3-0.8,6.9c1.9,0.1,3.8,0.1,5.8,0.2c1.8,0,3.7,0,5.5,0
		c0.2-2.2,0.3-4.3,0.5-6.4c0.3-2.2,1.1-3,3.5-3.5c0.4,3.3-1.3,6.5-0.2,9.8c4.2,0.2,8.3-0.2,12.2-1.8
		C129,158.2,131.5,153.3,131,148.4"/>
	<path class="st5" d="M69.7,91.5c1.3,1.4,2.6,1.2,3.9,1.2c2,0.1,2.8,1.3,1.8,3.1c-0.4,0.8-1.2,1.5-1.9,2.2c-0.5,0.5-1.2,0.9-2,1.5
		c1.7,2,2.3,4.8,5,6.2c3.3-1.9,6.9-2,10.8-0.6c0.3-6.9,1.5-13.6,1.4-20.3c-4-2.9-8.1-5.1-13.2-5.7C74.7,83.9,74.8,88.9,69.7,91.5"/>
	<path class="st7" d="M160.1,52.3c-2.1,1.1-3.9,1.9-5.5,2.9c-0.8,0.5-1.2,1.6-1.9,2.6c3.9,3.2,8,4.1,12.4,2.3
		c6-2.4,10.7-6.4,14.1-11.8c1.4-2.2,1.8-4.6,2.6-7.7c-1.9,2-3.4,3.6-4.9,5.1c-1.2,1.2-2.5,2.4-3.9,3.5c-2.9,2.3-5.9,4.5-8.8,6.8
		c-0.3,0.2-0.6,0.5-0.9,0.7c-1.7,1-3.4-0.1-3.4-2C159.9,54,160,53.3,160.1,52.3"/>
	<path class="st8" d="M261.4,83.9c3-2.9,2.7-4.6-1.2-6.8C260,79.5,260.6,81.7,261.4,83.9"/>
	<path class="st8" d="M71.5,84c0.4-1.5,0.9-2.8,1.3-4.4c-1.8-0.4-2.8,0.5-3.9,1.6C69.2,82.6,70.3,83.2,71.5,84"/>
	<path class="st10" d="M129.1,119.6c1.7-0.6,3.5-1,5.2-1.4c0.6,2.2,1.3,4.1,0.9,6.3c-0.8,0.3-1.5,0.6-2.2,0.7
		c-2.3,0.3-4.6,0.6-7,0.8c-0.9,0.1-1.7,0.1-2.6,0.2c0-2-0.6-3.9-1.7-5.5C124.2,120.7,126.6,120.5,129.1,119.6"/>
	<path class="st10" d="M140.1,37.5c-0.1,0.8-4.7,34.9-4.8,35.4c-0.3,9.5-0.5,19-0.7,28.5c-0.1,2.4,0.1,4.7,0.9,6.9
		c0.3,0.7,0.3,1.5,0.4,2.3c0.2,2.8-0.4,3.5-3,4.6c-1.9,0.8-3.9,1.3-5.9,1.7c0.4-0.5,0.8-1,1.1-1.6c1.5-2.7,1.7-5.8,1.9-8.9l1.2-19.4
		c-7.9-2-15.6-5.8-21.1-11.9c-4.3-4.8-7.1-11-7.3-17.4c0.9-6.8,4.1-18.3,10.3-29c6.6-11.4,19.1-18.5,24.7-18.4
		C141.4,10.4,136.2,37.5,140.1,37.5"/>
	<path class="st3" d="M234.8,149.5c2,2.9,2.2,6,2.3,9.1c3.8-0.1,6.4-2.6,6.5-6c0.1-2.7-0.2-5.3-1.2-7.4c-2.3-0.7-4.4-1.3-6.5-1.9
		c-0.2,0.5-0.4,1.2-0.7,1.8c-0.8,1.9-1.7,2.4-3.7,1.8c-1.2-0.3-2.3-1-3.5-1.5c-0.4-0.2-0.8-0.5-1.3-0.8c-1.6,1.1-2.6,3-4.8,3.1
		c-2,0-3.5-1.1-5.1-2.1c-3,2.6-5.1,2.4-9.6-0.8c-3.6,2.7-3.6,2.7-6.8,3.4c-0.7,1.4-0.4,3-0.3,4.5c0.1,1.2,1,1.8,2,2.4
		c3,1.7,6.1,3,9.5,3.8c2.2,0.5,4.4,0.8,6.6,1.2c1.2-2.6,0.4-5,0.1-7.5c0.7-0.4,1.3-0.8,2.1-1.2c2.4,2.7,1.5,5.9,1.5,9
		c3.9,0.7,7.6-0.3,11.6-0.4c0.5-3.2-0.4-6.1-1-9.3C233.2,150.2,233.9,149.9,234.8,149.5"/>
	<path class="st3" d="M131,148.4c-0.7-0.4-1.4-0.8-2.3-1.4c-0.3,0.6-0.5,1.1-0.7,1.6c-1,2-2.1,2.5-4.3,1.8c-0.7-0.2-1.4-0.6-2.1-1.1
		c-0.7-0.4-1.2-0.9-2-1.5c-1.3,2.2-3,3.6-5.9,3.5c-2.7-0.1-4.2-1.9-5.9-3.4c-4.7,3.8-6.1,3.8-9.6,0.4c-1.5,1.3-3.3,1.5-5.2,1.2
		c-2.1-0.4-3.1-1.9-3.4-4.3c-0.5,0.6-1,1-1.1,1.4c-0.6,2-1.2,3.9-1.5,5.9c-0.6,4,2.5,7.7,6.5,7.9c0.7-2.5,1.3-5.1,2-7.6
		c0.4-1.4,1.4-2.1,3-1.6c0.6,1.1,0.3,2.2-0.1,3.4c-0.8,2.1-1.1,4.3-0.8,6.9c1.9,0.1,3.8,0.1,5.8,0.2c1.8,0,3.7,0,5.5,0
		c0.2-2.2,0.3-4.3,0.5-6.4c0.3-2.2,1.1-3,3.5-3.5c0.4,3.3-1.3,6.5-0.2,9.8c4.2,0.2,8.3-0.2,12.2-1.8
		C129,158.2,131.5,153.3,131,148.4"/>
	<path class="st11" d="M160.1,52.3c-2.1,1.1-3.9,1.9-5.5,2.9c-0.8,0.5-1.2,1.6-1.9,2.6c3.9,3.2,8,4.1,12.4,2.3
		c6-2.4,10.7-6.4,14.1-11.8c1.4-2.2,1.8-4.6,2.6-7.7c-1.9,2-3.4,3.6-4.9,5.1c-1.2,1.2-2.5,2.4-3.9,3.5c-2.9,2.3-5.9,4.5-8.8,6.8
		c-0.3,0.2-0.6,0.5-0.9,0.7c-1.7,1-3.4-0.1-3.4-2C159.9,54,160,53.3,160.1,52.3"/>
	<path class="st5" d="M261.4,83.9c3-2.9,2.7-4.6-1.2-6.8C260,79.5,260.6,81.7,261.4,83.9"/>
	<path class="st5" d="M71.5,84c0.4-1.5,0.9-2.8,1.3-4.4c-1.8-0.4-2.8,0.5-3.9,1.6C69.2,82.6,70.3,83.2,71.5,84"/>
	<path class="st10" d="M146.5,92.1c11.5,9,26.3,13.9,40.9,13.6c-16.5,2.1-33,1.5-49.6-1.7c0.2-5.7,0.4-11.3,0.5-16.8
		c0.1-5.5-0.6-71.3-0.6-76.9c5.1-2.3,7.2,19.1,7.2,33.3c1.9,10.6,7,17.9,7.3,18.1c5.1,3.6,10.4,3.4,15.8,0.7
		c2.6-1.3,5.1-2.9,7.4-4.8c6.4-5.4,9.6-11.7,9.4-20.3c0-1-1.1-5.9-0.7-6.8c1.5-3.1,5.1-2.7,6.8-5.9c0.7,1,1.2,2.1,1.9,3
		c2.3,2.9,5.9,2.4,7.4-1c0.1-0.3,0.2-0.5,0.3-0.8c2.2-5.8,4.4-11.5,6.6-17.3c0.9-2.3,1.5-4.6,2.3-6.9c0.1-0.4,0.4-0.7,0.8-1.6
		c0.9,2.4,7.1,2.3,12.4,10.3c0.8,1,1.6,1.8,2.1,2.7c2.2,3.9,3.8,8.2,4.7,12.6c0.8,4.5,1.4,9.1,1.9,13.6c0.7,6.1,1.2,12.2,1.7,18.4
		c0.3,3.4,0.2,6.9,0.7,10.2c1.3,8.6,2.9,17.1,4.2,25.7c0.8,5,1.9,10,1.6,15.1c-0.1,1.1,0,2.2,0.1,3.2c0.6,3.6,0.4,7.2-0.3,10.6
		c-7.4,2.4-14.8,3.5-22.3,3.8c-5.6,0.2-11.2-0.2-16.7-0.5c-2.5-0.2-4.9-1.2-7.3-2.5c0.9-1.4,1.7-2.6,2.6-3.9
		c0.4,0.1,0.9,0.3,1.3,0.5c8.1,3.1,16.9,4.2,25.5,3.3c4.2-0.5,8.6-1.6,11.4-4.8c1.6-1.9,2.5-4.3,2.9-6.7c1.5-8.2-1.3-16.4-3.5-24.5
		c-4.2-15.4-6.2-31.4-5.9-47.4c0.1-5,0.3-10.4-1.6-15.1c-0.4-0.9-1-2.6-1.8-3.2c-1.5-0.9-1-0.4-2,0.9c-1.4,1.7-2.7,4.3-5.4,3.4
		c-0.9-0.3-1.7-1.1-2.3-1.8c-2-2.2-3.9-4.4-5.6-6.8c-0.6,4.3-2,8.5-4,12.4c-1.4,2.7-3.4,5.3-6.1,6.6c-2.7,1.3-6.5,1-8.3-1.4
		c-1.3,6.3-2.6,12.7-5.4,18.5c-2.8,5.8-7.1,11.2-13,13.8c-6.1,2.8-13.5,2.3-19.5-0.9c0,5-5.2,8.5-10.1,9.4c-1,0.2-2.2,0.4-2.9,1.2
		c-0.4,0.5-0.6,1.3-0.6,2C138.1,84.2,142.2,88.8,146.5,92.1"/>
	<path class="st3" d="M196.5,135.1c0.4-2.1,0.5-4.2,0.7-6c3.6,0.1,7,0.3,10.4,0.4c-0.6,1.9-1.5,3.9-2.3,6.1
		c-0.5,1.5-1.1,3.2-0.4,4.6c0.2,0.3,0.4,0.6,0.6,0.9c-0.7,0.5-1.2,1.2-1.9,1.9c-0.8,0.8-1.6,1.6-3,1.6c-0.2-1-0.4-1.8-0.7-2.6
		c-0.5-1.9-1.1-2.2-3-1.6c-0.7,0.2-1.4,0.5-2.3,0.8C195.4,138.9,196.1,137,196.5,135.1"/>
	<path class="st5" d="M65.4,147.6c1.9,1.9,4.1,3.7,6.8,4c2.4,0.2,4.8-0.8,6.6-2.3c1-0.9,1.9-1.9,2.7-3c0.3,0.3,0.7,0.6,1.2,1
		c0.2,0.1,0.3,0.4,0.6,0.7c-1.7,1.4-2.5,3.4-4.5,4.6c-3.4,2.1-11.1,0.8-13.8-3.2c-1.5-2.2-2.8-4.4-3.6-6.9
		C62.6,144.4,63.9,146.1,65.4,147.6"/>
	<path class="st5" d="M73.5,110c-1.5-1.5-3.6-2.4-5.7-2.6c-1.1-0.1-2.4,0.1-3.2,0.8c-0.7,0.6-1.1,1.6-1.3,2.6
		c0.2-2.4,0.5-4.9,3.4-5.4c2.9-0.6,5.7-0.1,7.3,2.7C73.9,108.7,73.7,109.3,73.5,110"/>
	<path class="st5" d="M83,109.5c-1.4-0.6-2.9-0.5-4.4-0.1c-0.5,0.1-0.9,0.3-1.4,0.5c1-1.1,1.9-2.2,3.6-2.5c2.3-0.4,4.2,0.1,6.1,1.6
		c0,0.9,0.1,1.6,0,2.3c-0.1,0.7-0.2,1.4-0.3,2.2C85.9,111.7,84.8,110.2,83,109.5"/>
	<path class="st5" d="M75.3,111c-0.2,0.1-0.4,0.3-0.6,0.4c-0.2-0.3-0.5-0.7-0.8-1C74.4,110.6,74.9,110.8,75.3,111"/>
	<path class="st5" d="M54.4,111.3c1.2-3.1,3.5-4.4,6-1.2c0.8,1,1.7,1.2,2.9,0.8c0,0.2-0.1,0.3-0.1,0.5c-0.7-0.1-1.5,0.1-2,0.6
		c-1.2-0.8-2.6-1.7-4-1.7c-1.1,0-2.1,0.6-2.9,1.3C54.4,111.5,54.4,111.4,54.4,111.3"/>
	<path class="st12" d="M14.7,132.9c2.2-0.1,4.4-0.7,6.6-1.1c1.2-0.2,1.5-1,1.6-2.1c0.1-1.3-0.6-2-1.5-2.7c-0.9-0.7-2.2-1.2-2.6-2.8
		c5.5,0.1,10.7-0.2,15.8-1.5c5.2-1.3,9.9-3.9,15.1-5.8c0.3,1.9,0.8,3.8,1.4,5.6c0,0.1-0.1,0.1-0.1,0.2c-1.2,1.7-3.8,2.6-5.7,3.3
		c-2.3,0.9-4.8,1.4-7.3,1.7c-2.8,0.4-5.7,0.6-8.6,0.7c1.3,0.5,2.6,1.1,3.8,1.7c0.4,0.2,0.8,0.4,1,0.9c0.3,0.7-0.3,1.5-0.9,2
		c-1.9,1.5-4.4,2.1-6.8,2.4c-5.2,0.7-10.5,0.7-15.8,0.3c-2.2-0.7-4-1.6-5.3-2.6C9,132.9,11.8,133.1,14.7,132.9"/>
	<path class="st11" d="M138.3,117c-0.2-0.2-0.4-0.5-0.6-0.8c2.4-2.3,1.8-5.3,1.3-8.3c16.8,2.8,33.5,3.1,50.5,0.7
		c-0.5,2-0.2,3.8,0.5,5.6c-0.5,0.5-0.9,1-1.3,1.5c-1,1.3-2,4.4-3.8,4.6c-1.4,0.2-2.3-1.5-2.7-2.9c-0.4,1.7-1.4,3.3-3,3.8
		c-1.6,0.5-3.7-0.9-3.4-2.6c0,1.7-1.9,3-3.6,2.6c-1.7-0.3-2.9-1.8-3.4-3.5c0.2,2.1-0.9,4.2-2.7,5.3c-2-0.6-3.4-2.6-3.4-4.7
		c-0.2,1.5-1.3,2.9-2.8,3.3c-1.5-0.6-2.7-2-3.1-3.6c-0.5,1.4-1.4,2.6-2.6,3.6c-1.1,0.9-2.5,1.5-3.9,1.2c-1.1-0.2-2.1-1.1-2.3-2.1
		c-0.2,0.8-0.9,1.5-1.7,1.7c-1.2,0.2-2.3-0.5-3-1.5c-0.7-1-1-2.1-1.3-3.3C140.7,118.3,139.2,117.9,138.3,117"/>
	<path class="st11" d="M247.1,150.2c0,0,0-0.1,0-0.1c2,2,4.7,3.3,7.4,3.7c4.2,0.5,8.7-1.1,11.5-4.3c2.6-2.9,3.7-6.8,6-9.9
		c-0.7,1.6-1.3,3.3-1.9,4.9c-1.2,3.1-2.6,6.1-5,8.5c-3.9,4.1-9.6,4.5-12.9,2.5c-1.6-1-3-2.2-4.4-3.4
		C247.4,151.6,247.2,150.8,247.1,150.2"/>
	<path class="st11" d="M280.1,116.1c-0.4-1.4-1.1-2.6-2.4-3.6c-2.4-1.9-5.9-2.2-8.5-0.6c-4.1-3-10.1-2.9-14.2,0.2
		c-1.9-1.8-4.5-2.7-7.1-2.5c-1.7,0.2-3.2,0.8-4.6,1.8c0-0.2,0-0.4,0-0.6c0-1.5,0.5-2.4,1.8-3.1c3.2-1.8,5.3-1.6,8.2,1.1
		c0.9,0.8,1.8,1.5,3,1.1c3-4.7,8.1-3.8,10.7-0.8c0.3,0.3,0.5,0.6,0.7,0.9c1.6,1.6,2.4,1.6,4.2,0.1c0.6-0.5,1.4-1,2.2-1.2
		c1.7-0.4,3,0.3,4,1.8C279.3,112.4,279.9,114.3,280.1,116.1"/>
	<path class="st13" d="M89.1,81.2c-2.2-1.2-4.1-2.4-6.2-3.2c-0.7-0.3-1.4-0.5-2.1-0.8c0.8-8.1,4.1-16,9.4-22.3
		c0.3-0.3,0.6-0.7,0.6-1.2c0-0.4-0.2-0.8-0.3-1.1c-0.3-0.5-1-1.8-1.7-3.4c0.5-0.2,1-0.3,1.5-0.5c1.3-0.4,1.2-1.2,2.7-1.2
		c1.4,0,1.4,0,2.6,0.2c0.5,0.1,2.4-0.4,2.9,0c-1,1.5-5.1,14.2-6.6,19C90.5,71.6,89.7,76.3,89.1,81.2"/>
	<path class="st13" d="M245.4,58c2.2,4.5,3.8,9.4,4.7,14.3c-4.1,0.2-7.6,2-11.2,4c-2.2-7.8-1.5-15.7-2.9-23.4
		c-0.2-1.2-0.2-2.5-0.3-3.8c0.9-0.5,1.7-0.9,2.6-1.2C241.5,51,244.1,55.4,245.4,58"/>
	<path class="st0" d="M2,129.6c-2,0.5-2.5,1.8-1.4,3.5c0.3,0.5,0.7,0.9,1.2,1.3c2.1,1.6,4.3,3,6.9,3.8c5.3,1.6,10.5,3,16.1,2.3
		c0.8-0.1,1.6,0,2.5,0c0.2,0.7,0.3,1.3,0.5,2c1.3,0.9,2.7,0.9,4.4,0.6c3.7-0.7,7.2-1.9,10.6-3.3c4.3-1.8,8.8-3.2,13.2-4.8
		c0.6,2.5,1.1,4.6,1.6,6.8c0.8,3.4,2.4,6.4,4.3,9.3c2.6,3.9,6.6,5.3,11,5.9c3.9,0.5,7.3-0.6,10.3-3.5c0.3,1.2,0.5,2.2,0.9,3.2
		c1.1,3.4,3.5,5.6,6.8,6.8c1.5,0.6,3.2,1.1,4.8,1.2c5.7,0.3,11.4,0.7,17,0.5c3.9-0.2,7.7-0.5,11.6-1.5c3.5-1,5.9-3,7.8-5.8
		c1.2-1.7,2.2-3.7,2.3-6c0.1-1.6,0.3-3.2,1.3-4.7c0.6-0.8,0.3-2.2,0.4-3.6c0.8,0,1.6,0,2.3,0c1.9-0.1,2.5-0.7,2.3-2.6
		c-0.1-1-0.5-2.1-0.7-3.2c1-0.5,2.1-1,3.3-1.6c2.2,1.1,4.6,1.6,6.9-0.7c2.4,1.8,4.9,1.5,7.5,0.2c3.3,2,6.7,3.3,10.4,0.7
		c3.3,2.3,6.7,3,10.1,0c2.9,2.8,6.1,3.6,9.6,1.2c1,0.8,1.9,1.6,2.8,2.4c0,0.3,0.1,0.5,0,0.7c-0.5,1.1-1,2.2,0,3.3
		c1,1,2.3,1.5,3.8,1.3c0.8-0.1,1.5-0.4,2.2-0.6c0.8,1,0.4,1.9,0.3,2.8c-0.2,1.8-0.4,3.7-0.4,5.5c0,1.5,0.7,2.7,2,3.7
		c4.7,3.5,10,5.2,15.6,6.2c3,0.5,6,1,9,1.1c5.1,0.2,10.1-0.7,15.1-1.8c3.1-0.7,6.2-3.1,8.5-6.1c1.3,0.9,2.6,1.9,4.1,2.6
		c4.7,2.2,9.3,1.7,13.7-0.9c2.8-1.6,4.7-4,6.3-6.8c1.8-3,2.6-6.3,3.8-9.5c2-5,4.3-9.8,6.4-14.8c0.9-2.1,1.5-4.2,2.1-6.4
		c1.1-4.1,0-8-2.2-11.5c-1.9-3-5.1-3.9-8.5-2.7c-0.7,0.3-1.4,0.6-2,0.9c-2.4-1.3-4.7-2.6-7.2-4c-0.3-0.9-0.7-2.1-1.2-3.5
		c0.5-0.1,0.9-0.2,1.3-0.3c1.6-0.5,2.4-1.9,1.7-3.4c-0.6-1.2-1.5-2.3-2.4-3.5c0.6-0.9,2.5-1,2.2-2.6c-0.2-1.2-0.5-2.4-0.8-3.9
		c0.3-0.3,0.9-0.8,1.3-1.5c1.3-1.8,2.2-3.7,1.8-6c-1.4-8.1-3.2-16.1-6.9-23.5c-2.7-5.5-6.8-9.4-12.9-10.6c-3.5-0.7-7-0.9-10.4,0.6
		c-0.3,0.1-0.6,0.2-0.8,0.2c-0.1,0-0.2,0-0.6-0.1c-0.3-2.4-0.5-4.9-0.8-7.4c-0.9-6.4-1.6-12.8-3.9-18.9c-1.4-3.7-2.9-7.3-5.8-10.4
		c0,0-0.1,0-0.1,0c0,0-0.1,0-0.1,0c0,0-0.1,0-0.1,0c0,0-0.1,0.1-0.1,0.1c0,0,0,0-0.1,0c-0.2,0.2-0.3,0.3-0.4,0.4
		c-0.1,0.2-0.2,0.4-0.3,0.6c-0.1,0.2-0.2,0.5-0.2,0.7c0,0.1,0,0.1,0,0.2c0,0,0,0,0,0c0,0,0,0.1,0,0.1c0,0.1,0,0.2,0,0.4
		c0,0.1,0,0.2,0,0.3c0.5,0.6,0.9,1.1,1.2,1.6c2.2,3.9,3.8,8.2,4.7,12.6c0.8,4.5,1.4,9.1,1.9,13.6c0.7,6.1,1.2,12.2,1.7,18.4
		c0.3,3.4,0.2,6.9,0.7,10.2c1.3,8.6,2.9,17.1,4.2,25.7c0.8,5,1.9,10,1.6,15.1c-0.1,1.1-0.1,2.2,0.1,3.2c0.6,3.6,0.4,7.2-0.3,10.6
		c-7.4,2.4-14.8,3.5-22.3,3.8c-5.6,0.2-11.2-0.2-16.7-0.5c-2.5-0.2-4.9-1.2-7.3-2.5c0.9-1.4,1.7-2.7,2.6-4c0.9,0.1,1.7,0,2.4,0.3
		c3,1,6.2,1.2,9.3,1c4.2-0.3,8.4-0.6,12.5-1.1c2.1-0.3,4.3-0.7,6.2-1.5c1.4-0.6,2.6-1.7,3.7-2.8c0.6-0.5,0.6-1.4-0.1-2.1
		c-0.2,0-0.4-0.1-0.6,0c-0.3,0.1-0.6,0.2-0.8,0.3c-4.2,3-9,3.6-13.9,3.7c-1.5,0-3-0.2-4.4,0.1c-4.3,0.8-8.4-0.1-12.5-1
		c-3.7-0.7-5.5-4.5-4.1-7.7c0.9-2,1-4,1-6c0.2-6.6,0.3-13.1,0.5-19.7c0-0.5,0-1,0.1-1.5c0.4-4.1,0.7-8.2,1.1-12.3
		c0.5-4.4,1-8.7,1.5-13.1c0.3-3.3,0.5-6.6,0.8-9.9c0.1-1.1,0-2.2-1-3.1c-0.6,0.3-1.3,0.6-1.8,0.9c-0.2,1.6-0.3,2.9-0.4,4.3
		c-0.4,3.9-0.9,7.8-1.3,11.6c-0.3,3-0.5,6-0.8,9.1c-0.2,2.2-0.3,4.5-0.6,6.7c-0.7,4.5-1,8.9-1.1,13.4c-0.1,5.1-0.3,10.2-0.5,15.3
		c0,0.3-0.2,0.5-0.3,1c-17.5,2.6-34.9,2.1-52.5-1.3c0.2-5.7,0.4-11.3,0.5-16.8c0.1-4.3,0-8.6,0-12.9c0.8-4.4,0.6-8.8,0.5-13.2
		c-0.1-5.1,0-10.2,0.3-15.3c0.1-1.9-2.9-2-3-0.1c-0.3,4.9-0.4,9.8-0.3,14.8c0.1,3.9,0.4,7.9-0.1,11.8c-0.1,0-0.2,0-0.2,0
		c0,0.2-0.1,0.5-0.1,0.7c0,0.4,0,0.8,0,1.2c0,0.2-0.1,0.3-0.1,0.5c-0.1,0.3-0.1,0.7,0.1,0.9c-0.2,8.6-0.4,17.2-0.7,25.8
		c-0.1,2.4,0.1,4.7,0.9,6.9c0.3,0.7,0.3,1.5,0.4,2.3c0.2,2.8-0.4,3.5-3,4.6c-6.4,2.6-12.9,2.7-19.6,1.5c-3.5-0.6-6.6-2.4-9.7-4.1
		c-1,0.2-2,0.5-2,1.8c0,1,0.8,1.5,1.6,2c0.4,0.3,0.9,0.5,1.3,0.7c3.3,1.7,6.8,3.1,10.5,3.3c4.7,0.2,9.4,0.9,14-0.7
		c1.7-0.6,3.5-1,5.2-1.4c0.6,2.2,1.3,4.1,0.9,6.3c-0.8,0.3-1.5,0.6-2.2,0.7c-2.3,0.3-4.6,0.6-7,0.8c-7.9,0.6-15.8,1-23.7-0.2
		c-4.4-0.6-8.4-2.2-12.2-4.4c0-1.7-0.1-3.3,0-4.8c0.2-2.8,0.7-5.6,0.9-8.4c0.6-8.7,1.3-17.3,1.8-26c0.2-3.6,0.7-7.1,1.4-10.5
		c0.1-0.2,0.2-0.3,0.3-0.6c0.3-1.3,3.7-15.7,3.7-15.7c4-16.6,7.8-34.7,20.7-46.8c1.4-1.3-0.6-3.5-2.1-2.2c-3.5,3.3-6.4,7-8.9,11.1
		c-4.6,7.6-7.4,16.2-9.7,24.8c-0.3,1.1-0.6,2.4-1,3.8c-2.1-0.1-4.1-0.1-6.2,0.1c-0.9,0.1-1.8,0.2-2.7,0.3c0,0,0,0,0,0
		c-0.1,0-0.1,0-0.2,0.1c-0.1,0-0.3,0-0.4,0c-0.9,0.1-1.7,0.3-2.4,0.8c-2.9,0.9-5.6,2.1-7.6,4.6c-1.6,2-3.1,4.1-4.2,6.3
		c-2,4.1-3.6,8.4-5.3,12.7c-0.6,1.5-1.1,3.2-1.8,4.6c-2.3,4.6-1.2,8.7,4,11.5c-0.7,0.6-1.4,1.2-2,1.8c-0.4,0.4-1,0.7-1.3,1.2
		c-1.4,1.8-0.9,3.8,1.1,4.9c0.7,0.4,1.5,0.8,2.4,1.2c-3.4,2.9-3.4,2.9-2,6.2c-3.2,0.4-6.2,1.1-7.7,4.2c-0.2,0-0.3,0-0.4,0
		c-4.1-1.7-7.3-0.6-8.9,3.7c-1,2.8-2.8,4.2-5.4,5.2c-5.2,1.8-10.3,4.4-15.9,5.1c-3.5,0.4-7,0.6-10.5,0.9c-1.1,0.1-2.2,0-3.2,0.2
		c-2.4,0.6-3.1,2.5-1.6,4.5c0.9,1.2,2.1,2.3,3.3,3.5c-4.5,0.9-8.9,0.9-13.3,0.3C3.9,129.4,2.9,129.4,2,129.6 M241.7,93.5
		c-0.6-3.8-1.4-7.7-2.1-11.7c5-5.6,11.2-7.7,16.7-5.9c0.2,1.6,0.6,3.2,0.7,4.9c0.2,3.1,1.2,5.9,4,7.8c-0.6,0.3-1.1,0.5-1.5,0.7
		c-2.2,0.9-2.5,1.8-1.2,3.7c0.6,1,1.4,1.8,2.2,2.8c-0.4,0.3-0.8,0.5-1.1,0.7c-1.6,1.1-1.7,1.1-1.3,3.1c0.3,1.4,0.8,2.8,1.2,4.3
		c-1.4,0.7-2.8,1.4-4.2,2.1c-3.7-2.8-7.5-3.1-11.8-0.6C242.8,101.1,242.3,97.3,241.7,93.5 M262.7,72.7c0.2,0.6,0,1.2,0,2.3
		c-3.9-2.7-8-2.7-12.1-2.7c-4.3,0-8,2-11.7,4.1c-2.2-7.8-1.5-15.7-2.9-23.4c-0.2-1.2-0.2-2.5-0.3-3.8c6.2-3.4,12.1-2.8,17.2,1.3
		c2.1,1.7,3.4,4,4.6,6.4C259.9,61.9,261.3,67.3,262.7,72.7 M260.1,77.1c4,2.2,4.3,3.9,1.2,6.8C260.6,81.7,260,79.5,260.1,77.1
		 M244.4,142.2c-0.1-0.2-0.1-0.5-0.1-1c0.7,0,1.2,0,1.8,0c0.6,0,1.2,0.1,1.8,0c1.7-0.2,2.6-1.7,1.7-3.2c-0.6-1.1-1.5-2-2.4-2.9
		c-2.7-2.8-4-6.4-5.6-10c1.8-1.3,2-3,1.9-5c-0.1-3.1,0-6.3-0.1-9.4c0-1.5,0.5-2.4,1.8-3.1c3.2-1.8,5.3-1.6,8.2,1.1
		c0.9,0.8,1.8,1.5,3,1.1c3-4.7,8.1-3.8,10.7-0.8c0.3,0.3,0.5,0.6,0.7,0.9c1.6,1.6,2.4,1.6,4.2,0.1c0.6-0.5,1.4-1,2.2-1.2
		c1.7-0.4,3,0.3,4,1.8c2.5,4,2.3,8.2,0.7,12.4c-1.2,3.2-2.7,6.3-4.1,9.4c-1.7,4-3.3,7.9-4.8,11.9c-1.2,3.1-2.6,6.1-5,8.5
		c-3.9,4.1-9.6,4.5-12.9,2.5c-1.6-1-3-2.2-4.4-3.4c-0.4-0.4-0.6-1.2-0.8-1.8C246.6,147.4,245.9,144.6,244.4,142.2 M200.1,152.6
		c-0.1-1.5-0.4-3.1,0.3-4.5c3.2-0.7,3.2-0.7,6.8-3.4c4.6,3.2,6.6,3.4,9.6,0.8c1.6,1,3.1,2.1,5.1,2.1c2.2,0,3.2-2,4.8-3.1
		c0.5,0.3,0.9,0.6,1.3,0.8c1.1,0.5,2.3,1.2,3.5,1.5c2,0.6,2.9,0.1,3.7-1.8c0.3-0.6,0.5-1.2,0.7-1.8c2.2,0.6,4.2,1.2,6.5,1.9
		c1.1,2.1,1.3,4.7,1.2,7.4c-0.1,3.5-2.7,5.9-6.5,6c-0.1-3.1-0.3-6.2-2.3-9.1c-0.8,0.4-1.6,0.8-2.3,1.1c0.6,3.2,1.5,6.1,1,9.3
		c-3.9,0.1-7.6,1.2-11.6,0.4c0-3.1,0.9-6.3-1.5-9c-0.8,0.4-1.4,0.8-2.1,1.2c0.3,2.5,1.1,4.9-0.1,7.5c-2.2-0.4-4.4-0.7-6.6-1.2
		c-3.3-0.8-6.5-2.2-9.5-3.8C201.1,154.4,200.2,153.8,200.1,152.6 M197.1,140.2c-0.7,0.2-1.4,0.5-2.3,0.8c0.6-2.1,1.3-4,1.7-5.9
		c0.4-2.1,0.5-4.2,0.7-6c4.9,0.1,9.5,0.4,14.1,0.4c4.7,0,9.4-0.1,14.1-0.7c4.5-0.6,8.9-1.7,13.2-2.6c0.9,2.1,1.6,4.1,2.5,6.1
		c0.9,1.9,2.2,3.6,3.3,5.5c-0.5,0-0.9-0.1-1.2,0c-0.9,0.3-1.9,0.5-2.7,1c-1,0.6,0,1.6-0.1,2.5c0,0.1-0.2,0.3-0.4,0.5
		c-1.6-0.9-3.3-1.7-4.8-2.5c-3,0.1-2.7,2.6-3.3,4.5c-2.6-0.1-3.7-2.5-5.5-3.6c-2.1,0.8-2.1,0.8-3,2.2c-0.2,0.3-0.4,0.7-0.6,1
		c-1.1,1.4-2.4,1.4-3.4,0c-0.3-0.5-0.6-1-0.8-1.5c-0.8-1.8-2.5-1.3-3.4-0.4c-0.4,0.4-0.6,1-1,1.5c-1.2,1.8-2.6,1.9-3.9,0
		c-0.6-0.9-1.1-1.8-1.7-3c-1.1,0.4-2.1,0.6-3,1.1c-0.8,0.5-1.4,1.4-2.1,2c-0.8,0.8-1.6,1.6-3,1.6c-0.2-1-0.4-1.8-0.7-2.6
		C199.5,140,198.9,139.6,197.1,140.2 M69.7,91.5c5.1-2.7,5-7.7,5.9-12.3c5.1,0.5,9.2,2.8,13.2,5.7c0.1,6.8-1.1,13.4-1.4,20.3
		c-3.9-1.4-7.6-1.3-10.8,0.6c-2.8-1.5-3.3-4.2-5-6.2c0.8-0.6,1.4-1,2-1.5c0.7-0.7,1.4-1.4,1.9-2.2c1-1.8,0.3-3-1.8-3.1
		C72.4,92.7,71.1,92.9,69.7,91.5 M69,81.2c1-1.1,2.1-2,3.9-1.6c-0.5,1.5-0.9,2.9-1.3,4.4C70.3,83.2,69.2,82.6,69,81.2 M91.9,66.9
		c-1.4,4.6-2.2,9.4-2.8,14.3c-2.2-1.2-4.1-2.4-6.2-3.2c-2.1-0.8-4.3-1.5-6.4-1.8c-2.1-0.3-4.3-0.1-6.6-0.1c0.5-1.5,0.9-2.8,1.4-4
		c2.3-5.8,4.2-11.8,7.9-17c1.3-1.8,2.8-3.3,4.8-4.1c1.6-0.7,3.2-1.2,4.9-1.7c0,0,0.1,0,0.1,0c0.9-0.1,1.8-0.2,2.7-0.3
		c1.6-0.1,3.3-0.1,4.9,0C94.6,56.7,92.1,66.2,91.9,66.9 M137.6,134.4c-1.1-2.2-1.9-4.2-1.8-6.4c3.3-2.1,3.6-2.8,2.6-6.4
		c-0.4-1.6-0.9-3.2-1.4-4.9c3.1-2.3,2.4-5.6,1.9-8.8c16.8,2.8,33.5,3.1,50.5,0.7c-0.7,2.6,0.1,5,1.2,7.3c0.2,0.4,0.5,0.8,0.8,1.3
		c0.6,0.9,0.4,1.7-0.2,2.4c-0.3,0.4-0.7,0.7-1,1.1c-1.5,1.8-1.4,3.6,0.5,5.1c0.8,0.7,1.8,1.1,2.9,1.8c-0.2,3.1-0.2,6.3-1.6,9.6
		c-0.8-1.1-1.5-2-2.1-2.8c-0.9-1.1-1.5-1.3-2.8-0.7c-0.5,0.3-1,0.6-1.4,1c-2.2,1.6-3.2,1.5-4.8-0.7c-0.6-0.8-1.1-1.6-1.6-2.2
		c-1.7-0.1-2.5,0.8-3.3,1.8c-1.9,2.3-3.9,2.1-5.8-0.3c-0.5-0.6-0.8-1.3-1.2-1.8c-1.5,0-2.3,0.5-3,1.7c-1.1,1.8-2.1,2-3.9,1.1
		c-0.8-0.4-1.4-1-2.1-1.6c-0.6-0.5-1.1-1.1-1.8-1.8c-1,0.6-1.9,1.1-2.7,1.8c-1.6,1.2-2.1,1.2-3.4-0.4c-0.5-0.6-0.9-1.2-1.3-1.6
		c-2.5-0.2-2.9,1.9-4.4,3c-0.6-0.5-1.1-0.9-1.6-1.4c-1.5-1.5-3-1.6-4,0.2C140,133.9,138.9,134.1,137.6,134.4 M93.6,160.4
		c-4-0.3-7.1-3.9-6.5-7.9c0.3-2,1-4,1.5-5.9c0.1-0.4,0.6-0.8,1.1-1.4c0.3,2.4,1.3,3.9,3.4,4.3c1.9,0.3,3.7,0.1,5.2-1.2
		c3.4,3.5,4.8,3.4,9.6-0.4c1.7,1.5,3.2,3.3,5.9,3.4c2.9,0.1,4.5-1.2,5.9-3.5c0.8,0.6,1.3,1.1,2,1.5c0.7,0.4,1.4,0.8,2.1,1.1
		c2.2,0.7,3.3,0.2,4.3-1.8c0.2-0.5,0.4-1,0.7-1.6c0.9,0.6,1.6,1,2.3,1.4c0.5,4.9-2,9.8-6.1,11.5c-3.9,1.6-8.1,2-12.2,1.8
		c-1.1-3.4,0.6-6.6,0.2-9.8c-2.5,0.5-3.2,1.3-3.5,3.5c-0.3,2.1-0.3,4.2-0.5,6.4c-1.8,0-3.6,0-5.5,0c-1.9,0-3.8-0.1-5.8-0.2
		c-0.3-2.6,0.1-4.8,0.8-6.9c0.4-1.1,0.8-2.2,0.1-3.4c-1.6-0.5-2.6,0.3-3,1.6C94.9,155.4,94.3,157.9,93.6,160.4 M87.6,139.2
		c0.8-1.4,1.3-2.8,0.2-4.4c-0.8-0.1-1.7-0.2-2.6-0.3c1.7-3.1,3.3-6.1,4.9-9.1c0.5,0.2,1,0.4,1.4,0.6c5.5,2.7,11.5,3.8,17.6,3.9
		c7.5,0.1,15-0.2,22.5-1.1c0.3,0,0.5,0.1,1.2,0.3c-0.2,4,2.3,7.2,4.1,10.9c-1.9-0.4-3.6-1.3-5.1,0.5c0,0.6-0.1,1.4,0,2.2
		c0.1,0.7,0.3,1.5,0.7,2.8c-1.7-1.6-3-2.7-4.2-3.7c-1.9,0.2-2.8,1.1-2.9,2.9c0,0.9,0.1,1.8-1.2,2.4c-0.9-0.8-1.8-1.6-2.7-2.5
		c-1.4-1.5-2.9-1.5-4.1,0.1c-0.4,0.5-0.6,1-0.9,1.5c-1.6,2.4-2.9,2.5-4.9,0.5c-0.5-0.5-0.8-1.1-1.2-1.6c-0.5-0.7-1-1.4-1.5-2
		c-1.7,0.3-3.1,0.8-4,2.4c-0.4,0.8-1.1,1.7-2.2,1.8c-1-0.7-0.7-1.8-0.9-2.7c-0.5-2-1.7-2.5-3.5-1.5c-0.8,0.5-1.4,1.3-2.1,2
		c-0.5,0.5-1,1.1-1.6,1.7c-2-1.9-1.1-4.8-2.8-6.2c-2.7-0.3-3.6,2.5-6.1,2.9C86.4,141.7,87,140.4,87.6,139.2 M56.7,127.4
		c-1-2.1-1.7-4.4-2.5-6.6c-1.1-3.2-1-6.3,0.2-9.4c1.2-3.1,3.5-4.4,6-1.2c0.8,1,1.7,1.2,2.9,0.8c0.2-2.4,0.5-5,3.4-5.5
		c2.9-0.6,5.7-0.1,7.3,2.7c-0.2,0.7-0.4,1.4-0.6,2.2c0.9,0.4,1.7,0.7,2.4,0.9c1.9-1.3,2.7-3.4,5-3.8c2.3-0.4,4.2,0.1,6.1,1.6
		c0,0.9,0.1,1.6,0,2.3c-0.5,3.9-0.8,7.8-0.3,11.7c0.1,0.9-0.3,1.9-0.7,2.7c-1.6,3-3.3,5.9-5.3,9.4c-0.3-1.7-0.5-2.7-0.6-3.7
		c-0.4-6.4-6.4-8.4-11.1-7.1c-2.5,0.7-4.1,2.6-4.4,5.3c-0.4,5.4,0.7,10.5,2.2,15.6c0.3,1.2,1,1.9,2.1,2.2c1.1,0.4,2.3,0.6,3.4,0.8
		c2.6,0.5,6.8-1.5,7.6-5.1c0.3-1.3,0.4-2.7,0.5-4.1c0.1-1.2,0-2.3,0-3.4c1.3,0.9,2.4,1.7,3.7,2.6c-0.8,1.8-1.7,3.7-2.5,5.6
		c-0.8,1.9-0.6,2.3,1.2,3.5c0.2,0.1,0.3,0.4,0.6,0.7c-1.7,1.4-2.5,3.4-4.5,4.6c-3.4,2.1-11.1,0.8-13.8-3.2c-1.8-2.6-3.3-5.3-4-8.4
		C60.1,136.3,58.8,131.7,56.7,127.4 M31,135.9c-9,3.3-20.6,0.4-25.4-3c3.4,0,6.2,0.1,9.1,0c2.2-0.1,4.4-0.7,6.6-1.1
		c1.2-0.2,1.5-1,1.6-2.1c0.1-1.3-0.6-2-1.5-2.7c-0.9-0.7-2.2-1.2-2.6-2.8c5.5,0.1,10.7-0.2,15.8-1.5c5.2-1.3,10-3.9,15.1-5.8
		c0.9,5.6,3.5,10.4,5.3,15.5c-7.6,2.4-15,4.8-22.6,7.2C31.9,138.1,31.5,137,31,135.9"/>
	<path class="st0" d="M144.9,43.6c0.1-1.9,3.1-1.8,3,0.1c-0.1,2.9,0.3,5.9,1.4,8.6c0.5,1.4,1.2,2.7,2,3.9c0.5,0.7,1.2,2.1,2.1,2.5
		c0,0,0.1-0.1,0.1-0.1c0.1,0.1,0.2,0.2,0.4,0.2c0,0,0.1,0,0.1,0c0.5,0,1,0.4,1.3,0.8c3.1,1.7,6.4,2,9.9,0.5
		c6-2.4,10.7-6.4,14.1-11.8c1-1.6,1.5-3.5,2-5.6c0-0.2,0-0.3,0-0.5c0.7-3.6,0.7-7.4-0.1-11.1c-0.4-1.9,2.5-2.6,2.9-0.7
		c0.5,2.6,0.8,5.1,0.6,7.7c0.1-0.2,0.3-0.4,0.5-0.6c-0.1,8.2-3.7,14.7-9.9,19.9c-2.2,1.9-4.8,3.4-7.4,4.8
		c-5.3,2.7-10.7,2.9-15.8-0.7c-0.2-0.1-0.3-0.2-0.5-0.3c0-0.1,0.1-0.1,0.1-0.2c-0.9-0.6-1.6-1.4-2.2-2.2c-1.1-1.5-2-3.1-2.8-4.7
		C145.4,50.8,144.7,47.2,144.9,43.6"/>
	<path class="st0" d="M252.4,142c0-0.2,0,0.2,0,0.6c0,4.3,3.4,6.9,7.7,5.9c2.8-0.7,4.8-2.2,6-5c1.3-3.2,2.9-6.2,3.5-9.6
		c0.1-0.8,0.3-1.5,0.3-2.3c0.2-3.2-1.7-5.5-4.8-5.7c-1.1-0.1-2.2-0.1-3.2,0c-2.4,0.3-4.4,1.4-5.9,3.4
		C253.3,132.9,252.3,137,252.4,142"/>
	<path class="st0" d="M276.6,114.8c-3.2-0.2-4.9,1.2-4.8,3.9c0.1,1.8,1.1,2.9,2.9,3c1.4,0.1,2.4-0.7,2.9-2.3
		C277.9,118,277.6,116.4,276.6,114.8"/>
	<path class="st0" d="M266,114.4c0-2-1.3-3.5-2.9-3.4c-1.9,0.1-3.6,1.7-3.5,3.3c0.1,1.9,1.8,3.3,3.8,3.3
		C265,117.6,266,116.3,266,114.4"/>
	<path class="st0" d="M252.5,115c0-1.9-0.9-3.1-2.3-3.1c-1.6-0.1-3.6,1.6-3.7,3.1c-0.1,1.8,1.7,3.3,3.8,3.2
		C251.6,118.1,252.5,117,252.5,115"/>
	<path class="st0" d="M81.7,113.5c-1.9,0-4.1,1.9-4.1,3.5c0.1,1.4,2,2.7,4,2.8c1.6,0,2.5-1,2.5-2.9
		C84.1,114.8,83.2,113.5,81.7,113.5"/>
	<path class="st0" d="M69.2,112.3c-1.9,0.1-3.5,1.6-3.4,3.2c0,1.7,1.7,2.8,4.1,2.7c1.6-0.1,2-0.8,2-2.9
		C71.7,113.2,70.9,112.2,69.2,112.3"/>
	<path class="st0" d="M57.2,118.1c0.2,1.8,1.3,2.9,3.1,3.4c0.4,0.1,1,0.1,1.4-0.1c1.2-0.5,1.6-2.3,0.9-3.9c-0.5-1.3-1.7-1.9-3-1.4
		C58.5,116.5,57.5,116.9,57.2,118.1"/>
	<path class="st3" d="M85.6,143.3c0.8-1.5,1.4-2.8,2-4.1c0.8-1.4,1.3-2.8,0.2-4.4c-0.8-0.1-1.7-0.2-2.6-0.3c1.7-3.1,3.3-6.1,4.9-9.1
		c0.5,0.2,1,0.4,1.4,0.6c2.9,1.4,5.8,2.4,8.9,3c-0.6,1.2-1.3,2.5-1.9,3.7c-0.8,1.6-1.6,3.2-2.1,4.9c-0.6,2.4-0.4,4.9-0.4,7.4
		c-0.5,0.5-0.9,1-1.4,1.6c-2-1.9-1.1-4.8-2.8-6.2C89,140,88.2,142.8,85.6,143.3"/>
</g>
</svg>
