<svg xmlns="http://www.w3.org/2000/svg" xmlns:xlink="http://www.w3.org/1999/xlink" viewBox="0 0 157.8 175.2" xmlns:v="https://vecta.io/nano"><style><![CDATA[.X{fill:#404140}.Y{fill:#909190}.Z{fill:#fcfcfc}.a{fill:#dad7d0}]]></style><path d="M51.8 43.5l-2.3-10.1 6.3-14.5 7.5-8.5 9.1-3 5.1 2.6 4.5 7.2 5.4 2.3-29.1 24.1zm58.6 6.2l-1.5-8.1L113 30l4.9-6.8 5.9-2.4 3.4 2.1 2.9 5.7 3.5 1.9-18.9 19.2z" fill="#703930"/><g fill="#fff"><path d="M68.2 46.8l-1.9-1.5-1.6-2.1-.3-3.8.6-3.4 1.9-3 2.5-2.2 2.2-1.7 1.5-.5h2.2l2.5.6 3 1 1.1 1.8 1 2.4c-5.2.6-8.9 6-14.7 12.4zM95 52.6l-2.6-2.3-1.1-4.5 1.1-6.5 2.9-3.7 2.2-.9 3.1.2 3.4.9 2 1.9 2.6 3.4c-2.9 3.7-7.8 7.3-13.3 11.3l-.3.2z"/><path d="M64.9 18l5.5-.3 6.5 1 5.3 1.6 3.4 1.9.5 1.1-.4 5.2-.6 2.6h-1.2l-4.7-2-6-1.2-11.3-1.4-4.3-.7 5.8-3.2 1-.4.8-.2.8-.5zm28.9 16.1l6.2.8 5 1.2 4 1.1 5 2.9 6.5 5.8-.8-6.1.1-.7 1.4.2 4 .3-.9-1.9-3.3-3.2-3.7-2.9-5.8-2.8-6.2-1.8-3.9-.2-4.3.6z"/></g><use xlink:href="#B" fill="#8f908f"/><use xlink:href="#C" class="Z"/><use xlink:href="#D" fill="#418091"/><use xlink:href="#E" fill="#b05256"/><use xlink:href="#F" fill="#418090"/><use xlink:href="#G" fill="#6f3933"/><use xlink:href="#H" class="a"/><use xlink:href="#I" class="Y"/><use xlink:href="#J" class="a"/><use xlink:href="#K" class="Y"/><use xlink:href="#L" fill="#90908f"/><g class="X"><use xlink:href="#M"/><use xlink:href="#N"/></g><use xlink:href="#O" fill="#659d52"/><use xlink:href="#P" class="X"/><use xlink:href="#Q" fill="#659d52"/><use xlink:href="#R" class="Y"/><use xlink:href="#S" class="X"/><use xlink:href="#T" class="Y"/><use xlink:href="#U" class="X"/><use xlink:href="#V" fill="#90918f"/><path d="M54.2 62.6c.7 0 1.3.3 1.7-.3.7-.8 1.3-1.7 1-2.9l-1-.6c-1 .8-1 .8-1.7 3.8z" class="Z"/><g fill="#fff"><use xlink:href="#W"/><use xlink:href="#X"/></g><use xlink:href="#B" fill="#8f908f"/><use xlink:href="#C" class="Z"/><use xlink:href="#D" fill="#418091"/><use xlink:href="#E" fill="#b05256"/><use xlink:href="#F" fill="#418090"/><use xlink:href="#G" fill="#6f3933"/><use xlink:href="#H" class="a"/><use xlink:href="#I" class="Y"/><use xlink:href="#J" class="a"/><use xlink:href="#K" class="Y"/><use xlink:href="#L" fill="#90908f"/><g class="X"><use xlink:href="#M"/><use xlink:href="#N"/></g><use xlink:href="#O" fill="#d99528"/><use xlink:href="#P" class="X"/><use xlink:href="#Q" fill="#d99528"/><use xlink:href="#R" class="Y"/><use xlink:href="#S" class="X"/><use xlink:href="#T" class="Y"/><use xlink:href="#U" class="X"/><use xlink:href="#V" fill="#90918f"/><path d="M54.2 62.6c.7 0 1.3.3 1.7-.3.7-.8 1.3-1.7 1-2.9l-1-.6c-1 .8-1 .8-1.7 3.8z" class="Z"/><g fill="#fff"><use xlink:href="#W"/><use xlink:href="#X"/></g><path d="M62.6 152.5c.8-.3 1.6-.5 2.4-.7.3 1 .6 1.9.4 3-.4.1-.7.3-1 .3l-3.3.4c-.4 0-.8.1-1.2.1 0-.9-.3-1.8-.8-2.6 1.2 0 2.4-.1 3.5-.5zm3.1-22.7c-.1.4-.1.6-.1.8l-.3 13.3c0 1.1 0 2.2.4 3.2.1.3.2.7.2 1.1.1 1.3-.2 1.6-1.4 2.1-.9.4-1.8.6-2.8.8a3.04 3.04 0 0 0 .5-.7c.7-1.3.8-2.7.9-4.2l.5-9.1c-3.7-.9-7.3-2.7-9.9-5.6-2-2.2-3.3-5.2-3.4-8.1.9 1.4 1.8 2.7 3.1 3.7 2.1 1.5 4.3 2.5 6.9 2.6 1.8.1 3.5.1 5.4.1z" fill="#2b545e"/><g class="Y"><use xlink:href="#R"/><use xlink:href="#T"/></g><use xlink:href="#V" fill="#414140"/><g class="X"><use xlink:href="#W"/><use xlink:href="#X"/></g><path d="M114.4 24.2c.8 1.8 5.1 4.6 5.3 8.6l4.9 5.6.4 1.3-2.9-.2s.4 9.7-1 12.9c-.8-2.7-2.7-4.5-2.7-4.5S121 55 120.1 63c-2.3-5.7-6.1-8.8-7.2-9.3 1.8 4.8 6 13.8 3.9 19.4-2.9-5.9-7-10.1-10.7-12.2 3.7 5.8 6.9 11 6.1 16.9-4.8-7.3-8.4-8.8-10.5-9.6 3.7 4.8 5.4 7.1 4.7 11.5.3.8 1 2.3 1 2.3l.8.7-2.7.4-.6 1.3 1.4 3.4.4 6.3-.8 5s4.3.8 9.1-7l.5-.5s0 .2 1.7 1.8c.6.6 2 0 1.2-1.7s-1-7-.5-8.6c1.9 1.6 4.2 3.3 4.2 3.3s.1-1.1-.5-3.3-.7-3.6-.7-3.6l4.2 2.7.8-1s-.6 3.5-1.2-3.2c-.6-6.6-.3-4.2-.3-4.2l-.1-2.1-2.1-4.5s.5-9.2 1.3-13.3c.9-4.1 3.9-13.9 3.7-15.9-.2-1.9-1.7-6-3.8-8.4s-6.1-5-9-5.4z" fill="#696969"/><path d="M118.5 26.2l-1.6-1s1.4-3.9 3.9-4.7c2.4-.8 6 1.1 9.7 2.7 3.6 1.6 16.9 5.6 18.8 8s1.8 9.2-.5 14.7-4.7 4.8-6 9.7c-.5-.2-1.4-1.7-1.4-3.3s-.4-2-.4-2-.9 1-2.1 3.4c-1.3 2.4-3.3 6.4-3.7 9.9-.8-.7-.8-1.8-.8-1.8s-1-.2-1.6 3c-.3 1.7.2 3.8.2 3.8s-.8-.8-1.3-1.8c-.5-1.1-1-.9-1-.9s.1 2.3-.5 5.2c-.7 2.9-1.8 5.5.1 7.3-4.6-4.3-8.7-7.9-7.9-14.9.7-6.9 2.3-14.9 4.1-22.4 1.8-7.6 2.7-12.1-.7-14.8-1.2-1.4-4.9-4.1-7.3-.1z" class="X"/><path d="M71.1 83.4v-.2c12.5-.5 15.7-2.7 17.4-3.8 1.5.6 3.2 1 5 1.2-2.1 1-4.3 1.6-6.5 2.3-2.1.7-4.3.9-6.5 1.1-1.8.1-3.7.2-5.5-.1-1-.2-2.1-.4-3.1-.5-.2-.1-.5-.1-.8 0zm-24.7-13c1.2 7 9.1 10.2 14.4 12.5l12.9 5.8c-1.5-.2-2.7-.3-3.9-.5-2.8-.5-5.7-.8-8.5-1.6-3.5-1-6.9-2.1-10-4.1-1.2-.8-2.5-1.6-3.4-2.8-.5-.6-.9-1.2-1.4-1.8-.3-.4-.5-.8-.5-1.4v-4.8c0-.3 0-.6.1-.8s.2-.3.3-.5zM27.3 86.8c-.1 0-.2-.1-.4-.1.3-.5.7-.9.9-1.4l.3-.6c2.5-.8 6.5-1.6 10.7-5 4.4-3.5 4.5-9 4.5-10.5.3.3.5.6.7.9.3.4.5.9.4 1.4-.1 1.2-.1 2.4-.2 3.6 0 .6 0 1.2-.4 1.7-.2.3-.3.7-.5 1-.7 1.5-1.6 2.9-2.9 3.9s-2.6 2-4.2 2.6c-1.7.7-3.4 1.3-5.2 1.8-1.1.3-2.4.5-3.7.7zm-6.1 12.3c-.2-.3-.3-.5-.3-.6-1-2.5-1.4-5.1-1.8-7.7l2.2 4.4 1.2-2.6c.5-1.2 1.3-2.6 2-3.8h.3c.8 0 1.6-.1 2.5-.2.5 0 1.1-.1 1.9-.1-3.7 3-6 6.6-8 10.6zm81.9-.9c.3-1 1.3-4.3 1.1-8l-.5-7.5.2.1c-.2.2-.2.4-.1.8l1 3.1c.2.7.5 1.3.5 2 .2 1.6.2 3.3.3 4.9.2 3-.9 5.7-1.6 8.5-.3-.7-.4-1.4-.6-2.1 0-.6-.1-1.2-.3-1.8zm-8.5-16.5c.3-.2.5-.5.6-.8 1.5 2.3 2.1 8.7 2.2 11.2-.3.2-.6.4-1.1.8-.4-3.7-1.4-7.1-3.4-10.2.7-.4 1.3-.6 1.7-1z" fill="#ccd2d0"/><path d="M42.1 112.1c-.6.4-1.1.8-1.9.4v-.8s3.1-3.5 4.4-3.2c1.3.4 1.4 4.7 2.3 6.4.5.9 1.1 2.4 2.1 3.3v1.9c-1.4-.6-3.3-2.6-3.9-4l-1.4-3.2c.2-.4.4-.8.5-1.3.1-.2-.1-.5-.2-.9l-1.9 1.4zm9.6-7.6l-.7 1.6c-2.6-1.5-4.4-3.7-6-9-1.5-4.9-2.1-11.5-2.3-15.4.8-.8 1.5-1.7 2-2.8.2.9.3 1.8.4 2.6.1.6 0 1.3.1 1.9l1 7.8c.3 2.8.9 5.5 1.8 8.2.6 2 1.7 3.9 3.7 5.1zm36 4.1c1.9-3.4 2.5-2.7 2.8-2.3-.1.2-.2.3-.2.5-.6 2-1.6 3.7-2.7 5.4-1.7 2.8-3.8 5.2-6.7 7-.4.2-.7.6-1.1.8-.2.1-.4.2-.7.4-.2-.5-.2-1-.3-1.5 3.1-1.7 7-6.9 8.9-10.3zM95 93.4c-1.1-4.2-2.8-6.1-5.4-7.5-.2-.3-.4-.6-.7-.9-.2-.2-.4-.5-.6-.8l2.9-1c1.9 1.3 2.1 3.5 2.8 5.3.6 1.6 1.1 3.2 1 4.9zm-1.4 14.9c-.1-.2-.2-.5-.4-.7.6-1.2 1.5-3.2 2.3-5.9s.9-4.9.9-6.2l1.8-1.7.9.9c-.8 5.1-3.5 9.4-4.9 14.3-.3-.3-.5-.5-.6-.7z" fill="#b0ab9b"/><path d="M54.2 62.6c.4.3 1.2.3 1.7-.3.7-.8 1.3-1.7 1-2.9-.2-.5-.6-.7-1-.6-1.4.6-2 2.4-1.7 3.8z" class="Z"/><path d="M70.8 139.6c5.4 4.2 12.3 6.5 19.2 6.4-7.7 1-15.5.7-23.2-.8l.2-7.9v-7.8c2.4-1.1 4.4-2.5 6-4.5.2.1.4.2.5.3 2.4 1.7 4.9 1.6 7.4.3 1.2-.6 2.4-1.4 3.5-2.2 3-2.5 4.7-5.7 4.6-9.7 0-.5.2-1 .4-1.4.7-1.4 1.5-2.8 2.3-4.3.3.5.6 1 .9 1.4 1.1 1.4 2.8 1.1 3.5-.4.1-.1.1-.3.2-.4l3.1-8.1c.4-1.1.7-2.2 1.1-3.2.1-.2.2-.3.4-.8.4 1.1.8 1.9 1 2.8.7 2.4.8 5 .9 7.5 0 1.3.3 1.5 1.7 1.4l2.2-6.9c.4.5.8.8 1 1.3 1 1.8 1.8 3.8 2.2 5.9a65.72 65.72 0 0 1 .9 6.4l.8 8.6c.1 1.6.1 3.2.3 4.8.6 4 1.3 8 2 12 .4 2.3.9 4.7.7 7.1 0 .5 0 1 .1 1.5.3 1.7.2 3.4-.2 5-3.4 1.1-6.9 1.6-10.4 1.8-2.6.1-5.2-.1-7.8-.2-1.2-.1-2.3-.6-3.4-1.2l1.2-1.8c.2.1.4.1.6.2 3.8 1.4 7.9 2 11.9 1.5 2-.2 4-.7 5.3-2.2.8-.9 1.2-2 1.4-3.1.7-3.8-.6-7.7-1.6-11.5-2-7.2-2.9-14.7-2.8-22.2 0-2.3.2-4.9-.8-7.1-.2-.4-.5-1.2-.9-1.5-.7-.4-.5-.2-1 .4-.6.8-1.3 2-2.5 1.6-.4-.1-.8-.5-1.1-.8a40.31 40.31 0 0 1-2.6-3.2c-.3 2-.9 4-1.9 5.8-.7 1.3-1.6 2.5-2.9 3.1s-3 .5-3.9-.7c-.6 3-1.2 6-2.5 8.7s-3.3 5.2-6.1 6.5c-2.9 1.3-6.3 1.1-9.1-.4 0 2.3-2.4 4-4.7 4.4-.5.1-1 .2-1.3.6-.2.3-.3.6-.3.9-.4 2.4 1.5 4.6 3.5 6.1z" fill="#2b545e"/><path d="M94.2 159.7c.2-1 .2-2 .3-2.8l4.9.2-1.1 2.9c-.3.7-.5 1.5-.2 2.1a1.38 1.38 0 0 0 .3.4c-.3.2-.6.6-.9.9-.4.4-.8.8-1.4.7l-.3-1.2c-.2-.9-.5-1-1.4-.8-.3.1-.7.2-1.1.4.4-.9.7-1.8.9-2.8z" class="Y"/><g class="X"><path d="M32.8 165.6c.9.9 1.9 1.7 3.2 1.9 1.1.1 2.2-.4 3.1-1.1.5-.4.9-.9 1.3-1.4.1.1.3.3.6.5l.3.3c-.8.6-1.2 1.6-2.1 2.1-1.6 1-5.2.4-6.5-1.5-.7-1-1.3-2.1-1.7-3.2.5.9 1.1 1.7 1.8 2.4zm3.8-17.6c-.7-.7-1.7-1.1-2.7-1.2-.5 0-1.1 0-1.5.4-.3.3-.5.8-.6 1.2.1-1.1.2-2.3 1.6-2.5 1.4-.3 2.6-.1 3.4 1.3 0 .2-.1.5-.2.8zm4.5-.2c-.6-.3-1.4-.2-2 0-.2.1-.4.2-.6.2.5-.5.9-1 1.7-1.2 1.1-.2 2 .1 2.9.8v1.1c0 .3-.1.7-.1 1-.6-.9-1.1-1.6-1.9-1.9zm-3.6.7c-.1.1-.2.1-.3.2a.78.78 0 0 0-.4-.4c.2 0 .5.1.7.2z"/><path d="M27.7 148.6c.5-1.4 1.6-2.1 2.8-.6.4.5.8.6 1.4.4 0 .1 0 .2-.1.2-.3-.1-.7 0-.9.3-.6-.4-1.2-.8-1.9-.8-.5 0-1 .3-1.3.6v-.1z"/></g><path d="M9.1 158.7c1-.1 2.1-.3 3.1-.5.6-.1.7-.5.8-1 .1-.6-.3-.9-.7-1.2-.4-.4-1-.6-1.2-1.3 2.6.1 5-.1 7.4-.7 2.5-.6 4.7-1.8 7.1-2.7.1.9.4 1.8.7 2.6 0 0 0 .1-.1.1-.6.8-1.8 1.2-2.7 1.5-1.1.4-2.2.6-3.4.8a26.93 26.93 0 0 1-4 .3c.6.2 1.2.5 1.8.8.2.1.4.2.5.4.1.3-.1.7-.4.9-.9.7-2 1-3.2 1.1-2.5.3-4.9.3-7.4.1-1-.3-1.9-.8-2.5-1.2h4.2z" fill="#8f9190"/><path d="M67 151.3a1.38 1.38 0 0 1-.3-.4c1.1-1.1.8-2.5.6-3.9 7.9 1.3 15.7 1.4 23.6.3-.2.9-.1 1.8.2 2.6-.2.2-.4.4-.6.7-.5.6-.9 2.1-1.8 2.2-.7.1-1.1-.7-1.3-1.3-.2.8-.7 1.6-1.4 1.8-.8.2-1.7-.4-1.6-1.2 0 .8-.9 1.4-1.7 1.2-.8-.1-1.4-.9-1.6-1.6.1 1-.4 2-1.2 2.5a2.38 2.38 0 0 1-1.6-2.2c-.1.7-.6 1.3-1.3 1.6-.7-.3-1.3-.9-1.4-1.7-.2.7-.7 1.2-1.2 1.7-.5.4-1.2.7-1.8.6-.5-.1-1-.5-1.1-1-.1.4-.4.7-.8.8-.5.1-1.1-.3-1.4-.7s-.5-1-.6-1.5c-.6.1-1.3-.1-1.7-.5zm50.9 15.5c.9.9 2.2 1.5 3.5 1.7a6.09 6.09 0 0 0 5.4-2c1.2-1.4 1.7-3.2 2.8-4.6l-.9 2.3c-.6 1.5-1.2 2.8-2.3 4-1.8 1.9-4.5 2.1-6 1.2-.7-.4-1.4-1-2-1.6-.4-.3-.5-.7-.5-1zm15.4-15.9c-.2-.6-.5-1.2-1.1-1.7-1.1-.9-2.7-1-4-.3-1.9-1.4-4.7-1.4-6.6.1-.9-.8-2.1-1.3-3.3-1.2a3.98 3.98 0 0 0-2.1.9v-.3c0-.7.2-1.1.8-1.4 1.5-.8 2.5-.7 3.8.5.4.4.8.7 1.4.5 1.4-2.2 3.8-1.8 5-.4.1.1.2.3.3.4.7.8 1.1.7 1.9 0 .3-.3.7-.5 1-.6.8-.2 1.4.2 1.9.9.7.9.9 1.7 1 2.6z" fill="#414140"/><path d="M43.9 134.5c-1-.6-1.9-1.1-2.9-1.5-.3-.1-.6-.2-1-.4.4-3.8 1.9-7.5 4.4-10.4.1-.2.3-.3.3-.5s-.1-.4-.2-.5c-.1-.2-.5-.9-.8-1.6.2-.1.5-.1.7-.2.6-.2 1.1 0 1.6.5.6.6 1.4 1.1 2.1 1.7.2.1.3.3.6.5-1.5 1.8-2.9 3.6-3.6 5.8-.5 2.1-.9 4.3-1.2 6.6zm73.2-10.8c1 2.1 1.8 4.4 2.2 6.7-1.9.1-3.6.9-5.2 1.9-1.1-3.6-.7-7.4-1.4-11-.1-.6-.1-1.2-.1-1.8l1.2-.6c1.5 1.5 2.7 3.6 3.3 4.8z" fill="#ce641d"/><path d="M32.8 43.4l-.7 1.3c-1 .2-1.6-.2-2-.9-.5-.8-.8-1.6-.8-2.6-.2-3.3.4-6.6 1.5-9.7.8-2.4 1.8-4.7 4.4-6-.3-.2-.6-.3-.8-.5-.4-.3-.8-.6-1.2-1-.4-.3-.5-.8-.3-1.2.2-.3.6-.5 1-.6s.8 0 1.2-.1c3.8-.8 7.4-2 11-3.4.4-.1.7-.3 1.1-.5-1.6-1.4-3.6-2.2-4.2-4.3.4-.5.9-.5 1.4-.5h3.4c3.4 0 6.5-.8 9.5-2.2.8-.4 1.6-.8 2.3-1.2 2.6-1.7 5-3.6 7.7-5 1.6-.9 3.3-1.6 5.1-1.9 1.8-.2 3.7-.4 5.3.7 1 .6 1.9 1.5 2.6 2.5 1.4 2.1 2.8 4.2 3.5 6.7 2.3-.1 4.5-.2 6.7.7 0-1.4-.8-2.5-1.1-3.6.4-.7 1.1-.5 1.6-.4.9.2 1.9.5 2.7.9 1.9.8 3.7 1.9 5.3 3.1.2.1.4.2.7.3.5-1.5-.6-2.5-1-3.6.5-.5.9-.6 1.5-.5 1.3.3 2.5.5 3.7.9 2.6.9 4.9 2.4 7 4.2l4 3.5c1.2 1 2.2 1 3.5 0 .5-.4.9-.8 1.4-1.1 1.2-.9 2.6-.9 3.9-.4.7.3 1.4.7 2.1 1.1 2 1.1 3.9 2.2 5.9 3.2 3.2 1.6 6.4 3 9.6 4.5 1.9.9 3.8 1.8 5.8 2.6s3.6 2.1 4.9 3.7c1 1.2 1.8 2.5 2.6 3.9 1.3 2.2 1.5 4.6 1 7-.5 2.7-2 4.9-3.5 7.1l-3.3 4.8c-1.2 1.8-2.1 3.6-2.3 5.8-.1.8.1 1.5.1 2.3a2.39 2.39 0 0 1-.2.9c-.3.3-.7.2-1 0s-.6-.4-.8-.7c-.4-.6-.8-1.2-1.3-1.8-.2.1-.3.2-.4.3l-1.5 1.8c-2.6 3-4 6.5-3.9 10.6v1.5c0 1.5-.4 1.9-1.9 1.4-.3-.1-.6-.2-.9-.4-.4-.2-.9-.4-1.5-.7 0 .3.1.6.1.8.2.7.4 1.3.5 2 .2 1.2-.4 1.8-1.6 1.6-.4-.1-.9-.2-1.3-.4-1.3-.8-2.5-1.6-3.8-2.5-.7-.5-1.3-1.1-2-1.6-.2 1 0 1.8.3 2.5l1.6 3.4c.3.6.4 1.2-.2 1.7-1.2.3-2.2-.2-3.2-1-.5-.5-1.1-.9-1.9-1.2.1 1.3.5 2.4 1 3.4.2.4.5.9.6 1.4.2.8-.3 1.2-1.1 1.1-.4-.1-.9-.2-1.3-.4-.9-.5-1.7-1-2.7-1.6.1 2.2-.3 4.4.7 6.5.2.5.3 1 .4 1.6.1.9-.2 1.2-1.1 1.2-1 0-1.8-.4-2.5-1l-.6-.6c-1.2 1.5-2.2 3-3.5 4.3-1.3 1.4-2.9 2.3-4.7 3.2 1.5 1.5 2.3 3.3 3 5.2 1 2.9 1.4 5.9 1.8 8.9.2 1.2.3 2.3.4 3.5.2 0 .2.1.3.1s.3 0 .4-.1c1.6-.7 3.2-.6 4.9-.3 2.9.6 4.8 2.4 6 5 1.7 3.5 2.6 7.2 3.2 11 .2 1.1-.2 2-.8 2.8-.2.3-.5.5-.6.7.2.7.3 1.2.4 1.8.1.8-.8.8-1 1.2.4.6.8 1.1 1.1 1.6.3.7 0 1.3-.8 1.6-.2.1-.4.1-.6.1.2.7.4 1.2.5 1.6 1.2.7 2.3 1.2 3.4 1.9.3-.1.6-.3 1-.4 1.6-.6 3.1-.1 4 1.3 1 1.6 1.5 3.4 1 5.4-.3 1-.6 2-1 3l-3 6.9c-.6 1.5-1 3-1.8 4.4-.8 1.3-1.7 2.4-3 3.2-2.1 1.2-4.2 1.4-6.4.4-.7-.3-1.3-.8-1.9-1.2-1 1.4-2.5 2.5-4 2.9-2.3.5-4.7.9-7.1.8-1.4-.1-2.8-.3-4.2-.5-2.6-.5-5.1-1.3-7.3-2.9-.6-.5-1-1-.9-1.7 0-.9.1-1.7.2-2.6 0-.4.2-.9-.1-1.3a12.59 12.59 0 0 0-1 .3c-.7.1-1.3-.1-1.8-.6s-.2-1 0-1.5v-.3c-.4-.3-.9-.7-1.3-1.1-1.7 1.1-3.2.7-4.5-.6-1.6 1.4-3.2 1-4.7 0-1.7 1.2-3.3.6-4.9-.3-1.2.6-2.4.7-3.5-.1-1 1.1-2.2.9-3.2.3-.6.3-1.1.5-1.6.8.1.5.3 1 .3 1.5.1.9-.2 1.2-1.1 1.2h-1.1c0 .6.1 1.3-.2 1.7-.5.7-.6 1.4-.6 2.2-.1 1.1-.5 2-1.1 2.8-.9 1.3-2 2.3-3.7 2.7-1.8.5-3.6.6-5.4.7-2.6.1-5.3-.1-8-.2-.8 0-1.5-.3-2.3-.6-1.5-.6-2.6-1.6-3.2-3.2-.2-.5-.3-.9-.4-1.5-1.4 1.3-3 1.9-4.8 1.6-2.1-.3-3.9-1-5.1-2.8-.9-1.3-1.6-2.8-2-4.3-.2-1-.5-2-.8-3.2-2.1.8-4.2 1.4-6.2 2.3-1.6.7-3.2 1.2-5 1.5-.8.1-1.4.1-2-.3-.1-.3-.2-.6-.2-.9h-1.2c-2.6.3-5.1-.3-7.6-1.1-1.2-.4-2.2-1-3.2-1.8l-.6-.6c-.5-.8-.3-1.4.7-1.6.4-.1.9-.1 1.4 0 2.1.3 4.1.3 6.2-.1-.6-.6-1.1-1.1-1.5-1.7-.7-.9-.4-1.8.8-2.1.5-.1 1-.1 1.5-.1 1.6-.1 3.3-.2 4.9-.4 2.6-.3 5-1.5 7.4-2.4 1.2-.4 2.1-1.1 2.5-2.4.7-2 2.2-2.5 4.2-1.7h.2c.7-1.4 2.1-1.8 3.6-1.9-.7-1.5-.7-1.5.9-2.9-.4-.2-.8-.4-1.1-.6-1-.5-1.2-1.5-.5-2.3.2-.2.4-.4.6-.5.3-.3.6-.5.9-.8-2.5-1.3-3-3.2-1.9-5.4.3-.7.5-1.5.8-2.2.8-2 1.6-4 2.5-5.9.5-1.1 1.2-2 2-3 1.2-1.5 3-2 4.8-2.5.3-.1.6-.2.8-.3l-1.7-4.1c-.9.4-1.9.3-2.8.2-1-.1-1.5-.8-1.4-1.7.7-3.5.7-7.1.9-10.7.2-3.4.2-6.8.1-10.2 0-1.5-.4-3.1-.7-4.6-.1-.5-.4-1-.6-1.6-.5.2-.9.3-1.3.5-.6.3-1.1.7-1.7.9-1 .5-2.1.9-3.1 1.5-2.5 1.5-4.4 3.6-6 6-1.6 2.2-2.9 4.7-3.7 7.3-.1.3-.4.5-.5.7-.9-.1-1.3-.5-1.5-1.2-.3-1-.9-2-1.2-3.1-.5-1.7-.9-3.4-1.3-5.2-.2.4-.4.8-.6 1.1-.2.4-.3.7-.4 1.1-1.4-.3-1.5-.4-1.5-1.5 0-.6 0-1.2.1-1.8.1-1.1.4-2.3.5-3.4.2-2.6.3-5.2.6-7.8.2-1.9.4-3.8.7-5.7.3-1.7.7-3.3 1.1-4.9.5-2.3 1.4-4.4 2.4-6.5 1.2-2.5 2.8-4.8 4.5-7 1.3-1.7 2.8-3.3 4.6-4.5 2.1-1.3 4-2.8 6.3-3.5-.6-2.2-1.7-3.8-2.7-5.3zm30.1-16c-.1 2.3-1.1 4.4-2.1 6.5-1 2-2.2 3.9-4 5.3.3.4.7.6.8.9.1.4.1.9-.1 1.2-1 1.6-1.5 3.5-2.9 5 1.4.2 2.7.5 4.1.6 3.4.4 6.7.9 10 1.5 4.7.9 9.2 2.2 13.5 4 1.4.6 2.8 1.3 4.1 2.2 3.8 2.6 7.4 5.4 10.3 9.1l2.1 2.4c2.2 2.3 3.6 5.1 4.8 8s3 5.3 5.3 7.4c.3.2.5.5.6.8.2.9-.2 1.4-1.1 1.5-.6.1-1.2 0-1.8.1-.2 0-.4 0-.6.1 1.8 4.7 2.1 9.5 1.3 14.4 1.8-.9 3.4-1.9 4.6-3.4.9-1.2 2-2.4 2.5-3.9.2-.6.7-.6 1.2-.8.7.8 1.3 1.5 2 2.2.1 0 .1-.1.2-.1-.3-1-.6-2.1-.8-3.1-.1-1-.1-2.1 0-3.2 0-1.1.1-2.2.2-3.3.4-.2.8-.3 1.2-.5 1.2.7 1.6 2.3 3.1 2.7-.8-2.6-1.2-4.6-1.1-6.3.3-.2.7-.3 1.2-.5.9 1.4 2.3 2.1 3.8 3.1l-.7-1.8c-.5-1.1-.8-2.3-.8-3.6v-1.8c-.1-.6-.2-1.3-.4-1.9-.1-.4-.4-.8-.6-1.2-.9-1.7-1.4-3.5-1.2-5.4.1-1.6.2-3.2.4-4.8l1-7.2c.7-3.9 1.5-7.8 2.8-11.6.1-.3.1-.6.3-1-1.8-.3-3.5-.7-5.4-1.1 0 .4 0 .7.1 1 .2 1.1.5 2.1.7 3.2.1.6.1 1.3.1 1.9 0 .5.1 1.2-.5 1.3-.4.1-.8-.3-1.2-.5-.3-.2-.4-.5-.6-.7-3-3.6-6.7-6.2-11-8.1h-.3c.5.7 1.1 1.4 1.5 2 1.5 2 2.5 4.3 2.9 6.8.4 2-.1 3.9-1.1 5.5-1 1.7-2.8 2.6-4.8 2.9-2.5.5-4.9.4-7.4.2-1.9-.2-3.5-1.2-4.8-2.4-2.6-2.3-3.5-5.3-3.2-8.7.3-2.5 1-4.9 2.5-7 .5-.7 1.2-1.4 1.8-2.1-.9 0-1.7-.1-2.3-.9.1-1.2.6-2.2 1.2-3.1.7-1 1.3-2 2-3 .5-.8 1.2-1.3 2.3-1.3.9 0 1.7-.2 2.6-.3 3.8-.6 7.5.1 11 1.4 4.5 1.7 8.5 4.2 11.9 7.8.9 1 1.7 2 2.5 3 0-.2.1-.4 0-.7-.3-1.1-.6-2.1-1-3.1-.9-2.2-1.8-4.4-3.6-6.1a7.55 7.55 0 0 0-1.4-1.1c-1-.6-1.7-1.4-2.2-2.5.2-.2.3-.4.5-.5 1.6-.9 3.3-1.2 5.1-.9.8.1 1.7.7 2.4 1.2 2 1.6 3.1 3.7 3.1 6.3 0 1.8-.1 3.7-.6 5.4-.5 2-.8 4.1-1.4 6.1-1 3.2-1.6 6.5-2.3 9.8-.5 2.4-.8 4.9-1 7.3-.1 1.5-.2 3-.4 4.5-.3 1.7 0 3.3.7 4.8.4 1 .9 1.9 1.4 2.9 1 2.1 4.2 4.8 6.4 5.4 0-1.3 0-2.6-.1-3.9 0-.5.2-.8.7-1 .7-.2 1-.2 1.3.6.4 1.1 1.2 1.6 2.2 2 .1-1.7.2-3.2.4-4.8.3-1.6.8-3.1 1.6-4.5.8-1.3 1.7-2.6 2.7-3.8 1-1.3 2.1-2.3 3.7-3 .3.4.5.6.8 1.1.4-3.5 2.4-6 4.2-8.6 1.3-1.9 2.7-3.8 3.8-5.9a11.57 11.57 0 0 0 1.2-4.4c.2-3.2-1.3-5.7-3.2-8.1-1.8-2.2-4.2-3.5-6.8-4.5-1.1-.4-2.1-.9-3.1-1.4l-10.1-4.7c-1.9-.9-3.7-2-5.6-3-.6-.3-1.2-.7-1.8-1-1.2-.6-2.2-.5-3.3.4-2 1.5-3.4 3.4-4.4 5.7 0 .1-.1.1-.2.3-.6.2-1 0-1.4-.6.2-1.4 1.3-2.4 1.9-3.7-1.4-.4-2.4-1.2-3.5-2.1-2-1.9-4.1-3.7-6.4-5.1a20.57 20.57 0 0 0-4.8-2.1h-.6c.4 1.1.4 2.2.2 3.3-.1.8-.7 1.2-1.5 1-.6-.2-1.2-.5-1.7-.9-2.2-1.9-4.3-2.9-6.4-3.9-.2-.1-.3-.1-.7-.2.6 1.5 1 2.8 0 4.3-1.2-.3-2.3-.7-3.6-.9-1.2-.2-2.4-.2-3.6 0 .1 1.4.7 2.6.4 4-.6.2-1-.1-1.2-.5-.2-.3-.2-.7-.3-1-.4-1.4-.7-2.7-1.1-4.1-.2-.7-.5-1.4-.9-2-.8-1.3-1.6-2.7-2.5-3.9-1.1-1.6-2.6-2.4-4.5-2.3-2 .1-3.8.6-5.6 1.5-2.8 1.5-5.3 3.5-7.9 5.2s-5.4 2.9-8.5 3.4c-2 .4-4.1.6-6.1.5-.1 0-.3.1-.4.1a12.61 12.61 0 0 0 3.2 2.1c.5.2.7.5.7 1.1-2.1 1.7-4.7 2.5-7.3 3.3-2.5.8-5 1.7-8 1.6 1 .8 1.8 1.2 2.8 1.4.2 0 .5.1.7.1.3.1.4.6.1.8-.3.3-.7.6-1.1.7-2 .4-3.1 1.8-3.9 3.5-1 2-1.6 4.2-1.9 6.4-.2 1.8-.3 3.6-.4 5.3 0 .5 0 1 .4 1.4.6-1 .9-2.1 2.3-2.2a4.67 4.67 0 0 1 .5 1c.6 1.8 1.7 3.3 2.8 4.7l.6.6c.5.4.9.6 1.6.4 2.4-.7 5-.8 7.5-1.1 1.7-.2 3.4 0 5.1-.1h.6c.8-1 1.5-2 2.3-3-2.3-1.4-2.7-3.7-2.4-6 .2-1.2.8-2.3 1.4-3.4 1.3-2.5 2.8-5 4.2-7.4-.5-.3-1.1-.6-1.7-1 .3-.3.4-.5.6-.6l1.5-.9c.6-.3.9-.6 1.1-1.3.7-2 1.2-4 2.3-5.9.9-1.5 1.8-3 3.1-4.2s2.9-2 4.6-2.3c1.3-.2 2.8-.3 4.1 0 3 .8 5.2 2.6 5.9 5.9.1.7.2 1.3.4 2 1 .4 2.1.8 3.1 1.3 1.3.6 2.5 1.4 3.7 2.1.3.2.5.7.5 1.1 0 .8-.1 1.6-.2 2.5-.2 2.3-.5 4.5-1.3 6.7-1 .4-1.6-.3-2.5-.7.1.4.2.6.3.9 1.4 3.8 1.4 7.6-.3 11.4-.8 1.8-2.1 3.1-4.1 3.6-1.1.3-2.1.8-3.1.9-3.7.5-7.1-.4-9.9-2.9-2.2-2-2.7-4.5-2.3-7.3.7-4.3 3.1-7.5 6.9-9.9-.8.1-5.7-.5-7.2-.3zm41 51.3c-.9-1.1-1.5-2.4-2-3.7-.9-2.4-2-4.6-3.5-6.7-.6-.8-1.2-1.5-1.8-2.2-3.2-3.8-6.7-7.3-10.9-10-1.8-1.2-3.8-2.2-5.9-3-3.3-1.2-6.7-2.2-10.1-2.9l-8.1-1.5c-1.8-.3-3.5-.5-5.3-.6-2.6-.2-5.2-.2-7.8-.2a32.53 32.53 0 0 0-4.4.3c-1.9.2-3.8.5-5.6 1.1-.2.1-.4.2-.5.1-1.4-.2-2.5.5-3.6 1.1-1.5.8-2.9 1.7-4.2 2.8-1.2 1-2.4 2.1-3.3 3.3-2.1 2.6-3.9 5.4-5.2 8.4-1.2 2.8-2.2 5.7-2.6 8.8-.5 3.4-1.1 6.8-1.2 10.2-.1 1.6-.3 3.3-.5 4.9 0 .4 0 .8-.1 1.4.5-.2.9-.4 1.2-.5.5.2.5.6.6.9.4 2.7.9 5.4 1.9 8 .1.2.2.3.3.6 2-4 4.3-7.6 7.9-10.7-.9.1-1.4.1-1.9.1-.8.1-1.6.1-2.5.2-.7 0-1.2-.2-1.7-.8.2-.2.3-.4.4-.5 1.3-.4 1.9-1.5 2.6-2.5s1.3-2.1 1.9-3.2c.4-.7.7-1.4.7-2.2 0-.2 0-.5.1-.7.2-.2.4-.3.7-.3.1 0 .4.3.4.4.2 1 .2 1.9-.2 2.8-.6 1.2-1.2 2.3-1.8 3.4-.3.5-.6.9-.9 1.4.2.1.3.2.4.1 1.3-.2 2.6-.4 3.9-.7 1.8-.5 3.5-1.1 5.2-1.8 1.5-.6 2.8-1.7 4.2-2.6 1.4-1 2.3-2.3 2.9-3.9.1-.3.2-.7.5-1 .4-.5.4-1.1.4-1.7 0-1.2.1-2.4.2-3.6 0-.5-.1-1-.4-1.4-1-1.4-2.2-2.6-3.9-3.1-1.2-.4-2.4-.9-3.6-1.3-2.8-.7-3.7-2.2-4.1-5s1.7-4.6 3.5-5c1.6-.4 3.3-.6 5-.8 3-.4 5.9-.3 8.9-.3 2.3 0 4.6.4 6.9.8.4.1.7.2 1.1.3 1.4.3 2.1 1.4 2.2 2.7.3 2.1-.2 4.2-1.4 6-.7 1-1.8 1.5-3 1.8-1.5.4-3 .7-4.5 1.1l-1.8.6c-1.6.5-2.5 1.8-3.4 3.1-.2.1-.2.4-.2.7v4.8c0 .5.2 1 .5 1.4.5.6 1 1.2 1.4 1.8.9 1.2 2.2 2 3.4 2.8 3.1 2 6.5 3.1 10 4.1 2.8.8 5.6 1.1 8.5 1.6 1.2.2 2.4.3 3.9.5-.9-1-1.5-1.8-2.2-2.6-.3-.3-.5-.6-.8-1s-.5-.8-.2-1.3c.4-.5.8-.7 1.4-.6 1 .2 2.1.3 3.1.5 1.8.4 3.7.3 5.5.1 2.2-.2 4.4-.4 6.5-1.1 2.2-.7 4.4-1.3 6.5-2.3-3.8-.3-6.9-1.7-9.7-4.2.3-.6.7-.8 1.2-.6.4.1.8.4 1.2.6 1.4.7 2.8 1.4 4.2 2 1.3.6 2.7.8 4.1.3.2-.1.4-.1.7-.2.5.5.6 1 .3 1.6-.3.5-.5 1.1-1 1.5-.4.4-1 .6-1.6.9 1.9 3.1 3 6.6 3.4 10.2 1.9-1.6 2.1-1.1 3.5.1 2 1.9 3.1 4.4 3.7 7.1a8.3 8.3 0 0 0 .6 2.1c.7-2.8 1.8-5.5 1.6-8.5l-.3-4.9c-.1-.7-.3-1.3-.5-2-.3-1-.7-2.1-1-3.1-.2-.7 0-1 .6-1.1.7-.2 1.4-.2 2.2-.4-1-.9-1.9-2-2.8-3.1zm.3 29.6c-1.4.1-1.7-.2-1.7-1.4 0-2.5-.2-5-.9-7.5-.3-.9-.6-1.7-1-2.8l-.4.8c-.4 1.1-.7 2.2-1.1 3.2l-3.1 8.1a.76.76 0 0 1-.2.4c-.7 1.6-2.4 1.8-3.5.4-.3-.4-.6-.9-.9-1.4l-2.3 4.3c-.2.4-.4 1-.4 1.4.1 4-1.6 7.2-4.6 9.7-1 .9-2.2 1.6-3.5 2.2-2.5 1.3-5 1.3-7.4-.3-.1-.1-.3-.2-.5-.3-1.6 2-3.6 3.4-6 4.5v7.8c0 2.6-.2 5.2-.2 7.9a72.63 72.63 0 0 0 24.6.6c.1-.2.2-.4.2-.5l.2-7.1c0-2.1.2-4.2.5-6.3.2-1 .2-2.1.3-3.1.1-1.4.2-2.8.4-4.2l.6-5.4c.1-.6.1-1.3.2-2 .3-.1.6-.3.8-.4.5.4.5.9.5 1.4-.1 1.6-.2 3.1-.4 4.7-.2 2-.5 4.1-.7 6.1-.2 1.9-.4 3.8-.5 5.7v.7l-.2 9.2c0 1-.1 1.9-.5 2.8-.6 1.5.2 3.2 1.9 3.6 1.9.4 3.8.8 5.8.4.7-.1 1.4 0 2.1-.1 2.3-.1 4.6-.3 6.5-1.7.1-.1.2-.1.4-.2h.3c.3.3.3.7.1 1-.5.5-1.1 1.1-1.7 1.3-.9.4-1.9.6-2.9.7-1.9.2-3.9.4-5.9.5-1.5.1-2.9 0-4.3-.4-.3-.1-.7-.1-1.1-.1-.4.6-.8 1.2-1.2 1.9 1.1.6 2.2 1.1 3.4 1.2 2.6.2 5.2.4 7.8.2 3.5-.2 7-.6 10.4-1.8.3-1.6.4-3.3.2-5-.1-.5-.1-1-.1-1.5.1-2.4-.4-4.7-.7-7.1-.6-4-1.4-8-2-12-.2-1.6-.2-3.2-.3-4.8-.2-2.9-.5-5.7-.8-8.6-.2-2.1-.5-4.3-.9-6.4s-1.1-4-2.2-5.9c-.2-.4-.6-.8-1-1.3l-2.1 6.9zm-30.5 1.6c-.5.5-.6.5-1.4 0 1-1.8 2.2-3.5 4-4.8.8-.6 1.4-1.3 2.1-1.9l4.7-3.7c-.6-.3-1.2-.7-1.8-.9-1.8-.6-3.7-1.1-5.6-1-2 .1-3.8.6-5.5 1.8-1.8 1.3-3.1 2.9-3.9 5-.2.6-.5 1.1-.7 1.6-.2.4-.4.7-.6 1-.6-.1-.8-.3-.8-.7 0-.2 0-.4.1-.5.8-2.9 2.1-5.6 4.8-7.2.4-.2.7-.5 1.2-.9-.4-.2-.6-.4-.8-.4-2.4-.8-4.9-1.2-7.4-.7-2.8.6-5 2.1-6.5 4.4-2 3.1-3.4 6.4-4.1 10.1-.5 2.4-.8 4.8-.8 7.2 0 4 1.9 6.8 5.2 8.8 1.6.9 3.4 1.5 5.4 1.5 1.4 0 2.8 0 4.3-.1.9-.1 1.7-.5 2.6-.9 3-1.6 4.7-4.1 5.5-7.2.5-1.9.9-3.8 1.3-5.8.2-1 .2-2.1.4-3.1.2-1.2.5-2.5.9-3.9-1.2.7-1.9 1.5-2.6 2.3zm-13.3 19.9c-2.6-.1-4.9-1.1-6.9-2.6-1.5-1.1-2.5-2.6-3.5-4.3-1.4 1.5-2.5 3.1-3.1 5.1-.7 2.2-1.1 4.5-1.2 6.9-.2 4.1-.5 8.1-.8 12.2-.1 1.3-.3 2.6-.4 4-.1.7 0 1.5 0 2.3 1.8 1 3.7 1.8 5.7 2.1 3.7.5 7.4.4 11.1.1 1.1-.1 2.2-.2 3.3-.4.4 0 .7-.2 1-.3.2-1-.1-1.9-.4-3-.8.2-1.7.4-2.4.7-2.2.8-4.4.4-6.5.3-1.8-.1-3.4-.7-4.9-1.5l-.6-.3c-.3-.2-.7-.4-.7-.9 0-.6.5-.7.9-.8 1.4.8 2.9 1.6 4.5 1.9 3.1.6 6.2.5 9.2-.7 1.2-.5 1.5-.8 1.4-2.1 0-.4-.1-.7-.2-1.1-.4-1.1-.5-2.1-.4-3.2l.3-13.3c0-.2.1-.5.1-.8-2.1-.3-3.8-.3-5.5-.3zM46.9 83.1c.4 3.3.8 6.6 1.4 9.9.4 2.6 1 5.2 2.2 7.6.5 1 .9 1.4 2 2.2.4-.7.9-1.5 1.3-2.2 2.1-3.4 5.2-5.3 9.2-5.8 2.4-.3 4.6.2 6.9.9.4.1.8.3 1.1.6.6.5 1.1.5 1.8.3 3.2-.9 6.3-.2 9.3.7.9.3 1.6.8 2.5 1.3 1.2-.6 1.9-1.7 2.5-2.8.7-1.3 1.4-2.6 1.9-4 .7-2.1.5-4.1-1-5.9-.7-.9-1.5-1.3-2.7-1-3.1.7-6.3.9-9.6.7-.8-.1-1.7-.2-2.8-.4.9 1 1.7 1.7 2.4 2.5.6.6.7 1.2.3 2-.1.2-.3.3-.5.4-.3.1-.6.1-1 .1-1.5-.1-3-.3-4.5-.5-1.2-.1-2.4-.2-3.5-.5-1.9-.4-3.8-.9-5.7-1.3-3.4-.8-6.7-2.1-9.7-4-1.2-.8-2.4-1.7-3.7-2.6-.2.6-.2 1.2-.1 1.8zm31.4 35.2c.8.5.4 1.4.8 2.2.2-.1.5-.2.7-.4.4-.3.7-.6 1.1-.8 2.8-1.8 5-4.2 6.7-7 1-1.7 2.1-3.4 2.7-5.4 0-.2.1-.3.2-.5.2-.5.4-1 1-1s1 .4 1.2 1c.3.7.6 1.3 1 2 .1.2.3.4.6.8 1.4-5 4.1-9.3 4.9-14.3l-.9-.9c-.8.7-1.5 1.4-2.3 2.2l-1.2-.6c.6-2.4 0-4.7-.7-6.8-.7-1.8-.9-4-2.8-5.3-.9.3-1.9.6-2.9 1 .2.3.4.6.6.8 2.1 2.2 2.3 4.8 1.5 7.5-.4 1.4-1.2 2.8-1.9 4.1-.9 1.9-2.4 3.2-4.2 4.2a31.88 31.88 0 0 0-4.2 3c-1.6 1.3-2.5 3.1-2.9 5-.4 1.5-.6 3-.8 4.6-.2 2-.5 4-1.1 5.9-.1.2-.1.4-.1.9 1-1 1.7-2.1 3-2.2zm-11.9 32.8l.6 2.3c.4 1.7.3 2-1.2 3 0 1 .3 2 .8 3 .6-.1 1.1-.3 1.5-.9.5-.8 1.2-.8 1.9-.1.2.2.5.4.7.6.7-.5.9-1.5 2.1-1.4.2.2.4.5.6.8.6.7.8.8 1.6.2.4-.3.8-.5 1.3-.8l.8.8c.3.3.6.6 1 .7.9.4 1.3.3 1.8-.5.3-.5.7-.8 1.4-.8.2.3.3.6.5.9.9 1.1 1.8 1.2 2.7.1.4-.5.8-.9 1.6-.9.2.3.5.7.7 1.1.8 1 1.3 1.1 2.3.3.2-.2.4-.3.7-.5.6-.3.9-.2 1.3.3l1 1.3c.6-1.6.6-3.1.7-4.5-.5-.3-1-.5-1.4-.8-.9-.7-.9-1.5-.2-2.4.1-.2.3-.3.4-.5.3-.4.4-.7.1-1.1-.1-.2-.3-.4-.4-.6-.5-1.1-.9-2.2-.6-3.4-8 1.1-15.8 1-23.6-.3.4 1.5.7 3.1-.7 4.1zm-24.3-39c.6-.4 1.2-.9 1.9-1.4.1.4.3.7.2.9-.1.4-.3.8-.5 1.3a30.9 30.9 0 0 1 1.4 3.2c.6 1.4 2.5 3.4 3.9 4 0-2.7-.2-5.3.4-7.9s1.2-5.1 2.3-7.6c-2-1.2-3-3.1-3.7-5.2-.9-2.7-1.5-5.4-1.8-8.2l-1-7.8c-.1-.6 0-1.3-.1-1.9-.1-.9-.2-1.7-.4-2.6-1.2 2.4-3.2 4-5.4 5.5.3.7.6 1.4.8 2.1.7 2.1 1 4.2 1 6.3l-.5 13.2c-.1 1.9-.3 3.8-.5 5.7v.8c.9.4 1.4 0 2-.4zm75.8 47.7a7.55 7.55 0 0 1 1.1 1.4c.4.7 0 1.4-.8 1.5h-1.6c0 .2 0 .4.1.4.7 1.2 1 2.4 1.3 3.8.1.3.1.7.4.8.6.6 1.3 1.2 2 1.6 1.5.9 4.2.7 6-1.2 1.1-1.1 1.8-2.5 2.3-4 .7-1.9 1.5-3.7 2.3-5.6.6-1.5 1.4-2.9 1.9-4.4.7-2 .8-3.9-.3-5.8-.4-.7-1.1-1-1.9-.9-.4.1-.8.3-1 .6-.8.7-1.2.7-1.9 0-.1-.1-.2-.3-.3-.4-1.2-1.4-3.6-1.8-5 .4-.6.2-1-.1-1.4-.5-1.4-1.2-2.3-1.3-3.8-.5-.6.3-.8.8-.8 1.4v4.4c0 .9-.1 1.7-.9 2.3.4 1.6 1 3.3 2.3 4.7zm1.3-117.7c-.1-.7-.3-1.4-.4-2.2s.2-1.3 1-1.3c1 0 2 .1 3 .1.4 0 .8.1 1.4.2-1-1.6-2.2-2.8-3.5-3.9-3.8-3.3-8.1-5.6-13-6.8-1.7-.4-3.4-.7-5.2-.6-1.5.1-3.1.3-4.6.5-.2 0-.5.2-.7.4l-3.2 5c1.8.2 3.3.4 4.9.5 7.6.7 14.2 3.7 19.6 9.2l.7.7s.1 0 .2.1c0-.6-.1-1.3-.2-1.9zM62.1 25.7c5.5.4 11 1.1 16.4 2.5 2 .5 3.9 1.3 5.8 2.4.8-1.1.6-2.4.8-3.7.2-1.2.3-2.5.4-3.8-1.6-1.3-3.3-2.1-5.1-2.7-2.7-.9-5.4-1.5-8.3-1.7-1.8-.1-3.7-.2-5.5-.2h-.9c-.2.7.2 1 .4 1.5.2.4.5.8.6 1.2.2.7-.1.9-.8 1.2l-6.6 2.8v.2l2.8.3zm-22 121.1c-1.1.2-1.5 1.2-2.3 1.8-.3-.1-.7-.3-1.1-.4.1-.4.2-.7.3-1-.8-1.3-2.1-1.5-3.4-1.3-1.4.3-1.5 1.4-1.6 2.6-.6.2-1 .1-1.4-.4-1.2-1.5-2.3-.9-2.8.6-.6 1.5-.6 2.9-.1 4.4.4 1 .7 2.1 1.2 3.1 1 2 1.6 4.2 2 6.4.3 1.5 1 2.7 1.9 3.9 1.3 1.9 4.9 2.5 6.5 1.5.9-.6 1.3-1.5 2.1-2.1-.1-.1-.2-.3-.3-.3-.9-.6-.9-.8-.5-1.7s.8-1.7 1.2-2.6c-.6-.4-1.1-.8-1.7-1.2v1.6c0 .6-.1 1.3-.2 1.9-.4 1.7-2.3 2.6-3.5 2.4-.5-.1-1.1-.2-1.6-.4a1.65 1.65 0 0 1-1-1c-.7-2.4-1.2-4.8-1-7.3.1-1.3.9-2.2 2-2.5 2.2-.6 5 .3 5.2 3.3 0 .5.2 1 .3 1.8l2.5-4.4c.2-.4.4-.9.3-1.3-.3-1.8-.1-3.7.1-5.5v-1.1c-1.2-.8-2.1-1-3.1-.8zm7.1 17.5c.3-.3.6-.7 1-.9.8-.5 1.4-.2 1.6.7.1.4 0 .9.4 1.2.5-.1.8-.5 1-.8.4-.8 1-.9 1.9-1.1.2.3.5.6.7.9s.3.5.6.8c1 1 1.5.9 2.3-.2.2-.2.3-.5.4-.7.6-.7 1.3-.7 1.9 0 .4.4.9.8 1.3 1.2.6-.3.5-.7.5-1.1 0-.8.5-1.3 1.4-1.3.5.5 1.1 1 2 1.7-.2-.6-.3-1-.3-1.3v-1c.7-.9 1.5-.4 2.4-.2-.9-1.8-2-3.2-1.9-5.1-.3-.1-.4-.1-.6-.1-3.5.4-7 .6-10.5.5-2.9-.1-5.6-.5-8.2-1.8l-.6-.3c-.8 1.4-1.5 2.8-2.3 4.2.4 0 .8.1 1.2.1.5.7.3 1.4-.1 2.1-.3.6-.6 1.2-1 1.9 1.2-.2 1.6-1.5 2.9-1.4.8.7.4 2 1.3 2.9.2-.4.5-.6.7-.9zm47.3-2.2c.9-.3 1.2-.1 1.4.8l.3 1.2c.6 0 1-.4 1.4-.7.3-.3.6-.7 1-.9.4-.3.9-.4 1.4-.5.3.6.5 1 .8 1.4.6.9 1.2.8 1.8 0 .2-.2.3-.5.4-.7.4-.4 1.2-.6 1.6.2.1.2.2.5.4.7.5.6 1.1.6 1.6 0 .1-.1.2-.3.3-.5.4-.7.4-.7 1.4-1 .8.5 1.3 1.6 2.6 1.7.3-.9.1-2.1 1.5-2.1.7.4 1.5.8 2.2 1.2l.2-.2c.1-.4-.4-.8.1-1.1.4-.2.8-.3 1.3-.5h.6c-.6-.9-1.1-1.7-1.6-2.6s-.8-1.8-1.2-2.8c-2 .4-4.1 1-6.2 1.2-2.2.3-4.4.3-6.6.3-2.1 0-4.3-.1-6.6-.2l-.3 2.8c-.2.9-.5 1.8-.8 2.8.3-.2.6-.3 1-.5zm18.2-40.8c.6 3.6.3 7.3 1.4 11 1.8-1 3.5-1.9 5.5-1.9 1.9 0 3.9 0 5.7 1.2 0-.5.1-.8 0-1.1-.7-2.5-1.3-5-2.4-7.4-.5-1.1-1.1-2.2-2.1-3-2.4-2-5.1-2.2-8.1-.6-.1.6-.1 1.2 0 1.8zm-96 38.9l.7 1.7 10.6-3.4c-.8-2.4-2.1-4.6-2.5-7.3-2.4.9-4.6 2.1-7.1 2.7-2.4.6-4.9.8-7.4.7.2.8.8 1 1.2 1.3s.8.7.7 1.2c0 .5-.2.9-.8 1-1 .2-2.1.4-3.1.5-1.3.1-2.7 0-4.2 0 2.3 1.8 7.7 3.1 11.9 1.6zm31.5-38.7c-.7-.6-1.5-1.1-2.1-1.7-.5-.5-1-.6-1.6-.5-1 .3-2 .6-3 1-.9.4-1.7 1.1-2.3 1.9-1.7 2.4-2.6 5.2-3.7 8-.2.6-.4 1.2-.7 1.9 1.1 0 2.1-.1 3.1 0s2.1.5 3 .9c1 .4 1.9 1 2.9 1.5.3-2.3.6-4.5 1.3-6.7.7-2.3 2.1-4 3.6-5.8-.1-.2-.3-.3-.5-.5zm65 49.2c1.8 0 3-1.2 3.1-2.8 0-1.2-.1-2.5-.6-3.4-1.1-.3-2-.6-3.1-.9-.1.2-.2.5-.3.8-.4.9-.8 1.1-1.7.8-.6-.2-1.1-.5-1.6-.7-.2-.1-.4-.2-.6-.4-.7.5-1.2 1.4-2.2 1.4-.9 0-1.6-.5-2.4-1-1.4 1.2-2.4 1.1-4.5-.4-1.7 1.3-1.7 1.3-3.2 1.6-.3.7-.2 1.4-.1 2.1 0 .6.5.9.9 1.1 1.4.8 2.9 1.4 4.4 1.8l3.1.6c.6-1.2.2-2.3.1-3.5.3-.2.6-.4 1-.6 1.1 1.2.7 2.7.7 4.2 1.8.3 3.6-.2 5.4-.2.2-1.5-.2-2.8-.5-4.3.3-.2.7-.3 1.1-.5.8 1.4.9 2.9 1 4.3zm2.1-30.4c.3 1.8.5 3.6.8 5.5 2-1.2 3.8-1 5.5.3.7-.3 1.3-.6 2-1l-.6-2c-.2-.9-.2-.9.6-1.4.1-.1.3-.2.5-.3-.4-.5-.7-.9-1-1.3-.6-.9-.4-1.3.6-1.7.2-.1.4-.2.7-.3-1.3-.9-1.8-2.2-1.9-3.6 0-.8-.2-1.5-.3-2.3-2.6-.8-5.5.2-7.8 2.8.3 1.7.7 3.5.9 5.3zm-52.8 25c-.1.3-.2.5-.3.8-.5.9-1 1.2-2 .8a4.67 4.67 0 0 1-1-.5c-.3-.2-.6-.4-.9-.7-.6 1-1.4 1.7-2.7 1.6s-2-.9-2.8-1.6c-2.2 1.8-2.9 1.8-4.5.2-.7.6-1.5.7-2.4.6-1-.2-1.4-.9-1.6-2-.2.3-.5.5-.5.7-.3.9-.6 1.8-.7 2.8-.3 1.9 1.2 3.6 3 3.7l.9-3.6c.2-.7.6-1 1.4-.8.3.5.1 1.1-.1 1.6-.4 1-.5 2-.4 3.2.9 0 1.8.1 2.7.1h2.6c.1-1 .1-2 .2-3s.5-1.4 1.7-1.6c.2 1.5-.6 3-.1 4.6 1.9.1 3.9-.1 5.7-.8 1.9-.8 3.1-3.1 2.8-5.4-.3-.2-.6-.4-1-.7zm-25.8-25.4c1 .1 1.3.6.8 1.5-.2.4-.6.7-.9 1s-.6.4-.9.7c.8 1 1.1 2.2 2.4 2.9 1.5-.9 3.2-.9 5.1-.3.1-3.2.7-6.4.7-9.5-1.9-1.3-3.8-2.4-6.2-2.6-.4 2.2-.4 4.5-2.8 5.8.6.6 1.2.5 1.8.5zM73.2 12c-1.3-.3-2.7-.2-4.1 0-2.1.3-3.5 1.6-4.7 3.3-1.6 2.2-2.6 4.6-3.2 7.3 1.3-.4 2.4-.9 3.6-1.5l-.9-2.3c-.2-.8 0-1.1.7-1.3s1.5-.3 2.3-.4c3.7-.2 7.4.1 11.1 1.1-.2-3.3-1.9-5.5-4.8-6.2zm21.2 37.1c-1.1-4.4 3.3-7.8 3.6-7.9.3-.2 2.8-1.8 4.5-2 1.2-.1 2.5-.2 3.7.3.1 0 .2 0 .4-.1-.2-.3-.3-.5-.5-.8-1.1-1.4-2.3-2.4-4.2-2.6a16.96 16.96 0 0 1-3.1-.6c-.8-.2-1.4 0-2.1.4-1 .6-1.7 1.5-2.3 2.5-1.3 2.1-2 4.4-2.1 6.9-.1 2.2.4 4.2 2.1 6.1v-2.2zM69.4 35c1.5-2.2 3.7-3.3 6.4-3.4 2.1 0 4 .4 6 1.6-.5-1.1-.9-1.8-1.3-2.6-.1-.3-.5-.5-.7-.6-2.2-.6-4.4-1.4-6.8-1.2-.8.1-1.5.2-2 .7-2.5 2.1-4.7 4.4-5.5 7.7-.4 1.5-.6 3.1-.1 4.6.3 1.2 1 2.1 2.3 2.9-1.1-3.7-.3-6.8 1.7-9.7zm-9.7-8.2c-.9 1.4-1.7 2.8-2.6 4.2-.9 1.5-1.7 2.9-2.5 4.4-.7 1.2-1.1 2.5-.9 3.9.1 1 .4 2 1.3 2.7.2-.3.5-.7.8-1-.3-.3-.6-.5-.9-.7-.5-.5-.5-1-.1-1.4.3-.4.7-.7 1.1-1 .9-.7 1.7-1.6 2.2-2.6 1.3-2.2 2.5-4.6 3.2-7.1.1-.3.2-.6.3-1-.7-.2-1.3-.3-1.9-.4zm14.9 95.6c-.4.2-.6.8-.9 1.2 1.8 1.5 3.7 1.9 5.8 1.1 2.8-1.1 5-3 6.6-5.5.6-1 .8-2.2 1.2-3.6-.9 1-1.6 1.7-2.3 2.4-.6.6-1.2 1.1-1.8 1.6-1.4 1.1-2.8 2.1-4.1 3.2-.1.1-.3.3-.4.3-.8.4-1.6 0-1.6-.9 0-.4 0-.7.1-1.2-1 .5-1.9.9-2.6 1.4zm45.6-96.2c2.5 1.3 4 3.4 5.2 5.8.5 1 .9 2 1.5 3.1.1-.2.2-.3.2-.4.2-1.8.3-3.5-.1-5.3-.5-1.8-1.7-3.1-3.2-3.9-1.3-.7-2.6-.5-4 .2.2.2.3.4.4.5zM99.9 44.1c0 .9.7 1.6 1.7 1.6.9 0 1.6-.8 1.6-1.9 0-1-.4-1.4-1.5-1.4-1.2.1-1.8.6-1.8 1.7zM74.3 35c-1.4 0-1.9.6-1.7 2 .1.7.4 1.2 1 1.3.8.2 1.3-.1 1.7-.8.4-.8.5-1.5.1-2.5-.3.1-.7 0-1.1 0zM56 62.3c.7-.8 1.3-1.7 1-2.9-.3-.2-.7-.4-1-.6-.9.8-.9.8-1.7 3.9.6-.1 1.2.1 1.7-.4zm68 70.3c-.1 1.1.2 2.2.6 3.2 1.4-1.4 1.2-2.2-.6-3.2zm-87.7 1.2c-.8-.2-1.3.2-1.8.7.1.7.6 1 1.2 1.3l.6-2zm84.1 29.2c0-.1 0 .1 0 .3 0 2 1.6 3.3 3.6 2.8 1.3-.3 2.3-1 2.8-2.3.6-1.5 1.3-2.9 1.7-4.5.1-.4.1-.7.1-1.1.1-1.5-.8-2.6-2.3-2.7-.5 0-1-.1-1.5 0-1.1.1-2.1.6-2.8 1.6-1.2 1.6-1.7 3.6-1.6 5.9zm11.3-12.8c-1.5-.1-2.3.6-2.2 1.8 0 .8.5 1.3 1.3 1.4.7.1 1.1-.3 1.3-1.1.2-.5 0-1.3-.4-2.1zm-5-.1c0-.9-.6-1.6-1.3-1.6-.9.1-1.7.8-1.7 1.5.1.9.8 1.6 1.8 1.5.8 0 1.2-.5 1.2-1.4z"/><path d="M120.4 150.4c0-.9-.4-1.4-1.1-1.5-.8 0-1.7.7-1.7 1.4 0 .8.8 1.5 1.8 1.5.6 0 1-.5 1-1.4zm-79.9-.7c-.9 0-1.9.9-1.9 1.6 0 .6.9 1.3 1.9 1.3.7 0 1.2-.5 1.2-1.4-.1-1-.5-1.5-1.2-1.5zm-5.9-.6c-.9 0-1.6.7-1.6 1.5s.8 1.3 1.9 1.3c.7 0 1-.4.9-1.3 0-1.1-.4-1.6-1.2-1.5zm-5.6 2.7c.1.9.6 1.4 1.4 1.6.2.1.5.1.6 0 .6-.3.7-1.1.4-1.8-.3-.6-.8-.9-1.4-.7-.4.1-.9.3-1 .9z"/><defs ><path id="B" d="M70.4 28.3c-1.1-.5-6-1-7.5-.9-.1 2.3-1.1 4.4-2.1 6.5-1 2-2.2 3.9-4 5.3.3.4.7.6.8.9.1.4.1.9-.1 1.2-1 1.6-1.5 3.5-2.9 5l4.1.6c3.4.4 6.7.9 10 1.5 4.7.9 9.2 2.2 13.5 4 1.4.6 2.8 1.3 4.1 2.2 3.8 2.6 7.4 5.4 10.3 9.1l2.1 2.4c2.2 2.3 3.6 5.1 4.8 8s3 5.3 5.3 7.4c.3.2.5.5.6.8.2.9-.2 1.4-1.1 1.5-.6.1-1.2 0-1.8.1-.2 0-.4 0-.6.1 1.8 4.7 2.1 9.5 1.3 14.4 1.8-.9 3.4-1.9 4.6-3.4.9-1.2 2-2.4 2.5-3.9.2-.6.7-.6 1.2-.8.7.8 1.3 1.5 2 2.2.1 0 .1-.1.2-.1-.3-1-.6-2.1-.8-3.1-.1-1-.1-2.1 0-3.2 0-1.1.1-2.2.2-3.3.4-.2.8-.3 1.2-.5 1.2.7 1.6 2.3 3.1 2.7-.8-2.6-1.2-4.6-1.1-6.3.3-.2.7-.3 1.2-.5.9 1.4 2.3 2.1 3.8 3.1l-.7-1.8c-.5-1.1-.8-2.3-.8-3.6v-1.8c-.1-.6-.2-1.3-.4-1.9-.1-.4-.4-.8-.6-1.2-.9-1.7-1.4-3.5-1.2-5.4.1-1.6.2-3.2.4-4.8l1-7.2c.7-3.9 1.5-7.8 2.8-11.6.1-.3.1-.6.3-1-1.8-.3-3.5-.7-5.4-1.1 0 .4 0 .7.1 1 .2 1.1.5 2.1.7 3.2.1.6.1 1.3.1 1.9 0 .5.1 1.2-.5 1.3-.4.1-.8-.3-1.2-.5-.3-.2-.4-.5-.6-.7-3-3.6-6.7-6.2-11-8.1h-.3c.5.7 1.1 1.4 1.5 2 1.5 2 2.5 4.3 2.9 6.8.4 2-.1 3.9-1.1 5.5-1 1.7-2.8 2.6-4.8 2.9-2.5.5-4.9.4-7.4.2-1.9-.2-3.5-1.2-4.8-2.4-2.6-2.3-3.5-5.3-3.2-8.7.3-2.5 1-4.9 2.5-7 .5-.7 1.2-1.4 1.8-2.1-.9 0-1.7-.1-2.3-.9.1-1.2.6-2.2 1.2-3.1.7-1 1.3-2 2-3 .5-.8 1.2-1.3 2.3-1.3.9 0 1.7-.2 2.6-.3 3.8-.6 7.5.1 11 1.4 4.5 1.7 8.5 4.2 11.9 7.8.9 1 1.7 2 2.5 3 0-.2.1-.4 0-.7-.3-1.1-.6-2.1-1-3.1-.9-2.2-1.8-4.4-3.6-6.1a7.55 7.55 0 0 0-1.4-1.1c-1-.6-1.7-1.4-2.2-2.5.2-.2.3-.4.5-.5 1.6-.9 3.3-1.2 5.1-.9.8.1 1.7.7 2.4 1.2 2 1.6 3.1 3.7 3.1 6.3 0 1.8-.1 3.7-.6 5.4-.5 2-.8 4.1-1.4 6.1-1 3.2-1.6 6.5-2.3 9.8-.5 2.4-.8 4.9-1 7.3-.1 1.5-.2 3-.4 4.5-.3 1.7 0 3.3.7 4.8.4 1 .9 1.9 1.4 2.9 1 2.1 4.2 4.8 6.4 5.4 0-1.3 0-2.6-.1-3.9 0-.5.2-.8.7-1 .7-.2 1-.2 1.3.6.4 1.1 1.2 1.6 2.2 2 .1-1.7.2-3.2.4-4.8.3-1.6.8-3.1 1.6-4.5.8-1.3 1.7-2.6 2.7-3.8 1-1.3 2.1-2.3 3.7-3 .3.4.5.6.8 1.1.4-3.5 2.4-6 4.2-8.6 1.3-1.9 2.7-3.8 3.8-5.9a11.57 11.57 0 0 0 1.2-4.4c.2-3.2-1.3-5.7-3.2-8.1-1.8-2.2-4.2-3.5-6.8-4.5-1.1-.4-2.1-.9-3.1-1.4l-10.1-4.7c-1.9-.9-3.7-2-5.6-3-.6-.3-1.2-.7-1.8-1-1.2-.6-2.2-.5-3.3.4-2 1.5-3.4 3.4-4.4 5.7 0 .1-.1.1-.2.3-.6.2-1 0-1.4-.6.2-1.4 1.3-2.4 1.9-3.7-1.4-.4-2.4-1.2-3.5-2.1-2-1.9-4.1-3.7-6.4-5.1a20.57 20.57 0 0 0-4.8-2.1h-.6c.4 1.1.4 2.2.2 3.3-.1.8-.7 1.2-1.5 1-.6-.2-1.2-.5-1.7-.9-2.2-1.9-4.3-2.9-6.4-3.9-.2-.1-.3-.1-.7-.2.6 1.5 1 2.8 0 4.3-1.2-.3-2.3-.7-3.6-.9-1.2-.2-2.4-.2-3.6 0 .1 1.4.7 2.6.4 4-.6.2-1-.1-1.2-.5-.2-.3-.2-.7-.3-1-.4-1.4-.7-2.7-1.1-4.1-.2-.7-.5-1.4-.9-2-.8-1.3-1.6-2.7-2.5-3.9-1.1-1.6-2.6-2.4-4.5-2.3-2 .1-3.8.6-5.6 1.5-2.8 1.5-5.3 3.5-7.9 5.2s-5.4 2.9-8.5 3.4c-2 .4-4.1.6-6.1.5-.1 0-.3.1-.4.1a12.61 12.61 0 0 0 3.2 2.1c.5.2.7.5.7 1.1-2.1 1.7-4.7 2.5-7.3 3.3-2.5.8-5 1.7-8 1.6 1 .8 1.8 1.2 2.8 1.4.2 0 .5.1.7.1.3.1.4.6.1.8-.3.3-.7.6-1.1.7-2 .4-3.1 1.8-3.9 3.5-1 2-1.6 4.2-1.9 6.4-.2 1.8-.3 3.6-.4 5.3 0 .5 0 1 .4 1.4.6-1 .9-2.1 2.3-2.2a4.67 4.67 0 0 1 .5 1c.6 1.8 1.7 3.3 2.8 4.7l.6.6c.5.4.9.6 1.6.4 2.4-.7 5-.8 7.5-1.1 1.7-.2 3.4 0 5.1-.1h.6c.8-1 1.5-2 2.3-3-2.3-1.4-2.7-3.7-2.4-6 .2-1.2.8-2.3 1.4-3.4 1.3-2.5 2.8-5 4.2-7.4-.5-.3-1.1-.6-1.7-1 .3-.3.4-.5.6-.6l1.5-.9c.6-.3.9-.6 1.1-1.3.7-2 1.2-4 2.3-5.9.9-1.5 1.8-3 3.1-4.2s2.9-2 4.6-2.3c1.3-.2 2.8-.3 4.1 0 3 .8 5.2 2.6 5.9 5.9.1.7.2 1.3.4 2 1 .4 2.1.8 3.1 1.3 1.3.6 2.5 1.4 3.7 2.1.3.2.5.7.5 1.1 0 .8-.1 1.6-.2 2.5-.2 2.3-.5 4.5-1.3 6.7-1 .4-1.6-.3-2.5-.7.1.4.2.6.3.9 1.4 3.8 1.4 7.6-.3 11.4-.8 1.8-2.1 3.1-4.1 3.6-1.1.3-2.1.8-3.1.9-3.7.5-7.1-.4-9.9-2.9-2.2-2-2.7-4.5-2.3-7.3 1-3.8 3.4-7 7.2-9.3z"/><path id="C" d="M106.7 82.1l-2.8-3.4c-.9-1.1-1.5-2.4-2-3.7-.9-2.4-2-4.6-3.5-6.7l-1.8-2.2c-3.2-3.8-6.7-7.3-10.9-10-1.8-1.2-3.8-2.2-5.9-3-3.3-1.2-6.7-2.2-10.1-2.9l-8.1-1.5c-1.8-.3-3.5-.5-5.3-.6-2.6-.2-5.2-.2-7.8-.2a32.53 32.53 0 0 0-4.4.3c-1.9.2-3.8.5-5.6 1.1-.2.1-.4.2-.5.1-1.4-.2-2.5.5-3.6 1.1-1.5.8-2.9 1.7-4.2 2.8-1.2 1-2.4 2.1-3.3 3.3-2.1 2.6-3.9 5.4-5.2 8.4-1.2 2.8-2.2 5.7-2.6 8.8-.5 3.4-1.1 6.8-1.2 10.2-.1 1.6-.3 3.3-.5 4.9 0 .4 0 .8-.1 1.4.5-.2.9-.4 1.2-.5.5.2.5.6.6.9.4 2.7.9 5.4 1.9 8 .1.2.2.3.3.6 2-4 4.3-7.6 7.9-10.7-.9.1-1.4.1-1.9.1-.8.1-1.6.1-2.5.2-.7 0-1.2-.2-1.7-.8.2-.2.3-.4.4-.5 1.3-.4 1.9-1.5 2.6-2.5s1.3-2.1 1.9-3.2c.4-.7.7-1.4.7-2.2 0-.2 0-.5.1-.7.2-.2.4-.3.7-.3.1 0 .4.3.4.4.2 1 .2 1.9-.2 2.8-.6 1.2-1.2 2.3-1.8 3.4-.3.5-.6.9-.9 1.4.2.1.3.2.4.1 1.3-.2 2.6-.4 3.9-.7 1.8-.5 3.5-1.1 5.2-1.8 1.5-.6 2.8-1.7 4.2-2.6 1.4-1 2.3-2.3 2.9-3.9.1-.3.2-.7.5-1 .4-.5.4-1.1.4-1.7 0-1.2.1-2.4.2-3.6 0-.5-.1-1-.4-1.4-1-1.4-2.2-2.6-3.9-3.1-1.2-.4-2.4-.9-3.6-1.3-2.8-.7-3.7-2.2-4.1-5s1.7-4.6 3.5-5c1.6-.4 3.3-.6 5-.8 3-.4 5.9-.3 8.9-.3 2.3 0 4.6.4 6.9.8.4.1.7.2 1.1.3 1.4.3 2.1 1.4 2.2 2.7.3 2.1-.2 4.2-1.4 6-.7 1-1.8 1.5-3 1.8-1.5.4-3 .7-4.5 1.1l-1.8.6c-1.6.5-2.5 1.8-3.4 3.1-.2.1-.2.4-.2.7v4.8c0 .5.2 1 .5 1.4.5.6 1 1.2 1.4 1.8.9 1.2 2.2 2 3.4 2.8 3.1 2 6.5 3.1 10 4.1 2.8.8 5.6 1.1 8.5 1.6 1.2.2 2.4.3 3.9.5-.9-1-1.5-1.8-2.2-2.6-.3-.3-.5-.6-.8-1s-.5-.8-.2-1.3c.4-.5.8-.7 1.4-.6 1 .2 2.1.3 3.1.5 1.8.4 3.7.3 5.5.1 2.2-.2 4.4-.4 6.5-1.1 2.2-.7 4.4-1.3 6.5-2.3-3.8-.3-6.9-1.7-9.7-4.2.3-.6.7-.8 1.2-.6.4.1.8.4 1.2.6 1.4.7 2.8 1.4 4.2 2 1.3.6 2.7.8 4.1.3.2-.1.4-.1.7-.2.5.5.6 1 .3 1.6-.3.5-.5 1.1-1 1.5-.4.4-1 .6-1.6.9 1.9 3.1 3 6.6 3.4 10.2 1.9-1.6 2.1-1.1 3.5.1 2 1.9 3.1 4.4 3.7 7.1a8.3 8.3 0 0 0 .6 2.1c.7-2.8 1.8-5.5 1.6-8.5l-.3-4.9c-.1-.7-.3-1.3-.5-2-.3-1-.7-2.1-1-3.1-.2-.7 0-1 .6-1.1.7 0 1.4 0 2.2-.1z"/><path id="D" d="M106.4 101.3l-2.2 6.9c-1.4.1-1.7-.2-1.7-1.4 0-2.5-.2-5-.9-7.5l-1-2.8-.4.8-1.1 3.2-3.1 8.1a.76.76 0 0 1-.2.4c-.7 1.6-2.4 1.8-3.5.4-.3-.4-.6-.9-.9-1.4l-2.3 4.3c-.2.4-.4 1-.4 1.4.1 4-1.6 7.2-4.6 9.7-1 .9-2.2 1.6-3.5 2.2-2.5 1.3-5 1.3-7.4-.3-.1-.1-.3-.2-.5-.3-1.6 2-3.6 3.4-6 4.5v7.8c0 2.6-.2 5.2-.2 7.9a72.63 72.63 0 0 0 24.6.6c.1-.2.2-.4.2-.5l.2-7.1c0-2.1.2-4.2.5-6.3.2-1 .2-2.1.3-3.1.1-1.4.2-2.8.4-4.2l.6-5.4c.1-.6.1-1.3.2-2 .3-.1.6-.3.8-.4.5.4.5.9.5 1.4-.1 1.6-.2 3.1-.4 4.7-.2 2-.5 4.1-.7 6.1-.2 1.9-.4 3.8-.5 5.7v.7l-.2 9.2c0 1-.1 1.9-.5 2.8-.6 1.5.2 3.2 1.9 3.6 1.9.4 3.8.8 5.8.4.7-.1 1.4 0 2.1-.1 2.3-.1 4.6-.3 6.5-1.7.1-.1.2-.1.4-.2h.3c.3.3.3.7.1 1-.5.5-1.1 1.1-1.7 1.3-.9.4-1.9.6-2.9.7-1.9.2-3.9.4-5.9.5-1.5.1-2.9 0-4.3-.4-.3-.1-.7-.1-1.1-.1-.4.6-.8 1.2-1.2 1.9 1.1.6 2.2 1.1 3.4 1.2 2.6.2 5.2.4 7.8.2 3.5-.2 7-.6 10.4-1.8.3-1.6.4-3.3.2-5-.1-.5-.1-1-.1-1.5.1-2.4-.4-4.7-.7-7.1-.6-4-1.4-8-2-12-.2-1.6-.2-3.2-.3-4.8-.2-2.9-.5-5.7-.8-8.6-.2-2.1-.5-4.3-.9-6.4s-1.1-4-2.2-5.9c-.1-.4-.5-.8-.9-1.3z"/><path id="E" d="M75.9 107.4l-2.2 2.4c-.5.5-.6.5-1.4 0 1-1.8 2.2-3.5 4-4.8.8-.6 1.4-1.3 2.1-1.9l4.7-3.7c-.6-.3-1.2-.7-1.8-.9-1.8-.6-3.7-1.1-5.6-1-2 .1-3.8.6-5.5 1.8-1.8 1.3-3.1 2.9-3.9 5-.2.6-.5 1.1-.7 1.6-.2.4-.4.7-.6 1-.6-.1-.8-.3-.8-.7 0-.2 0-.4.1-.5.8-2.9 2.1-5.6 4.8-7.2.4-.2.7-.5 1.2-.9-.4-.2-.6-.4-.8-.4-2.4-.8-4.9-1.2-7.4-.7-2.8.6-5 2.1-6.5 4.4-2 3.1-3.4 6.4-4.1 10.1-.5 2.4-.8 4.8-.8 7.2 0 4 1.9 6.8 5.2 8.8 1.6.9 3.4 1.5 5.4 1.5 1.4 0 2.8 0 4.3-.1.9-.1 1.7-.5 2.6-.9 3-1.6 4.7-4.1 5.5-7.2.5-1.9.9-3.8 1.3-5.8.2-1 .2-2.1.4-3.1-.1-1.3.2-2.5.5-4z"/><path id="F" d="M65.7 129.8h-5.3c-2.6-.1-4.9-1.1-6.9-2.6-1.5-1.1-2.5-2.6-3.5-4.3-1.4 1.5-2.5 3.1-3.1 5.1-.7 2.2-1.1 4.5-1.2 6.9-.2 4.1-.5 8.1-.8 12.2-.1 1.3-.3 2.6-.4 4-.1.7 0 1.5 0 2.3 1.8 1 3.7 1.8 5.7 2.1 3.7.5 7.4.4 11.1.1 1.1-.1 2.2-.2 3.3-.4.4 0 .7-.2 1-.3.2-1-.1-1.9-.4-3-.8.2-1.7.4-2.4.7-2.2.8-4.4.4-6.5.3-1.8-.1-3.4-.7-4.9-1.5l-.6-.3c-.3-.2-.7-.4-.7-.9 0-.6.5-.7.9-.8 1.4.8 2.9 1.6 4.5 1.9 3.1.6 6.2.5 9.2-.7 1.2-.5 1.5-.8 1.4-2.1 0-.4-.1-.7-.2-1.1-.4-1.1-.5-2.1-.4-3.2l.3-13.3c-.2-.5-.2-.7-.1-1.1z"/><path id="G" d="M46.7 81.2c0 .7 0 1.3.1 2l1.4 9.9c.4 2.6 1 5.2 2.2 7.6.5 1 .9 1.4 2 2.2l1.3-2.2c2.1-3.4 5.2-5.3 9.2-5.8 2.4-.3 4.6.2 6.9.9.4.1.8.3 1.1.6.6.5 1.1.5 1.8.3 3.2-.9 6.3-.2 9.3.7.9.3 1.6.8 2.5 1.3 1.2-.6 1.9-1.7 2.5-2.8.7-1.3 1.4-2.6 1.9-4 .7-2.1.5-4.1-1-5.9-.7-.9-1.5-1.3-2.7-1-3.1.7-6.3.9-9.6.7-.8-.1-1.7-.2-2.8-.4.9 1 1.7 1.7 2.4 2.5.6.6.7 1.2.3 2-.1.2-.3.3-.5.4-.3.1-.6.1-1 .1-1.5-.1-3-.3-4.5-.5-1.2-.1-2.4-.2-3.5-.5-1.9-.4-3.8-.9-5.7-1.3-3.4-.8-6.7-2.1-9.7-4-1.4-1-2.5-1.9-3.9-2.8z"/><path id="H" d="M75.1 120.3c1.2-.8 1.9-1.8 3.2-2 .8.5.4 1.4.8 2.2.2-.1.5-.2.7-.4.4-.3.7-.6 1.1-.8 2.8-1.8 5-4.2 6.7-7 1-1.7 2.1-3.4 2.7-5.4 0-.2.1-.3.2-.5.2-.5.4-1 1-1s1 .4 1.2 1c.3.7.6 1.3 1 2 .1.2.3.4.6.8 1.4-5 4.1-9.3 4.9-14.3l-.9-.9c-.8.7-1.5 1.4-2.3 2.2l-1.2-.6c.6-2.4 0-4.7-.7-6.8-.7-1.8-.9-4-2.8-5.3-.9.3-1.9.6-2.9 1 .2.3.4.6.6.8 2.1 2.2 2.3 4.8 1.5 7.5-.4 1.4-1.2 2.8-1.9 4.1-.9 1.9-2.4 3.2-4.2 4.2a31.88 31.88 0 0 0-4.2 3c-1.6 1.3-2.5 3.1-2.9 5-.4 1.5-.6 3-.8 4.6-.2 2-.5 4-1.1 5.9-.2 0-.2.2-.3.7z"/><path id="I" d="M67.3 147c.3 1.5.6 3.1-.9 4.1l.6 2.3c.4 1.7.3 2-1.2 3 0 1 .3 2 .8 3 .6-.1 1.1-.3 1.5-.9.5-.8 1.2-.8 1.9-.1.2.2.5.4.7.6.7-.5.9-1.5 2.1-1.4.2.2.4.5.6.8.6.7.8.8 1.6.2.4-.3.8-.5 1.3-.8l.8.8c.3.3.6.6 1 .7.9.4 1.3.3 1.8-.5.3-.5.7-.8 1.4-.8.2.3.3.6.5.9.9 1.1 1.8 1.2 2.7.1.4-.5.8-.9 1.6-.9.2.3.5.7.7 1.1.8 1 1.3 1.1 2.3.3.2-.2.4-.3.7-.5.6-.3.9-.2 1.3.3l1 1.3c.6-1.6.6-3.1.7-4.5-.5-.3-1-.5-1.4-.8-.9-.7-.9-1.5-.2-2.4.1-.2.3-.3.4-.5.3-.4.4-.7.1-1.1-.1-.2-.3-.4-.4-.6-.5-1.1-.9-2.2-.6-3.4-7.8 1.1-15.6 1-23.4-.3z"/><path id="J" d="M40.2 112.5c.8.3 1.3 0 1.9-.4l1.9-1.4c.1.4.3.7.2.9-.1.4-.3.8-.5 1.3a30.9 30.9 0 0 1 1.4 3.2c.6 1.4 2.5 3.4 3.9 4 0-2.7-.2-5.3.4-7.9s1.2-5.1 2.3-7.6c-2-1.2-3-3.1-3.7-5.2-.9-2.7-1.5-5.4-1.8-8.2l-1-7.8c-.1-.6 0-1.3-.1-1.9l-.4-2.6c-1.2 2.4-3.2 4-5.4 5.5l.8 2.1c.7 2.1 1 4.2 1 6.3l-.5 13.2-.5 5.7c.1.3.1.5.1.8z"/><path id="K" d="M116.2 152.7c-.1-1.5 0-2.9 0-4.4 0-.7.2-1.1.8-1.4 1.5-.8 2.5-.7 3.8.5.4.4.8.7 1.4.5 1.4-2.2 3.8-1.8 5-.4.1.1.2.3.3.4.7.8 1.1.7 1.9 0 .3-.3.7-.5 1-.6.8-.2 1.4.2 1.9.9 1.2 1.9 1.1 3.8.3 5.8-.5 1.5-1.3 2.9-1.9 4.4l-2.3 5.6c-.6 1.5-1.2 2.8-2.3 4-1.8 1.9-4.5 2.1-6 1.2-.7-.4-1.4-1-2-1.6-.2-.2-.3-.5-.4-.8-.2-1.3-.6-2.6-1.3-3.8-.1-.1 0-.2-.1-.4h1.6c.8-.1 1.2-.8.8-1.5-.3-.5-.7-.9-1.1-1.4-1.3-1.3-1.9-3-2.6-4.7 1.1-.5 1.2-1.3 1.2-2.3zm4.2 10.6c0 2 1.6 3.3 3.6 2.8 1.3-.3 2.3-1 2.8-2.3.6-1.5 1.3-2.9 1.7-4.5.1-.4.1-.7.1-1.1.1-1.5-.8-2.6-2.3-2.7-.5 0-1-.1-1.5 0-1.1.1-2.1.6-2.8 1.6-1.2 1.7-1.7 3.6-1.7 5.9.1-.1.1.1.1.3zm9-11.2c0 .8.5 1.3 1.3 1.4.7.1 1.1-.3 1.3-1.1.2-.6 0-1.4-.4-2.2-1.4 0-2.2.6-2.2 1.9zm-4-3.6c-.9.1-1.7.8-1.7 1.5.1.9.8 1.6 1.8 1.5.8 0 1.2-.6 1.2-1.5s-.6-1.5-1.3-1.5zm-6.1.4c-.8 0-1.7.7-1.7 1.4 0 .8.8 1.5 1.8 1.5.7 0 1.1-.6 1.1-1.5-.1-.8-.5-1.4-1.2-1.4z"/><path id="L" d="M42.9 148.6c-.3 1.8-.4 3.6-.1 5.5.1.4-.1.9-.3 1.3-.7 1.4-1.5 2.8-2.5 4.4l-.3-1.8c-.2-3-3-3.9-5.2-3.3-1.2.3-1.9 1.2-2 2.5-.2 2.5.3 4.9 1 7.3.2.6.5.9 1 1 .5.2 1.1.3 1.6.4 1.2.2 3.2-.7 3.5-2.4.1-.6.2-1.3.2-1.9V160l1.7 1.2-1.2 2.6c-.4.9-.3 1.1.5 1.7l.3.3c-.8.6-1.2 1.6-2.1 2.1-1.6 1-5.2.4-6.5-1.5-.8-1.2-1.5-2.5-1.9-3.9-.5-2.2-1.1-4.3-2-6.4-.5-1-.8-2-1.2-3.1-.5-1.5-.5-2.9.1-4.4.5-1.4 1.6-2.1 2.8-.6.4.5.8.6 1.4.4.1-1.1.2-2.3 1.6-2.6s2.6-.1 3.4 1.3l-.3 1c.4.2.8.3 1.1.4.9-.6 1.3-1.6 2.3-1.8 1.1-.2 2 .1 2.9.8.2.4.2.8.2 1.1zm-4.3 2.7c0 .6.9 1.3 1.9 1.3.7 0 1.2-.5 1.2-1.4 0-1-.4-1.6-1.1-1.6-1.1.1-2.1.9-2 1.7zm-5.6-.7c0 .8.8 1.3 1.9 1.3.7 0 1-.4.9-1.3 0-1-.4-1.5-1.2-1.4-.9-.1-1.7.6-1.6 1.4zm-2.6 2.8c.2.1.5.1.6 0 .6-.3.7-1.1.4-1.8-.3-.6-.8-.9-1.4-.7-.5.2-.9.4-1.1.9.2.9.7 1.4 1.5 1.6z"/><path id="M" d="M46.5 165.1c.3-.3.5-.6.7-.8.3-.3.6-.7 1-.9.8-.5 1.4-.2 1.6.7.1.4 0 .9.4 1.2.5-.1.8-.5 1-.8.4-.8 1-.9 1.9-1.1.2.3.5.6.7.9s.3.5.6.8c1 1 1.5.9 2.3-.2.2-.2.3-.5.4-.7.6-.7 1.3-.7 1.9 0l1.3 1.2c.6-.3.5-.7.5-1.1 0-.8.5-1.3 1.4-1.3.5.5 1.1 1 2 1.7-.2-.6-.3-1-.3-1.3v-1c.7-.9 1.5-.4 2.4-.2-.9-1.8-2-3.2-1.9-5.1-.3-.1-.4-.1-.6-.1-3.5.4-7 .6-10.5.5-2.9-.1-5.6-.5-8.2-1.8l-.6-.3c-.8 1.4-1.5 2.8-2.3 4.2.4 0 .8.1 1.2.1.5.7.3 1.4-.1 2.1-.3.6-.6 1.2-1 1.9 1.2-.2 1.6-1.5 2.9-1.4.8.6.3 2 1.3 2.8z"/><path id="N" d="M93.4 162.5c.4-.1.7-.3 1.1-.4.9-.3 1.2-.1 1.4.8l.3 1.2c.6 0 1-.4 1.4-.7.3-.3.6-.7 1-.9.4-.3.9-.4 1.4-.5.3.6.5 1 .8 1.4.6.9 1.2.8 1.8 0 .2-.2.3-.5.4-.7.4-.4 1.2-.6 1.6.2.1.2.2.5.4.7.5.6 1.1.6 1.6 0 .1-.1.2-.3.3-.5.4-.7.4-.7 1.4-1 .8.5 1.3 1.6 2.6 1.7.3-.9.1-2.1 1.5-2.1l2.2 1.2.2-.2c.1-.4-.4-.8.1-1.1.4-.2.8-.3 1.3-.5h.6l-1.6-2.6c-.5-.9-.8-1.8-1.2-2.8l-6.2 1.2c-2.2.3-4.4.3-6.6.3-2.1 0-4.3-.1-6.6-.2l-.3 2.8-.9 2.7z"/><path id="O" d="M112.6 119.5c0 .6 0 1.2.1 1.8.6 3.6.3 7.3 1.4 11 1.8-1 3.5-1.9 5.5-1.9 1.9 0 3.9 0 5.7 1.2 0-.5.1-.8 0-1.1-.7-2.5-1.3-5-2.4-7.4-.5-1.1-1.1-2.2-2.1-3-2.5-1.9-5.3-2.2-8.2-.6z"/><path id="P" d="M4.8 158.7c2.2 1.6 7.7 3 11.9 1.4l.7 1.7 10.6-3.4c-.8-2.4-2.1-4.6-2.5-7.3-2.4.9-4.6 2.1-7.1 2.7-2.4.6-4.9.8-7.4.7.2.8.8 1 1.2 1.3s.8.7.7 1.2c0 .5-.2.9-.8 1-1 .2-2.1.4-3.1.5-1.3.3-2.6.2-4.2.2z"/><path id="Q" d="M48.8 122c-.2-.2-.4-.3-.6-.5l-2.1-1.7c-.5-.5-1-.6-1.6-.5l-3 1c-.9.4-1.7 1.1-2.3 1.9-1.7 2.4-2.6 5.2-3.7 8l-.7 1.9h3.1c1 .1 2.1.5 3 .9 1 .4 1.9 1 2.9 1.5.3-2.3.6-4.5 1.3-6.7.8-2.2 2.2-4 3.7-5.8z"/><path id="R" d="M112.1 166.5c.9 1.4 1 2.8 1.1 4.3 1.8 0 3-1.2 3.1-2.8 0-1.2-.1-2.5-.6-3.4l-3.1-.9c-.1.2-.2.5-.3.8-.4.9-.8 1.1-1.7.8-.6-.2-1.1-.5-1.6-.7-.2-.1-.4-.2-.6-.4-.7.5-1.2 1.4-2.2 1.4-.9 0-1.6-.5-2.4-1-1.4 1.2-2.4 1.1-4.5-.4-1.7 1.3-1.7 1.3-3.2 1.6-.3.7-.2 1.4-.1 2.1 0 .6.5.9.9 1.1 1.4.8 2.9 1.4 4.4 1.8l3.1.6c.6-1.2.2-2.3.1-3.5l1-.6c1.1 1.2.7 2.7.7 4.2 1.8.3 3.6-.2 5.4-.2.2-1.5-.2-2.8-.5-4.3.3-.2.6-.3 1-.5z"/><path id="S" d="M114.4 134.8l1 5.5.8 5.5c2-1.2 3.8-1 5.5.3.7-.3 1.3-.6 2-1l-.6-2c-.2-.9-.2-.9.6-1.4.1-.1.3-.2.5-.3l-1-1.3c-.6-.9-.4-1.3.6-1.7.2-.1.4-.2.7-.3-1.3-.9-1.8-2.2-1.9-3.6 0-.8-.2-1.5-.3-2.3-2.7-1-5.6 0-7.9 2.6z"/><path id="T" d="M63.5 166l-1.1-.7-.3.8c-.5.9-1 1.2-2 .8a4.67 4.67 0 0 1-1-.5c-.3-.2-.6-.4-.9-.7-.6 1-1.4 1.7-2.7 1.6s-2-.9-2.8-1.6c-2.2 1.8-2.9 1.8-4.5.2-.7.6-1.5.7-2.4.6-1-.2-1.4-.9-1.6-2-.2.3-.5.5-.5.7-.3.9-.6 1.8-.7 2.8-.3 1.9 1.2 3.6 3 3.7l.9-3.6c.2-.7.6-1 1.4-.8.3.5.1 1.1-.1 1.6-.4 1-.5 2-.4 3.2l2.7.1h2.6l.2-3c.1-1 .5-1.4 1.7-1.6.2 1.5-.6 3-.1 4.6 1.9.1 3.9-.1 5.7-.8 2-.8 3.2-3.1 2.9-5.4z"/><path id="U" d="M34.8 139.4c.6.6 1.2.5 1.8.6 1 .1 1.3.6.8 1.5-.2.4-.6.7-.9 1s-.6.4-.9.7c.8 1 1.1 2.2 2.4 2.9 1.5-.9 3.2-.9 5.1-.3l.7-9.5c-1.9-1.3-3.8-2.4-6.2-2.6-.4 2.1-.4 4.4-2.8 5.7z"/><path id="V" d="M77.1 121l-2.6 1.4c-.4.2-.6.8-.9 1.2 1.8 1.5 3.7 1.9 5.8 1.1 2.8-1.1 5-3 6.6-5.5.6-1 .8-2.2 1.2-3.6l-2.3 2.4c-.6.6-1.2 1.1-1.8 1.6l-4.1 3.2c-.1.1-.3.3-.4.3-.8.4-1.6 0-1.6-.9.1-.4.1-.7.1-1.2z"/><path id="W" d="M124.6 135.8c1.4-1.4 1.3-2.2-.6-3.2-.1 1.1.2 2.2.6 3.2z"/><path id="X" d="M35.7 135.8l.6-2c-.8-.2-1.3.2-1.8.7.1.7.6 1 1.2 1.3z"/></defs></svg>